<svg width="398" height="136" viewBox="0 0 398 136" fill="none" xmlns="http://www.w3.org/2000/svg">
<path fill-rule="evenodd" clip-rule="evenodd" d="M292.342 18.0177C311.396 19.7844 326.272 24.9846 341.113 30.6921C389.784 49.4304 404.753 74.226 369.024 95.0282C313.473 127.277 188.339 142.111 93.3658 124.474C72.3317 120.58 43.7749 116.44 23.5614 103.252C4.75773 90.9898 6.48709 78.1138 16.3038 66.7736C26.305 55.1419 44.7184 45.0873 59.2585 38.8152C122.824 11.4589 247.676 -8.66464 357.676 14.3672C359.938 14.8211 362.258 14.4793 362.975 13.6123C363.692 12.7453 362.618 11.6854 360.518 11.243C247.287 -12.4619 118.478 8.00353 53.0529 36.1566C34.961 43.9802 11.0597 57.4854 3.43033 72.6669C-1.72885 83.047 0.597275 94.1948 16.8882 104.9C38.3526 118.943 68.6807 123.539 91.0086 127.681C189.055 145.894 318.477 130.671 375.743 97.3571C414.204 75.0027 398.385 48.3466 346.043 28.2036C330.089 22.0214 313.758 16.4992 293.076 14.5826C290.797 14.3719 288.788 14.9709 288.72 15.9285C288.489 16.8746 290.225 17.8186 292.342 18.0177Z" fill="#ED8369"/>
</svg>
