<svg width="960" height="734" viewBox="0 0 960 734" fill="none" xmlns="http://www.w3.org/2000/svg">
<path d="M646.42 182.032C651.923 182.032 656.384 177.568 656.384 172.062C656.384 166.555 651.923 162.092 646.42 162.092C640.918 162.092 636.457 166.555 636.457 172.062C636.457 177.568 640.918 182.032 646.42 182.032Z" fill="#EC615B"/>
<path d="M656.995 154.385C659.561 154.385 661.641 152.303 661.641 149.736C661.641 147.169 659.561 145.087 656.995 145.087C654.43 145.087 652.35 147.169 652.35 149.736C652.35 152.303 654.43 154.385 656.995 154.385Z" fill="#EC615B"/>
<path d="M352.41 93.8909C355.044 93.8909 357.178 91.7548 357.178 89.1199C357.178 86.4849 355.044 84.3489 352.41 84.3489C349.777 84.3489 347.643 86.4849 347.643 89.1199C347.643 91.7548 349.777 93.8909 352.41 93.8909Z" fill="#EC615B"/>
<path d="M664.391 652.281C668.847 652.281 672.459 648.666 672.459 644.207C672.459 639.748 668.847 636.133 664.391 636.133C659.935 636.133 656.322 639.748 656.322 644.207C656.322 648.666 659.935 652.281 664.391 652.281Z" fill="#EC615B"/>
<path d="M297.213 679.929C299.272 679.929 300.942 678.258 300.942 676.197C300.942 674.137 299.272 672.466 297.213 672.466C295.154 672.466 293.484 674.137 293.484 676.197C293.484 678.258 295.154 679.929 297.213 679.929Z" fill="#EC615B"/>
<path d="M343.79 404.312C345.917 404.312 347.641 402.586 347.641 400.458C347.641 398.33 345.917 396.605 343.79 396.605C341.664 396.605 339.939 398.33 339.939 400.458C339.939 402.586 341.664 404.312 343.79 404.312Z" fill="#EC615B"/>
<path d="M351.371 423.946C353.43 423.946 355.1 422.276 355.1 420.215C355.1 418.154 353.43 416.484 351.371 416.484C349.312 416.484 347.643 418.154 347.643 420.215C347.643 422.276 349.312 423.946 351.371 423.946Z" fill="#5222D0"/>
<path d="M346.908 527.929C350.756 527.929 353.876 524.807 353.876 520.956C353.876 517.105 350.756 513.983 346.908 513.983C343.059 513.983 339.939 517.105 339.939 520.956C339.939 524.807 343.059 527.929 346.908 527.929Z" fill="#5222D0"/>
<path d="M640.858 131.631C643.289 131.631 645.259 129.659 645.259 127.227C645.259 124.794 643.289 122.823 640.858 122.823C638.427 122.823 636.457 124.794 636.457 127.227C636.457 129.659 638.427 131.631 640.858 131.631Z" fill="#5222D0"/>
<path d="M473.437 139.338C475.564 139.338 477.288 137.612 477.288 135.484C477.288 133.356 475.564 131.631 473.437 131.631C471.31 131.631 469.586 133.356 469.586 135.484C469.586 137.612 471.31 139.338 473.437 139.338Z" fill="#5222D0"/>
<path d="M130.098 440.767C131.718 440.767 133.032 439.453 133.032 437.831C133.032 436.21 131.718 434.895 130.098 434.895C128.478 434.895 127.164 436.21 127.164 437.831C127.164 439.453 128.478 440.767 130.098 440.767Z" fill="#5222D0"/>
<path d="M654.183 672.466C658.234 672.466 661.518 669.18 661.518 665.126C661.518 661.073 658.234 657.786 654.183 657.786C650.132 657.786 646.848 661.073 646.848 665.126C646.848 669.18 650.132 672.466 654.183 672.466Z" fill="#5222D0"/>
<path d="M732.73 44.04C734.857 44.04 736.581 42.3147 736.581 40.1865C736.581 38.0583 734.857 36.333 732.73 36.333C730.603 36.333 728.879 38.0583 728.879 40.1865C728.879 42.3147 730.603 44.04 732.73 44.04Z" fill="#5222D0"/>
<path d="M358.583 213.411C357.971 209.618 357.421 202.034 363.473 202.645C365.673 202.89 366.896 204.847 369.341 203.991C373.925 202.401 372.886 196.467 374.781 193.042C377.898 187.537 383.95 195.55 388.595 192.92C390.123 192.063 390.49 190.473 390.429 188.822C390.307 182.644 395.747 183.072 400.209 184.295C401.37 184.601 401.859 182.827 400.698 182.521C396.175 181.298 388.656 180.87 388.473 187.415C388.412 189.005 389.267 190.595 386.945 191.574C386.211 191.88 384.989 191.513 384.316 191.329C382.727 190.84 381.321 189.739 379.671 189.311C377.531 188.699 375.453 189.127 373.986 190.84C372.152 193.042 372.214 196.039 371.358 198.608C370.441 201.361 368.668 202.951 365.673 201.605C364.451 201.055 363.35 200.566 361.945 200.749C355.649 201.605 355.954 209.251 356.749 213.9C356.993 215.062 358.766 214.573 358.583 213.411Z" fill="#5222D0"/>
<path d="M365.796 216.958C366.285 213.166 369.341 211.514 372.886 211.514C374.781 211.514 376.676 211.82 378.51 211.147C382.666 209.557 381.872 205.031 382.85 201.483C384.683 194.755 393.18 198.914 397.886 197.813C401.065 197.018 403.754 193.837 402.41 190.473C401.982 189.372 400.209 189.861 400.637 190.962C402.715 196.039 395.625 196.345 392.63 195.978C390.429 195.733 388.29 195.366 386.089 195.917C382.605 196.834 381.26 199.403 380.771 202.706C380.344 205.765 380.405 209.129 376.432 209.618C374.292 209.863 372.153 209.251 370.013 209.741C366.59 210.536 364.39 213.411 363.962 216.836C363.779 218.12 365.612 218.12 365.796 216.958Z" fill="#5222D0"/>
<path d="M492.08 66.7329C489.94 69.4242 487.679 72.7272 488.718 76.3361C489.573 79.272 491.896 80.3731 494.708 80.1896C496.358 80.0672 498.07 79.6391 499.415 81.1071C500.454 82.2081 499.781 84.5324 499.476 85.7557C498.987 87.6519 498.07 89.4869 498.253 91.5054C498.559 94.2579 500.759 96.3987 503.571 95.7871C504.732 95.5424 504.243 93.7685 503.082 94.0132C497.764 95.2365 501.432 86.3674 501.676 84.2265C501.86 82.4527 501.554 80.4954 500.209 79.2109C498.864 77.9264 497.214 78.0487 495.503 78.2322C492.813 78.538 490.307 77.6817 490.185 74.4399C490.124 71.9932 491.835 69.7912 493.302 67.9562C494.158 67.161 492.813 65.8154 492.08 66.7329Z" fill="#5222D0"/>
<path d="M506.506 65.8153C503.633 67.0387 501.8 70.0358 502.533 73.1553C502.9 74.5622 503.756 75.9078 504.978 76.7642C506.445 77.8652 508.157 77.6205 509.624 78.538C512.374 80.1895 510.174 83.4313 510.296 86.0003C510.357 87.2848 510.663 88.447 511.763 89.2422C513.413 90.5267 515.858 90.0985 516.531 88.0188C516.897 86.9178 515.125 86.4285 514.758 87.5295C512.435 87.2237 511.641 86.1838 512.313 84.41C512.435 83.7983 512.558 83.1867 512.68 82.575C512.802 81.9633 512.863 81.3517 512.863 80.74C512.863 79.4555 512.496 78.1098 511.518 77.1923C510.051 75.8467 507.79 76.3972 506.201 75.2962C502.961 73.033 504.122 68.7513 507.423 67.3445C508.523 66.9163 507.545 65.3872 506.506 65.8153Z" fill="#5222D0"/>
<path d="M106.809 427.371C105.403 425.169 105.403 422.478 106.809 420.215C108.215 418.013 110.171 417.952 112.433 417.095C115.55 415.811 115.611 412.569 115.428 409.633C115.367 408.593 115.306 407.492 115.611 406.452C116.406 404.006 118.484 404.679 120.379 404.984C121.479 405.168 122.518 404.984 123.435 404.373C124.597 403.578 125.33 402.171 125.697 400.825C126.003 399.724 126.064 398.562 126.308 397.461C126.431 396.666 126.675 395.932 127.042 395.259C128.02 393.73 129.181 393.607 130.587 394.953C130.893 396.115 132.665 395.626 132.36 394.464C131.259 390.488 126.369 392.262 125.147 395.075C124.597 396.36 124.536 397.767 124.23 399.112C124.047 399.908 123.924 400.764 123.497 401.498C122.58 403.149 120.868 402.844 119.279 402.66C117.384 402.477 115.917 402.293 114.695 404.067C113.289 406.085 113.655 408.471 113.655 410.795C113.716 413.609 113.105 414.71 110.355 415.627C109.254 415.994 108.338 416.178 107.36 416.912C103.814 419.42 102.897 424.619 105.22 428.228C105.831 429.268 107.421 428.35 106.809 427.371Z" fill="#EC615B"/>
<path d="M114.45 431.592C111.883 431.225 112.861 428.411 114.023 427.31C114.878 426.515 116.04 426.026 117.14 425.475C118.485 424.803 119.829 424.007 120.807 422.845C123.436 419.542 119.646 415.138 123.314 412.508C126.981 409.939 136.822 408.777 133.949 401.926C133.521 400.825 131.932 401.804 132.36 402.844C134.438 407.798 124.353 409.266 121.785 411.346C120.869 412.08 120.074 413.059 119.707 414.221C118.974 416.79 121.113 419.42 119.218 421.867C117.018 424.558 112.311 424.558 111.211 428.35C110.538 430.491 111.7 433.06 114.023 433.427C115.123 433.549 115.612 431.776 114.45 431.592Z" fill="#EC615B"/>
<path d="M784.502 289.441C783.707 288.034 783.83 286.505 784.685 285.159C786.03 283.202 787.62 283.63 789.698 283.813C791.104 283.936 792.387 284.242 793.732 283.446C796.116 281.978 795.749 278.92 796.177 276.596C797.155 271.152 801.862 276.106 805.04 274.394C806.202 273.782 806.629 272.62 806.874 271.397C807.302 269.011 807.424 261.916 812.008 264.791C812.986 265.402 813.964 263.812 812.925 263.2C808.83 260.692 805.529 264.852 805.162 268.705C804.918 270.907 805.162 273.048 802.228 272.742C801.189 272.62 800.15 272.069 799.111 271.947C797.461 271.764 795.994 272.253 795.077 273.721C794.038 275.434 794.404 277.574 793.977 279.409C793.06 283.569 789.514 281.244 786.642 281.734C782.791 282.407 781.018 287.055 782.852 290.297C783.463 291.398 785.052 290.481 784.502 289.441Z" fill="#EC615B"/>
<path d="M793.61 293.294C792.571 290.481 795.811 287.361 798.623 288.829C798.989 289.013 799.478 289.013 799.723 288.707C801.129 287.178 801.495 285.404 802.107 283.446C803.207 279.899 805.835 279.409 809.014 278.431C812.131 277.452 815.615 274.883 814.332 271.213C813.904 270.112 812.131 270.601 812.559 271.702C814.332 276.535 805.652 276.902 803.085 278.675C799.967 280.877 800.884 284.853 798.5 287.422C798.867 287.361 799.234 287.3 799.601 287.3C795.505 285.159 790.31 289.38 791.899 293.845C792.266 294.885 794.038 294.456 793.61 293.294Z" fill="#EC615B"/>
<path d="M546.726 309.32C546.848 309.32 548.193 312.623 548.743 313.051C549.599 313.724 550.638 313.785 551.677 313.601C553.511 313.296 554.672 311.95 556.261 311.094C559.684 309.136 559.684 312.5 561.029 314.397C562.557 316.66 564.208 315.559 565.98 314.458C567.142 313.724 568.242 313.234 569.281 314.274C569.831 314.825 570.198 315.742 570.626 316.415C571.298 317.394 572.032 318.189 573.132 318.678C574.171 319.168 575.149 317.577 574.049 317.088C571.543 315.987 571.237 311.828 568.242 311.399C566.836 311.216 566.225 312.011 565.125 312.623C563.78 313.418 562.985 313.968 562.129 312.439C561.763 311.828 561.702 310.971 561.274 310.36C559.318 307.118 556.261 308.892 553.816 310.482C553.389 310.788 552.961 311.094 552.472 311.338C551.433 311.032 550.332 310.727 549.293 310.421C548.865 309.993 548.865 308.953 548.499 308.402C547.887 307.546 547.276 307.301 546.298 307.485C545.076 307.729 545.565 309.503 546.726 309.32Z" fill="#EC615B"/>
<path d="M561.09 303.448C562.924 300.573 567.142 306.567 568.853 307.301C569.892 307.729 570.87 307.729 571.971 307.424C572.46 307.301 572.888 307.057 573.315 306.873C574.966 306.2 576.372 306.628 577.716 307.791C579.672 309.442 580.222 311.644 583.034 312.256C584.685 312.623 586.213 312.133 586.946 310.543C587.435 309.503 585.846 308.525 585.357 309.626C583.645 313.296 578.939 306.078 577.716 305.283C575.455 303.815 574.049 305.038 571.787 305.527C568.181 306.261 567.02 302.224 564.024 301.246C562.252 300.634 560.54 300.94 559.562 302.591C558.829 303.57 560.418 304.488 561.09 303.448Z" fill="#EC615B"/>
<path d="M789.514 410.367C821.971 410.367 854.428 410.367 886.947 410.367C888.108 410.367 888.108 408.532 886.947 408.532C854.489 408.532 822.032 408.532 789.514 408.532C788.352 408.532 788.352 410.367 789.514 410.367Z" fill="#E8E8E8"/>
<path d="M816.104 409.939C816.104 419.42 816.104 428.84 816.104 438.32C816.104 439.483 817.938 439.483 817.938 438.32C817.938 428.84 817.938 419.42 817.938 409.939C817.938 408.777 816.104 408.777 816.104 409.939Z" fill="#E8E8E8"/>
<path d="M861.459 409.022C861.459 395.81 861.459 382.598 861.459 369.386C861.459 368.223 859.625 368.223 859.625 369.386C859.625 382.598 859.625 395.81 859.625 409.022C859.625 410.245 861.459 410.245 861.459 409.022Z" fill="#E8E8E8"/>
<path d="M839.881 370.12C852.167 370.12 864.453 370.12 876.739 370.12C877.901 370.12 877.901 368.285 876.739 368.285C864.453 368.285 852.167 368.285 839.881 368.285C838.719 368.285 838.719 370.12 839.881 370.12Z" fill="#E8E8E8"/>
<path d="M815.736 149.858C815.736 161.296 815.736 172.735 815.736 184.112C815.736 185.274 817.57 185.274 817.57 184.112C817.57 172.673 817.57 161.235 817.57 149.858C817.57 148.696 815.736 148.696 815.736 149.858Z" fill="#E8E8E8"/>
<path d="M787.192 186.742C809.258 186.742 831.263 186.742 853.329 186.742C854.491 186.742 854.491 184.907 853.329 184.907C831.263 184.907 809.258 184.907 787.192 184.907C785.97 184.907 785.97 186.742 787.192 186.742Z" fill="#E8E8E8"/>
<path d="M852.717 186.497C852.717 194.082 852.717 201.666 852.717 209.251C852.717 210.413 854.551 210.413 854.551 209.251C854.551 201.666 854.551 194.082 854.551 186.497C854.551 185.335 852.717 185.335 852.717 186.497Z" fill="#E8E8E8"/>
<path d="M238.839 114.198C260.417 114.198 282.055 114.198 303.632 114.198C304.793 114.198 304.793 112.363 303.632 112.363C282.055 112.363 260.417 112.363 238.839 112.363C237.678 112.363 237.617 114.198 238.839 114.198Z" fill="#E8E8E8"/>
<path d="M300.941 114.015C300.941 119.887 300.941 125.759 300.941 131.631C300.941 132.793 302.775 132.793 302.775 131.631C302.775 125.759 302.775 119.887 302.775 114.015C302.775 112.791 300.941 112.791 300.941 114.015Z" fill="#E8E8E8"/>
<path d="M281.322 112.547C281.322 103.127 281.322 93.7686 281.322 84.3489C281.322 83.1868 279.488 83.1868 279.488 84.3489C279.488 93.7686 279.488 103.127 279.488 112.547C279.488 113.77 281.322 113.77 281.322 112.547Z" fill="#E8E8E8"/>
<path d="M110.66 302.714C125.575 302.714 140.489 302.714 155.404 302.714C156.565 302.714 156.565 300.879 155.404 300.879C140.489 300.879 125.575 300.879 110.66 300.879C109.499 300.879 109.499 302.714 110.66 302.714Z" fill="#E8E8E8"/>
<path d="M137.982 284.303C137.982 289.808 137.982 295.313 137.982 300.818C137.982 301.98 139.816 301.98 139.816 300.818C139.816 295.313 139.816 289.808 139.816 284.303C139.816 283.141 137.982 283.141 137.982 284.303Z" fill="#E8E8E8"/>
<path d="M127.225 285.22C135.172 285.22 143.118 285.22 151.064 285.22C152.226 285.22 152.226 283.385 151.064 283.385C143.118 283.385 135.172 283.385 127.225 283.385C126.003 283.385 126.003 285.22 127.225 285.22Z" fill="#E8E8E8"/>
<path d="M396.419 670.876C416.346 670.876 436.272 670.876 456.199 670.876C457.36 670.876 457.36 669.041 456.199 669.041C436.272 669.041 416.346 669.041 396.419 669.041C395.196 669.041 395.196 670.876 396.419 670.876Z" fill="#E8E8E8"/>
<path d="M433.217 669.041C433.217 664.759 433.217 660.478 433.217 656.135C433.217 654.973 431.383 654.973 431.383 656.135C431.383 660.416 431.383 664.698 431.383 669.041C431.383 670.264 433.217 670.264 433.217 669.041Z" fill="#E8E8E8"/>
<path d="M427.654 656.196C435.906 656.196 444.219 656.196 452.471 656.196C453.632 656.196 453.632 654.361 452.471 654.361C444.219 654.361 435.906 654.361 427.654 654.361C426.493 654.361 426.493 656.196 427.654 656.196Z" fill="#E8E8E8"/>
<path d="M112.066 638.702C131.993 638.702 151.92 638.702 171.847 638.702C173.008 638.702 173.008 636.867 171.847 636.867C151.92 636.867 131.993 636.867 112.066 636.867C110.905 636.867 110.905 638.702 112.066 638.702Z" fill="#E8E8E8"/>
<path d="M139.695 614.725C139.695 621.759 139.695 628.855 139.695 635.889C139.695 637.051 141.529 637.051 141.529 635.889C141.529 628.855 141.529 621.759 141.529 614.725C141.529 613.563 139.695 613.563 139.695 614.725Z" fill="#E8E8E8"/>
<path d="M139.695 611.973C131.748 611.973 123.741 611.973 115.795 611.973C114.633 611.973 114.633 613.807 115.795 613.807C123.741 613.807 131.748 613.807 139.695 613.807C140.856 613.807 140.856 611.973 139.695 611.973Z" fill="#E8E8E8"/>
<path d="M776.556 584.876C774.539 582.857 775.028 578.942 778.145 578.27C779.795 577.903 781.385 578.942 782.974 579.126C784.196 579.309 785.48 579.187 786.275 578.086C787.497 576.496 786.519 574.661 786.458 572.887C786.336 567.321 792.937 567.688 796.238 569.645C796.972 570.073 797.766 569.339 797.583 568.605C795.994 560.959 804.734 555.699 810.725 560.776C811.642 561.51 812.925 560.225 812.008 559.491C804.612 553.252 793.793 559.614 795.81 569.156C796.238 568.789 796.727 568.483 797.155 568.116C794.343 566.403 790.737 565.547 787.742 567.443C786.641 568.116 785.663 569.156 785.174 570.379C784.808 571.235 784.624 572.031 784.685 572.948C784.747 574.6 785.297 574.477 784.074 576.068C782.729 577.841 782.607 577.046 780.712 576.618C780.04 576.435 779.429 576.312 778.695 576.373C777.167 576.435 775.761 577.169 774.783 578.27C772.644 580.655 773.194 584.019 775.333 586.16C776.128 587.016 777.412 585.732 776.556 584.876Z" fill="#E8E8E8"/>
<path d="M788.476 586.711C787.804 581.145 796.911 581.083 799.478 577.23C800.151 576.251 800.395 575.15 800.823 574.11C801.618 572.214 803.024 570.991 805.102 570.44C808.464 569.584 811.948 571.113 815.004 572.398C816.104 572.826 816.593 571.052 815.493 570.624C809.87 568.3 802.29 566.526 799.173 573.376C798.073 575.823 797.706 577.169 795.139 578.453C793.61 579.187 792.021 579.615 790.554 580.472C788.231 581.817 786.398 583.897 786.703 586.711C786.826 587.873 788.659 587.873 788.476 586.711Z" fill="#E8E8E8"/>
<path d="M525.577 408.838C526.799 411.896 528.022 415.016 529.244 418.074C529.366 417.707 529.55 417.401 529.672 417.034C529 417.463 528.327 417.891 527.655 418.38C526.616 415.933 527.044 415.322 529 416.423C530.161 417.157 530.711 418.747 530.956 420.032C531.506 422.968 530.895 426.026 529.917 428.84C529.672 429.574 530.406 430.063 531.017 429.941C534.684 429.207 536.151 433.611 535.418 436.363C534.868 438.382 533.767 440.155 532.667 441.929C532.056 442.908 533.645 443.825 534.256 442.847C536.212 439.788 538.474 435.996 537.129 432.204C536.09 429.39 533.523 427.616 530.528 428.167C530.895 428.534 531.261 428.901 531.628 429.268C532.851 425.72 533.645 421.255 532.117 417.646C531.078 415.261 528.694 413.426 526.004 414.221C523.926 414.832 522.887 416.912 523.865 418.931C525.515 422.295 528.388 420.032 530.528 418.625C530.833 418.441 531.078 417.952 530.956 417.585C529.733 414.527 528.511 411.407 527.288 408.349C526.921 407.309 525.149 407.737 525.577 408.838Z" fill="#E8E8E8"/>
<path d="M164.083 119.459C162.921 116.523 166.833 115.727 168.667 116.767C170.073 117.562 170.99 118.969 171.846 120.254C172.64 121.416 173.496 122.7 173.924 124.046C174.413 125.208 174.352 126.309 173.741 127.41C171.601 128.389 170.501 128.144 170.44 126.737C169.89 124.719 172.029 123.373 173.863 123.434C175.758 123.496 177.53 124.597 178.814 125.942C181.014 128.267 181.809 131.325 181.503 134.444C182.054 134.261 182.665 134.139 183.215 133.955C181.992 132.181 183.154 130.285 184.804 129.368C186.21 128.634 187.799 128.817 189.144 129.551C191.345 130.713 192.873 132.854 194.279 134.811C194.951 135.79 196.54 134.873 195.868 133.894C193.545 130.652 190.061 126.126 185.477 127.166C182.115 127.9 179.425 131.814 181.626 134.873C182.176 135.668 183.215 135.301 183.337 134.383C183.887 128.572 179.609 120.621 172.763 121.599C170.318 121.966 168.545 123.679 168.545 126.187C168.545 128.144 169.767 130.163 171.846 130.285C174.291 130.469 175.941 128.083 176.063 125.881C176.247 122.823 173.863 119.52 172.029 117.257C170.318 115.238 167.811 113.525 165.122 114.565C162.921 115.36 161.454 117.562 162.371 119.826C162.738 121.049 164.511 120.56 164.083 119.459Z" fill="#E8E8E8"/>
<path d="M486.089 209.19C483.522 207.661 485.356 203.135 488.229 205.031C490.979 206.866 487.312 209.985 485.539 207.844C484.806 206.927 483.522 208.211 484.255 209.129C485.661 210.842 488.351 210.719 489.94 209.312C491.774 207.661 491.285 204.97 489.39 203.624C487.495 202.278 484.744 202.523 483.583 204.725C482.422 206.805 483.216 209.618 485.233 210.78C486.15 211.331 487.067 209.802 486.089 209.19Z" fill="#E8E8E8"/>
<path d="M680.834 75.4185C679.489 73.5224 681.812 70.6475 683.952 71.5039C683.768 71.3815 683.585 71.198 683.401 71.0757C684.563 73.0942 682.851 75.8467 680.59 75.7244C680.895 75.969 681.201 76.1525 681.445 76.3972C681.079 75.3574 680.651 74.2564 680.284 73.2165C679.856 72.1155 678.084 72.6049 678.511 73.7059C678.878 74.7457 679.306 75.8467 679.673 76.8865C679.795 77.3147 680.101 77.5594 680.529 77.5594C682.485 77.6817 684.196 76.4584 685.052 74.7457C685.724 73.4 686.091 70.5864 684.441 69.73C680.834 67.9562 677.106 73.3389 679.245 76.336C679.917 77.3147 681.507 76.3972 680.834 75.4185Z" fill="#E8E8E8"/>
<path d="M730.59 166.373C730.284 164.967 731.324 163.437 732.729 163.132C734.013 162.887 735.174 163.927 735.48 165.089C736.275 167.841 732.668 169.126 730.957 167.23C730.162 166.373 728.879 167.658 729.673 168.514C732.852 172.062 738.964 168.575 737.008 164.049C736.152 162.031 734.013 160.746 731.874 161.419C729.612 162.153 728.267 164.538 728.756 166.863C729.123 168.025 730.896 167.536 730.59 166.373Z" fill="#E8E8E8"/>
<path d="M532.177 672.65C529.855 671.549 530.038 668.368 532.177 667.145C534.256 665.983 536.212 667.022 538.107 667.879C539.696 668.613 541.53 669.286 542.935 667.879C544.219 666.655 543.975 664.759 544.036 663.169C544.28 656.991 550.27 658.214 554.366 659.744C555.466 660.172 555.955 658.398 554.855 657.97C551.248 656.563 546.236 655.217 543.363 658.765C542.508 659.805 542.263 661.028 542.202 662.313C542.141 663.169 542.508 665.065 542.019 665.86C540.674 667.879 538.84 666.044 537.434 665.432C534.745 664.27 530.894 664.576 529.243 667.389C527.838 669.775 528.693 673.017 531.199 674.179C532.3 674.729 533.217 673.139 532.177 672.65Z" fill="#E8E8E8"/>
<path d="M561.762 528.48C559.928 550.928 560.906 573.437 564.696 595.641C564.88 596.803 566.652 596.314 566.469 595.152C562.74 573.132 561.762 550.745 563.596 528.48C563.718 527.318 561.884 527.318 561.762 528.48Z" fill="#E8E8E8"/>
<path d="M562.985 529.887C572.521 533.19 582.362 535.392 592.386 536.493C601.8 537.472 612.619 538.511 621.665 534.964C622.766 534.536 622.277 532.762 621.176 533.19C612.374 536.676 601.677 535.637 592.386 534.658C582.545 533.618 572.826 531.355 563.474 528.113C562.313 527.685 561.885 529.459 562.985 529.887Z" fill="#E8E8E8"/>
<path d="M577.533 532.395C574.354 527.44 571.726 522.18 569.892 516.552C569.036 513.861 568.303 511.17 567.753 508.417C567.447 506.766 567.141 505.114 566.958 503.463C566.958 503.279 566.286 498.936 567.569 499.548C568.18 499.854 569.22 499.303 568.914 498.508C565.552 490.006 563.718 481.076 563.535 471.901C563.229 472.207 562.924 472.512 562.618 472.818C563.107 473.002 563.535 473.185 564.024 473.369C564.635 474.103 565.797 473.308 565.552 472.451C564.33 468.537 563.535 464.5 563.29 460.34C563.229 459.362 563.413 448.352 564.085 448.535C564.819 448.719 565.308 448.046 565.185 447.434C564.024 440.522 563.474 433.488 563.779 426.515C563.902 423.029 564.207 419.603 564.757 416.178C565.246 413.058 565.491 409.266 567.936 407.003C567.447 406.942 566.958 406.881 566.469 406.819C571.603 416.484 574.476 427.066 577.105 437.586C579.672 447.923 581.934 458.383 583.89 468.904C587.863 490.618 590.369 512.577 591.469 534.658C591.53 535.82 593.364 535.82 593.303 534.658C592.203 512.454 589.696 490.312 585.662 468.414C583.645 457.527 581.322 446.7 578.633 435.935C576.004 425.598 573.132 415.322 568.058 405.841C567.753 405.29 567.019 405.29 566.591 405.657C564.513 407.553 563.902 410.061 563.413 412.691C562.74 416.423 562.251 420.276 562.007 424.068C561.518 432.02 562.007 439.972 563.352 447.862C563.718 447.495 564.085 447.128 564.452 446.761C560.907 445.783 561.334 453.428 561.273 455.141C561.029 461.135 561.946 467.13 563.718 472.879C564.207 472.574 564.757 472.268 565.246 471.962C564.452 471.044 563.779 470.739 562.557 470.861C562.068 470.922 561.64 471.228 561.64 471.778C561.823 481.076 563.657 490.19 567.08 498.875C567.508 498.508 567.997 498.202 568.425 497.835C562.312 494.899 565.858 508.723 566.347 510.803C568.18 518.754 571.481 526.339 575.882 533.19C576.616 534.291 578.205 533.373 577.533 532.395Z" fill="#E8E8E8"/>
<path d="M587.251 471.289C586.701 467.374 586.579 463.399 587.068 459.484C587.19 458.505 589.513 447.006 590.674 447.495C591.285 447.801 592.019 447.434 592.08 446.7C592.447 438.871 594.892 431.898 597.765 424.68C600.637 417.524 603.449 410.612 608.217 404.434C607.789 404.434 607.361 404.434 606.933 404.434C610.417 408.41 609.99 414.465 610.173 419.42C610.417 424.986 610.601 430.552 610.662 436.118C610.784 447.067 610.601 458.016 610.112 468.965C609.073 491.352 606.566 513.678 602.777 535.759C602.593 536.921 604.366 537.41 604.549 536.248C608.523 513.249 611.029 489.945 612.068 466.579C612.557 454.835 612.679 443.091 612.435 431.347C612.312 425.475 612.19 419.603 611.762 413.731C611.518 409.878 610.906 406.085 608.217 403.088C607.911 402.721 607.239 402.721 606.933 403.088C602.227 409.205 599.293 415.933 596.481 423.09C593.364 430.797 590.735 438.259 590.307 446.7C590.796 446.455 591.224 446.15 591.713 445.905C587.985 444.253 586.762 452.205 586.273 454.346C584.928 460.096 584.806 465.906 585.662 471.717C585.601 472.941 587.373 472.451 587.251 471.289Z" fill="#E8E8E8"/>
<path d="M565.553 597.17C584.685 603.348 605.406 603.042 624.355 596.314C625.455 595.947 624.966 594.173 623.866 594.54C605.223 601.146 584.868 601.452 566.042 595.396C564.88 595.029 564.391 596.803 565.553 597.17Z" fill="#E8E8E8"/>
<path d="M621.419 534.352C622.153 544.261 622.948 554.17 623.62 564.079C624.292 574.172 624.537 584.386 622.886 594.418C622.703 595.58 624.476 596.069 624.659 594.907C626.309 585.059 626.187 575.15 625.515 565.241C624.842 554.965 624.048 544.628 623.253 534.352C623.192 533.19 621.358 533.19 621.419 534.352Z" fill="#E8E8E8"/>
<path d="M295.197 612.89C307.667 606.223 320.197 599.556 332.667 592.888C338.535 593.867 346.603 595.152 356.261 596.497C375.577 599.189 406.689 603.531 446.054 604.694C485.418 605.856 514.942 603.348 526.189 602.247C553.267 599.678 569.649 596.191 583.035 592.583C595.199 589.28 605.223 585.671 612.375 582.918C618.243 584.876 624.783 587.506 631.752 591.115C635.725 593.194 639.392 595.335 642.632 597.476C631.14 600.779 615.676 604.999 597.277 609.281C558.524 618.334 528.817 622.616 522.582 623.533C486.946 628.61 436.152 635.766 372.276 628.365C352.41 625.98 325.943 621.637 295.197 612.89Z" fill="white"/>
<path d="M294.523 612.951C294.829 615.52 295.196 618.028 295.501 620.597C300.086 621.882 306.81 623.717 315.123 625.552C331.015 629.099 347.152 631.546 368.24 633.197C446.113 639.314 508.339 633.87 508.339 633.87C539.451 631.118 569.647 628.304 608.645 616.927C623.315 612.645 635.295 608.303 643.853 604.938C643.18 602.064 642.508 599.189 641.836 596.314C639.452 597.293 635.907 598.699 631.567 600.29C602.104 611.055 577.838 614.603 556.2 617.233C508.644 623.105 484.867 625.98 449.964 626.53C410.233 627.203 356.932 624.818 294.523 612.951Z" fill="#161616"/>
<path d="M294.096 614.113C294.096 616.071 294.096 618.028 294.096 619.985C294.096 621.147 295.929 621.147 295.929 619.985C295.929 618.028 295.929 616.071 295.929 614.113C295.929 612.89 294.096 612.89 294.096 614.113Z" fill="#161616"/>
<path d="M294.77 621.698C340.43 634.054 388.107 635.644 435.113 636.317C480.284 636.929 525.761 634.971 570.26 626.714C595.321 622.065 620.016 615.275 643.854 606.039C644.955 605.611 644.466 603.837 643.365 604.265C601.311 620.597 556.629 628.916 511.702 632.402C466.409 635.889 420.687 635.094 375.393 632.341C348.315 630.628 321.481 627.081 295.259 619.985C294.097 619.618 293.608 621.392 294.77 621.698Z" fill="#161616"/>
<path d="M643.854 604.755C644.221 602.186 644.343 599.556 644.099 596.987C643.976 595.824 642.143 595.824 642.265 596.987C642.448 599.433 642.448 601.88 642.082 604.266C641.898 605.367 643.671 605.917 643.854 604.755Z" fill="#161616"/>
<path d="M295.564 613.93C308.4 607.813 320.992 601.268 333.339 594.173C334.378 593.561 333.461 592.032 332.422 592.583C320.075 599.617 307.483 606.223 294.647 612.34C293.547 612.829 294.464 614.419 295.564 613.93Z" fill="#161616"/>
<path d="M332.85 593.317C405.772 607.202 481.567 609.771 555.1 599.25C574.66 596.436 594.098 592.093 612.191 584.019C613.291 583.53 612.313 581.94 611.274 582.429C595.015 589.647 577.655 593.867 560.112 596.62C542.264 599.433 524.232 601.146 506.2 602.308C469.586 604.633 432.789 604.021 396.297 600.534C375.148 598.516 354.182 595.458 333.339 591.543C332.177 591.359 331.688 593.133 332.85 593.317Z" fill="#161616"/>
<path d="M611.824 583.714C622.704 587.261 632.912 592.216 642.448 598.516C643.426 599.189 644.343 597.598 643.365 596.926C633.707 590.564 623.316 585.549 612.313 581.94C611.152 581.573 610.663 583.347 611.824 583.714Z" fill="#161616"/>
<path d="M295.686 612.951C317.264 620.23 339.758 623.655 362.374 625.49C385.296 627.325 408.401 627.876 431.384 627.876C477.044 627.876 522.827 624.756 567.815 616.56C593.365 611.911 618.671 605.611 643.304 597.354C644.405 596.987 643.915 595.213 642.815 595.58C599.478 610.015 554.429 618.456 508.952 622.616C463.719 626.775 417.998 627.02 372.643 624.328C346.726 622.738 320.748 619.496 296.053 611.177C295.075 610.81 294.586 612.584 295.686 612.951Z" fill="#161616"/>
<path d="M330.893 263.628C405.588 246.318 482.483 242.526 558.89 241.792C580.528 241.547 602.166 241.608 623.804 241.608C624.966 241.608 624.966 239.773 623.804 239.773C547.154 239.651 470.136 239.59 394.035 250.172C372.642 253.169 351.431 256.961 330.404 261.854C329.243 262.16 329.732 263.934 330.893 263.628Z" fill="#161616"/>
<path d="M627.595 239.957C628.389 268.399 628.878 301.368 628.695 338.007C628.573 359.293 628.389 349.139 626.495 437.709C625.394 488.722 625.089 507.928 621.482 537.41C619.16 556.617 616.348 572.398 614.27 583.102C630.04 587.506 645.077 591.665 658.28 595.335C678.695 601.024 684.135 602.553 692.265 603.715C704.857 605.428 720.199 605.672 737.925 602.064C744.466 548.482 748.072 502.79 750.15 467.803C757.608 344.858 750.639 288.217 747.95 268.338C744.282 241.547 739.759 219.527 736.275 204.297C723.194 206.804 712.559 209.496 705.101 211.514C679.49 218.548 659.196 226.806 642.204 233.779C635.908 236.409 630.834 238.55 627.595 239.957Z" fill="white"/>
<path d="M206.198 205.398C205.709 210.658 205.159 217.142 204.67 222.769C194.523 338.558 189.45 396.482 187.8 433.733C186.088 473.736 185.966 531.722 194.462 603.837C195.135 605.305 196.357 607.324 198.558 608.975C201.43 611.116 204.059 611.055 209.254 612.523C213.35 613.685 215.489 614.847 217.445 615.581C223.069 617.783 235.66 620.291 251.675 619.68C274.658 618.762 292.323 611.728 305.282 606.406C317.446 601.452 327.165 596.13 333.888 592.093C330.099 558.024 327.287 522.058 325.698 484.318C322.458 404.067 325.698 330.361 332.36 264.668C329.548 263.567 325.453 262.038 320.624 260.081C312.311 256.717 292.384 248.581 257.299 231.455C243.423 224.726 226.064 215.98 206.198 205.398Z" fill="white"/>
<path d="M735.908 204.052C736.642 208.089 737.62 213.655 738.72 220.322C740.248 229.803 743.671 252.251 746.177 281.734C748.744 312.439 749.356 338.863 749.417 359.905C749.6 402.599 748.011 433.916 743.854 506.949C742.571 529.703 740.676 563.039 738.292 603.715C740.798 603.532 743.243 603.409 745.749 603.226C746.972 593.072 748.622 577.964 749.906 559.491C750.884 546.157 751.312 536.432 751.74 525.972C753.879 478.018 754.246 478.568 754.979 458.995C756.446 420.399 756.141 390.733 755.896 364.064C755.713 345.653 755.163 328.22 754.062 293.355C753.268 269.623 752.473 248.581 747.094 221.24C745.688 214.267 744.343 208.456 743.365 204.48C740.859 204.358 738.414 204.236 735.908 204.052Z" fill="#161616"/>
<path d="M196.847 206.499C196.419 208.639 195.746 211.942 195.074 215.979C193.118 227.662 192.629 236.47 192.446 239.345C191.101 260.142 188.411 270.296 184.499 316.476C183.766 324.917 183.216 332.318 182.116 347.182C179.854 377.521 178.754 392.69 177.959 409.817C177.103 428.962 176.981 442.48 176.798 469.515C176.614 492.881 176.492 509.763 177.103 531.844C177.592 549.46 178.57 573.376 180.954 601.88C185.905 603.348 190.795 604.816 195.746 606.284C195.685 603.531 195.502 598.577 195.135 592.399C193.668 564.935 191.284 553.803 190.734 530.927C190.551 523.893 190.673 519.244 190.734 512.577C191.407 464.744 190.612 442.908 191.04 411.835C191.773 361.128 195.196 321.492 198.13 287.728C200.881 255.799 203.998 228.457 206.688 207.049C203.326 206.866 200.086 206.682 196.847 206.499Z" fill="#161616"/>
<path d="M626.128 240.997C628.39 285.893 628.084 330.912 627.473 375.808C626.8 419.726 626.495 463.766 623.133 507.622C621.238 532.578 618.243 557.473 613.597 582.123C613.353 583.285 615.125 583.775 615.37 582.612C623.5 539.49 626.495 495.633 627.839 451.838C629.245 407.125 629.857 362.29 629.795 317.516C629.734 292.01 629.306 266.503 628.023 240.997C627.901 239.834 626.067 239.834 626.128 240.997Z" fill="#161616"/>
<path d="M628.39 240.997C662.314 224.176 698.317 212.065 735.481 204.908C736.642 204.664 736.153 202.89 734.992 203.135C697.705 210.352 661.519 222.586 627.473 239.406C626.434 239.957 627.35 241.547 628.39 240.997Z" fill="#161616"/>
<path d="M734.869 204.358C744.954 255.187 748.011 307.118 747.949 358.865C747.827 410.612 744.771 462.237 742.265 513.922C740.798 543.711 739.331 573.438 737.864 603.226C737.803 604.388 739.637 604.388 739.698 603.226C742.326 550.5 745.077 497.774 747.461 444.988C749.783 393.241 751.25 341.371 747.766 289.685C745.81 260.876 742.326 232.189 736.703 203.93C736.397 202.706 734.624 203.196 734.869 204.358Z" fill="#161616"/>
<path d="M613.902 582.49C616.652 585.671 621.542 586.283 625.393 587.445C630.65 589.035 635.968 590.625 641.225 592.216C651.86 595.396 662.435 598.761 673.193 601.452C694.22 606.59 715.797 607.63 737.13 603.96C738.291 603.776 737.802 602.002 736.641 602.186C715.614 605.795 694.342 604.755 673.682 599.678C663.841 597.293 654.183 594.234 644.525 591.298C639.635 589.83 634.745 588.362 629.855 586.894C627.41 586.16 624.965 585.426 622.52 584.692C619.953 583.897 617.08 583.347 615.246 581.206C614.391 580.349 613.107 581.634 613.902 582.49Z" fill="#161616"/>
<path d="M736.092 204.419C738.353 204.97 740.615 205.52 742.938 206.07C744.099 206.376 744.588 204.603 743.427 204.297C741.165 203.746 738.904 203.196 736.581 202.645C735.419 202.401 734.93 204.174 736.092 204.419Z" fill="#161616"/>
<path d="M742.815 205.459C748.927 230.17 750.577 255.983 752.35 281.367C754.184 307.301 755.162 333.297 755.59 359.354C756.323 411.04 754.551 462.726 751.617 514.351C749.966 543.588 747.888 572.826 745.749 602.064C745.687 603.226 747.521 603.226 747.582 602.064C751.433 550.072 754.917 498.08 756.568 445.966C758.218 393.975 758.096 341.861 754.795 289.869C753.023 261.61 751.433 232.617 744.648 205.031C744.282 203.807 742.509 204.297 742.815 205.459Z" fill="#161616"/>
<path d="M738.842 604.266C741.531 604.021 744.16 603.776 746.849 603.532C748.01 603.409 748.01 601.574 746.849 601.697C744.16 601.941 741.531 602.186 738.842 602.431C737.68 602.553 737.68 604.388 738.842 604.266Z" fill="#161616"/>
<path d="M330.832 264.179C326.737 306.567 324.292 349.078 323.497 391.65C322.702 434.406 323.558 477.222 326.125 519.917C327.531 543.894 329.548 567.81 331.993 591.665C332.116 592.827 333.949 592.827 333.827 591.665C329.426 549.338 326.676 506.827 325.575 464.255C324.475 421.5 325.025 378.683 327.287 335.989C328.57 312.011 330.343 288.095 332.605 264.179C332.788 263.017 330.954 263.017 330.832 264.179Z" fill="#161616"/>
<path d="M207.359 206.866C247.03 228.947 288.228 248.276 330.526 264.729C331.627 265.158 332.116 263.384 331.015 262.956C288.839 246.563 247.824 227.295 208.276 205.275C207.237 204.664 206.32 206.254 207.359 206.866Z" fill="#161616"/>
<path d="M205.465 206.438C198.68 258.185 193.973 310.237 191.406 362.413C188.839 414.588 188.472 466.824 190.183 518.999C191.161 548.298 192.812 577.597 195.135 606.835C195.257 607.997 197.091 607.997 196.968 606.835C192.812 554.782 190.856 502.545 190.978 450.37C191.1 398.134 193.423 345.959 197.824 293.906C200.33 264.668 203.509 235.553 207.298 206.438C207.421 205.275 205.587 205.275 205.465 206.438Z" fill="#161616"/>
<path d="M195.074 607.997C229.121 626.53 269.891 622.554 304.488 607.874C314.879 603.47 324.904 598.149 334.561 592.338C335.539 591.726 334.622 590.136 333.644 590.748C301.432 610.26 263.656 623.9 225.575 616.805C215.245 614.909 205.221 611.422 195.991 606.406C195.013 605.856 194.035 607.446 195.074 607.997Z" fill="#161616"/>
<path d="M181.565 602.92C185.844 604.938 190.245 606.651 194.707 608.18C195.807 608.547 196.296 606.773 195.196 606.406C190.856 604.938 186.638 603.287 182.482 601.329C181.382 600.84 180.465 602.43 181.565 602.92Z" fill="#161616"/>
<path d="M195.624 206.866C189.022 258.123 183.521 309.503 179.915 361.067C176.37 412.386 174.658 463.827 175.758 515.268C176.37 544.383 177.837 573.499 180.343 602.492C180.465 603.654 182.299 603.654 182.176 602.492C177.775 551.05 176.492 499.426 177.714 447.801C178.876 396.36 182.421 344.98 187.494 293.722C190.367 264.729 193.729 235.736 197.458 206.804C197.641 205.703 195.807 205.703 195.624 206.866Z" fill="#161616"/>
<path d="M196.663 208.15C200.208 207.416 203.753 207.172 207.421 207.355C208.582 207.416 208.582 205.581 207.421 205.52C203.631 205.337 199.902 205.642 196.174 206.376C195.012 206.621 195.501 208.395 196.663 208.15Z" fill="#161616"/>
<path d="M649.538 245.156C652.105 316.109 651.983 387.124 649.049 458.077C648.254 477.956 647.215 497.774 645.931 517.654C645.87 518.816 647.704 518.816 647.765 517.654C652.227 446.823 653.939 375.808 652.899 304.794C652.594 284.914 652.105 265.035 651.371 245.156C651.31 243.994 649.476 243.994 649.538 245.156Z" fill="#161616"/>
<path d="M679.185 219.711C681.63 269.072 682.852 318.556 682.791 367.979C682.791 417.401 681.568 466.885 679.123 516.247C677.779 544.2 676.006 572.092 673.867 599.984C673.806 601.146 675.639 601.146 675.7 599.984C679.49 550.684 682.057 501.322 683.463 451.899C684.808 402.477 684.991 352.993 683.952 303.57C683.341 275.617 682.363 247.664 681.018 219.711C680.957 218.549 679.123 218.549 679.185 219.711Z" fill="#161616"/>
<path d="M714.758 208.823C718.181 260.142 720.259 311.583 720.809 363.085C721.359 414.771 720.503 466.396 718.181 518.021C716.897 546.952 715.124 575.884 712.863 604.755C712.802 605.917 714.635 605.917 714.697 604.755C718.609 553.436 721.176 501.995 722.215 450.554C723.254 398.929 722.887 347.243 721.054 295.557C720.014 266.626 718.547 237.694 716.591 208.762C716.53 207.6 714.697 207.6 714.758 208.823Z" fill="#161616"/>
<path d="M643.243 540.591C641.837 556.617 639.27 572.52 635.541 588.179C635.297 589.341 637.008 589.83 637.314 588.668C641.104 572.826 643.671 556.8 645.077 540.591C645.199 539.429 643.365 539.429 643.243 540.591Z" fill="#161616"/>
<path d="M227.41 218.793C220.075 270.112 216.957 321.981 216.468 373.789C216.041 425.903 218.18 477.956 221.358 529.948C223.131 559.369 225.209 588.729 227.288 618.15C227.349 619.312 229.182 619.312 229.121 618.15C225.454 566.342 221.786 514.534 219.769 462.665C217.752 410.918 217.446 359.048 220.442 307.301C222.153 277.88 224.965 248.459 229.121 219.283C229.366 218.182 227.593 217.631 227.41 218.793Z" fill="#161616"/>
<path d="M262.556 235.92C257.911 285.526 254.793 335.316 253.754 385.166C252.776 434.956 253.937 484.746 258.033 534.413C260.294 561.999 263.473 589.463 267.629 616.805C267.813 617.967 269.585 617.477 269.402 616.315C261.945 567.015 257.666 517.225 256.077 467.374C254.488 418.196 255.404 368.896 258.094 319.779C259.622 291.826 261.761 263.873 264.39 235.981C264.512 234.758 262.678 234.758 262.556 235.92Z" fill="#161616"/>
<path d="M297.764 250.539C291.774 296.842 288.29 343.451 287.373 390.121C286.456 436.791 288.045 483.523 292.14 530.009C294.463 555.944 297.519 581.756 301.37 607.507C301.554 608.67 303.326 608.18 303.143 607.018C296.236 560.898 291.835 514.473 289.94 467.925C288.045 421.5 288.717 374.952 291.835 328.526C293.607 302.469 296.175 276.412 299.537 250.478C299.781 249.377 297.947 249.377 297.764 250.539Z" fill="#161616"/>
<path opacity="0.12" d="M701.066 212.982C707.851 240.691 713.352 273.17 715.186 309.565C719.77 402.171 698.01 477.834 679.061 526.4C665.675 547.87 652.349 569.339 638.963 590.809C651.983 596.436 671.298 602.981 695.381 604.938C712.007 606.284 726.433 605.061 737.68 603.226C737.802 600.534 739.819 559.614 739.941 556.923C746.604 419.848 747.032 410.49 747.276 401.07C748.377 362.718 748.193 307.668 741.653 238.978C739.391 227.295 737.13 215.613 734.868 203.991C723.682 206.927 712.374 209.924 701.066 212.982Z" fill="#3F3F3F"/>
<path opacity="0.13" d="M274.475 242.893C272.885 249.56 270.501 259.53 267.69 271.702C255.22 326.018 246.051 365.96 241.161 402.721C232.482 467.497 224.108 530.254 259.805 581.756C270.196 596.742 281.565 606.835 289.145 612.829C281.81 615.704 272.702 618.334 262.066 619.618C232.482 623.105 208.765 613.502 197.151 607.752C192.75 567.199 189.694 523.77 188.716 477.834C186.516 376.175 194.768 284.792 207.359 206.193C229.67 218.426 252.042 230.66 274.475 242.893Z" fill="#3F3F3F"/>
<path d="M210.356 177.078C209.561 177.689 210.172 180.075 211.273 184.173C211.7 185.763 212.128 186.987 212.373 187.782C211.884 191.085 211.456 194.388 210.967 197.691C209.989 197.813 207.483 198.364 205.16 200.382C203.021 202.278 202.165 204.48 201.859 205.459C203.815 205.642 206.199 206.071 208.766 206.866C212.495 208.028 215.429 209.618 217.568 210.964C217.568 211.698 217.691 213.105 218.669 214.145C219.525 215.001 220.564 215.123 221.175 215.246C223.375 215.613 226.004 216.102 229.366 216.836C230.833 217.692 233.278 219.099 236.273 220.751C246.419 226.256 250.087 227.173 260.234 232.556C266.774 236.042 266.224 236.165 270.808 238.367C277.838 241.792 283.889 243.81 287.985 244.973C289.696 243.076 292.447 239.406 293.975 234.085C295.197 229.864 295.136 226.194 294.892 223.809C295.931 224.359 297.581 224.971 299.476 224.726C304.366 224.176 307.483 218.61 308.461 214.634C309.317 211.147 308.523 208.945 307.85 204.847C306.322 195.672 304.977 187.476 308.767 182.277C311.946 177.934 318.486 175.915 323.743 170.105C324.232 169.554 325.148 168.514 324.843 168.025C324.293 167.107 320.014 168.698 317.936 169.615C316.591 170.227 306.505 174.876 303.449 185.396C302.96 187.048 302.899 191.819 302.838 201.3C302.777 208.211 302.899 212.126 300.148 214.389C298.743 215.551 296.664 216.224 294.769 215.796C291.958 215.184 290.613 212.432 289.39 210.597C286.212 205.765 281.689 203.746 276.126 200.994C271.786 198.853 268.058 198.058 260.539 196.406C253.449 194.877 251.31 195.061 248.253 192.797C244.83 190.228 242.935 186.619 241.957 184.601C240.979 182.705 239.451 179.708 238.779 175.426C238.412 172.918 238.473 171.144 237.862 171.022C236.762 170.777 236.212 175.854 232.483 177.628C230.221 178.729 228.754 177.689 224.781 177.812C222.214 177.873 219.28 178.423 215.979 179.891C214.879 179.096 211.456 176.282 210.356 177.078Z" fill="black"/>
<path d="M212.189 197.201C210.906 187.109 220.074 177.934 230.221 178.974C239.818 179.952 246.175 191.635 245.869 200.382C245.808 201.544 247.642 201.544 247.703 200.382C248.008 190.718 240.796 177.995 230.221 177.139C219.096 176.221 208.95 186.069 210.355 197.201C210.539 198.302 212.373 198.363 212.189 197.201Z" fill="black"/>
<path d="M212.007 203.563C215.735 210.842 223.743 215.98 232.117 214.879C239.757 213.839 246.237 207.661 247.398 200.015C247.581 198.853 245.809 198.364 245.625 199.526C244.586 206.499 238.841 212.126 231.872 213.044C224.232 214.083 217.019 209.312 213.596 202.645C213.046 201.605 211.457 202.523 212.007 203.563Z" fill="black"/>
<path d="M218.608 212.432C218.425 210.108 225.026 209.129 226.677 208.762C229.672 208.089 232.728 207.722 235.784 207.722C241.469 207.722 246.909 209.19 251.738 212.187C252.716 212.799 253.694 211.209 252.655 210.597C246.42 206.743 239.146 205.398 231.933 206.071C228.144 206.438 224.415 207.233 220.809 208.456C218.853 209.129 216.53 209.985 216.713 212.432C216.836 213.594 218.73 213.594 218.608 212.432Z" fill="black"/>
<path d="M244.891 191.268C248.742 195.917 254.977 197.018 260.539 198.241C267.936 199.954 275.576 201.483 282.055 205.581C295.442 214.022 297.948 232.433 287.373 244.239C286.579 245.095 287.862 246.441 288.657 245.523C298.07 235.064 298.315 219.038 288.596 208.64C283.461 203.135 276.126 200.26 268.975 198.364C261.701 196.467 251.248 196.162 246.114 189.923C245.442 189.066 244.158 190.351 244.891 191.268Z" fill="black"/>
<path d="M287.68 223.258C284.623 219.221 279.244 217.814 274.538 219.772C268.731 222.157 268.425 229.314 269.098 234.758C269.22 235.92 271.054 235.92 270.931 234.758C270.381 230.476 270.32 223.87 274.721 221.729C278.511 219.833 283.462 220.812 286.029 224.237C286.763 225.154 288.352 224.237 287.68 223.258Z" fill="black"/>
<path d="M270.686 233.901C267.324 231.332 263.84 229.13 259.5 230.293C259.011 230.415 258.766 230.965 258.889 231.394C259.989 235.675 266.713 237.449 270.258 238.978C275.698 241.364 281.26 243.382 286.884 245.156C287.984 245.523 288.473 243.749 287.373 243.382C282.85 241.975 278.449 240.446 274.048 238.611C271.664 237.633 269.341 236.593 267.018 235.492C264.94 234.513 261.211 233.351 260.6 230.904C260.417 231.271 260.172 231.638 259.989 232.005C263.779 230.965 266.896 233.229 269.708 235.431C270.686 236.226 271.603 234.635 270.686 233.901Z" fill="black"/>
<path d="M216.958 212.248C219.342 216.163 224.171 216.836 228.388 217.448C234.623 218.365 240.858 218.365 247.093 217.692C248.254 217.57 248.254 215.735 247.093 215.857C242.08 216.408 237.068 216.53 232.056 216.041C227.838 215.613 221.053 215.368 218.486 211.331C217.936 210.291 216.347 211.208 216.958 212.248Z" fill="black"/>
<path d="M202.715 206.009C203.51 201.728 207.238 199.526 211.395 199.342C211.089 199.098 210.784 198.914 210.539 198.669C210.845 200.137 211.273 201.544 211.884 202.89C212.312 203.991 214.084 203.502 213.656 202.401C213.106 200.994 212.678 199.648 212.312 198.18C212.251 197.813 211.823 197.507 211.456 197.507C206.566 197.752 201.92 200.443 201.004 205.52C200.759 206.682 202.532 207.172 202.715 206.009Z" fill="black"/>
<path d="M213.351 187.048C212.434 184.417 211.762 181.665 211.517 178.851C211.517 178.607 211.456 178.362 211.456 178.117C211.395 177.567 211.456 177.628 211.701 178.301C212.251 178.668 212.801 179.096 213.351 179.524C214.268 180.319 215.124 181.176 215.857 182.093C216.652 183.011 217.935 181.665 217.141 180.809C216.102 179.585 211.762 174.57 209.928 176.527C209.011 177.506 209.683 179.769 209.867 180.87C210.172 183.133 210.784 185.396 211.517 187.537C212.006 188.638 213.779 188.21 213.351 187.048Z" fill="black"/>
<path d="M234.012 178.484C234.562 177.506 235.112 176.527 235.723 175.548C235.968 175.12 236.212 174.753 236.396 174.325C236.763 173.713 236.763 173.163 237.496 173.346C238.352 173.53 238.046 175.548 238.046 176.282C238.046 177.445 238.107 178.607 238.107 179.769C238.107 180.931 239.941 180.931 239.941 179.769C239.941 177.873 240.002 175.977 239.88 174.08C239.819 172.857 239.391 171.511 238.046 171.083C236.824 170.716 235.968 171.511 235.357 172.429C234.318 174.08 233.401 175.854 232.423 177.506C231.811 178.607 233.401 179.524 234.012 178.484Z" fill="black"/>
<path d="M292.568 218.487C292.935 223.136 298.13 224.665 301.737 222.402C307.055 219.099 308.216 211.637 307.544 206.009C306.627 198.302 304.793 191.146 307.421 183.5C309.927 176.221 316.162 170.288 324.047 169.799C325.209 169.737 325.209 167.902 324.047 167.964C313.289 168.636 305.954 177.811 304.426 187.965C303.509 194.021 304.854 199.648 305.649 205.581C306.138 209.496 305.893 213.227 304.121 216.836C303.326 218.365 302.226 219.894 300.759 220.873C298.497 222.28 294.585 221.851 294.341 218.548C294.341 217.325 292.507 217.264 292.568 218.487Z" fill="black"/>
<path d="M293.547 221.79C295.441 226.867 302.043 224.604 304.916 221.668C309.622 216.897 308.583 208.945 308.217 202.89C308.155 201.728 306.322 201.728 306.383 202.89C306.627 206.743 306.994 210.903 306.322 214.756C306.016 216.591 305.344 218.304 304.121 219.772C302.776 221.423 296.908 225.583 295.319 221.301C294.891 220.2 293.119 220.689 293.547 221.79Z" fill="black"/>
<path d="M324.11 167.902C317.142 170.594 310.112 174.386 307.301 181.726C304.061 190.167 306.384 199.342 306.2 208.089C306.2 209.251 308.034 209.251 308.034 208.089C308.217 200.443 306.384 192.614 308.217 185.029C310.235 176.71 317.142 172.551 324.599 169.676C325.699 169.248 325.21 167.474 324.11 167.902Z" fill="black"/>
<path d="M322.704 168.942C316.286 171.878 310.418 177.016 307.423 183.561C305.833 186.987 306.078 190.779 306.078 194.51C306.078 199.281 306.261 204.113 306.628 208.884C306.689 210.046 308.523 210.046 308.462 208.884C308.217 205.031 308.034 201.238 307.973 197.385C307.912 193.348 307.362 188.577 308.89 184.785C311.518 178.362 317.447 173.408 323.621 170.533C324.721 170.043 323.804 168.453 322.704 168.942Z" fill="black"/>
<path d="M215.795 191.085C217.507 194.082 221.847 193.042 222.275 189.739C222.336 189.127 221.419 189.188 221.358 189.739C221.052 192.247 217.874 192.736 216.59 190.656C216.284 190.106 215.49 190.595 215.795 191.085Z" fill="white"/>
<path d="M228.754 188.699C230.649 191.941 235.478 190.656 235.539 186.925C235.539 186.314 234.622 186.314 234.622 186.925C234.561 189.8 231.016 190.718 229.549 188.271C229.243 187.72 228.449 188.149 228.754 188.699Z" fill="white"/>
<path d="M225.087 192.736C225.515 194.51 225.148 196.284 224.048 197.752C223.681 198.241 224.475 198.669 224.842 198.241C226.065 196.59 226.431 194.51 226.004 192.491C225.82 191.941 224.903 192.186 225.087 192.736Z" fill="white"/>
<path d="M225.453 192.675C225.27 194.999 226.553 197.201 228.693 198.18C229.243 198.425 229.671 197.63 229.182 197.385C227.348 196.529 226.186 194.694 226.37 192.675C226.37 192.063 225.453 192.063 225.453 192.675Z" fill="white"/>
<path d="M210.54 198.119C215.919 197.691 219.342 202.095 222.948 205.336C223.376 205.703 224.048 205.092 223.62 204.664C219.831 201.238 216.163 196.773 210.54 197.14C209.989 197.201 209.989 198.119 210.54 198.119Z" fill="white"/>
<path d="M220.563 208.884C227.471 204.48 235.661 203.012 243.669 204.786C244.219 204.908 244.463 204.052 243.913 203.93C235.661 202.156 227.226 203.624 220.136 208.15C219.585 208.395 220.074 209.19 220.563 208.884Z" fill="white"/>
<path d="M237.922 217.264C243.607 217.631 248.986 215.857 253.326 212.126C253.754 211.759 253.142 211.086 252.653 211.453C248.497 215.001 243.362 216.713 237.922 216.346C237.372 216.346 237.372 217.264 237.922 217.264Z" fill="white"/>
<path d="M236.273 173.836C234.929 176.099 234.623 178.729 235.418 181.237C235.601 181.787 236.457 181.543 236.273 180.992C235.54 178.729 235.784 176.344 237.007 174.325C237.374 173.775 236.579 173.285 236.273 173.836Z" fill="white"/>
<path d="M212.067 179.524C213.535 180.442 214.451 181.849 214.818 183.5C214.94 184.051 215.796 183.806 215.674 183.255C215.246 181.359 214.146 179.769 212.495 178.729C212.006 178.423 211.578 179.218 212.067 179.524Z" fill="white"/>
<path d="M244.402 189.311C245.563 190.718 246.908 191.941 248.436 192.858C248.925 193.164 249.414 192.369 248.925 192.063C247.458 191.146 246.113 189.984 245.074 188.638C244.646 188.21 244.035 188.883 244.402 189.311Z" fill="white"/>
<path d="M282.116 219.344C280.832 216.102 274.658 218.304 272.641 219.588C269.035 221.974 267.446 226.439 268.79 230.537C268.974 231.088 269.829 230.843 269.646 230.293C268.607 227.051 269.463 223.564 272.03 221.179C273.13 220.139 274.597 219.405 276.064 219.038C277.103 218.732 280.649 218.059 281.199 219.527C281.443 220.139 282.299 219.894 282.116 219.344Z" fill="white"/>
<path d="M269.524 230.598C264.756 228.58 259.683 228.396 254.732 229.925C254.182 230.109 254.426 230.965 254.976 230.782C259.805 229.253 264.634 229.497 269.28 231.455C269.83 231.699 270.074 230.782 269.524 230.598Z" fill="white"/>
<path d="M437.434 484.991C434.928 490.985 434.928 495.45 434.561 506.949C434.134 521.14 432.911 535.27 432.789 549.399C432.667 561.327 432.483 579.371 431.994 602.859C451.554 603.96 473.192 604.204 496.664 603.042C519.036 601.941 539.696 599.678 558.34 596.864C549.538 567.076 543.731 545.362 539.574 528.541C537.374 519.55 534.134 506.093 525.21 490.373C520.32 481.749 515.246 475.265 511.518 470.922C510.54 470.066 488.963 451.899 464.024 460.463C462.801 460.952 444.647 467.558 437.434 484.991Z" fill="#EC615B"/>
<path d="M473.436 520.651C477.532 527.93 481.627 535.208 485.661 542.487C486.212 543.527 487.801 542.61 487.251 541.57C483.155 534.291 479.06 527.012 475.026 519.733C474.475 518.693 472.886 519.611 473.436 520.651Z" fill="#C64F4F"/>
<path d="M472.949 520.284C482.362 532.028 487.802 545.423 490.736 560.103C493.487 573.988 495.259 588.056 496.298 602.186C496.359 603.348 498.193 603.348 498.132 602.186C497.032 587.689 495.198 573.193 492.386 558.941C489.452 544.2 483.707 530.743 474.293 518.999C473.56 518.021 472.215 519.366 472.949 520.284Z" fill="#C64F4F"/>
<path opacity="0.19" d="M487.68 459.056C489.819 463.337 492.875 469.638 496.298 477.222C506.262 499.365 516.592 522.73 522.093 551.479C524.355 563.1 526.494 579.921 525.577 600.901C530.712 600.657 536.152 600.228 541.836 599.617C547.521 599.005 552.961 598.271 558.096 597.415C556.506 592.032 553.939 583.469 551.066 572.887C543.059 543.282 541.959 534.046 535.113 514.534C530.039 500.037 525.333 490.19 518.548 480.77C512.435 472.268 506.69 466.946 499.416 463.215C494.892 460.891 490.675 459.729 487.68 459.056Z" fill="#3F3F3F"/>
<path opacity="0.11" d="M473.07 520.957C475.454 529.887 477.532 540.53 478.51 552.518C480.222 573.254 478.021 590.931 475.332 604.143C482.361 603.715 489.33 603.287 496.359 602.859C495.625 588.974 494.036 577.291 492.508 568.422C488.657 545.851 484.623 537.472 481.383 532.089C478.327 527.134 475.271 523.403 473.07 520.957Z" fill="#3F3F3F"/>
<path d="M394.769 380.763C392.752 382.108 391.53 384.677 389.146 389.754C387.19 393.913 386.273 397.155 384.806 401.987C380.772 415.689 381.2 413.364 379.794 418.564C377.96 425.475 374.659 437.586 372.825 453.551C371.053 469.026 371.42 480.954 371.481 483.828C372.153 501.995 375.332 515.513 377.471 524.198C381.261 539.796 386.334 552.763 396.42 578.637C398.62 584.203 400.454 588.79 401.738 591.971C400.821 592.093 399.354 592.277 397.581 592.522C388.351 593.623 387.068 593.378 383.339 594.173C378.571 595.213 374.292 596.253 372.642 599.862C371.909 601.513 371.603 603.837 372.52 604.633C373.681 605.611 375.943 603.409 379.855 602.125C383.156 601.085 386.09 601.146 388.107 601.452C386.517 604.571 385.601 607.385 385.05 609.404C383.706 614.052 382.667 617.845 384.378 620.536C385.234 621.882 386.884 623.105 388.229 622.738C388.962 622.554 389.635 621.882 391.469 617.049C393.241 612.217 393.363 610.688 394.83 608.792C396.114 607.202 397.581 606.345 398.559 605.856C398.07 607.385 397.52 609.648 397.275 612.401C397.153 614.052 396.97 615.581 397.275 617.539C397.52 619.313 398.07 623.105 400.882 625.185C401.371 625.552 403.388 627.081 404.61 626.286C405.65 625.674 405.344 623.961 405.772 618.456C406.139 613.808 406.505 612.523 406.811 611.789C407.606 609.648 408.828 608.119 409.745 607.202C409.439 611.606 409.5 615.276 409.623 617.967C409.867 622.31 410.295 624.267 411.701 625.49C412.496 626.163 413.84 626.836 414.941 626.347C416.041 625.857 416.408 624.328 416.713 622.432C418.058 615.276 417.263 613.196 418.791 609.587C419.403 608.18 420.075 606.468 421.725 605.244C425.21 602.675 430.161 604.204 430.833 604.388C433.767 605.305 434.867 606.896 436.334 606.223C437.557 605.672 438.229 603.899 438.29 602.431C438.351 598.822 434.378 596.069 430.955 593.806C429.244 592.644 426.677 591.115 423.254 589.891C420.258 583.958 416.469 575.334 413.351 564.385C411.273 557.045 410.295 551.418 409.378 546.096C406.139 527.44 407.3 520.284 403.694 501.75C402.838 497.285 401.982 493.737 401.493 491.719C401.738 488.661 402.165 483.89 402.777 478.079C404.794 459.117 406.139 447.251 410.234 433.305C413.474 422.356 416.774 413.364 416.774 413.364C420.931 402.171 422.276 400.642 421.787 397.033C420.075 385.656 402.288 375.747 394.769 380.763Z" fill="white"/>
<path d="M390.062 386.573C379.182 411.713 372.336 438.565 370.869 465.968C369.341 493.921 374.17 521.262 383.216 547.686C388.351 562.795 394.586 577.475 400.943 592.155C401.432 593.256 402.96 592.277 402.532 591.237C391.529 565.792 380.771 539.979 375.637 512.699C370.564 485.786 371.603 457.955 377.471 431.225C380.771 416.239 385.539 401.62 391.652 387.552C392.08 386.451 390.551 385.472 390.062 386.573Z" fill="#161616"/>
<path d="M412.861 421.5C405.159 444.804 401.125 469.21 400.697 493.737C400.697 494.9 402.531 494.9 402.531 493.737C402.959 469.332 406.993 445.171 414.634 421.989C415 420.888 413.228 420.399 412.861 421.5Z" fill="#161616"/>
<path d="M394.28 482.605C399.72 490.19 401.92 499.242 403.204 508.295C404.549 517.531 405.16 526.89 406.505 536.126C409.194 554.904 413.595 573.621 422.458 590.442C423.008 591.482 424.598 590.564 424.048 589.524C414.818 572.031 410.478 552.518 407.911 533.067C405.649 516.002 406.321 496.245 395.869 481.687C395.197 480.77 393.607 481.687 394.28 482.605Z" fill="#161616"/>
<path d="M400.698 591.298C395.014 591.604 389.329 592.155 383.767 593.194C379.794 593.99 375.576 595.274 372.826 598.455C371.236 600.351 369.219 604.877 372.703 606.162C374.231 606.712 375.576 605.672 376.86 604.938C380.038 603.103 383.339 601.207 387.129 602.247C388.29 602.553 388.779 600.779 387.618 600.473C384.5 599.617 381.689 600.351 378.877 601.758C378.021 602.186 377.226 602.614 376.432 603.103C375.943 603.348 375.515 603.654 375.026 603.96C374.476 602.981 373.865 602.002 373.315 601.024C373.437 599.495 376.493 597.721 377.593 597.109C380.588 595.519 384.073 594.968 387.373 594.479C391.835 593.806 396.297 593.378 400.76 593.133C401.921 593.072 401.921 591.237 400.698 591.298Z" fill="#161616"/>
<path d="M395.686 596.742C390.857 597.537 386.884 600.84 385.05 605.305C383.094 609.954 381.444 616.866 383.705 621.637C385.417 625.246 389.634 626.53 391.224 622.126C392.202 619.374 392.018 616.377 392.996 613.624C394.219 610.199 396.297 607.263 399.353 605.244C400.331 604.571 399.414 602.981 398.436 603.654C395.564 605.55 393.424 608.119 392.018 611.239C391.285 612.829 390.735 614.48 390.368 616.193C390.062 617.6 389.879 624.695 386.517 622.616C384.622 621.453 384.439 617.722 384.5 615.826C384.622 613.012 385.356 609.771 386.273 607.079C387.801 602.553 391.407 599.311 396.114 598.516C397.336 598.332 396.847 596.559 395.686 596.742Z" fill="#161616"/>
<path d="M401.431 601.268C397.641 603.715 396.296 609.037 395.93 613.318C395.563 617.906 396.846 622.86 400.269 626.102C402.287 627.998 405.404 628.977 405.954 625.429C406.871 619.496 404.487 611.116 410.966 607.569C412.005 607.018 411.089 605.428 410.049 605.978C407.727 607.263 406.26 609.342 405.343 611.85C404.059 615.52 404.793 619.251 404.243 623.044C403.998 624.756 403.509 626.591 401.614 624.818C400.942 624.206 400.331 623.411 399.842 622.616C398.68 620.781 398.008 618.701 397.824 616.56C397.397 612.278 398.497 605.428 402.409 602.859C403.326 602.186 402.409 600.596 401.431 601.268Z" fill="#161616"/>
<path d="M410.111 606.162C408.949 610.566 407.849 615.153 408.583 619.741C408.888 621.943 410.172 627.325 412.983 627.876C416.162 628.487 417.446 622.86 417.751 620.781C418.424 616.254 417.568 610.81 421.113 607.324C421.969 606.468 420.685 605.183 419.829 606.039C415.551 610.26 417.018 616.377 415.734 621.759C415.306 623.716 414.084 626.652 412.067 624.389C410.966 623.227 410.661 620.964 410.416 619.435C409.805 615.153 410.844 610.872 411.944 606.712C412.189 605.55 410.416 605.061 410.111 606.162Z" fill="#161616"/>
<path d="M423.314 591.482C426.92 592.95 430.649 594.54 433.46 597.354C434.744 598.638 436.333 600.596 436.7 602.43C437.617 607.507 433.827 604.265 432.421 603.654C428.57 601.941 420.93 603.164 418.729 607.079C418.179 608.119 419.768 609.036 420.319 607.997C421.48 605.856 424.658 605.305 426.859 604.999C428.204 604.816 429.732 604.694 431.015 605.061C432.482 605.489 433.399 606.773 434.805 607.201C436.822 607.813 438.35 606.406 438.656 604.449C439.206 601.268 436.456 597.721 434.316 595.641C431.321 592.766 427.47 591.176 423.68 589.647C422.702 589.28 422.275 591.054 423.314 591.482Z" fill="#161616"/>
<path opacity="0.13" d="M410.968 401.743C403.938 402.171 399.721 420.154 397.398 430.124C394.77 441.317 392.386 456.731 392.875 479.18C393.303 499.242 395.87 514.534 396.726 519.855C400.576 542.732 406.628 561.938 412.557 576.985C414.513 582.49 416.408 587.995 418.364 593.439C417.264 597.965 416.163 602.614 415.124 607.446C413.779 613.807 412.557 620.046 411.579 626.041C412.74 626.163 414.33 626.102 415.43 625.001C416.836 623.594 416.652 621.331 416.713 619.374C416.775 617.539 416.958 608.669 420.931 605.366C423.376 603.348 427.288 603.348 429.978 604.327C432.728 605.366 433.951 607.385 435.784 606.773C437.19 606.345 438.168 604.632 438.352 603.287C438.963 598.822 430.405 594.234 429 593.5C426.249 592.032 424.965 591.849 423.193 590.014C420.992 587.689 420.259 584.937 419.953 583.713C414.88 564.385 412.374 565.608 408.951 543.405C406.383 526.645 408.034 527.624 405.405 514.289C403.572 504.87 402.043 501.016 401.554 492.881C401.004 483.951 402.043 476.978 403.144 470.8C407.728 445.538 416.53 414.955 418.669 407.676C416.713 404.617 414.024 401.559 410.968 401.743Z" fill="#3F3F3F"/>
<path d="M535.723 150.287C533.829 150.225 532.362 153.651 531.995 154.568C531.445 155.914 530.589 158.544 531.2 162.275C531.2 162.275 531.567 164.844 532.789 180.381C533.095 183.867 533.156 188.944 532.239 195.305C529.794 202.034 527.472 207.294 525.882 210.719C520.503 222.219 516.897 226.806 509.379 241.364C506.567 246.808 506.322 247.664 503.022 254.392C494.77 271.091 488.718 281.55 482.545 292.744C477.105 302.53 469.464 316.905 460.479 335.377C460.051 336.967 457.911 345.469 462.862 352.932C468.119 360.822 479.122 364.37 489.757 360.945C491.408 358.62 493.731 355.011 495.87 350.302C497.948 345.714 498.926 342.166 499.599 339.903C500.271 337.64 502.96 329.994 508.401 314.58C510.112 309.809 512.19 304.121 516.408 292.988C522.826 275.923 526.005 267.421 528.144 262.099C532.973 249.988 536.64 241.608 543.853 225.338C547.643 216.775 552.288 206.438 557.667 194.694C560.785 192.92 565.063 190.167 569.648 186.191C576.249 180.503 579.55 175.671 585.907 166.496C590.002 160.501 593.12 155.241 592.264 149.981C592.142 149.247 591.836 147.106 590.675 146.8C589.208 146.372 587.374 149.308 585.357 151.877C583.279 154.507 580.161 157.932 575.516 161.48C577.105 157.076 578.694 153.651 579.795 151.388C582.301 146.25 584.379 142.947 585.663 137.258C587.068 131.203 585.785 130.102 585.418 129.796C583.768 128.572 580.956 130.897 579.306 129.551C577.839 128.267 579.122 125.453 577.961 124.78C576.799 124.107 574.232 126.126 572.398 128.267C569.22 131.937 568.486 135.484 567.325 138.91C566.225 142.274 564.208 146.861 560.418 151.938C559.501 152.06 558.279 152.122 557.728 151.388C557.117 150.531 557.973 149.124 558.768 146.861C558.951 146.311 558.829 146.617 560.112 140.989C560.601 138.848 561.518 134.873 562.252 131.692C563.291 127.104 563.78 125.208 562.802 123.19C562.618 122.762 561.824 121.11 560.662 121.049C559.318 120.988 558.279 123.129 557.484 124.78C554.244 131.447 552.594 134.811 552.166 135.974C550.027 141.784 547.154 150.654 546.726 153.712C546.665 154.079 546.543 155.363 545.931 157.015C545.626 157.81 545.442 158.116 545.259 158.605C543.731 162.031 545.014 164.294 543.425 165.517C543.242 165.639 542.325 166.312 541.591 166.068C540.797 165.823 540.43 164.783 540.002 161.297C539.391 156.526 539.758 155.119 538.657 153.039C537.924 152.122 537.007 150.348 535.723 150.287Z" fill="white"/>
<path d="M532.79 178.607C533.218 174.141 532.546 169.799 532.301 165.333C532.179 163.193 532.179 160.991 532.484 158.85C532.668 157.627 532.912 156.403 533.279 155.241C533.89 153.467 533.951 151.999 535.907 151.938C537.741 151.877 537.619 152.978 537.925 154.507C538.23 155.853 538.291 157.259 538.352 158.605C538.475 160.501 538.536 162.459 538.964 164.294C539.392 166.19 540.553 167.78 542.692 167.107C543.793 166.74 543.365 164.966 542.203 165.333C540.064 165.945 540.247 158.728 540.125 157.504C539.942 155.547 539.758 153.528 539.025 151.693C537.986 149.124 535.602 147.84 533.585 150.225C530.956 153.284 530.406 158.789 530.406 162.581C530.406 167.964 531.445 173.224 530.956 178.607C530.895 179.769 532.729 179.769 532.79 178.607Z" fill="#161616"/>
<path d="M543.426 166.373C546.482 160.44 547.399 153.712 549.172 147.351C551.067 140.5 553.45 133.772 556.996 127.655C557.79 126.309 558.585 124.413 559.746 123.373C562.008 121.294 562.008 125.269 561.825 126.982C561.458 130.774 560.48 134.628 559.624 138.359C558.829 141.784 557.729 145.087 556.935 148.513C556.507 150.409 556.507 152.06 557.851 153.528C558.646 154.385 559.93 153.1 559.135 152.244C557.607 150.592 559.196 147.289 559.685 145.516C560.235 143.497 560.785 141.479 561.213 139.46C562.069 135.729 562.925 131.937 563.475 128.083C563.781 126.065 564.208 122.517 562.436 120.988C560.908 119.703 559.38 120.927 558.341 122.15C553.878 127.716 551.128 135.056 548.927 141.784C546.421 149.553 545.626 158.238 541.837 165.517C541.287 166.496 542.876 167.413 543.426 166.373Z" fill="#161616"/>
<path d="M558.278 153.712C560.111 153.895 560.784 152.55 561.639 151.082C562.984 148.757 564.207 146.311 565.368 143.925C567.63 139.277 569.219 134.2 571.97 129.857C572.581 128.878 573.314 127.655 574.292 126.921C575.087 126.003 576.126 125.698 577.471 126.126C577.654 126.982 577.776 127.838 577.776 128.695C577.838 131.692 576.86 134.689 575.82 137.503C573.742 143.069 571.419 148.574 569.158 154.14C568.73 155.241 570.503 155.73 570.93 154.629C572.214 151.449 585.417 123.557 576.798 123.373C575.087 123.312 573.131 125.453 572.153 126.615C570.441 128.634 569.219 130.958 568.119 133.343C566.835 136.218 565.674 139.093 564.329 141.907C563.534 143.619 562.617 145.393 561.762 147.045C561.212 148.146 559.867 151.938 558.339 151.816C557.116 151.755 557.116 153.59 558.278 153.712Z" fill="#161616"/>
<path d="M579.917 131.203C580.589 127.655 584.44 130.102 584.929 132.365C585.357 134.261 584.624 136.157 584.012 137.931C583.095 140.622 582.056 143.252 580.956 145.821C578.817 150.837 576.311 155.608 573.499 160.318C572.888 161.358 574.477 162.275 575.088 161.235C577.716 156.893 580.039 152.366 582.117 147.779C583.89 143.803 586.029 139.399 586.702 135.056C587.13 132.304 586.335 128.756 583.279 127.777C581.017 127.043 578.572 128.45 578.144 130.774C577.961 131.875 579.734 132.365 579.917 131.203Z" fill="#161616"/>
<path d="M576.372 161.969C578.695 159.339 580.957 156.709 583.279 154.079C584.502 152.672 585.602 151.143 586.947 149.92C587.375 149.553 587.803 149.247 588.169 148.88C589.209 149.247 590.248 149.614 591.348 149.981C591.654 150.531 590.92 152.122 590.737 152.611C588.842 158.422 586.091 163.927 582.852 169.065C576.311 179.402 567.326 188.088 556.812 194.388C555.773 194.999 556.751 196.59 557.729 195.978C570.81 188.149 581.568 176.649 588.353 163.009C590.003 159.706 591.592 156.22 592.632 152.672C593.243 150.592 593.61 147.779 591.226 146.678C588.903 145.577 586.458 147.718 584.991 149.247C581.507 152.856 578.328 156.893 575.028 160.685C574.294 161.541 575.578 162.826 576.372 161.969Z" fill="#161616"/>
<path d="M531.2 176.71C531.628 182.338 532.056 188.088 531.139 193.715C530.222 199.281 527.899 204.419 525.332 209.435C520.136 219.588 514.696 229.62 509.378 239.712C498.743 259.897 488.107 280.021 477.471 300.206C471.359 311.767 465.246 323.388 459.134 334.949C458.583 335.989 460.173 336.906 460.723 335.866C482.667 294.212 505.038 252.741 526.616 210.842C529.183 205.887 531.567 200.81 532.606 195.366C533.828 189.188 533.4 182.949 532.911 176.71C532.973 175.548 531.139 175.548 531.2 176.71Z" fill="#161616"/>
<path d="M556.689 193.959C537.129 235.308 520.075 277.635 505.038 320.819C500.637 333.358 496.236 345.898 490.918 358.07C490.429 359.171 492.019 360.088 492.508 358.987C501.615 338.252 508.278 316.537 516.102 295.374C524.109 273.598 532.789 252.007 542.019 230.721C547.276 218.671 552.655 206.743 558.278 194.877C558.767 193.837 557.178 192.92 556.689 193.959Z" fill="#161616"/>
<path opacity="0.1" d="M584.317 130.469C581.811 130.102 578.449 140.378 576.493 145.516C570.563 161.297 565.551 163.132 552.837 184.54C548.131 192.43 541.651 204.297 535.111 219.772C515.551 260.998 496.052 302.286 476.492 343.512C481.26 349.323 485.967 355.195 490.734 361.006C493.118 354.216 496.602 344.246 500.942 332.196C508.827 310.482 519.035 282.529 533.461 248.52C539.206 235.064 547.153 216.897 557.361 195.55C560.172 193.776 564.084 191.024 568.363 187.231C574.109 182.216 581.688 175.426 586.884 164.355C588.534 160.93 590.612 155.669 591.713 148.757C590.918 148.39 589.757 147.962 588.473 148.207C586.273 148.635 585.111 150.776 584.194 152.244C580.649 157.688 575.453 161.297 574.781 160.868C574.414 160.563 575.453 158.789 578.265 153.039C584.011 141.234 581.627 144.353 583.889 140.378C585.172 138.114 586.456 136.157 586.028 133.649C586.028 132.548 585.356 130.652 584.317 130.469Z" fill="#3F3F3F"/>
<path opacity="0.13" d="M580.588 172.184C577.532 174.142 573.192 177.016 568.241 180.809C562.556 185.09 556.444 189.739 551.309 195.611C544.341 203.563 541.285 211.453 539.451 216.041C522.642 258.98 502.654 305.589 496.969 318.556C493.852 325.651 488.962 336.356 482.482 349.201C485.416 353.054 488.412 356.908 491.346 360.761C499.781 335.01 509.5 308.035 520.624 280.082C532.605 250.049 545.013 221.974 557.483 195.856C560.845 193.593 564.634 190.718 568.485 186.987C573.925 181.787 577.837 176.527 580.588 172.184Z" fill="#3F3F3F"/>
<path d="M418.059 349.262C415.797 350.791 410.724 354.339 405.528 360.088C400.149 366.021 397.032 371.588 394.465 376.297C392.448 379.906 390.981 383.087 389.941 385.411C391.531 388.47 394.098 393.179 397.643 398.807C403.939 408.777 408.829 414.16 417.264 424.986C420.809 429.512 425.944 436.302 432.056 444.865C433.035 449.453 433.89 454.285 434.624 459.362C436.091 469.76 436.641 479.424 436.641 488.11C438.902 490.557 442.814 494.104 448.56 496.612C458.096 500.833 466.775 499.609 471.299 498.875C481.323 497.346 488.169 492.881 492.876 489.762C501.433 484.134 507.24 477.406 511.091 471.84C510.296 462.298 509.257 452.45 507.974 442.235C506.873 433.549 505.651 425.108 504.306 416.912C504.184 410.49 503.573 401.743 501.495 391.589C499.783 383.087 497.705 373.178 491.531 361.434C483.829 346.815 474.233 337.946 470.504 334.704C467.203 331.829 464.208 329.688 462.008 328.159C453.083 333.848 445.382 337.395 440.125 339.536C430.345 343.573 425.761 344.185 418.059 349.262Z" fill="white"/>
<path d="M390.919 385.656C392.814 378.438 398.07 371.71 402.594 365.838C407.361 359.721 412.74 354.155 419.158 349.69C420.136 349.017 419.22 347.427 418.242 348.099C411.64 352.687 406.078 358.375 401.188 364.676C396.481 370.731 391.163 377.582 389.207 385.105C388.902 386.329 390.674 386.757 390.919 385.656Z" fill="#161616"/>
<path d="M389.573 386.267C402.165 408.288 417.079 428.962 434.011 447.862C434.806 448.719 436.089 447.434 435.295 446.578C418.485 427.8 403.693 407.248 391.162 385.35C390.551 384.31 388.962 385.228 389.573 386.267Z" fill="#161616"/>
<path d="M441.286 340.393C448.132 335.56 455.651 331.951 463.658 329.627C464.819 329.321 464.33 327.547 463.169 327.853C454.978 330.239 447.338 333.909 440.369 338.802C439.391 339.475 440.308 341.065 441.286 340.393Z" fill="#161616"/>
<path d="M462.13 330.117C491.348 350.485 503.878 386.206 502.472 420.766C502.411 421.928 504.245 421.928 504.306 420.766C505.773 385.472 492.815 349.262 463.047 328.526C462.13 327.853 461.213 329.444 462.13 330.117Z" fill="#161616"/>
<path d="M430.038 444.253C433.217 450.798 433.584 458.934 434.256 466.029C434.99 473.247 435.234 480.525 435.234 487.804C435.234 488.966 437.068 488.966 437.068 487.804C437.129 479.73 436.762 471.656 435.845 463.643C435.112 456.854 434.623 449.514 431.628 443.275C431.078 442.235 429.549 443.152 430.038 444.253Z" fill="#161616"/>
<path d="M436.395 488.171C445.564 499.426 461.212 502.606 474.843 499.12C482.422 497.163 489.452 493.431 495.748 488.783C502.044 484.134 508.034 478.751 511.579 471.656C512.129 470.616 510.54 469.699 509.99 470.739C506.567 477.528 500.821 482.727 494.77 487.192C488.902 491.535 482.361 495.083 475.271 497.101C461.946 500.833 446.603 497.958 437.618 486.887C436.945 485.969 435.662 487.254 436.395 488.171Z" fill="#161616"/>
<path d="M503.144 418.013C506.139 435.935 509.073 453.857 510.112 471.962C510.174 473.124 512.007 473.124 511.946 471.962C510.846 453.673 507.912 435.568 504.917 417.524C504.733 416.361 502.961 416.851 503.144 418.013Z" fill="#161616"/>
<path opacity="0.13" d="M443.609 337.946C450.394 345.959 459.685 358.437 467.448 375.319C478.817 400.03 481.079 421.377 482.79 439.544C484.135 453.367 484.869 472.635 482.179 495.634C487.375 493.37 494.71 489.456 501.8 482.666C505.712 478.874 508.646 475.082 510.847 471.779C508.83 454.713 506.813 437.586 504.795 420.521C505.162 406.452 502.962 395.075 500.883 387.368C494.465 363.513 482.118 348.161 477.962 343.328C472.277 336.661 466.715 331.768 462.619 328.526C456.262 331.707 449.966 334.826 443.609 337.946Z" fill="#3F3F3F"/>
<path opacity="0.14" d="M489.147 359.354C488.047 359.66 490.614 369.63 493.059 384.371C493.059 384.371 496.788 406.758 497.582 428.411C498.132 442.724 497.399 463.643 490.981 489.639C493.915 488.171 497.521 486.03 501.25 483.033C505.773 479.363 509.013 475.51 511.213 472.451C510.418 447.801 508.34 435.017 506.384 427.8C506.017 426.393 505.039 423.09 504.245 418.441C502.778 409.755 503.511 406.024 502.717 398.807C502.105 393.057 500.944 389.265 498.805 382.23C495.565 371.649 490.369 358.987 489.147 359.354Z" fill="#3F3F3F"/>
<path d="M417.203 248.642C413.169 250.906 408.035 254.331 403.084 259.53C392.815 270.479 389.514 282.712 388.352 288.768C387.436 288.645 384.929 288.462 382.912 290.052C379.917 292.377 379.856 296.964 381.017 299.655C381.445 300.634 382.057 301.429 383.34 303.02C384.868 304.916 385.846 306.078 387.436 306.751C388.108 307.057 389.636 307.485 391.837 306.995C392.509 309.014 393.609 311.828 395.26 315.069C397.399 319.229 400.639 325.407 407.118 330.789C409.013 332.38 411.947 334.459 415.92 336.356C417.387 338.252 420.076 342.228 420.382 347.61C420.993 357.091 414.086 364.982 407.546 368.468C396.176 374.524 383.829 368.468 379.306 366.205C376.861 364.982 364.575 358.62 359.44 344.674C353.206 327.853 361.335 311.033 366.164 301.001C371.054 290.909 373.316 291.582 377.044 281.734C381.995 268.705 379.367 264.118 385.052 254.147C387.252 250.233 391.714 242.403 401.066 238.733C409.074 235.614 416.47 237.204 419.648 238.122C422.277 236.531 426.922 234.268 432.79 234.268C446.727 234.268 455.651 247.48 457.79 250.661C464.147 260.019 460.786 262.894 466.47 276.045C473.622 292.621 480.59 291.643 487.008 307.179C490.126 314.764 495.321 327.303 489.575 339.292C483.646 351.647 470.138 355.256 468.426 355.684C465.309 356.479 456.935 358.559 448.561 354.094C447.766 353.666 437.252 347.916 436.397 338.068C436.091 334.459 437.13 331.095 437.375 330.361C438.658 326.385 440.859 323.816 441.531 322.96C444.16 319.718 447.338 313.724 449.539 301.796C450.578 301.735 452.289 301.49 454.001 300.512C457.607 298.432 459.319 294.212 459.135 290.542C459.074 289.685 458.83 284.792 455.284 283.14C453.817 282.468 452.289 282.651 451.433 282.835C440.064 271.335 428.634 260.019 417.203 248.642Z" fill="#5222D0"/>
<path d="M417.203 248.581C410.418 252.557 405.711 256.961 402.716 260.203C392.753 271.029 389.574 282.345 388.902 284.975C388.474 286.627 388.168 287.973 388.046 288.951C387.374 288.707 385.846 288.278 384.317 288.951C381.995 289.991 381.506 292.805 381.261 294.212C380.65 297.453 381.872 300.022 382.361 301.001C383.034 302.408 384.134 304.671 386.762 305.833C388.902 306.812 390.919 306.445 391.775 306.261C392.63 308.463 393.853 311.522 395.748 315.008C398.621 320.513 401.31 325.59 406.506 330.116C408.523 331.89 411.824 334.337 416.591 336.233C417.569 337.762 418.914 340.148 419.648 343.267C420.259 345.714 420.381 347.794 420.32 349.384C421.909 350.179 424.904 351.403 428.633 351.341C435.785 351.219 440.491 346.754 441.592 345.653C440.43 342.166 439.391 337.885 438.963 332.93C438.78 330.667 438.719 328.526 438.719 326.569C440.614 324.55 442.936 321.675 444.831 317.822C448.193 311.155 448.743 304.977 448.804 301.368C449.66 301.49 451.372 301.674 453.205 300.94C455.773 299.9 456.934 297.637 457.606 296.352C457.79 296.047 460.357 290.786 458.034 285.587C457.484 284.425 456.567 282.284 454.733 282.101C453.389 281.978 452.288 283.018 451.861 283.446C449.354 280.449 444.648 274.883 438.046 267.237C432.362 260.57 428.755 256.411 422.704 252.129C420.503 250.539 418.547 249.376 417.203 248.581Z" fill="white"/>
<path d="M408.768 313.479C408.157 314.886 411.029 317.394 412.374 318.434C415.186 320.513 418.181 320.819 419.281 320.88C420.565 321.003 424.783 321.309 428.633 318.556C429.55 317.883 432.118 316.109 433.096 312.806C433.768 310.421 433.585 307.118 432.301 306.567C431.323 306.2 430.406 307.424 428.328 308.892C424.66 311.4 420.871 312.011 417.631 312.501C412.13 313.357 409.379 312.256 408.768 313.479Z" fill="black"/>
<path d="M389.391 299.35C391.591 308.525 395.137 317.516 401.005 324.979C406.2 331.646 413.902 338.068 422.887 337.212C431.2 336.417 437.985 329.933 442.386 323.327C447.582 315.62 450.088 306.384 449.843 297.086C449.782 295.924 447.949 295.924 448.01 297.086C448.254 305.589 446.054 313.907 441.592 321.125C437.374 327.915 430.406 335.071 421.909 335.438C412.924 335.805 405.528 328.465 400.76 321.614C395.992 314.764 393.058 306.873 391.102 298.799C390.858 297.698 389.085 298.187 389.391 299.35Z" fill="#161616"/>
<path d="M415.37 336.356C417.937 340.27 419.221 344.552 419.221 349.262C419.221 350.424 421.055 350.424 421.055 349.262C421.055 344.307 419.649 339.597 416.959 335.438C416.348 334.398 414.759 335.316 415.37 336.356Z" fill="#161616"/>
<path d="M420.076 349.996C427.533 354.277 437.191 352.198 442.265 345.347C442.998 344.429 441.409 343.512 440.675 344.429C436.152 350.485 427.472 352.198 420.993 348.405C419.954 347.855 419.037 349.445 420.076 349.996Z" fill="#161616"/>
<path d="M437.68 328.159C437.741 333.725 438.597 339.23 440.369 344.552C440.736 345.653 442.509 345.164 442.142 344.063C440.491 338.863 439.575 333.603 439.513 328.159C439.513 326.936 437.68 326.936 437.68 328.159Z" fill="#161616"/>
<path d="M391.225 305.161C390.431 306.017 388.475 305.711 387.558 305.222C386.824 304.855 386.152 304.304 385.602 303.754C384.379 302.592 383.401 301.185 382.79 299.656C381.567 296.781 381.017 288.523 386.457 289.991C387.619 290.297 388.108 288.523 386.946 288.217C380.223 286.444 379.184 295.374 380.895 299.839C382.24 303.448 388.413 310.91 392.57 306.445C393.303 305.589 392.02 304.304 391.225 305.161Z" fill="#161616"/>
<path d="M452.656 283.752C453.39 281.305 456.568 286.015 456.935 286.872C457.668 288.829 457.913 290.97 457.607 293.049C457.118 297.209 453.818 301.185 449.233 300.022C448.072 299.717 447.583 301.49 448.744 301.796C456.14 303.692 460.113 295.985 459.441 289.685C459.135 286.933 458.035 283.385 455.407 281.917C453.695 281 451.495 281.244 450.883 283.202C450.517 284.425 452.289 284.853 452.656 283.752Z" fill="#161616"/>
<path d="M397.766 270.785C399.783 266.931 403.328 264.423 407.607 263.812C408.768 263.628 408.279 261.854 407.118 262.038C402.411 262.711 398.377 265.647 396.177 269.867C395.626 270.907 397.216 271.825 397.766 270.785Z" fill="#161616"/>
<path d="M426.005 261.365C431.139 260.142 436.274 262.711 438.596 267.36C439.146 268.399 440.675 267.482 440.186 266.442C437.496 260.998 431.384 258.185 425.516 259.591C424.354 259.897 424.843 261.671 426.005 261.365Z" fill="#161616"/>
<path d="M412.679 268.889C413.841 275.372 414.146 282.04 413.474 288.646C413.229 290.664 412.251 293.539 413.168 295.557C414.146 297.759 416.775 299.656 418.425 301.368C419.22 302.225 420.564 300.94 419.709 300.084C418.608 298.922 417.508 297.821 416.408 296.658C414.696 294.885 414.513 294.334 414.88 291.765C415.185 289.441 415.491 287.055 415.613 284.67C415.858 279.226 415.43 273.782 414.452 268.46C414.269 267.237 412.496 267.726 412.679 268.889Z" fill="#161616"/>
<path d="M404.977 284.608C404.06 283.14 403.632 281.55 403.754 279.837C403.754 279.47 403.999 277.88 404.305 277.819C404.488 277.819 404.793 279.96 404.855 280.204C404.977 281 405.038 281.856 405.038 282.651C405.038 282.896 404.977 284.914 404.977 283.691C404.916 281.917 405.038 280.143 405.099 278.369C404.488 278.431 403.877 278.553 403.326 278.614C403.632 280.51 403.815 282.406 403.815 284.364C404.427 284.364 405.038 284.364 405.649 284.364C405.649 284.119 405.649 283.874 405.649 283.63C405.649 282.468 403.815 282.468 403.815 283.63C403.815 283.874 403.815 284.119 403.815 284.364C403.815 285.526 405.649 285.526 405.649 284.364C405.649 282.284 405.466 280.204 405.099 278.125C404.916 277.085 403.326 277.391 403.326 278.369C403.265 280.327 403.021 282.468 403.265 284.425C403.388 285.342 403.815 286.199 404.855 286.382C407.911 286.994 406.994 281 406.75 279.532C406.566 278.369 406.383 276.596 405.283 275.923C404.366 275.372 403.388 275.923 402.837 276.779C401.309 279.348 402.165 283.14 403.571 285.465C403.999 286.505 405.588 285.587 404.977 284.608Z" fill="#161616"/>
<path d="M433.217 281.367C432.3 279.899 431.872 278.308 431.995 276.596C431.995 276.229 432.239 274.638 432.545 274.577C432.728 274.577 433.034 276.718 433.095 276.963C433.217 277.758 433.278 278.614 433.278 279.409C433.278 279.654 433.217 281.672 433.217 280.449C433.156 278.675 433.278 276.902 433.339 275.128C432.728 275.189 432.117 275.311 431.567 275.372C431.872 277.269 432.056 279.165 432.056 281.122C432.667 281.122 433.278 281.122 433.889 281.122C433.889 280.877 433.889 280.633 433.889 280.388C433.889 279.226 432.056 279.226 432.056 280.388C432.056 280.633 432.056 280.877 432.056 281.122C432.056 282.284 433.889 282.284 433.889 281.122C433.889 279.042 433.706 276.963 433.339 274.883C433.156 273.843 431.567 274.149 431.567 275.128C431.506 277.085 431.261 279.226 431.506 281.183C431.628 282.101 432.056 282.957 433.095 283.14C436.151 283.752 435.234 277.758 434.99 276.29C434.806 275.128 434.623 273.354 433.523 272.681C432.606 272.131 431.628 272.681 431.078 273.537C429.55 276.106 430.405 279.899 431.811 282.223C432.239 283.324 433.828 282.406 433.217 281.367Z" fill="#161616"/>
<path d="M395.932 290.236C397.093 290.236 397.093 288.401 395.932 288.401C394.77 288.401 394.77 290.236 395.932 290.236Z" fill="#161616"/>
<path d="M403.143 291.582C403.205 291.582 403.266 291.582 403.388 291.582C403.877 291.582 404.305 291.153 404.305 290.664C404.305 290.175 403.877 289.746 403.388 289.746C403.327 289.746 403.266 289.746 403.143 289.746C402.654 289.746 402.227 290.175 402.227 290.664C402.227 291.153 402.593 291.582 403.143 291.582Z" fill="#161616"/>
<path d="M398.865 297.209C400.026 297.209 400.026 295.374 398.865 295.374C397.703 295.374 397.642 297.209 398.865 297.209Z" fill="#161616"/>
<path d="M433.585 289.318C433.646 289.318 433.707 289.318 433.829 289.318C434.318 289.318 434.746 288.89 434.746 288.401C434.746 287.911 434.318 287.483 433.829 287.483C433.768 287.483 433.707 287.483 433.585 287.483C433.096 287.483 432.668 287.911 432.668 288.401C432.668 288.89 433.035 289.318 433.585 289.318Z" fill="#161616"/>
<path d="M440.309 284.792C441.47 284.792 441.47 282.957 440.309 282.957C439.147 282.957 439.147 284.792 440.309 284.792Z" fill="#161616"/>
<path d="M439.391 289.746C439.453 289.746 439.514 289.746 439.636 289.746C440.125 289.746 440.553 289.318 440.553 288.829C440.553 288.34 440.125 287.911 439.636 287.911C439.575 287.911 439.514 287.911 439.391 287.911C438.902 287.911 438.475 288.34 438.475 288.829C438.536 289.318 438.902 289.746 439.391 289.746Z" fill="#161616"/>
<path d="M410.295 314.886C409.317 313.479 407.728 311.461 408.4 309.626C409.195 307.546 411.701 307.852 413.351 308.096C415.368 308.402 417.019 308.769 418.975 308.158C420.564 307.668 421.97 306.628 423.437 305.833C426.921 303.876 431.016 303.692 432.117 308.28C435.234 320.819 413.107 324.367 409.684 313.357C409.317 312.256 407.544 312.684 407.911 313.846C412.129 327.364 438.29 322.348 433.706 307.362C432.911 304.855 431.016 302.714 428.327 302.408C423.926 301.98 421.053 306.384 416.835 306.69C413.718 306.934 409.928 304.549 407.422 307.485C405.161 310.115 406.994 313.479 408.645 315.803C409.378 316.782 410.967 315.865 410.295 314.886Z" fill="#161616"/>
<path d="M406.75 311.399C408.094 315.131 414.818 313.968 417.752 313.54C423.376 312.684 428.51 310.237 432.85 306.628C433.767 305.894 432.483 304.549 431.566 305.344C428.388 308.035 424.72 309.993 420.686 311.094C418.913 311.583 409.561 313.663 408.583 310.971C408.094 309.809 406.322 310.298 406.75 311.399Z" fill="#161616"/>
<path d="M417.631 338.252C424.783 340.087 434.318 335.56 438.352 329.627C439.025 328.648 437.435 327.731 436.763 328.71C433.218 333.909 424.355 338.068 418.12 336.478C416.958 336.172 416.469 337.946 417.631 338.252Z" fill="#161616"/>
<path d="M418.303 338.802C424.66 342.778 435.112 337.151 438.168 331.095C438.719 330.055 437.129 329.138 436.579 330.178C434.012 335.316 424.66 340.637 419.22 337.273C418.181 336.6 417.264 338.191 418.303 338.802Z" fill="#161616"/>
<path opacity="0.2" d="M443.669 273.965C444.097 276.167 444.647 279.654 445.014 283.874C445.87 295.129 447.337 313.968 435.968 326.508C433.523 329.199 428.327 333.97 418.73 336.661C421.787 336.539 425.515 336.172 429.55 335.132C431.567 334.643 433.4 334.031 435.051 333.358C435.295 338.802 435.479 344.246 435.723 349.69C437.801 348.344 439.819 347.06 441.897 345.714C439.085 339.475 439.085 334.643 439.452 331.584C440.002 327.303 441.591 323.816 443.18 320.33C444.586 317.271 446.053 314.825 447.215 313.112C447.337 314.397 447.643 315.742 448.498 317.027C452.227 322.593 463.902 323.143 471.237 318.372C478.022 313.968 481.322 305.038 479.611 295.863C480.772 296.842 481.995 298.004 483.156 299.411C484.073 300.512 486.457 303.692 489.758 314.886C490.797 318.372 491.286 320.146 491.591 321.92C491.958 324.367 492.631 329.015 491.347 334.276C489.146 343.328 482.606 348.528 480.65 349.996C479.244 351.036 474.965 354.155 468.547 355.623C465.491 356.296 456.322 358.498 447.704 353.482C444.464 351.586 442.691 350.179 441.713 348.467C440.674 346.57 440.552 344.797 440.43 343.451C439.88 335.071 439.635 330.85 440.185 327.976C441.836 319.657 445.564 318.801 447.643 309.32C448.376 305.894 448.559 303.02 448.621 301.185C449.415 301.307 450.638 301.429 452.105 301.062C455.161 300.267 456.689 297.759 457.239 296.842C459.44 293.355 460.418 287.116 456.995 284.241C456.506 283.813 454.794 282.529 451.493 282.773C448.987 279.837 446.359 276.901 443.669 273.965Z" fill="#3F3F3F"/>
<path opacity="0.13" d="M414.697 293.783C417.815 294.701 420.993 295.68 424.111 296.597C423.316 297.331 422.521 298.004 421.666 298.738C420.871 299.411 420.137 299.961 419.343 300.573C418.365 299.839 416.959 298.554 415.859 296.597C415.247 295.557 414.881 294.579 414.697 293.783Z" fill="#3F3F3F"/>
<path opacity="0.16" d="M365.674 301.429C359.012 324.978 363.963 344.001 373.926 348.161C381.75 351.402 395.87 346.815 398.499 338.802C398.865 337.762 399.232 335.927 397.826 330.3C396.604 325.345 394.098 317.883 388.474 309.381C387.496 308.769 386.212 307.791 384.99 306.323C382.851 303.692 382.239 300.879 382.056 299.533C383.829 301.368 386.396 303.692 388.046 302.958C389.635 302.224 390.613 300.022 390.063 297.82C390.613 300.634 391.469 304.488 393.058 308.953C395.137 314.886 397.215 320.636 402.044 326.079C404.244 328.587 408.584 332.685 415.919 335.621C417.142 337.151 419.403 340.454 420.137 345.286C420.259 346.02 420.687 349.384 419.587 353.604C419.342 354.583 417.875 359.905 413.046 364.492C407.423 369.875 400.699 370.853 398.499 371.159C381.934 373.361 369.097 358.865 366.836 356.357C364.574 353.788 360.846 349.506 358.706 342.9C355.283 332.38 357.912 322.899 359.806 315.987C361.579 309.503 363.963 304.61 365.674 301.429Z" fill="#3F3F3F"/>
</svg>
