<svg width="326" height="244" viewBox="0 0 326 244" fill="none" xmlns="http://www.w3.org/2000/svg">
<path d="M22.4741 197.782C27.2215 191.662 35.6363 191.459 42.5842 192.902C46.5981 193.736 50.5305 194.936 54.4832 196.034C58.5786 197.152 62.674 198.291 66.7693 199.409C71.3945 200.69 75.9992 201.951 80.6243 203.232C81.0115 203.333 81.1745 202.744 80.7873 202.642C72.2095 200.283 63.6112 197.904 55.0333 195.546C47.4335 193.451 39.1408 190.259 31.1742 191.947C27.629 192.699 24.2671 194.448 22.0258 197.335C21.8017 197.66 22.2296 198.087 22.4741 197.782Z" fill="#E8E8E8"/>
<path d="M52.18 194.956C54.3397 193.899 55.2566 191.093 57.5997 190.361C60.004 189.608 62.6731 191.093 64.8736 189.466C65.8312 188.754 66.5444 187.575 67.7057 187.148C68.7245 186.782 69.784 187.189 70.762 187.494C71.5974 187.758 72.4327 188.002 73.2681 188.266C76.63 189.303 79.9715 190.32 83.3334 191.357C87.1435 192.516 90.9333 193.695 94.7434 194.854C95.1101 194.976 95.2731 194.387 94.9064 194.265C87.9381 192.13 80.9902 189.995 74.022 187.86C72.392 187.372 70.7009 186.619 69.0097 186.416C67.828 186.274 66.8907 186.741 66.0554 187.514C64.894 188.592 64.0179 189.588 62.3267 189.669C60.9209 189.751 59.5354 189.385 58.1295 189.608C55.2362 190.056 54.3397 193.207 51.8947 194.407C51.528 194.61 51.8336 195.139 52.18 194.956Z" fill="#E8E8E8"/>
<path d="M88.7956 192.394C90.2422 192.76 91.3832 191.316 92.6872 190.889C94.4394 190.3 96.3139 190.544 97.9032 191.459C98.2496 191.662 98.5552 191.133 98.2088 190.93C96.8641 190.137 95.3359 189.812 93.7874 190.015C93.1151 190.096 92.4834 190.279 91.8722 190.544C90.9961 190.93 89.9773 192.048 88.9586 191.804C88.5715 191.703 88.4084 192.292 88.7956 192.394Z" fill="#E8E8E8"/>
<path d="M104.503 190.869C103.138 189.751 101.834 188.551 100.611 187.27C100.041 186.68 99.4908 186.05 98.9611 185.42C98.6555 185.054 98.3498 184.688 98.0646 184.322C97.8608 184.057 97.6571 183.793 97.4737 183.529C97.1477 183.203 97.1477 182.797 97.4941 182.349C97.7386 182.451 98.1257 182.207 97.922 181.922C96.6791 180.255 95.7622 178.425 95.1713 176.432C95.0491 176.554 94.9268 176.676 94.8046 176.798C95.477 176.981 95.966 177.327 96.3327 177.896C96.5365 178.222 97.0662 177.937 96.8625 177.591C93.8266 172.345 91.3408 166.815 89.4663 161.06C89.3033 161.162 89.12 161.264 88.957 161.365C97.4941 169.743 101.365 181.394 108.558 190.767C108.802 191.072 109.332 190.767 109.087 190.462C101.875 181.048 97.9627 169.356 89.3848 160.938C89.1811 160.735 88.7736 160.938 88.8755 161.243C90.7703 167.059 93.2561 172.63 96.3327 177.917C96.5161 177.815 96.6791 177.713 96.8625 177.612C96.3938 176.9 95.7826 176.432 94.9676 176.229C94.7435 176.168 94.5193 176.371 94.6008 176.595C95.2121 178.628 96.1493 180.519 97.4126 182.227C97.5552 182.085 97.6978 181.943 97.8405 181.8C97.27 181.536 96.6383 181.8 96.4957 182.471C96.3123 183.427 97.4737 184.484 98.0035 185.155C99.8168 187.412 101.875 189.466 104.116 191.296C104.381 191.54 104.809 191.113 104.503 190.869Z" fill="#E8E8E8"/>
<path d="M102.365 178.161C98.6163 172.569 95.5805 166.571 93.3392 160.227C93.2781 160.349 93.1966 160.471 93.1355 160.593C93.8282 160.43 94.4191 160.694 94.8062 161.304C95.01 161.65 95.499 161.345 95.336 160.999C92.1778 154.188 88.9586 147.091 89.1827 139.426C88.9993 139.487 88.7956 139.527 88.6122 139.588C94.0523 150.772 99.2276 162.097 104.118 173.525C104.26 173.85 104.79 173.606 104.668 173.281C103.853 170.841 103.058 168.38 102.243 165.94C101.856 164.741 101.448 163.561 101.061 162.362C100.796 161.569 100.226 159.84 101.367 159.413C101.245 159.373 101.143 159.312 101.021 159.271C102.488 162.138 103.934 165.005 105.401 167.872C105.585 168.218 106.114 167.913 105.931 167.567C104.342 164.456 103.608 161.02 103.751 157.522C103.547 157.543 103.343 157.583 103.16 157.604C107.398 168.116 112.308 178.364 117.83 188.266C118.013 188.612 118.543 188.307 118.36 187.961C112.858 178.1 107.968 167.913 103.751 157.441C103.629 157.136 103.16 157.156 103.16 157.522C103.017 161.121 103.792 164.639 105.422 167.872C105.605 167.77 105.768 167.669 105.951 167.567C104.484 164.7 103.038 161.833 101.571 158.966C101.51 158.864 101.347 158.783 101.224 158.824C99.1868 159.576 100.491 162.484 100.939 163.846C101.999 167.038 103.038 170.251 104.097 173.443C104.281 173.362 104.464 173.281 104.647 173.199C99.7573 161.772 94.5821 150.446 89.142 139.263C88.9993 138.978 88.5715 139.141 88.5715 139.426C88.327 147.193 91.6073 154.411 94.8062 161.304C94.9896 161.203 95.1526 161.101 95.336 160.999C94.8062 160.166 93.9505 159.8 92.9725 160.003C92.8095 160.044 92.7076 160.227 92.7687 160.369C95.0303 166.754 98.0866 172.813 101.856 178.445C102.06 178.791 102.589 178.486 102.365 178.161Z" fill="#E8E8E8"/>
<path d="M62.1037 217.465C69.1535 214.069 76.5904 210.613 84.6385 211.426C88.4486 211.812 92.1365 212.91 95.9262 213.398C97.8415 213.642 99.7771 213.744 101.692 213.52C103.485 213.297 105.176 212.646 106.929 212.26C109.19 211.751 111.248 212.28 113.428 212.89C115.221 213.378 116.994 213.785 118.848 213.358C119.235 213.276 119.072 212.687 118.685 212.768C114.977 213.642 111.493 210.979 107.744 211.507C105.89 211.772 104.158 212.504 102.324 212.829C100.388 213.154 98.412 213.114 96.456 212.87C92.6051 212.422 88.8561 211.284 84.9849 210.857C81.1747 210.43 77.4054 210.918 73.7582 211.975C69.6017 213.195 65.6694 215.066 61.7981 216.936C61.4314 217.099 61.7574 217.628 62.1037 217.465Z" fill="#E8E8E8"/>
<path d="M103.465 234.321C105.849 233.305 108.192 232.186 110.454 230.926C111.635 230.255 112.797 229.563 113.958 228.831C114.997 228.16 116.036 227.205 117.177 226.717C118.461 226.188 120.397 227.184 121.68 227.571C123.045 227.998 124.411 228.404 125.755 228.831C128.547 229.685 131.338 230.539 134.109 231.393C134.476 231.515 134.639 230.926 134.272 230.804C131.297 229.889 128.302 228.974 125.327 228.059C123.901 227.611 122.475 227.184 121.049 226.737C119.948 226.391 118.563 225.68 117.402 225.964C116.322 226.229 115.344 227.164 114.427 227.774C113.245 228.547 112.023 229.299 110.8 230.011C108.335 231.414 105.788 232.674 103.159 233.772C102.793 233.935 103.119 234.464 103.465 234.321Z" fill="#E8E8E8"/>
<path d="M128.811 234.952C130.359 234.179 131.908 233.386 133.456 232.613C134.882 231.881 136.41 230.905 138.04 230.763C139.691 230.6 140.974 231.678 142.401 232.308C143.603 232.837 144.907 233.142 146.211 233.223C149.267 233.386 152.12 231.861 155.155 232.024C157.58 232.166 160.025 234.159 162.409 232.898C162.755 232.715 162.45 232.186 162.103 232.369C160.616 233.162 159.006 232.39 157.539 231.922C156.276 231.515 155.054 231.332 153.729 231.475C150.591 231.8 147.719 233.122 144.499 232.369C141.83 231.759 139.793 229.543 136.92 230.377C135.595 230.763 134.353 231.495 133.13 232.105C131.582 232.878 130.033 233.671 128.485 234.443C128.159 234.606 128.464 235.135 128.811 234.952Z" fill="#E8E8E8"/>
<path d="M140.711 230.539C139.448 229.441 138.307 228.221 137.369 226.818C136.942 226.188 136.554 225.517 136.188 224.846C136.004 224.5 135.841 224.155 135.699 223.809C135.576 223.524 135.454 223.26 135.352 222.975C135.169 222.67 135.25 222.386 135.597 222.121C135.78 222.04 135.964 221.959 136.147 221.877C133.906 218.583 132.5 214.842 132.031 210.897C131.848 210.979 131.685 211.04 131.502 211.121C131.868 211.589 132.235 212.056 132.622 212.544C132.846 212.829 133.274 212.463 133.111 212.178C129.566 205.855 127.671 198.738 127.63 191.499C127.447 191.581 127.284 191.642 127.1 191.723C128.486 192.841 129.545 194.224 130.197 195.871C130.381 195.79 130.564 195.708 130.748 195.627C129.158 192.272 128.832 188.49 129.77 184.911C129.566 184.911 129.382 184.911 129.179 184.911C133.356 196.847 137.512 208.762 141.689 220.698C141.811 221.064 142.402 220.901 142.28 220.535C140.181 214.415 139.142 207.99 139.203 201.503C139.02 201.585 138.857 201.646 138.673 201.727C139.916 202.845 140.691 204.248 140.976 205.895C141.037 206.241 141.587 206.16 141.567 205.814C141.506 204.574 141.424 203.313 141.363 202.073C141.2 202.154 141.057 202.256 140.894 202.337C141.974 203.028 142.178 204.858 142.524 205.997C142.891 207.217 143.258 208.437 143.645 209.677C144.399 212.199 145.173 214.7 145.927 217.221C147.455 222.243 148.983 227.286 150.511 232.308C150.634 232.674 151.224 232.532 151.102 232.146C149.452 226.737 147.822 221.308 146.171 215.899C145.377 213.256 144.562 210.613 143.767 207.969C143.36 206.607 142.952 205.265 142.545 203.903C142.28 203.069 141.974 202.317 141.22 201.829C141.037 201.707 140.752 201.869 140.752 202.093C140.813 203.333 140.894 204.594 140.955 205.834C141.159 205.814 141.363 205.773 141.546 205.753C141.261 204.004 140.405 202.479 139.081 201.3C138.877 201.117 138.572 201.239 138.551 201.524C138.49 208.051 139.529 214.537 141.648 220.718C141.852 220.657 142.035 220.617 142.239 220.556C138.062 208.62 133.906 196.705 129.729 184.769C129.627 184.505 129.219 184.464 129.138 184.769C128.16 188.531 128.527 192.455 130.177 195.952C130.32 196.257 130.87 196.034 130.727 195.708C130.034 193.96 128.955 192.475 127.467 191.296C127.263 191.133 126.938 191.235 126.938 191.52C126.978 198.86 128.893 206.099 132.5 212.504C132.663 212.382 132.826 212.26 132.989 212.138C132.622 211.67 132.255 211.202 131.868 210.714C131.705 210.511 131.318 210.674 131.338 210.938C131.807 215.005 133.233 218.848 135.536 222.223C135.739 222.508 136.147 222.325 136.086 221.979C135.984 221.41 135.312 221.206 134.843 221.552C133.987 222.162 134.823 223.606 135.128 224.297C136.29 226.879 138.021 229.136 140.161 230.987C140.589 231.21 141.017 230.783 140.711 230.539Z" fill="#E8E8E8"/>
<path d="M119.397 184.932C119.132 181.109 126.08 183.305 128.016 183.671C131.194 184.261 134.352 184.85 137.531 185.44C143.867 186.619 150.224 187.799 156.561 188.978C156.948 189.059 157.111 188.47 156.724 188.388C149.45 187.026 142.197 185.684 134.923 184.322C131.357 183.651 127.791 182.98 124.226 182.329C122.942 182.085 121.455 181.821 120.253 182.492C119.336 182.98 118.725 183.874 118.806 184.932C118.806 185.318 119.438 185.318 119.397 184.932Z" fill="#E8E8E8"/>
<path d="M152.345 188.307C154.464 188.531 155.768 186.518 157.418 185.542C158.824 184.728 160.047 185.359 161.493 185.643C163.103 185.969 164.753 186.009 166.383 185.806C166.771 185.765 166.771 185.155 166.383 185.196C164.55 185.42 162.716 185.338 160.923 184.891C159.843 184.606 158.865 184.261 157.785 184.688C155.87 185.42 154.566 187.941 152.345 187.697C151.958 187.656 151.958 188.266 152.345 188.307Z" fill="#E8E8E8"/>
<path d="M191.199 227.408C196.089 225.7 201.019 223.992 206.072 222.772C211.349 221.511 216.667 221.003 222.087 221.166C227.446 221.328 232.764 221.938 238.102 222.426C243.46 222.935 248.819 223.423 254.178 223.931C260.331 224.5 266.505 225.07 272.658 225.659C273.045 225.7 273.045 225.09 272.658 225.049C261.676 224.033 250.694 223.016 239.691 221.979C229.116 221.003 218.481 219.559 207.947 221.735C202.16 222.935 196.578 224.887 191.015 226.818C190.669 226.94 190.832 227.53 191.199 227.408Z" fill="#E8E8E8"/>
<path d="M212.735 207.4C216.383 206.627 219.806 205.102 223.249 203.72C226.937 202.256 230.665 201.239 234.618 200.893C238.612 200.548 242.626 200.751 246.599 200.995C250.592 201.239 254.586 201.524 258.6 201.808C263.265 202.154 267.952 202.54 272.618 202.947C273.005 202.988 273.005 202.378 272.618 202.337C264.345 201.605 256.073 200.975 247.78 200.446C239.895 199.938 232.132 199.734 224.614 202.52C220.621 204.004 216.749 205.895 212.552 206.79C212.206 206.892 212.348 207.481 212.735 207.4Z" fill="#E8E8E8"/>
<path d="M259.699 183.956C262.613 181.739 265.69 179.564 268.95 177.896C270.539 177.083 272.25 176.432 274.043 176.29C275.979 176.127 277.915 176.514 279.81 176.758C283.66 177.225 287.532 177.51 291.403 177.754C293.97 177.917 297.23 178.283 299.044 176.046C299.288 175.741 298.86 175.314 298.616 175.619C296.558 178.161 292.218 177.205 289.406 177.022C285.535 176.758 281.704 176.392 277.854 175.904C276.203 175.7 274.573 175.538 272.923 175.843C271.293 176.127 269.765 176.778 268.318 177.551C265.18 179.218 262.206 181.292 259.373 183.447C259.088 183.671 259.394 184.2 259.699 183.956Z" fill="#E8E8E8"/>
<path d="M147.536 180.601C150.429 178.425 153.343 176.27 156.236 174.094C159.007 172.02 161.595 169.844 165.221 169.661C168.644 169.499 172.149 169.885 175.551 170.17C179.219 170.475 182.866 170.881 186.493 171.39C189.549 171.817 193.196 172.955 196.089 171.369C196.436 171.186 196.13 170.658 195.784 170.841C194.296 171.654 192.646 171.654 190.996 171.451C189.223 171.227 187.45 170.922 185.678 170.678C182.255 170.21 178.811 169.824 175.348 169.539C171.945 169.255 168.42 168.848 165.018 169.051C161.859 169.234 159.516 170.861 157.051 172.711C153.771 175.151 150.511 177.612 147.23 180.052C146.925 180.316 147.23 180.845 147.536 180.601Z" fill="#E8E8E8"/>
<path d="M262.166 202.093C262.35 200.751 262.615 199.45 263.002 198.148C263.185 197.538 263.369 196.928 263.613 196.318C263.756 195.952 264.143 195.342 264.673 195.485C264.937 195.566 265.06 196.481 265.08 196.664C265.121 196.989 265.569 197.091 265.671 196.745C266.629 193.634 267.729 190.218 270.663 188.409C270.5 188.327 270.357 188.226 270.194 188.144C270.194 188.653 270.174 189.181 270.174 189.69C270.174 189.974 270.602 190.117 270.744 189.852C272.558 186.091 274.534 182.146 278.202 179.869C278.059 179.747 277.896 179.645 277.753 179.523C275.92 184.261 273.78 188.876 271.356 193.35C271.193 193.634 271.6 194 271.845 193.716C273.21 192.089 274.595 190.462 276.388 189.283C276.246 189.141 276.103 188.998 275.96 188.856C273.699 193.614 271.233 198.25 268.523 202.764C268.32 203.11 268.849 203.415 269.053 203.069C271.743 198.555 274.228 193.919 276.49 189.161C276.612 188.917 276.347 188.551 276.062 188.734C274.228 189.954 272.802 191.601 271.396 193.268C271.559 193.39 271.722 193.512 271.885 193.634C274.33 189.12 276.49 184.464 278.344 179.665C278.446 179.421 278.1 179.198 277.896 179.32C274.127 181.658 272.089 185.664 270.215 189.527C270.398 189.588 270.602 189.629 270.785 189.69C270.785 189.181 270.805 188.653 270.805 188.144C270.805 187.921 270.541 187.758 270.337 187.88C267.281 189.771 266.078 193.309 265.08 196.583C265.284 196.603 265.488 196.644 265.671 196.664C265.569 195.627 264.632 193.858 263.491 195.18C262.92 195.851 262.696 196.949 262.452 197.782C262.044 199.124 261.759 200.507 261.555 201.91C261.535 202.317 262.105 202.479 262.166 202.093Z" fill="#E8E8E8"/>
<path d="M119.806 167.77C121.395 166.916 123.005 166.062 124.757 165.595C126.611 165.107 128.445 165.269 130.299 165.513C133.987 166.001 137.675 166.489 141.342 166.977C141.729 167.038 141.729 166.428 141.342 166.367C137.41 165.839 133.457 165.269 129.525 164.802C127.711 164.578 125.979 164.578 124.227 165.086C122.556 165.574 121.008 166.408 119.48 167.221C119.133 167.445 119.459 167.953 119.806 167.77Z" fill="#E8E8E8"/>
<path d="M32.1517 97.7627C33.5169 95.6683 36.4509 96.7663 38.2643 97.4983C40.3629 98.3523 42.4819 98.9827 44.4379 97.478C45.4363 96.7053 46.2513 95.77 47.4941 95.404C48.7778 94.9973 50.204 95.1803 51.508 95.4853C53.953 96.075 56.2146 97.2747 58.7819 97.3153C59.169 97.3153 59.169 96.7053 58.7819 96.7053C55.8275 96.6443 53.2603 95.038 50.367 94.6517C49.2464 94.5093 48.1054 94.5297 47.0255 94.916C45.9456 95.3023 45.1714 96.0953 44.3156 96.807C41.6261 99.0437 39.0181 96.746 36.2268 96.136C34.556 95.77 32.6407 95.892 31.622 97.4577C31.4182 97.783 31.948 98.088 32.1517 97.7627Z" fill="#E8E8E8"/>
<path d="M166.54 37.3604C168.007 36.12 170.064 36.364 171.674 37.157C172.897 37.7467 173.895 38.9464 175.321 39.0074C176.646 39.048 177.746 38.1534 178.867 37.5637C179.62 37.1774 180.395 36.913 181.25 37.096C182.167 37.279 182.962 37.8077 183.797 38.1737C186.548 39.3734 188.382 37.706 190.704 36.3844C191.356 36.0184 192.049 35.693 192.803 35.632C193.761 35.5507 194.616 35.9777 195.472 36.3437C196.817 36.913 197.836 37.1367 199.201 36.5877C200.607 36.0387 201.748 36.12 203.154 36.6284C204.05 36.9537 204.906 37.3604 205.843 37.5637C207.249 37.889 208.757 37.8077 209.816 36.73C210.101 36.4454 209.653 36.0184 209.388 36.303C208.023 37.6857 205.945 37.035 204.376 36.425C202.787 35.815 201.157 35.1644 199.466 35.7947C198.406 36.2014 197.693 36.486 196.552 36.0997C195.778 35.8354 195.065 35.4084 194.27 35.1847C193.068 34.8187 191.947 35.022 190.847 35.571C189.584 36.2014 188.484 37.1977 187.159 37.7264C185.407 38.4177 184.042 37.5027 182.453 36.8317C181.291 36.3437 180.191 36.2624 179.029 36.7707C177.624 37.401 176.258 38.7837 174.608 38.194C173.732 37.889 173.039 37.1774 172.245 36.73C171.572 36.364 170.839 36.0997 170.085 35.9574C168.638 35.693 167.232 35.937 166.091 36.8927C165.806 37.1977 166.254 37.6247 166.54 37.3604Z" fill="#E8E8E8"/>
<path d="M251.081 43.737C251.468 43.737 251.468 43.127 251.081 43.127C250.694 43.127 250.694 43.737 251.081 43.737Z" fill="#E8E8E8"/>
<path d="M255.157 45.9533C256.114 44.225 258.376 45.0587 259.782 45.628C261.188 46.1973 262.451 46.543 263.938 46.0347C265.161 45.6077 266.261 44.7943 267.524 44.5097C269.276 44.103 270.275 45.5873 271.864 45.933C274.35 46.482 276.856 43.7167 279.199 44.8757C279.851 45.201 280.299 45.628 281.074 45.567C281.787 45.5263 282.439 45.1807 283.131 45.018C285.067 44.5707 287.084 44.9163 288.816 45.872C289.162 46.055 289.468 45.5263 289.122 45.3433C288.021 44.7333 286.84 44.3673 285.597 44.2453C284.965 44.1843 284.313 44.2047 283.682 44.3063C282.928 44.408 282.235 44.7333 281.501 44.8757C280.503 45.0587 280.075 44.5707 279.26 44.225C278.853 44.0623 278.404 43.981 277.977 44.0013C276.958 44.042 275.98 44.469 275.043 44.8147C273.84 45.262 272.557 45.689 271.334 45.079C270.295 44.5707 269.48 43.798 268.258 43.798C265.731 43.8183 263.959 46.238 261.289 45.506C259.313 44.957 256.135 43.0253 254.668 45.628C254.443 45.994 254.973 46.299 255.157 45.9533Z" fill="#E8E8E8"/>
<path d="M235.392 70.2923C236.839 69.1537 238.489 69.2147 240.079 69.9467C240.955 70.3533 241.892 70.7397 242.809 70.1907C243.339 69.8653 243.685 69.357 244.317 69.174C244.989 68.9707 245.702 69.113 246.354 69.2757C247.515 69.5603 248.636 70.0687 249.838 70.15C251.264 70.2517 252.568 69.6417 253.954 69.4993C255.441 69.357 256.48 70.2517 257.866 70.455C259.211 70.638 260.25 69.5603 261.595 69.7637C263.225 70.0077 264.834 70.5567 266.444 70.9633C266.831 71.065 266.994 70.4753 266.607 70.3737C264.916 69.9467 263.163 69.296 261.432 69.113C259.965 68.9503 258.905 70.15 257.438 69.7027C256.073 69.296 255.095 68.7063 253.628 68.9097C252.059 69.1333 250.633 69.7433 249.023 69.3977C247.78 69.1333 246.578 68.5437 245.295 68.4623C244.826 68.442 244.337 68.4827 243.889 68.6657C243.318 68.8893 243.013 69.357 242.483 69.662C241.26 70.3737 239.61 68.869 238.306 68.7673C237.063 68.6657 235.922 69.0927 234.944 69.845C234.638 70.1093 235.087 70.5363 235.392 70.2923Z" fill="#E8E8E8"/>
<path d="M118.583 25.925C118.97 25.925 118.97 25.315 118.583 25.315C118.196 25.315 118.196 25.925 118.583 25.925Z" fill="#E8E8E8"/>
<path d="M120.376 96.3926C120.743 94.583 123.147 95.742 124.023 96.291C125.022 96.9213 126.081 97.4906 127.304 97.145C128.628 96.7586 129.525 95.62 130.992 95.5386C132.377 95.4776 133.722 96.108 135.026 96.5146C136.147 96.8603 137.328 97.1043 138.49 96.8196C139.855 96.4943 141.016 95.5386 142.402 95.2946C145.132 94.827 147.597 97.0433 150.368 96.1893C150.735 96.0673 150.593 95.4776 150.205 95.5996C147.312 96.5146 144.561 93.9526 141.627 94.8676C140.12 95.3353 138.856 96.3926 137.206 96.3316C135.678 96.2706 134.292 95.5386 132.846 95.1726C131.705 94.888 130.543 94.8066 129.443 95.315C128.812 95.5996 128.261 96.0673 127.63 96.3723C126.591 96.8603 125.715 96.5756 124.777 96.047C123.759 95.4573 122.882 94.766 121.64 94.8676C120.763 94.9286 119.989 95.376 119.826 96.2706C119.724 96.6163 120.315 96.779 120.376 96.3926Z" fill="#E8E8E8"/>
<path d="M122.23 145.119C124.655 144.102 127.1 145.912 129.545 146.034C130.808 146.095 132.03 145.79 133.273 145.546C134.842 145.241 136.187 145.221 137.695 145.851C138.612 146.237 139.447 146.481 140.384 146.115C140.914 145.912 141.362 145.566 141.892 145.383C142.483 145.18 143.094 145.139 143.726 145.139C145.906 145.18 148.086 145.932 150.164 144.956C150.511 144.794 150.205 144.265 149.859 144.428C147.638 145.465 145.172 144.326 142.829 144.57C141.709 144.692 140.975 145.343 139.936 145.648C138.693 146.014 137.471 144.956 136.248 144.773C133.62 144.367 131.134 145.831 128.485 145.302C126.366 144.875 124.227 143.635 122.067 144.55C121.721 144.692 121.884 145.282 122.23 145.119Z" fill="#E8E8E8"/>
<path d="M78.1802 115.168C79.9581 115.168 81.3994 113.73 81.3994 111.955C81.3994 110.181 79.9581 108.743 78.1802 108.743C76.4022 108.743 74.9609 110.181 74.9609 111.955C74.9609 113.73 76.4022 115.168 78.1802 115.168Z" fill="#EC615B"/>
<path d="M265.568 93.086C266.817 93.086 267.83 92.0755 267.83 90.829C267.83 89.5825 266.817 88.572 265.568 88.572C264.319 88.572 263.307 89.5825 263.307 90.829C263.307 92.0755 264.319 93.086 265.568 93.086Z" fill="#EC615B"/>
<path d="M58.6707 46.3347C59.5935 46.3347 60.3415 45.5882 60.3415 44.6673C60.3415 43.7465 59.5935 43 58.6707 43C57.748 43 57 43.7465 57 44.6673C57 45.5882 57.748 46.3347 58.6707 46.3347Z" fill="#EC615B"/>
<path d="M171.619 159.047C172.767 159.047 173.698 158.119 173.698 156.973C173.698 155.828 172.767 154.899 171.619 154.899C170.471 154.899 169.541 155.828 169.541 156.973C169.541 158.119 170.471 159.047 171.619 159.047Z" fill="#EC615B"/>
<path d="M106.384 68.758C107.7 68.758 108.768 67.6929 108.768 66.379C108.768 65.0651 107.7 64 106.384 64C105.067 64 104 65.0651 104 66.379C104 67.6929 105.067 68.758 106.384 68.758Z" fill="#461EB8"/>
<path d="M158.008 124.725C158.762 124.725 159.373 124.115 159.373 123.362C159.373 122.61 158.762 122 158.008 122C157.254 122 156.643 122.61 156.643 123.362C156.643 124.115 157.254 124.725 158.008 124.725Z" fill="#461EB8"/>
<path d="M286.86 136.315C288.007 136.315 288.938 135.386 288.938 134.241C288.938 133.095 288.007 132.167 286.86 132.167C285.712 132.167 284.781 133.095 284.781 134.241C284.781 135.386 285.712 136.315 286.86 136.315Z" fill="#461EB8"/>
<path d="M60.3317 170.597C61.1869 170.597 61.8802 169.905 61.8802 169.051C61.8802 168.198 61.1869 167.506 60.3317 167.506C59.4765 167.506 58.7832 168.198 58.7832 169.051C58.7832 169.905 59.4765 170.597 60.3317 170.597Z" fill="#461EB8"/>
<path d="M210.941 180.682C211.655 180.377 212.633 179.93 213.753 179.299C215.628 178.262 216.565 177.734 217.135 176.9C217.869 175.802 217.584 175.212 218.541 174.114C218.684 173.931 219.356 173.22 220.232 172.833C221.74 172.203 223.146 172.955 225.489 173.789C227.649 174.562 229.34 174.928 232.722 175.68C234.067 175.985 235.697 176.29 238.06 177.022C238.733 177.225 239.263 177.408 239.629 177.53C239.67 177.957 239.69 179.055 238.977 180.052C238.651 180.499 238.203 180.865 237.49 181.19C235.84 181.963 234.271 181.821 232.946 181.76C230.094 181.638 231.276 182.044 224.552 182.166C223.085 182.187 221.883 182.187 221.047 182.187C220.008 182.898 218.969 183.63 217.91 184.383C216.117 185.684 214.405 186.985 212.775 188.266C212.164 185.745 211.553 183.203 210.941 180.682Z" fill="black"/>
<path d="M202.446 154.655C200.979 155.428 200.816 155.713 195.356 160.349C186.839 167.567 185.902 167.953 178.18 174.684C170.783 181.109 169.398 182.715 167.992 184.83C164.488 190.178 163.713 194.651 163.489 196.827C163.184 199.755 162.776 203.821 165.364 207.034C166.994 209.047 169.113 209.881 169.826 210.145C171.965 210.958 173.717 210.857 176.876 210.633C181.073 210.328 184.272 209.515 185.535 209.169C186.92 208.783 190.14 207.827 194.174 205.834C197.964 203.964 199.594 202.581 204.769 199.104C207.071 197.559 210.474 195.302 214.753 192.699C215.018 190.666 214.793 189.08 214.569 188.083C214.04 185.725 212.96 184.098 211.758 182.309C210.78 180.845 209.842 179.726 209.19 178.994C210.718 177.835 212.715 176.168 214.814 173.931C216.22 172.427 218.441 170.027 220.295 166.652C222.577 162.504 224.859 158.315 223.392 155.428C221.089 150.894 210.128 150.69 202.446 154.655Z" fill="white"/>
<path opacity="0.18" d="M220.702 156.872C219.541 159.556 217.626 163.358 214.569 167.425C210.128 173.301 205.645 176.554 198.881 181.373C179.748 194.997 174.614 198.108 175.184 199.409C175.959 201.178 186.737 198.006 188.306 197.538C199.757 194.163 208.192 188.958 213.469 185.155C212.124 183.102 210.78 181.048 209.435 179.015C211.085 177.835 213.367 175.965 215.507 173.179C216.688 171.654 218.481 169.295 219.643 165.737C220.824 162.199 220.865 159.047 220.702 156.872Z" fill="#9B9797"/>
<path d="M202.364 154.635C195.111 160.023 188.041 165.676 181.235 171.593C177.975 174.419 174.715 177.246 171.659 180.275C168.949 182.959 166.423 185.928 164.895 189.466C163.305 193.126 162.857 197.355 163.244 201.32C163.57 204.594 164.772 207.888 167.768 209.596C170.905 211.365 174.858 211.182 178.322 210.816C182.58 210.389 186.777 209.352 190.751 207.746C199.614 204.147 206.562 197.416 214.936 192.963C215.282 192.78 214.976 192.252 214.63 192.435C207.641 196.156 201.692 201.524 194.683 205.245C191.015 207.197 187.063 208.62 182.988 209.494C179.218 210.287 174.98 210.897 171.15 210.165C169.357 209.82 167.625 209.088 166.341 207.746C165.098 206.424 164.426 204.696 164.08 202.927C163.326 199.084 163.672 194.732 164.935 191.032C166.199 187.331 168.664 184.22 171.354 181.455C174.145 178.588 177.201 175.944 180.196 173.321C187.429 166.977 194.927 160.918 202.67 155.184C202.976 154.94 202.69 154.411 202.364 154.635Z" fill="black"/>
<path d="M182.397 196.318C189.08 193.736 195.131 189.873 200.877 185.643C203.709 183.569 206.501 181.414 209.272 179.259C212.002 177.124 214.61 174.867 216.729 172.122C216.973 171.817 216.444 171.512 216.199 171.817C214.039 174.623 211.33 176.88 208.559 179.055C205.828 181.19 203.078 183.305 200.266 185.359C194.642 189.466 188.754 193.248 182.234 195.749C181.867 195.871 182.03 196.461 182.397 196.318Z" fill="black"/>
<path d="M208.965 179.198C212.898 182.492 214.976 187.595 214.426 192.699C214.385 193.085 214.996 193.085 215.037 192.699C215.587 187.453 213.427 182.166 209.393 178.771C209.108 178.506 208.68 178.933 208.965 179.198Z" fill="black"/>
<path d="M214.386 187.026C215.548 186.68 216.566 185.704 217.544 185.013C218.767 184.159 219.969 183.305 221.192 182.451C221.518 182.227 221.212 181.699 220.886 181.922C219.786 182.695 218.665 183.488 217.565 184.261C216.546 184.972 215.425 186.07 214.223 186.436C213.836 186.538 213.999 187.128 214.386 187.026Z" fill="black"/>
<path d="M211.024 180.967C213.327 180.011 215.446 178.71 217.361 177.103C217.667 176.839 217.218 176.412 216.933 176.676C215.12 178.222 213.082 179.462 210.882 180.377C210.515 180.54 210.678 181.129 211.024 180.967Z" fill="black"/>
<path d="M217.136 176.839C217.523 176.839 217.523 176.229 217.136 176.229C216.749 176.229 216.749 176.839 217.136 176.839Z" fill="black"/>
<path d="M217.869 176.107C218.215 175.294 218.582 174.399 219.234 173.769C220.11 172.915 221.17 173.037 222.29 173.281C224.368 173.748 226.406 174.399 228.443 174.989C230.338 175.517 232.233 175.985 234.189 176.209C235.33 176.331 236.288 176.473 237.306 176.981C238.06 177.347 238.712 177.713 239.548 177.795C239.935 177.835 239.935 177.225 239.548 177.185C238.427 177.083 237.551 176.31 236.491 175.965C235.432 175.619 234.25 175.639 233.15 175.456C230.746 175.07 228.403 174.338 226.08 173.647C224.939 173.321 223.798 172.996 222.637 172.732C221.781 172.549 220.884 172.325 220.029 172.589C218.541 173.037 217.828 174.623 217.278 175.944C217.135 176.31 217.726 176.473 217.869 176.107Z" fill="black"/>
<path d="M221.109 182.898C225.469 182.248 229.789 182.146 234.19 182.065C235.718 182.044 237.348 181.861 238.57 180.865C239.61 180.011 240.2 178.771 239.915 177.449C239.834 177.063 239.243 177.225 239.324 177.612C239.711 179.462 238.041 180.824 236.39 181.231C234.699 181.638 232.865 181.434 231.134 181.475C227.711 181.536 224.328 181.821 220.946 182.329C220.559 182.37 220.742 182.959 221.109 182.898Z" fill="black"/>
<path d="M236.574 178.852C238.081 177.774 239.61 176.697 241.117 175.619C241.219 174.928 241.545 173.423 242.788 172.142C243.155 171.756 244.011 170.861 245.294 170.617C246.639 170.353 247.678 170.963 248.839 171.491C250.714 172.345 252.527 172.671 256.113 173.362C258.945 173.891 260.372 174.155 262.409 174.053C265.18 173.891 267.157 173.159 268.338 174.318C268.461 174.44 268.97 174.989 268.929 175.66C268.868 176.514 267.951 177.063 267.218 177.49C264.019 179.32 262.226 179.848 262.226 179.848C257.703 181.17 255.421 181.841 253.465 182.004C251.875 182.126 249.614 182.187 246.883 181.76C246.089 184.484 243.685 186.233 241.423 186.091C238.509 185.908 235.82 182.634 236.574 178.852Z" fill="black"/>
<path d="M207.315 160.877C207.763 159.515 208.599 157.787 210.167 157.217C211.186 156.851 212.123 157.095 212.429 157.177C214.324 157.644 218.216 156.973 225.978 155.652C229.829 155.001 234.699 154.045 240.302 152.622C240.322 153.659 240.302 155.021 240.241 156.607C240.098 160.166 239.732 162.85 239.65 163.48C239.304 166.001 238.692 170.19 236.838 175.273C236.37 176.575 235.901 177.652 235.575 178.384C236.37 178.75 237.225 179.238 238.061 179.93C241.504 182.675 242.503 186.558 242.829 188.205C242.34 188.795 241.606 189.669 240.669 190.666C236.879 194.692 233.375 196.949 226.692 201.076C222.576 203.618 219.56 205.468 214.731 208.315C208.863 211.772 204.116 214.456 198.207 216.143C196.74 216.57 194.418 217.14 191.484 216.835C190.057 216.692 187.49 216.428 185.025 214.639C181.867 212.361 180.868 209.027 180.461 207.563C179.544 204.289 179.89 201.219 180.746 198.026C181.337 195.79 183.476 188.368 190.913 180.011C192.4 178.344 196.638 174.582 205.074 167.059C207.111 165.249 208.782 163.765 209.903 162.789C209.047 162.138 208.191 161.508 207.315 160.877Z" fill="white"/>
<path opacity="0.18" d="M235.025 155.245C234.557 157.034 233.803 159.617 232.662 162.646C222.25 190.178 198.982 202.073 200.877 205.041C202.262 207.237 215.547 201.768 225.123 196.013C232.295 191.703 237.633 187.087 241.199 183.61C240.628 182.776 239.752 181.638 238.428 180.56C237.144 179.523 235.922 178.893 235.005 178.506C235.636 177.591 236.472 176.209 237.185 174.44C237.654 173.301 238.061 172.081 238.591 169.6C239.447 165.676 239.793 162.565 239.895 161.589C240.139 159.251 240.363 156.221 240.323 152.642C238.55 153.496 236.798 154.371 235.025 155.245Z" fill="#9B9797"/>
<path d="M240.017 152.622C240.037 156.465 239.792 160.308 239.263 164.131C238.774 167.567 238.162 171.105 236.899 174.358C235.534 177.876 233.191 180.438 230.359 182.858C227.466 185.318 224.552 187.738 221.638 190.157C218.297 192.943 214.935 195.708 211.593 198.494C211.288 198.738 211.716 199.165 212.021 198.921C218.154 193.838 224.287 188.775 230.379 183.63C233.069 181.353 235.514 178.994 236.981 175.721C238.407 172.549 239.1 169.072 239.65 165.656C240.343 161.345 240.669 156.994 240.628 152.622C240.628 152.215 240.017 152.215 240.017 152.622Z" fill="black"/>
<path d="M207.66 161.447C208.496 161.894 209.331 162.341 210.187 162.789C210.533 162.972 210.839 162.443 210.492 162.26C209.657 161.813 208.822 161.365 207.966 160.918C207.619 160.735 207.314 161.264 207.66 161.447Z" fill="black"/>
<path d="M210.188 162.545C202.934 168.441 195.314 174.277 189.262 181.434C184.046 187.595 179.747 195.403 179.768 203.679C179.768 207.319 180.766 211.121 183.456 213.703C186.145 216.306 190.037 217.323 193.704 217.14C198.187 216.916 202.445 215.147 206.439 213.195C210.717 211.101 214.772 208.62 218.847 206.16C227.241 201.076 236.614 196.339 242.91 188.592C243.154 188.287 242.726 187.86 242.482 188.165C237.205 194.671 229.788 198.84 222.718 203.11C218.826 205.468 214.976 207.868 211.002 210.104C207.111 212.3 203.056 214.395 198.757 215.635C194.723 216.794 190.22 217.038 186.41 215.025C182.742 213.114 180.868 209.413 180.481 205.387C179.727 197.254 183.822 189.161 188.773 182.98C194.947 175.273 203.016 169.133 210.636 162.951C210.921 162.728 210.493 162.301 210.188 162.545Z" fill="black"/>
<path d="M235.433 178.628C239.263 180.458 241.933 184.078 242.564 188.266C242.625 188.653 243.216 188.49 243.155 188.104C242.523 183.773 239.712 179.97 235.759 178.1C235.392 177.937 235.087 178.466 235.433 178.628Z" fill="black"/>
<path d="M236.654 179.157C237.469 178.832 238.121 178.283 238.814 177.754C239.629 177.124 240.464 176.514 241.279 175.883C241.585 175.639 241.279 175.111 240.973 175.355C240.24 175.904 239.506 176.453 238.773 177.022C238.06 177.571 237.347 178.242 236.491 178.567C236.144 178.71 236.287 179.299 236.654 179.157Z" fill="black"/>
<path d="M241.586 175.639C241.993 174.44 242.482 173.26 243.134 172.162C244.031 170.658 245.376 170.82 246.883 171.207C249.227 171.796 251.468 172.691 253.831 173.22C258.416 174.236 263.122 174.582 267.809 174.277C268.196 174.257 268.196 173.647 267.809 173.667C262.287 174.033 256.725 173.464 251.386 171.959C250.103 171.593 248.86 171.125 247.576 170.759C246.598 170.475 245.437 170.149 244.418 170.353C243.501 170.536 242.971 171.227 242.523 172C241.892 173.098 241.403 174.277 240.995 175.477C240.873 175.843 241.464 176.005 241.586 175.639Z" fill="black"/>
<path d="M242.462 185.46C243.99 184.301 245.497 183.142 247.026 181.983C247.331 181.739 247.026 181.211 246.72 181.455C245.192 182.614 243.684 183.773 242.156 184.932C241.85 185.176 242.156 185.704 242.462 185.46Z" fill="black"/>
<path d="M247.006 181.841C251.977 182.919 257.051 182.105 261.757 180.316C263.897 179.503 266.342 178.588 268.175 177.205C269.459 176.249 269.642 174.419 267.951 173.769C267.585 173.626 267.422 174.216 267.788 174.358C268.705 174.704 268.807 175.7 268.175 176.392C267.87 176.737 267.442 176.961 267.034 177.205C266.199 177.673 265.343 178.1 264.488 178.506C262.674 179.36 260.8 180.092 258.864 180.662C255.054 181.76 251.06 182.126 247.148 181.272C246.782 181.17 246.619 181.76 247.006 181.841Z" fill="black"/>
<path d="M193.909 94.0214C197.006 91.4594 201.631 88.3687 207.804 86.5387C210.698 85.6847 214.324 84.6274 219.133 85.034C226.509 85.6644 231.582 89.2837 233.375 90.6054C236.187 92.659 238.102 94.8347 239.284 96.3597C239.508 110.613 239.813 124.887 240.201 139.141C240.323 143.533 240.445 147.945 240.588 152.337C237.694 154.127 233.64 156.14 228.505 157.319C216.484 160.064 206.48 156.404 202.425 154.635C202.405 151.036 202.181 145.627 201.081 139.141C199.288 128.486 196.496 124.196 194.744 115.026C193.868 110.288 193.033 103.171 193.909 94.0214Z" fill="#EC615B"/>
<path d="M230.748 97.539C229.749 98.637 229.566 99.8773 229.627 104.635C229.668 109.637 229.933 113.053 230.096 117.018C230.218 119.885 230.32 122.163 230.259 125.131C230.197 128.873 229.953 131.943 229.729 133.997C227.732 136.233 225.959 137.982 224.635 139.243C221.66 142.069 218.421 145.119 213.633 147.986C211.738 149.104 210.108 149.918 209.007 150.426C208.009 150.263 206.888 150.019 205.666 149.714C202.773 148.982 201.571 148.332 199.39 148.332C198.738 148.332 196.681 148.332 196.477 149.064C196.293 149.674 197.434 150.629 198.331 151.097C199.166 151.524 199.533 151.402 200.368 151.788C201.306 152.236 201.917 152.886 202.284 153.374C201.897 153.923 201.306 154.757 200.654 155.835C199.9 157.095 199.737 157.583 198.861 159.088C197.944 160.674 197.475 161.467 197.068 161.874C196.436 162.463 196.049 162.585 193.217 163.846C190.405 165.107 189.916 165.391 189.916 165.737C189.916 166.083 190.466 166.164 192.646 167.099C194.419 167.852 194.582 168.014 195.499 168.279C196.64 168.604 197.333 168.807 198.168 168.624C199.492 168.36 200.348 167.364 200.715 166.835C200.898 166.998 201.346 167.343 201.937 167.364C202.406 167.364 202.793 167.181 203.099 166.937C204.382 166.022 205.014 164.334 206.277 162.443C206.501 162.118 207.296 160.918 208.58 159.576C209.374 158.722 210.108 158.092 210.637 157.665C211.351 157.502 212.41 157.258 213.673 156.892C218.584 155.489 222.129 153.801 225.104 152.378C226.836 151.544 228.792 150.446 232.683 148.271C236.065 146.38 237.818 145.322 239.366 143.248C239.529 143.025 240.365 141.906 241.098 140.259C241.322 139.751 242.117 137.941 242.545 134.769C242.748 133.366 242.748 132.594 242.769 128.202C242.81 122.61 242.81 123.281 242.81 122.712C242.789 114.517 242.361 115.249 242.219 107.726C242.198 107.014 242.178 105.083 241.587 102.643C240.955 99.9993 240.161 98.82 239.713 98.2303C239.142 97.478 238.449 96.5833 237.268 96.075C235.108 95.1193 232.235 95.892 230.748 97.539Z" fill="white"/>
<path opacity="0.25" d="M237.287 96.0547C237.776 97.661 238.367 99.979 238.775 102.785C239.264 106.181 239.447 109.922 238.347 119.702C237.43 127.876 236.982 131.963 235.8 135.786C234.109 141.235 232.886 145.2 229.158 148.332C226.753 150.345 224.125 151.28 218.848 153.13C214.977 154.493 211.655 155.306 209.373 155.814C207.743 158.01 205.319 160.796 201.875 163.439C199.186 165.513 196.598 166.937 194.459 167.913C194.765 168.116 196.028 168.929 197.739 168.706C199.736 168.441 200.816 167.018 200.999 166.754C201.386 167.038 201.957 167.343 202.589 167.242C203.893 167.038 204.585 165.188 204.932 164.354C205.686 162.626 207.193 160.247 210.576 157.644C212.817 157.055 215.853 156.16 219.378 154.818C224.288 152.927 227.589 151.097 231.134 149.125C236.819 145.953 238.102 144.651 239.039 143.391C240.751 141.093 241.464 138.734 241.77 137.697C242.32 135.847 242.422 133.773 242.626 129.727C242.768 126.717 242.768 124.399 242.768 122.651C242.768 119.641 242.707 117.405 242.646 115.473C242.564 112.667 242.401 109.373 241.994 105.428C241.688 102.561 241.464 101.423 240.812 100.142C239.814 98.1084 238.326 96.807 237.287 96.0547Z" fill="#9B9797"/>
<path d="M230.442 97.4577C229.383 100.101 229.26 102.948 229.322 105.774C229.383 108.885 229.546 111.976 229.688 115.087C229.974 121.39 230.177 127.714 229.423 133.997C229.383 134.383 229.994 134.383 230.035 133.997C230.768 127.856 230.605 121.654 230.32 115.493C230.177 112.443 230.014 109.393 229.933 106.323C229.851 103.375 229.912 100.406 231.033 97.6203C231.176 97.2543 230.585 97.0917 230.442 97.4577Z" fill="black"/>
<path d="M230.603 133.468C228.729 134.505 227.221 136.01 225.774 137.575C224.206 139.263 222.637 140.91 220.884 142.415C217.298 145.526 213.264 148.088 208.945 150.08C208.578 150.243 208.904 150.772 209.25 150.609C213.407 148.698 217.298 146.258 220.783 143.309C222.514 141.866 224.104 140.28 225.632 138.633C227.221 136.904 228.81 135.156 230.889 134.017C231.255 133.793 230.95 133.265 230.603 133.468Z" fill="black"/>
<path d="M209.088 150.121C206.847 149.653 204.585 149.165 202.344 148.657C201.223 148.413 200.082 148.108 198.941 147.905C198.228 147.783 197.474 147.722 196.843 148.128C195.865 148.759 195.865 149.918 196.741 150.609C197.372 151.117 198.187 151.341 198.941 151.585C200.164 151.971 201.203 152.459 201.997 153.496C202.242 153.801 202.772 153.496 202.527 153.191C201.814 152.276 200.958 151.626 199.858 151.239C199.104 150.975 198.269 150.812 197.576 150.426C197.087 150.162 196.455 149.755 196.822 149.023C197.169 148.332 198.045 148.393 198.676 148.494C200.367 148.738 202.059 149.226 203.75 149.613C205.482 149.999 207.213 150.365 208.945 150.731C209.312 150.792 209.475 150.202 209.088 150.121Z" fill="black"/>
<path d="M201.509 153.598C200.612 155.245 199.695 156.872 198.799 158.519C198.351 159.312 197.964 160.166 197.434 160.938C196.884 161.731 196.15 162.138 195.294 162.545C193.685 163.297 191.953 163.907 190.404 164.781C189.712 165.188 189.263 165.92 189.854 166.632C190.588 167.506 192.034 167.16 193.012 166.998C194.357 166.774 195.641 166.327 196.863 165.757C199.41 164.537 201.57 162.626 203.118 160.267C203.343 159.942 202.813 159.637 202.589 159.962C201.223 162.077 199.329 163.785 197.108 164.964C196.048 165.513 194.907 165.961 193.746 166.225C193.094 166.388 192.401 166.53 191.708 166.55C191.077 166.591 190.914 166.672 190.608 166.042C190.221 165.676 190.262 165.432 190.71 165.31C190.853 165.249 190.975 165.188 191.117 165.127C192.421 164.517 193.746 163.927 195.05 163.317C196.069 162.85 197.067 162.443 197.76 161.528C198.575 160.45 199.145 159.169 199.797 157.99C200.551 156.628 201.305 155.265 202.038 153.923C202.222 153.557 201.692 153.252 201.509 153.598Z" fill="black"/>
<path d="M210.821 158.051C216.261 156.526 221.538 154.493 226.591 151.971C229.097 150.711 231.542 149.348 233.926 147.844C236.066 146.502 238.327 145.139 239.855 143.086C240.079 142.76 239.55 142.455 239.326 142.781C237.736 144.936 235.251 146.339 233.009 147.722C230.727 149.125 228.364 150.426 225.96 151.626C221.049 154.045 215.935 155.997 210.658 157.482C210.291 157.563 210.454 158.153 210.821 158.051Z" fill="black"/>
<path d="M230.848 98.0067C232.54 94.6923 236.88 95.4447 239.019 97.8033C241.586 100.65 241.708 104.818 241.994 108.438C242.605 116.347 242.727 124.318 242.238 132.228C241.994 136.071 241.423 140.137 238.856 143.187C238.611 143.492 239.039 143.919 239.284 143.614C241.586 140.849 242.381 137.352 242.707 133.854C243.135 129.381 243.135 124.847 243.094 120.353C243.053 115.656 242.829 110.939 242.401 106.262C242.075 102.744 241.444 98.8607 238.53 96.5223C236.044 94.5297 231.888 94.5907 230.298 97.7017C230.135 98.0473 230.665 98.3523 230.848 98.0067Z" fill="black"/>
<path d="M192.462 167.343C193.95 168.014 195.743 169.031 197.434 169.031C199.064 169.011 200.266 167.669 201.366 166.652C204.524 163.724 207.683 160.796 210.841 157.888C211.126 157.624 210.698 157.197 210.413 157.461C207.744 159.942 205.075 162.402 202.405 164.883C201.224 165.961 200.001 167.506 198.514 168.177C196.761 168.97 194.357 167.547 192.788 166.835C192.422 166.652 192.116 167.181 192.462 167.343Z" fill="black"/>
<path d="M200.755 166.916C201.427 168.177 202.915 167.669 203.669 166.794C205.156 165.046 206.317 162.931 207.581 161.04C207.805 160.715 207.275 160.41 207.051 160.735C206.256 161.914 205.462 163.094 204.667 164.273C204.219 164.924 202.242 168.441 201.285 166.611C201.101 166.266 200.572 166.571 200.755 166.916Z" fill="black"/>
<path d="M196.027 165.92C196.639 166.245 197.392 166.571 198.065 166.245C198.411 166.062 198.554 165.778 198.717 165.452C199.002 164.903 199.287 164.476 199.817 164.131C200.143 163.907 199.838 163.378 199.512 163.602C199.023 163.927 198.615 164.334 198.33 164.863C198.126 165.249 198.004 165.717 197.474 165.757C197.087 165.798 196.659 165.554 196.333 165.391C196.007 165.229 195.681 165.737 196.027 165.92Z" fill="black"/>
<path d="M191.851 49.7353C191.138 51.179 190.425 53.5986 190.201 54.3916C189.875 55.5303 189.141 58.194 188.734 61.732C188.51 63.684 188.265 65.819 188.469 68.6453C188.571 69.9873 188.713 72.102 189.508 74.725C190.038 76.5143 190.812 79.0966 192.911 81.74C194.744 84.0376 196.843 85.4813 198.514 86.3556C199.573 86.376 200.857 86.315 202.283 86.0506C204.85 85.5626 206.847 84.607 208.192 83.8343C208.375 84.8713 208.62 85.9693 208.925 87.108C209.557 89.4666 210.331 91.5406 211.105 93.33C211.941 93.1876 212.939 92.9436 213.999 92.4556C217.361 90.89 218.97 88.0026 219.541 86.803C219.235 85.6236 218.991 84.3426 218.766 83.021C217.992 78.08 218.196 73.6676 218.685 70.089C219.113 70.2313 219.806 70.4143 220.661 70.3736C222.332 70.272 223.473 69.357 224.044 68.869C224.533 68.4623 226.753 66.49 226.672 63.562C226.652 62.8706 226.611 61.183 225.409 60.268C224.288 59.4343 222.78 59.7393 221.68 59.963C220.417 60.2273 219.48 60.756 218.909 61.122C219.337 59.719 220.233 56.12 218.909 51.9313C218.624 51.0366 216.729 45.3433 211.146 42.883C203.567 39.5076 194.459 44.5096 191.851 49.7353Z" fill="white"/>
<path opacity="0.24" d="M214.875 49.8573C215.038 51.7483 215.16 54.4933 214.875 57.7467C213.999 67.6083 210.087 74.4607 209.068 76.1687C207.52 78.7713 204.871 82.5533 200.633 86.2743C201.896 86.1117 203.343 85.827 204.891 85.278C209.15 83.7733 212.002 81.191 213.551 79.5033C213.673 81.7603 214.06 84.5053 214.977 87.5147C215.384 88.7957 215.833 89.975 216.301 91.0323C217.381 89.6293 218.441 88.2263 219.52 86.803C219.296 85.4813 219.093 84.0783 218.95 82.6347C218.481 78.263 218.481 74.237 218.726 70.6583C219.643 70.6787 220.967 70.5973 222.373 70.0483C228.526 67.6083 232.031 57.9093 228.71 52.6227C228.567 52.399 227.833 51.2603 226.326 50.2437C221.66 47.1123 215.731 49.4913 214.875 49.8573Z" fill="#9B9797"/>
<path d="M190.364 53.7817C189.956 52.3787 189.386 49.6947 189.977 46.4007C190.16 45.384 190.792 42.1103 193.033 39.528C196.313 35.7663 200.429 36.478 205.767 34.5667C209.15 33.367 213.795 30.8457 218.502 24.9083C218.074 27.1043 217.646 29.3207 217.218 31.5167C217.952 31.72 220.417 32.2487 222.944 31.0083C227.141 28.9547 227.508 23.9933 227.528 23.7697C228.037 24.9083 228.954 27.4297 228.547 30.6423C228.261 32.8383 227.467 34.4853 226.896 35.4817C227.141 35.746 228.445 37.088 229.953 36.8847C231.786 36.6407 233.498 34.1397 233.009 30.9067C233.416 32.1063 233.905 34.0787 233.783 36.4983C233.62 39.4467 232.642 41.663 231.99 42.8627C232.153 43.005 233.192 43.9403 234.659 43.7573C235.943 43.5947 237.043 42.6593 237.471 41.3377C237.369 42.7 237.125 44.6723 236.33 46.9293C235.25 49.9793 234.354 50.2233 233.905 52.399C233.192 55.815 235.026 56.974 234.537 60.024C234.129 62.586 232.459 64.1923 230.34 66.246C226.489 69.967 222.067 71.98 218.359 73.0983C218.522 71.9597 218.706 70.821 218.869 69.6823C219.337 69.967 220.152 70.3533 221.171 70.3127C223.249 70.2313 224.553 68.381 225.246 67.3847C226.041 66.2663 227.365 64.355 226.652 62.3013C226.061 60.634 224.492 59.9427 224.349 59.8817C222.516 59.109 220.152 59.8003 218.624 61.671C217.768 58.316 216.933 54.9813 216.077 51.6263C213.184 49.7963 210.311 47.9867 207.418 46.1567C205.992 45.8923 202.1 45.3637 197.74 47.2953C193.339 49.2473 191.097 52.5617 190.364 53.7817Z" fill="#461EB8"/>
<path d="M190.059 53.7003C188.328 60.1663 187.288 67.039 188.878 73.6473C190.182 79.0153 193.482 85.1356 199.106 86.8843C199.473 87.0063 199.636 86.4166 199.269 86.2947C193.625 84.546 190.467 78.1817 189.306 72.8137C187.94 66.5103 188.98 60.0037 190.63 53.863C190.752 53.497 190.161 53.3343 190.059 53.7003Z" fill="black"/>
<path d="M199.554 86.7827C208.947 85.827 216.791 79.056 218.992 69.8653C219.073 69.479 218.503 69.3163 218.401 69.7027C216.261 78.5883 208.702 85.2373 199.554 86.1727C199.167 86.2133 199.146 86.8233 199.554 86.7827Z" fill="black"/>
<path d="M218.461 70.028C222.658 72.59 226.754 67.222 227.018 63.4603C227.161 61.4676 226.244 59.9426 224.268 59.3733C222.434 58.8447 220.437 59.3936 219.133 60.7763C218.868 61.061 219.296 61.488 219.561 61.2033C220.641 60.0443 222.271 59.536 223.84 59.8817C224.655 60.0646 225.551 60.512 226.02 61.244C226.529 62.037 226.468 63.135 226.346 64.0093C225.857 67.161 222.353 71.675 218.766 69.479C218.44 69.296 218.114 69.8246 218.461 70.028Z" fill="black"/>
<path d="M218.42 69.9873C217.625 75.6197 217.911 81.3333 219.255 86.864C219.357 87.2503 219.948 87.0877 219.846 86.7013C218.522 81.2723 218.237 75.6603 219.011 70.15C219.052 69.7637 218.461 69.601 218.42 69.9873Z" fill="black"/>
<path d="M207.887 83.9157C208.519 87.2097 209.497 90.402 210.842 93.4927C211.005 93.8587 211.535 93.5333 211.372 93.1877C210.047 90.158 209.09 87.0063 208.478 83.753C208.397 83.3667 207.826 83.5293 207.887 83.9157Z" fill="black"/>
<path d="M211.269 93.574C215.201 92.9436 218.523 90.2393 220.01 86.559C220.153 86.193 219.562 86.0303 219.419 86.3963C218.013 89.8936 214.814 92.3946 211.106 92.9843C210.719 93.0453 210.882 93.635 211.269 93.574Z" fill="black"/>
<path d="M208.376 84.6273C209.212 84.668 209.782 84.0986 210.414 83.6106C211.249 82.96 212.044 82.2686 212.777 81.5366C214.142 80.1743 215.243 78.6086 215.956 76.8193C216.098 76.4533 215.507 76.2906 215.365 76.6566C214.733 78.2426 213.755 79.6456 212.574 80.8656C212.044 81.435 211.473 81.9433 210.882 82.4516C210.23 83.0006 209.293 84.058 208.376 84.0173C207.989 83.997 207.989 84.607 208.376 84.6273Z" fill="black"/>
<path d="M208.417 84.302C210.149 83.1837 211.758 81.9027 213.266 80.4997C213.551 80.2353 213.124 79.788 212.838 80.0727C211.371 81.4553 209.802 82.6957 208.111 83.7937C207.765 83.9767 208.091 84.5053 208.417 84.302Z" fill="black"/>
<path d="M196.436 54.8797C195.295 60.0647 194.643 65.331 194.5 70.638C194.5 70.943 194.908 71.0447 195.071 70.8007C195.865 69.54 196.66 68.259 197.454 66.9983C197.658 66.673 197.128 66.3477 196.925 66.6933C196.13 67.954 195.335 69.235 194.541 70.4957C194.724 70.5567 194.928 70.5973 195.111 70.6583C195.254 65.4123 195.906 60.1867 197.027 55.0627C197.108 54.656 196.517 54.4933 196.436 54.8797Z" fill="black"/>
<path d="M197.251 78.2833C196.762 77.3683 196.436 76.3923 196.354 75.3553C196.293 74.6233 196.456 71.6547 197.842 72.834C198.575 73.4643 198.473 74.847 198.494 75.762C198.494 76.189 198.494 76.6363 198.453 77.0633C198.433 77.3683 198.392 77.6733 198.331 77.958C197.801 78.324 197.393 78.3037 197.129 77.9173C196.864 77.6327 196.415 78.0597 196.701 78.3443C197.577 79.239 198.718 79.2797 198.962 77.8767C199.146 76.8803 199.146 75.823 199.064 74.8267C199.003 74.0337 199.003 72.895 198.412 72.285C197.536 71.3903 196.293 72.224 195.947 73.1797C195.315 74.8877 195.926 77.043 196.741 78.5883C196.904 78.934 197.434 78.629 197.251 78.2833Z" fill="black"/>
<path d="M201.469 59.9833C202.08 62.8503 205.849 63.074 206.97 60.4306C207.113 60.0646 206.522 59.902 206.379 60.268C205.462 62.4233 202.528 62.0166 202.059 59.8206C201.978 59.4546 201.387 59.597 201.469 59.9833Z" fill="black"/>
<path d="M200.266 52.9277C201.04 51.1993 203.037 50.3657 204.87 50.752C206.765 51.1587 208.212 52.6227 209.149 54.229C209.353 54.5747 209.883 54.2697 209.679 53.924C208.599 52.0737 206.887 50.4267 204.687 50.1013C202.711 49.8167 200.592 50.752 199.736 52.6023C199.573 52.9887 200.103 53.2937 200.266 52.9277Z" fill="black"/>
<path d="M188.327 53.5986C188.877 52.46 189.834 51.2197 191.24 51.24C192.585 51.2603 193.563 52.4397 194.235 53.4766C194.439 53.802 194.969 53.497 194.765 53.1716C193.991 51.9313 192.83 50.6503 191.24 50.63C189.61 50.6097 188.469 51.9517 187.817 53.2937C187.634 53.6393 188.164 53.9443 188.327 53.5986Z" fill="black"/>
<path d="M191.933 62.8097C192.293 62.8097 192.585 61.4715 192.585 59.8207C192.585 58.1699 192.293 56.8317 191.933 56.8317C191.573 56.8317 191.281 58.1699 191.281 59.8207C191.281 61.4715 191.573 62.8097 191.933 62.8097Z" fill="black"/>
<path d="M193.807 94.977C193.746 95.7294 193.665 96.7664 193.624 97.966C193.441 102.073 193.604 105.184 193.665 106.018C193.828 108.722 194.195 112.26 195.05 116.368C194.235 117.303 193.013 118.686 191.444 120.312C188.469 123.423 186.941 125.009 184.496 126.656C181.766 128.486 179.871 129.056 178.852 129.32C177.569 129.625 176.346 129.91 174.859 129.584C172.434 129.035 170.987 127.246 170.458 126.555C169.113 124.847 168.807 123.179 168.257 119.926C167.85 117.547 167.768 115.737 167.646 112.24C167.585 110.573 167.503 108.539 167.544 105.815C167.585 102.744 167.748 99.1047 168.196 95.038C168.4 93.208 168.685 90.951 169.133 88.389C168.787 87.901 168.42 87.413 168.033 86.9047C167.626 86.376 167.238 85.8677 166.831 85.3594C165.792 86.2337 164.773 87.1284 163.734 88.0027C163.469 88.1044 163 88.267 162.43 88.206C161.35 88.1044 160.718 87.352 160.494 87.108C159.496 85.9694 159.639 84.5257 159.679 84.241C161.085 82.716 162.491 81.2114 163.917 79.6864C163.938 78.812 164.06 77.6734 164.406 76.4127C164.671 75.4774 164.997 74.7047 165.303 74.054C165.568 73.5254 165.934 72.9357 166.403 72.346C167.238 71.248 168.135 70.4754 168.868 69.9467C168.278 70.211 168.135 70.211 168.094 70.1704C167.992 70.0077 168.95 68.808 170.295 68.686C171.049 68.6047 171.639 68.8894 172.047 69.0724C172.679 69.3774 173.106 69.7637 173.371 70.0484C174.635 68.9707 175.898 67.893 177.161 66.8357C177.609 67.1 178.058 67.405 178.506 67.71C179.545 68.4217 180.482 69.1334 181.318 69.8247C181.012 70.211 180.625 70.638 180.136 71.065C179.321 71.7767 178.506 72.2037 177.874 72.4884C178.261 72.6104 178.954 72.895 179.3 73.566C179.647 74.2167 179.504 74.9284 179.3 75.823C179.158 76.433 178.974 76.921 178.832 77.2464C178.913 78.1004 178.954 79.2594 178.71 80.5607C178.322 82.6957 177.426 84.2817 176.815 85.1967C176.794 85.9897 176.774 87.23 176.815 88.755C176.978 95.038 177.895 98.7184 178.485 103.354C178.832 105.998 179.178 109.922 179.076 114.863C179.545 114.558 180.217 114.07 180.971 113.44C182.886 111.833 184.109 110.227 185.719 107.868C187.308 105.571 188.347 103.863 189.753 101.585C190.629 100.101 192.035 97.844 193.807 94.977Z" fill="white"/>
<path opacity="0.24" d="M175.285 76.4127C174.857 77.348 174.429 78.3037 174.001 79.2797C172.758 82.2077 171.739 85.0137 170.904 87.6977C170.721 91.927 170.619 95.465 170.537 98.027C170.435 101.911 170.68 106.547 171.128 115.819C171.312 119.641 171.475 121.959 173.268 123.647C175.142 125.396 177.75 125.436 179.217 125.436C187.041 125.416 192.889 118.767 194.498 116.835C192.318 120.536 189.832 122.956 188.141 124.379C186.226 125.985 183.761 127.998 179.93 128.995C176.691 129.849 175.224 129.666 174.836 129.584C172.045 128.913 170.497 126.595 169.946 125.802C168.622 123.83 168.194 121.776 167.95 117.364C167.705 112.83 167.97 111.63 168.052 105.388C168.113 99.43 167.889 97.7423 168.337 93.6147C168.602 91.195 168.928 89.2023 169.193 87.8603C168.398 87.0267 167.603 86.193 166.809 85.3797C166.136 85.9693 165.444 86.5387 164.751 87.1283C164.303 87.5147 163.834 87.901 163.386 88.267C162.978 88.3077 162.387 88.2873 161.756 88.023C160.126 87.3317 159.107 85.3187 159.616 84.6273C159.942 84.1597 160.798 84.5257 161.98 84.5257C164.017 84.546 165.382 83.509 168.092 81.557C170.008 80.154 172.208 78.5883 175.285 76.4127Z" fill="#9B9797"/>
<path d="M193.541 94.8143C188.834 101.301 185.35 108.743 179.401 114.273C179.115 114.538 179.543 114.965 179.829 114.7C185.819 109.129 189.323 101.646 194.071 95.1193C194.315 94.8143 193.785 94.5093 193.541 94.8143Z" fill="black"/>
<path d="M176.018 130.052C184.087 129.523 189.873 122.773 194.723 117.039C194.967 116.734 194.539 116.307 194.295 116.612C189.588 122.224 183.883 128.934 176.039 129.462C175.631 129.462 175.631 130.072 176.018 130.052Z" fill="black"/>
<path d="M172.188 72.773C172.229 74.3794 173.288 75.762 174.837 76.2094C175.224 76.311 175.387 75.7214 175 75.6197C173.716 75.2537 172.84 74.0947 172.799 72.773C172.779 72.3867 172.168 72.3867 172.188 72.773Z" fill="black"/>
<path d="M172.82 72.59C173.024 70.821 176.182 72.102 177.038 72.5493C177.873 72.9763 178.709 73.4034 178.892 74.42C179.035 75.1927 178.79 76.006 178.586 76.7583C178.484 77.1447 179.075 77.3073 179.177 76.921C179.462 75.9043 179.768 74.7454 179.34 73.749C178.933 72.7324 177.812 72.2647 176.895 71.8174C175.958 71.37 174.939 71.0447 173.88 71.1667C173.452 71.2277 172.902 71.3294 172.555 71.614C172.189 71.8987 172.27 72.102 172.209 72.6104C172.168 72.9764 172.779 72.9764 172.82 72.59Z" fill="black"/>
<path d="M178.383 76.6364C178.321 78.1817 178.668 79.6864 178.301 81.2317C177.955 82.655 177.262 83.9767 176.569 85.2577C176.386 85.6033 176.916 85.9083 177.099 85.5627C177.812 84.2207 178.525 82.8584 178.892 81.3944C179.279 79.8084 178.933 78.2427 178.994 76.6364C179.014 76.2297 178.403 76.2297 178.383 76.6364Z" fill="black"/>
<path d="M176.568 85.278C176.1 95.9937 179.176 106.486 178.687 117.201C178.667 117.588 179.278 117.588 179.299 117.201C179.788 106.486 176.711 95.9937 177.18 85.278C177.2 84.8917 176.589 84.8917 176.568 85.278Z" fill="black"/>
<path d="M166.565 85.5016C167.176 86.3557 167.828 87.169 168.562 87.9213C168.827 88.206 169.254 87.779 168.99 87.4943C168.297 86.7623 167.665 86.01 167.095 85.1966C166.85 84.8713 166.32 85.1763 166.565 85.5016Z" fill="black"/>
<path d="M168.907 87.7587C167.746 94.367 167.175 101.077 167.196 107.787C167.216 111.122 167.379 114.477 167.705 117.791C167.97 120.617 168.296 123.586 169.783 126.067C171.128 128.324 173.492 130.032 176.181 129.971C176.568 129.95 176.568 129.34 176.181 129.361C172.412 129.462 169.987 126.107 169.111 122.813C168.133 119.194 168.052 115.249 167.909 111.528C167.603 103.639 168.153 95.709 169.519 87.9417C169.559 87.535 168.968 87.3724 168.907 87.7587Z" fill="black"/>
<path d="M165.057 78.629C163.141 80.2353 161.287 81.923 159.535 83.692C159.25 83.9767 159.698 84.4037 159.963 84.119C161.735 82.35 163.569 80.6623 165.484 79.056C165.79 78.812 165.362 78.385 165.057 78.629Z" fill="black"/>
<path d="M159.352 84.241C159.047 86.5997 160.84 88.5923 163.224 88.572C163.611 88.572 163.611 87.962 163.224 87.962C161.166 87.9823 159.699 86.254 159.964 84.241C160.025 83.8547 159.413 83.8547 159.352 84.241Z" fill="black"/>
<path d="M159.923 84.0986C162.063 84.1596 163.55 86.071 163.102 88.145C163.02 88.5313 163.611 88.694 163.693 88.3077C164.243 85.8067 162.49 83.57 159.923 83.4886C159.536 83.4886 159.536 84.0986 159.923 84.0986Z" fill="black"/>
<path d="M163.937 88.206C166.259 86.0913 168.623 83.997 170.884 81.8213C171.924 80.825 172.922 79.8083 173.859 78.7103C174.369 78.1207 175.652 76.9617 175.673 76.1483C175.673 76.0467 175.611 75.9247 175.53 75.884C175.489 75.8637 175.448 75.8433 175.428 75.8433C175.306 75.7823 175.143 75.7823 175.061 75.884C175.041 75.9043 175.021 75.9247 175 75.9653C174.756 76.2703 175.184 76.6973 175.428 76.3923C175.448 76.372 175.469 76.3517 175.489 76.311C175.367 76.3313 175.245 76.3517 175.122 76.3517C175.082 76.1687 175.021 76.1687 174.939 76.372C174.837 76.5143 174.735 76.6567 174.613 76.799C174.369 77.104 174.144 77.409 173.88 77.714C173.472 78.2223 173.024 78.7103 172.596 79.1983C171.699 80.1743 170.762 81.0893 169.805 81.984C167.726 83.936 165.607 85.827 163.509 87.7587C163.203 88.0433 163.651 88.4703 163.937 88.206Z" fill="black"/>
<path d="M164.201 79.7677C164.344 78.7917 164.486 77.8157 164.629 76.8397C164.731 76.1077 164.812 75.2943 165.22 74.6437C166.157 73.139 167.482 74.2167 168.195 75.2333C168.5 75.6603 168.786 76.128 169.091 76.555C169.254 76.799 170.049 77.6733 169.947 77.9783C170.049 77.897 170.151 77.836 170.232 77.7547C170.191 77.7547 170.171 77.7547 170.13 77.7547C169.743 77.7343 169.743 78.3443 170.13 78.3647C170.171 78.3647 170.191 78.3647 170.232 78.3647C170.375 78.3647 170.497 78.263 170.517 78.141C170.66 77.6327 170.314 77.3277 170.049 76.921C169.539 76.1687 169.05 75.396 168.521 74.664C167.971 73.9117 167.257 73.1797 166.239 73.2813C165.261 73.383 164.67 74.1353 164.364 75.0097C163.855 76.4533 163.814 78.1003 163.59 79.605C163.549 79.9913 164.14 80.154 164.201 79.7677Z" fill="black"/>
<path d="M165.159 77.47C165.709 78.5477 166.626 79.6457 167.93 79.727C169.01 79.8084 170.029 79.1984 170.314 78.141C170.416 77.7547 169.825 77.592 169.723 77.9784C169.458 78.9544 168.378 79.3204 167.482 79.0154C166.626 78.7104 166.076 77.958 165.689 77.1854C165.505 76.8194 164.976 77.1244 165.159 77.47Z" fill="black"/>
<path d="M165.914 73.505C166.016 72.5087 167.157 72.2444 167.931 72.5087C168.746 72.773 169.378 73.505 169.948 74.0947C170.396 74.5624 171.273 75.213 171.395 75.8637C171.558 76.738 170.458 77.3277 169.724 77.5514C169.357 77.653 169.5 78.2427 169.887 78.141C170.784 77.8767 172.088 77.0837 172.23 76.0264C172.291 75.5994 172.026 75.3757 171.741 75.0707C171.171 74.4607 170.621 73.871 170.03 73.2814C169.235 72.468 168.216 71.5937 166.994 71.797C166.077 71.9394 165.405 72.5494 165.303 73.4847C165.262 73.8914 165.873 73.8914 165.914 73.505Z" fill="black"/>
<path d="M167.013 72.0004C167.298 71.675 167.441 71.248 167.706 70.9227C168.358 70.1094 169.377 70.8617 170.049 71.3497C171.353 72.2647 172.739 73.9321 171.557 75.5181C171.333 75.8434 171.862 76.1484 172.087 75.8231C173.35 74.1151 172.107 72.1427 170.66 71.0447C169.988 70.5364 168.969 69.6214 168.052 69.8857C167.237 70.1094 167.095 71.0447 166.585 71.5937C166.32 71.858 166.748 72.285 167.013 72.0004Z" fill="black"/>
<path d="M169.071 70.15C169.784 69.2757 170.722 68.3607 171.822 69.2757C172.555 69.8654 173.024 70.699 173.289 71.5734C173.411 71.9394 173.982 71.797 173.88 71.4107C173.533 70.2314 172.739 68.869 171.557 68.381C170.355 67.893 169.356 68.8487 168.643 69.723C168.399 70.0077 168.827 70.455 169.071 70.15Z" fill="black"/>
<path d="M173.573 70.2313C174.837 69.1537 176.1 68.076 177.363 67.0187C177.669 66.7543 177.22 66.3273 176.935 66.5917C175.672 67.6693 174.409 68.747 173.145 69.8043C172.84 70.0687 173.288 70.4957 173.573 70.2313Z" fill="black"/>
<path d="M178.078 72.834C179.28 71.9597 180.441 71.0243 181.521 70.0077C181.806 69.7433 181.379 69.3163 181.093 69.5807C180.034 70.5567 178.934 71.4717 177.772 72.3053C177.446 72.529 177.752 73.0577 178.078 72.834Z" fill="black"/>
<path d="M187.224 71.309C194.021 71.309 199.531 65.8105 199.531 59.0277C199.531 52.2449 194.021 46.7463 187.224 46.7463C180.428 46.7463 174.918 52.2449 174.918 59.0277C174.918 65.8105 180.428 71.309 187.224 71.309Z" stroke="black" stroke-width="3" stroke-miterlimit="10"/>
<path d="M179.767 60.5324C184.291 57.645 188.916 54.9204 193.643 52.3584C193.989 52.1754 193.683 51.6467 193.337 51.8297C188.61 54.3714 183.985 57.096 179.462 60.0037C179.136 60.2274 179.441 60.756 179.767 60.5324Z" fill="black"/>
<path d="M180.277 65.8597C184.006 63.135 187.775 60.512 191.626 57.95C191.952 57.7264 191.646 57.1977 191.32 57.4214C187.49 59.9833 183.7 62.6267 179.971 65.331C179.645 65.5547 179.951 66.0833 180.277 65.8597Z" fill="black"/>
</svg>
