<svg width="326" height="244" viewBox="0 0 326 244" fill="none" xmlns="http://www.w3.org/2000/svg">
<path d="M230.01 132.381C226.587 132.625 224.774 128.619 225.345 125.732C225.895 122.906 228.666 120.913 231.498 120.994C235.226 121.076 237.142 124.715 236.469 128.111C235.878 131.141 232.822 133.377 229.766 132.178C229.399 132.035 229.236 132.625 229.603 132.767C232.048 133.723 234.9 132.605 236.245 130.388C237.671 128.03 237.508 124.654 235.858 122.458C234.187 120.222 230.988 119.917 228.564 120.994C226.139 122.052 224.55 124.431 224.611 127.074C224.672 129.961 226.812 133.215 229.99 132.991C230.398 132.971 230.418 132.361 230.01 132.381Z" fill="#E8E8E8"/>
<path d="M261.286 77.7086C260.104 79.9046 258.739 81.9786 257.19 83.9306C256.946 84.2356 257.374 84.6626 257.618 84.3576C259.207 82.365 260.613 80.2503 261.815 78.0136C261.999 77.668 261.469 77.363 261.286 77.7086Z" fill="#E8E8E8"/>
<path d="M261.264 78.1966C261.998 80.1283 262.772 82.0599 263.567 83.9713C263.709 84.3373 264.3 84.1746 264.157 83.8086C263.363 81.8973 262.589 79.9656 261.855 78.0339C261.712 77.6679 261.122 77.8306 261.264 78.1966Z" fill="#E8E8E8"/>
<path d="M261.122 78.4813C260.979 86.0453 260.001 93.5687 258.188 100.909C258.086 101.295 258.677 101.458 258.778 101.072C260.612 93.6703 261.59 86.1063 261.733 78.4813C261.753 78.0747 261.142 78.0747 261.122 78.4813Z" fill="#E8E8E8"/>
<path d="M264.648 90.905C265.177 95.2563 265.055 99.6483 264.26 103.959C264.199 104.345 264.77 104.508 264.851 104.122C265.646 99.75 265.788 95.3173 265.259 90.905C265.198 90.5187 264.586 90.5187 264.648 90.905Z" fill="#E8E8E8"/>
<path d="M262.304 99.3636C263.017 100.99 264.26 102.475 264.342 104.305C264.362 104.61 264.749 104.732 264.912 104.467C265.625 103.227 266.359 101.987 267.072 100.746C267.276 100.401 266.746 100.096 266.542 100.441C265.829 101.682 265.096 102.922 264.382 104.162C264.566 104.223 264.77 104.264 264.953 104.325C264.871 102.353 263.588 100.828 262.834 99.0789C262.671 98.6926 262.141 98.9976 262.304 99.3636Z" fill="#E8E8E8"/>
<path d="M113.286 209.311C125.573 208.173 137.879 206.688 150.206 206.18C162.635 205.672 175.125 205.997 187.553 206.322C194.685 206.505 201.816 206.851 208.906 207.522C209.293 207.563 209.293 206.953 208.906 206.912C196.437 205.733 183.927 205.59 171.416 205.448C165.141 205.367 158.865 205.306 152.61 205.509C146.518 205.692 140.446 206.2 134.375 206.749C127.345 207.4 120.316 208.051 113.286 208.701C112.899 208.722 112.899 209.332 113.286 209.311Z" fill="#E8E8E8"/>
<path d="M177.221 200.324C182.335 201.28 187.388 201.239 192.543 200.771C197.841 200.283 203.118 199.978 208.436 199.734C219.112 199.267 229.789 198.84 240.445 198.392C246.537 198.128 252.629 197.884 258.721 197.62C259.108 197.599 259.108 196.989 258.721 197.01C248.024 197.457 237.348 197.904 226.651 198.352C216.138 198.799 205.563 199.023 195.07 199.917C192.217 200.161 189.365 200.487 186.512 200.527C183.456 200.568 180.4 200.283 177.384 199.714C176.997 199.673 176.834 200.263 177.221 200.324Z" fill="#E8E8E8"/>
<path d="M28.5908 196.013C38.0855 196.278 47.5803 196.237 57.0751 195.891C57.4622 195.871 57.4622 195.261 57.0751 195.281C47.5803 195.627 38.0855 195.668 28.5908 195.403C28.1833 195.383 28.1833 195.993 28.5908 196.013Z" fill="#E8E8E8"/>
<path d="M48.961 204.187C52.4247 203.455 56.0922 203.923 59.5967 204.086C63.1216 204.269 66.6261 204.431 70.151 204.614C77.323 204.98 84.4746 205.346 91.6466 205.692C92.0337 205.712 92.0337 205.102 91.6466 205.082C84.3524 204.716 77.0377 204.35 69.7435 203.984C66.0964 203.801 62.4492 203.618 58.8021 203.435C55.481 203.272 52.0987 202.886 48.8184 203.598C48.4312 203.679 48.5942 204.269 48.961 204.187Z" fill="#E8E8E8"/>
<path d="M103.892 188.693C116.484 189.547 128.872 186.294 141.443 186.335C141.83 186.335 141.83 185.725 141.443 185.725C128.872 185.684 116.484 188.917 103.892 188.083C103.505 188.043 103.505 188.673 103.892 188.693Z" fill="#E8E8E8"/>
<path d="M94.459 125.497C94.5609 125.152 94.6628 124.806 94.8258 124.481C94.9276 124.338 95.0091 124.216 95.111 124.074C95.5389 124.033 95.9872 123.972 96.415 123.932C96.5373 124.013 96.6392 124.257 96.7207 124.379C97.0263 124.806 97.3523 125.172 97.8209 125.457C98.7174 125.985 99.7973 126.107 100.755 125.741C103.261 124.826 104.198 121.512 107.255 121.837C108.07 121.919 108.844 122.244 109.435 122.813C109.883 123.24 110.229 123.769 110.698 124.176C111.533 124.867 112.572 124.969 113.571 124.603C114.793 124.176 115.731 123.261 116.647 122.386C117.89 121.227 119.704 119.824 121.354 121.065C122.434 121.858 123.066 123.078 124.41 123.505C125.674 123.911 127.018 123.667 128.078 122.874C128.383 122.651 128.078 122.102 127.772 122.346C126.305 123.444 124.471 123.261 123.188 121.98C122.332 121.146 121.599 120.109 120.335 119.967C117.361 119.601 115.812 123.22 113.286 124.054C111.37 124.684 110.739 122.976 109.475 122.041C108.538 121.349 107.356 121.065 106.195 121.248C104.973 121.431 104.035 122.163 103.18 122.996C102.181 123.993 101.122 125.355 99.5732 125.355C98.534 125.355 97.7394 124.786 97.1689 123.972C96.8429 123.525 96.578 123.159 95.9872 123.098C94.7035 122.976 94.1534 124.318 93.8478 125.314C93.7459 125.701 94.3368 125.863 94.459 125.497Z" fill="#E8E8E8"/>
<path d="M125.878 114.985C126.611 112.85 129.178 114.66 130.156 115.453C131.012 116.144 132.011 116.856 133.172 116.815C135.087 116.734 136.106 114.782 137.675 113.968C139.855 112.85 141.179 115.758 143.298 115.473C144.236 115.351 144.725 114.599 145.315 113.948C145.947 113.257 146.599 113.257 147.496 113.46C148.331 113.663 149.187 113.867 150.022 114.07C150.409 114.172 150.572 113.582 150.185 113.48C149.35 113.277 148.494 113.074 147.659 112.87C147.088 112.728 146.518 112.565 145.947 112.728C144.826 113.074 144.5 114.558 143.38 114.822C142.178 115.107 140.996 113.765 139.957 113.338C139.081 112.972 138.225 112.972 137.39 113.419C136.493 113.887 135.821 114.68 135.026 115.31C134.496 115.737 133.905 116.124 133.213 116.164C132.153 116.225 131.277 115.493 130.503 114.883C129.566 114.151 128.567 113.277 127.284 113.379C126.367 113.44 125.613 113.928 125.307 114.802C125.165 115.188 125.755 115.351 125.878 114.985Z" fill="#E8E8E8"/>
<path d="M217.993 55.6523C217.81 59.4546 217.687 63.2773 217.646 67.1C217.646 67.4863 218.258 67.4863 218.258 67.1C218.299 63.2773 218.421 59.475 218.604 55.6523C218.625 55.266 218.013 55.266 217.993 55.6523Z" fill="#E8E8E8"/>
<path d="M218.4 55.937C223.107 55.2863 227.895 54.656 232.581 55.754C232.968 55.8353 233.131 55.266 232.744 55.1643C227.956 54.0257 223.046 54.6763 218.237 55.3473C217.85 55.388 218.013 55.9777 218.4 55.937Z" fill="#E8E8E8"/>
<path d="M232.195 55.9573C232.297 63.684 232.154 71.431 231.747 79.1576C231.726 79.5439 232.337 79.5439 232.358 79.1576C232.765 71.431 232.908 63.7043 232.806 55.9573C232.806 55.571 232.195 55.571 232.195 55.9573Z" fill="#E8E8E8"/>
<path d="M218.156 77.0836C218.258 78.0596 218.299 79.0763 218.482 80.032C218.584 80.4996 218.747 80.825 219.155 81.1096C220.438 81.9433 222.517 81.4553 223.922 81.374C225.919 81.252 227.936 81.13 229.933 81.008C230.83 80.947 232.256 80.703 231.706 79.4626C231.543 79.0966 231.013 79.422 231.176 79.7676C231.278 79.9913 230.137 80.3573 229.933 80.398C229.607 80.459 229.261 80.4386 228.935 80.459C228.344 80.4996 227.733 80.5403 227.142 80.5606C225.94 80.642 224.737 80.703 223.535 80.7843C222.435 80.8453 221.213 81.069 220.112 80.825C218.727 80.4996 218.91 78.263 218.767 77.104C218.727 76.6973 218.115 76.6973 218.156 77.0836Z" fill="#E8E8E8"/>
<path d="M214.448 76.3313C212.655 78.9543 210.801 81.5367 208.927 84.0987C208.866 84.18 208.866 84.3223 208.927 84.4037C209.253 84.912 209.803 85.1153 210.394 84.9323C211.27 84.668 211.698 83.6717 212.146 82.9803C212.879 81.8417 213.715 80.764 214.611 79.727C214.998 79.3 215.386 78.873 215.793 78.4663C216.262 77.9987 217.056 77.0023 217.729 76.9007C218.116 76.8397 217.953 76.25 217.566 76.311C216.955 76.4127 216.547 76.9007 216.099 77.3073C215.508 77.8563 214.937 78.4257 214.387 79.0357C213.328 80.215 212.35 81.4757 211.494 82.7973C211.249 83.1633 211.046 83.6107 210.74 83.936C210.414 84.4037 210.068 84.4443 209.66 84.058C209.782 83.8953 209.905 83.7327 210.007 83.57C210.557 82.8177 211.107 82.0653 211.637 81.313C212.757 79.7473 213.857 78.1817 214.937 76.5957C215.202 76.311 214.672 76.006 214.448 76.3313Z" fill="#E8E8E8"/>
<path d="M217.626 77.0837C220.152 77.1447 222.577 75.6197 223.575 73.3017C224.472 71.2073 223.983 68.4827 222.088 67.1C219.908 65.5343 217.116 66.7137 215.425 68.4217C214.427 69.4383 213.591 70.7193 213.388 72.1427C213.306 72.712 213.326 73.2813 213.469 73.8303C213.55 74.1557 213.673 74.4607 213.836 74.7453C213.877 74.8267 214.814 76.1483 214.406 76.128C214.019 76.0873 214.019 76.6973 214.406 76.738C215.038 76.799 215.364 76.2297 215.181 75.6603C215.038 75.1927 214.59 74.8673 214.345 74.4403C213.978 73.7693 213.897 72.9967 213.999 72.2443C214.345 69.6417 217.116 66.917 219.806 66.9577C222.454 66.978 223.84 69.9263 223.29 72.2443C222.679 74.7657 220.193 76.5347 217.626 76.4533C217.218 76.4737 217.218 77.0837 217.626 77.0837Z" fill="#E8E8E8"/>
<path d="M220.52 58.0923L220.499 58.072C220.499 58.2143 220.499 58.3567 220.499 58.499C220.764 58.194 222.598 58.2143 223.087 58.1533C223.861 58.072 224.656 58.011 225.43 57.9703C226.204 57.9297 226.999 57.889 227.793 57.8687C228.14 57.8687 229.953 58.0313 230.075 57.706C229.933 58.072 230.524 58.2347 230.666 57.8687C230.687 57.828 230.687 57.8077 230.707 57.767C230.748 57.6653 230.707 57.5433 230.626 57.462C230.177 57.0146 229.362 57.218 228.771 57.218C227.651 57.218 226.551 57.2586 225.43 57.34C224.391 57.401 223.352 57.5026 222.292 57.6043C221.762 57.6653 220.438 57.584 220.051 58.0313C219.949 58.1533 219.929 58.3363 220.051 58.4583L220.071 58.4787C220.377 58.804 220.805 58.3567 220.52 58.0923Z" fill="#E8E8E8"/>
<path d="M220.233 61.061C222.291 61.3456 224.288 61.2643 226.346 61.183C226.733 61.1626 226.733 60.5526 226.346 60.573C224.329 60.6543 222.393 60.7356 220.396 60.4713C220.009 60.4306 219.846 61.0203 220.233 61.061Z" fill="#E8E8E8"/>
<path d="M218.848 63.3587C218.787 63.4197 218.726 63.501 218.665 63.562C218.482 63.7653 218.604 64.0703 218.889 64.0907C222.434 64.1517 225.98 63.989 229.504 63.6027C229.892 63.562 229.892 62.952 229.504 62.9927C225.98 63.379 222.434 63.5417 218.889 63.4807C218.971 63.6637 219.032 63.8263 219.113 64.0093C219.174 63.9483 219.235 63.867 219.297 63.806C219.541 63.501 219.113 63.074 218.848 63.3587Z" fill="#E8E8E8"/>
<path d="M223.229 66.6933C225.084 66.8356 226.938 66.7543 228.771 66.4493C229.159 66.3883 228.996 65.7986 228.608 65.8596C226.815 66.1443 225.022 66.2256 223.229 66.0833C222.822 66.063 222.822 66.673 223.229 66.6933Z" fill="#E8E8E8"/>
<path d="M218.258 74.9283C216.607 75.0097 215.202 73.566 215.731 71.8987C216.139 70.577 217.667 69.174 219.052 68.9503C219.725 68.8487 220.458 69.0113 220.968 69.479C221.722 70.1703 221.518 71.187 221.171 72.0207C220.581 73.4847 219.501 74.8063 217.85 74.9893C217.463 75.03 217.463 75.64 217.85 75.5993C219.969 75.3757 221.477 73.566 221.986 71.5733C222.475 69.7027 221.09 68.1573 219.154 68.32C217.361 68.4827 215.385 70.2923 215.059 72.0613C214.713 74.0337 216.322 75.64 218.258 75.5383C218.645 75.518 218.645 74.908 218.258 74.9283Z" fill="#E8E8E8"/>
<path d="M218.603 69.2147C217.788 70.9633 217.034 72.7323 216.362 74.5217C216.219 74.8877 216.81 75.0503 216.953 74.6843C217.625 72.9357 218.338 71.2073 219.133 69.5197C219.296 69.1537 218.786 68.8487 218.603 69.2147Z" fill="#E8E8E8"/>
<path d="M219.541 70.9633C219.011 72.0613 218.502 73.1593 217.972 74.2573C217.809 74.603 218.339 74.9283 218.502 74.5623C219.032 73.4643 219.541 72.3663 220.071 71.2683C220.234 70.9226 219.724 70.5973 219.541 70.9633Z" fill="#E8E8E8"/>
<path d="M68.0742 37.759C68.0742 39.6093 68.0742 41.48 68.0742 43.3303C68.0742 43.7167 68.6855 43.7167 68.6855 43.3303C68.6855 41.48 68.6855 39.6093 68.6855 37.759C68.6855 37.3727 68.0742 37.3727 68.0742 37.759Z" fill="#E8E8E8"/>
<path d="M68.4603 43.5946C70.1921 43.5946 71.9036 43.5946 73.6355 43.5946C74.0226 43.5946 74.0226 42.9846 73.6355 42.9846C71.9036 42.9846 70.1921 42.9846 68.4603 42.9846C68.0731 42.9846 68.0731 43.5946 68.4603 43.5946Z" fill="#E8E8E8"/>
<path d="M74.0019 42.944C74.0019 40.931 74.0019 38.8977 74.0019 36.8847C74.0019 36.4983 73.3906 36.4983 73.3906 36.8847C73.3906 38.8977 73.3906 40.931 73.3906 42.944C73.3906 43.3303 74.0019 43.3303 74.0019 42.944Z" fill="#E8E8E8"/>
<path d="M73.7792 36.4983C72.0066 36.4983 70.234 36.4983 68.4817 36.4983C68.0946 36.4983 68.0946 37.1083 68.4817 37.1083C70.2544 37.1083 72.027 37.1083 73.7792 37.1083C74.1664 37.1083 74.1664 36.4983 73.7792 36.4983Z" fill="#E8E8E8"/>
<path d="M70.6602 43.9199C70.6602 45.9939 70.6602 48.0476 70.6602 50.1216C70.6602 50.5079 71.2714 50.5079 71.2714 50.1216C71.2714 48.0476 71.2714 45.9939 71.2714 43.9199C71.2714 43.5336 70.6602 43.5336 70.6602 43.9199Z" fill="#E8E8E8"/>
<path d="M63.4887 50.0403C65.7504 47.885 68.1139 45.811 70.5589 43.8387C70.8645 43.5947 70.4366 43.1677 70.131 43.4117C67.686 45.384 65.3429 47.4377 63.0609 49.6133C62.7756 49.8777 63.2035 50.3047 63.4887 50.0403Z" fill="#E8E8E8"/>
<path d="M71.3121 44.042C73.7571 45.8923 76.2021 47.7427 78.6471 49.593C78.9528 49.837 79.2584 49.3083 78.9528 49.0643C76.5078 47.214 74.0628 45.3637 71.6178 43.5133C71.3121 43.2693 71.0065 43.798 71.3121 44.042Z" fill="#E8E8E8"/>
<path d="M61.1263 50.7723C62.471 50.7723 63.8158 50.7723 65.1809 50.7723C65.568 50.7723 65.568 50.1623 65.1809 50.1623C63.8362 50.1623 62.4914 50.1623 61.1263 50.1623C60.7392 50.1623 60.7392 50.7723 61.1263 50.7723Z" fill="#E8E8E8"/>
<path d="M64.8125 50.8943C64.8125 52.4193 64.8125 53.9646 64.8125 55.4896C64.8125 55.8759 65.4238 55.8759 65.4238 55.4896C65.4238 53.9646 65.4238 52.4193 65.4238 50.8943C65.4238 50.4876 64.8125 50.4876 64.8125 50.8943Z" fill="#E8E8E8"/>
<path d="M60.6777 50.6096C60.6777 52.399 60.6777 54.1883 60.6777 55.9776C60.6777 56.364 61.289 56.364 61.289 55.9776C61.289 54.1883 61.289 52.399 61.289 50.6096C61.289 50.203 60.6777 50.203 60.6777 50.6096Z" fill="#E8E8E8"/>
<path d="M60.9212 56.3436C62.1844 56.3436 63.4273 56.3436 64.6906 56.3436C65.0777 56.3436 65.0777 55.7336 64.6906 55.7336C63.4273 55.7336 62.1844 55.7336 60.9212 55.7336C60.5341 55.7336 60.5341 56.3436 60.9212 56.3436Z" fill="#E8E8E8"/>
<path d="M68.7871 50.752C68.7871 52.521 68.7871 54.29 68.7871 56.0386C68.7871 56.425 69.3984 56.425 69.3984 56.0386C69.3984 54.2696 69.3984 52.5006 69.3984 50.752C69.3984 50.3453 68.7871 50.3453 68.7871 50.752Z" fill="#E8E8E8"/>
<path d="M69.0931 56.2013C70.3359 56.2013 71.5584 56.2013 72.8013 56.2013C73.1884 56.2013 73.1884 55.5913 72.8013 55.5913C71.5584 55.5913 70.3359 55.5913 69.0931 55.5913C68.706 55.5913 68.706 56.2013 69.0931 56.2013Z" fill="#E8E8E8"/>
<path d="M69.2962 51.057C70.3965 51.057 71.4763 51.057 72.5766 51.057C72.9637 51.057 72.9637 50.447 72.5766 50.447C71.4763 50.447 70.3965 50.447 69.2962 50.447C68.9091 50.447 68.9091 51.057 69.2962 51.057Z" fill="#E8E8E8"/>
<path d="M72.3516 50.6706C72.3516 52.3379 72.3516 54.0053 72.3516 55.6929C72.3516 56.0793 72.9628 56.0793 72.9628 55.6929C72.9628 54.0256 72.9628 52.3583 72.9628 50.6706C72.9628 50.2843 72.3516 50.2843 72.3516 50.6706Z" fill="#E8E8E8"/>
<path d="M77.4261 50.6706C77.365 51.9923 77.3242 53.3139 77.3242 54.6356C77.3242 55.0219 77.9355 55.0219 77.9355 54.6356C77.9355 53.3139 77.9762 51.9923 78.0373 50.6706C78.0577 50.2843 77.4465 50.2843 77.4261 50.6706Z" fill="#E8E8E8"/>
<path d="M77.6906 50.813C79.0354 50.6707 80.3801 50.508 81.7249 50.3657C82.112 50.325 82.112 49.715 81.7249 49.7557C80.3801 49.898 79.0354 50.0607 77.6906 50.203C77.3035 50.2437 77.2831 50.8537 77.6906 50.813Z" fill="#E8E8E8"/>
<path d="M81.5215 50.1826C81.3789 51.545 81.4196 52.887 81.6641 54.229C81.7252 54.6153 82.3161 54.4526 82.255 54.0663C82.0309 52.765 81.9901 51.484 82.1328 50.1826C82.1735 49.7963 81.5622 49.7963 81.5215 50.1826Z" fill="#E8E8E8"/>
<path d="M77.8942 55.1643C79.2389 54.961 80.5837 54.7576 81.9284 54.5543C82.3155 54.4933 82.1525 53.9037 81.7654 53.9647C80.4207 54.168 79.0759 54.3713 77.7312 54.5747C77.344 54.6357 77.507 55.205 77.8942 55.1643Z" fill="#E8E8E8"/>
<path d="M70.5802 56.3843C69.8264 57.523 69.1744 58.7227 68.5835 59.9427C68.4205 60.2883 68.9503 60.6137 69.1133 60.2477C69.7041 59.0073 70.3765 57.828 71.11 56.6893C71.3137 56.364 70.784 56.059 70.5802 56.3843Z" fill="#E8E8E8"/>
<path d="M70.7631 56.6283C71.517 57.645 72.169 58.7023 72.7191 59.8206C72.9025 60.1663 73.4323 59.8613 73.2489 59.5156C72.6784 58.3973 72.0264 57.3196 71.2929 56.3233C71.0688 55.998 70.539 56.303 70.7631 56.6283Z" fill="#E8E8E8"/>
<path d="M67.4817 60.7356C67.9096 60.7356 68.3375 60.7356 68.7857 60.7559C68.9895 60.7559 69.1729 60.7763 69.3766 60.7966C69.7434 60.8169 69.7026 60.6949 69.7637 61.0203C69.9064 61.793 69.7434 62.7893 69.6822 63.5823C69.6415 63.9686 70.2527 63.9686 70.2935 63.5823C70.3342 62.9723 70.375 62.342 70.375 61.732C70.375 61.3863 70.4769 60.8169 70.2935 60.4916C70.1101 60.1866 69.6822 60.2273 69.3766 60.2069C68.745 60.1663 68.1134 60.1459 67.4817 60.1459C67.0946 60.1256 67.0946 60.7356 67.4817 60.7356Z" fill="#E8E8E8"/>
<path d="M67.0742 60.7153C67.1353 61.427 67.1965 62.1183 67.2576 62.83C67.2983 63.3993 67.2168 64.233 67.441 64.782C67.5225 65.0057 67.6243 65.087 67.8485 65.1277C68.3782 65.2293 69.1728 64.965 69.7026 64.8837C70.0897 64.8227 69.9267 64.2533 69.5396 64.294C69.1728 64.3347 68.6023 64.5583 68.256 64.477C67.8688 64.3753 67.9503 63.8467 67.93 63.44C67.8485 62.525 67.767 61.6303 67.6855 60.7153C67.6447 60.329 67.0335 60.3087 67.0742 60.7153Z" fill="#E8E8E8"/>
<path d="M71.6792 60.634C71.6384 61.2236 71.618 61.8336 71.6384 62.4233C71.6384 62.5656 71.8218 63.9076 71.7607 63.9483C71.8625 63.928 71.9644 63.8873 72.0663 63.867C72.0459 63.867 72.0255 63.8466 71.9848 63.8466C72.0663 63.9483 72.1274 64.05 72.2089 64.1313C72.2089 64.111 72.2089 64.0906 72.2089 64.05C72.1274 64.1516 72.0663 64.2533 71.9848 64.3346C72.0051 64.3346 72.0255 64.3346 72.0459 64.3143C72.433 64.233 72.27 63.6433 71.8829 63.7246C71.8625 63.7246 71.8422 63.7246 71.8218 63.745C71.6792 63.7653 71.5977 63.9076 71.5977 64.0296C71.5977 64.05 71.5977 64.0703 71.5977 64.111C71.5977 64.233 71.6995 64.3753 71.8218 64.3956C72.3515 64.4973 72.3515 64.0093 72.3311 63.623C72.2496 62.6063 72.2089 61.61 72.2904 60.573C72.3108 60.2273 71.6995 60.2476 71.6792 60.634Z" fill="#E8E8E8"/>
<path d="M72.0468 60.7763C72.0468 60.634 73.3508 60.5933 73.5342 60.6137C74.0436 60.695 73.9417 60.7357 74.0232 61.1017C74.0843 61.3457 74.0028 61.6913 73.9824 61.9353C73.9621 62.4437 73.9621 62.9317 73.9824 63.44C73.9824 63.7247 74.1862 64.5787 74.0436 64.782C74.1862 64.7413 74.3288 64.7007 74.4714 64.6803C74.4511 64.6803 74.4307 64.66 74.4103 64.66C74.4511 64.782 74.5122 64.8837 74.5529 65.0057C74.5529 64.9853 74.5733 64.965 74.5733 64.9447C74.6752 64.5583 74.0843 64.3957 73.9824 64.782C73.9824 64.8023 73.9621 64.8227 73.9621 64.843C73.9213 64.965 73.9824 65.1277 74.1047 65.1887C74.1251 65.1887 74.1454 65.209 74.1658 65.209C74.3288 65.27 74.4918 65.2497 74.5937 65.1073C74.7363 64.904 74.6752 64.7007 74.6548 64.4567C74.6344 63.9077 74.5937 63.3383 74.5937 62.7893C74.5937 62.2403 74.6141 61.671 74.6344 61.122C74.6548 60.878 74.7159 60.5527 74.5529 60.329C74.2066 59.8613 73.1063 60.0037 72.6581 60.0647C72.1487 60.1257 71.4763 60.1867 71.4355 60.7967C71.4355 61.1627 72.0468 61.1627 72.0468 60.7763Z" fill="#E8E8E8"/>
<path d="M72.1084 64.904C72.7196 64.8633 73.3309 64.9243 73.9217 65.0666C74.3089 65.1683 74.4719 64.5786 74.0847 64.477C73.4327 64.294 72.7807 64.233 72.1084 64.2736C71.7009 64.3143 71.7009 64.9243 72.1084 64.904Z" fill="#E8E8E8"/>
<path d="M79.7678 55.2863C79.2788 56.364 78.8509 57.4823 78.4638 58.6006C78.3416 58.9666 78.9324 59.1293 79.0547 58.7633C79.4214 57.6856 79.8289 56.6283 80.2976 55.5913C80.4606 55.2253 79.9308 54.9203 79.7678 55.2863Z" fill="#E8E8E8"/>
<path d="M76.6519 60.1053C77.6707 59.8206 78.7098 59.6783 79.7897 59.719C80.1768 59.7393 80.1768 59.1293 79.7897 59.109C78.6691 59.0683 77.5688 59.2106 76.4889 59.5156C76.1018 59.6173 76.2648 60.207 76.6519 60.1053Z" fill="#E8E8E8"/>
<path d="M76.6313 59.8207C76.448 60.39 76.5906 60.9187 76.6517 61.488C76.7128 62.1793 76.7128 62.8503 76.6925 63.5417C76.6517 64.4363 76.8758 64.538 77.7723 64.4567C78.3836 64.3957 79.219 64.5583 79.4431 63.8873C79.6468 63.2367 79.5857 62.3623 79.6468 61.671C79.7079 60.939 79.7894 60.1867 79.8506 59.4547C79.8913 59.0683 79.2801 59.0683 79.2393 59.4547C79.1578 60.3087 79.0763 61.183 78.9948 62.037C78.9541 62.3827 78.9745 62.8097 78.893 63.1553C78.7707 63.7247 78.7096 63.7653 78.1187 63.8263C77.9353 63.8467 77.7723 63.867 77.589 63.8873C77.2426 64.0093 77.1407 63.9077 77.2833 63.562C77.2018 63.2773 77.3241 62.83 77.3037 62.525C77.2833 61.7523 76.9777 60.7153 77.2018 59.9833C77.3445 59.597 76.7536 59.4343 76.6313 59.8207Z" fill="#E8E8E8"/>
<path d="M80.6244 55.8556C81.093 56.5673 81.5005 57.3196 81.8876 58.0923C82.0506 58.438 82.5804 58.133 82.4174 57.7873C82.0506 57.0146 81.6228 56.2826 81.1542 55.5506C80.93 55.205 80.4003 55.51 80.6244 55.8556Z" fill="#E8E8E8"/>
<path d="M81.3173 58.9869C82.3361 58.9869 83.3549 58.9869 84.3736 58.9869C84.7607 58.9869 84.7607 58.377 84.3736 58.377C84.3125 58.377 84.2514 58.377 84.1902 58.377C83.8031 58.377 83.8031 58.9869 84.1902 58.9869C84.2514 58.9869 84.3125 58.9869 84.3736 58.9869C84.7607 58.9869 84.7607 58.377 84.3736 58.377C83.3549 58.377 82.3361 58.377 81.3173 58.377C80.9098 58.377 80.9098 58.9869 81.3173 58.9869Z" fill="#E8E8E8"/>
<path d="M81.0117 58.9667C81.0932 59.7393 81.1543 60.512 81.1747 61.2847C81.1951 61.8337 81.0117 62.769 81.2562 63.2773C81.3988 63.5823 81.5822 63.623 81.9082 63.623C82.6621 63.6027 83.4771 63.4197 84.231 63.318C84.3532 63.2977 84.4551 63.135 84.4551 63.0333C84.4347 61.6507 84.4143 60.2883 84.394 58.9057C84.394 58.5193 83.7827 58.5193 83.7827 58.9057C83.8031 60.2883 83.8235 61.6507 83.8438 63.0333C83.9253 62.9317 83.9865 62.83 84.068 62.7487C83.579 62.8097 83.09 62.8707 82.601 62.952C82.438 62.9723 81.9693 63.1147 81.8267 62.9927C81.7248 62.9113 81.8267 62.281 81.8267 62.159C81.8063 61.1017 81.7452 60.0443 81.6433 59.0073C81.5822 58.5803 80.971 58.5803 81.0117 58.9667Z" fill="#E8E8E8"/>
<path d="M58.395 60.634C59.4545 59.658 60.5344 58.743 61.6957 57.9093C62.0014 57.6856 61.6957 57.157 61.3901 57.3806C60.188 58.255 59.047 59.1903 57.9671 60.207C57.6819 60.4713 58.1097 60.8983 58.395 60.634Z" fill="#E8E8E8"/>
<path d="M61.5131 57.645C62.1244 58.5193 62.6338 59.4343 63.0413 60.3899C63.2043 60.7559 63.734 60.4306 63.571 60.0849C63.1431 59.1089 62.6338 58.1939 62.0429 57.34C61.8188 57.0146 61.289 57.3196 61.5131 57.645Z" fill="#E8E8E8"/>
<path d="M55.6863 61.7523C56.2364 61.7117 56.7662 61.671 57.3163 61.6303C57.5608 61.61 57.8257 61.549 58.0498 61.5693C58.335 61.4677 58.4165 61.488 58.2943 61.6507C58.2128 61.7727 58.172 61.8947 58.1924 62.037C57.9683 63.0333 57.9275 64.0907 57.8868 65.1073C58.0702 65.026 58.2332 64.965 58.4165 64.8837C58.3962 64.8633 58.3758 64.843 58.3554 64.8023C58.0905 64.5177 57.6627 64.9446 57.9275 65.2293C57.9479 65.2496 57.9683 65.27 57.9887 65.3107C58.172 65.514 58.498 65.3513 58.5184 65.087C58.5388 64.2127 58.6203 63.3383 58.7425 62.4843C58.8037 62.1183 59.0685 61.5083 58.8444 61.1423C58.661 60.8577 58.3554 60.9187 58.0702 60.939C57.2755 61 56.5013 61.061 55.7067 61.122C55.2992 61.183 55.2992 61.793 55.6863 61.7523Z" fill="#E8E8E8"/>
<path d="M56.0937 61.1627C56.0734 61.1627 56.053 61.1627 56.0122 61.1627C55.9104 61.1627 55.8085 61.2237 55.7474 61.305C55.4214 61.854 55.4417 62.8097 55.3399 63.44C55.1972 64.3347 55.0546 65.2293 54.912 66.124C54.8916 66.2867 54.9527 66.4697 55.1157 66.49C56.0734 66.6933 56.9699 66.6527 57.8867 66.307C58.2535 66.1647 58.0905 65.575 57.7237 65.7173C56.9087 66.0223 56.1345 66.0833 55.2787 65.9003C55.3399 66.0223 55.4214 66.1443 55.4825 66.2663C55.5436 65.8597 56.2567 61.7727 56.053 61.7523C56.4809 61.8133 56.4809 61.2033 56.0937 61.1627Z" fill="#E8E8E8"/>
<path d="M61.635 61.061L61.6146 61.0813C61.7573 61.0813 61.8999 61.0813 62.0425 61.0813C62.0221 61.0813 62.0221 61.061 62.0018 61.061C62.0018 61.2033 62.0018 61.3456 62.0018 61.488C62.0221 61.4676 62.3889 61.4676 62.4704 61.4676C62.6945 61.4473 62.939 61.427 63.1631 61.427C63.591 61.4066 64.0189 61.427 64.4468 61.4676C64.3653 61.2846 64.3041 61.122 64.2226 60.939C64.1819 60.9593 64.1411 61 64.1208 61.0203C63.7336 61.061 63.7336 61.671 64.1208 61.6303C64.3449 61.61 64.5079 61.549 64.6709 61.366C64.8543 61.1626 64.732 60.8576 64.4468 60.8373C63.8559 60.7966 63.265 60.7763 62.6741 60.817C62.3889 60.8373 61.798 60.7763 61.5943 61.0406C61.4924 61.1626 61.4516 61.366 61.5943 61.4676C61.6146 61.4676 61.6146 61.488 61.635 61.488C61.7573 61.5896 61.961 61.6303 62.0629 61.488L62.0833 61.4676C62.3278 61.2033 61.8999 60.7763 61.635 61.061Z" fill="#E8E8E8"/>
<path d="M61.3901 61.2033C61.329 62.037 61.2679 62.8706 61.2271 63.7043C61.2068 64.172 60.9419 65.3716 61.2271 65.7986C61.3698 66.002 61.5124 66.0833 61.7773 66.063C62.0421 66.063 62.3274 65.88 62.5719 65.819C63.0609 65.6766 63.5703 65.636 64.0796 65.636C64.4668 65.636 64.4668 65.026 64.0796 65.026C63.6314 65.026 63.1831 65.0666 62.7349 65.1683C62.5311 65.209 62.144 65.4326 61.9606 65.392C61.818 65.4936 61.7569 65.4733 61.7976 65.3106C61.7773 65.148 61.7773 64.9853 61.7976 64.8023C61.818 63.623 61.9199 62.4233 62.0014 61.244C62.0421 60.7966 61.4309 60.7966 61.3901 61.2033Z" fill="#E8E8E8"/>
<path d="M64.0182 61.2643C63.8552 62.6266 63.7737 63.989 63.7941 65.3716C63.7941 65.758 64.4053 65.758 64.4053 65.3716C64.385 63.989 64.4665 62.6266 64.6295 61.2643C64.6906 60.878 64.0793 60.878 64.0182 61.2643Z" fill="#E8E8E8"/>
<path d="M256.135 141.743C256.115 145.037 256.074 148.351 256.054 151.645C256.054 152.459 256.033 153.272 256.033 154.065C256.033 154.614 255.911 155.305 256.135 155.834C256.482 156.729 257.643 156.485 258.071 157.237C258.112 157.095 258.152 156.952 258.173 156.81C256.685 157.542 256.298 159.189 256.176 160.714C256.074 162.178 256.013 164.537 257.928 164.821C257.908 164.638 257.887 164.455 257.847 164.272C254.953 165.594 256.115 170.759 257.337 172.833C258.234 174.358 259.558 175.598 260.923 176.696C261.698 177.326 262.472 177.916 263.266 178.526C263.735 178.892 264.204 179.238 264.652 179.604C264.896 179.787 265.936 180.356 265.976 180.702C266.058 180.6 266.119 180.498 266.2 180.417C266.221 180.417 266.221 180.417 266.241 180.417C266.282 180.559 266.323 180.702 266.343 180.844C266.363 180.824 266.363 180.803 266.384 180.783C266.547 180.437 266.037 180.132 265.854 180.478C265.834 180.498 265.834 180.519 265.813 180.539C265.732 180.702 265.773 180.844 265.915 180.966C266.058 181.088 266.16 181.088 266.343 181.027C266.465 180.986 266.588 180.864 266.567 180.742C266.486 180.112 265.854 179.827 265.365 179.461C264.652 178.892 263.918 178.343 263.205 177.774C261.861 176.737 260.495 175.7 259.334 174.48C258.03 173.117 257.134 171.531 256.869 169.64C256.645 168.095 256.441 165.614 258.152 164.821C258.376 164.72 258.336 164.293 258.071 164.272C256.441 164.028 256.665 161.71 256.787 160.47C256.909 159.25 257.256 157.969 258.458 157.379C258.601 157.298 258.641 157.095 258.56 156.952C258.132 156.22 257.093 156.363 256.706 155.712C256.4 155.224 256.604 154.085 256.624 153.496C256.624 152.682 256.645 151.869 256.645 151.076C256.665 147.985 256.685 144.874 256.726 141.784C256.746 141.357 256.135 141.336 256.135 141.743Z" fill="#E8E8E8"/>
<path d="M256.46 141.906C259.312 142.048 261.309 144.224 263.02 146.257C263.835 147.233 264.691 148.148 265.527 149.063C266.382 149.978 267.503 151.828 265.954 152.723C265.69 152.886 265.812 153.292 266.117 153.292C268.481 153.353 269.52 156.22 270.254 158.03C271.13 160.226 271.822 162.483 272.332 164.781C273.371 169.498 273.575 174.358 272.984 179.136C272.943 179.522 273.554 179.522 273.595 179.136C274.227 173.809 273.901 168.4 272.576 163.215C271.965 160.775 271.15 158.315 270.05 156.037C269.276 154.411 268.073 152.723 266.117 152.682C266.179 152.865 266.219 153.069 266.28 153.252C269.255 151.544 265.567 148.29 264.365 146.887C262.226 144.407 260.066 141.458 256.48 141.275C256.073 141.275 256.073 141.885 256.46 141.906Z" fill="#E8E8E8"/>
<path d="M266.69 149.226C268.116 144.183 270.113 139.323 272.68 134.748C272.537 134.789 272.395 134.83 272.252 134.85C272.802 135.175 273.373 135.501 273.923 135.826C274.208 135.989 274.473 135.663 274.351 135.399C272.884 132.471 277.285 130.6 278.772 128.852C278.65 128.872 278.528 128.892 278.405 128.892C278.691 129.055 278.996 129.218 279.281 129.38C279.424 129.462 279.607 129.421 279.709 129.279C281.339 126.513 284.212 124.968 286.983 123.545C286.841 123.423 286.678 123.321 286.535 123.199C285.659 126.066 287.044 129.197 287.309 132.064C287.452 133.61 287.472 135.175 287.35 136.741C287.289 137.514 287.35 138.673 287.044 139.364C287.044 139.872 286.759 140.157 286.168 140.259C285.985 140.279 285.822 140.299 285.638 140.32C285.231 140.36 284.803 140.401 284.396 140.442C284.233 140.462 284.07 140.564 284.09 140.747C284.11 141.153 284.233 141.275 284.538 141.54C284.925 141.865 285.231 141.906 285.414 142.475C285.516 142.78 285.516 143.126 285.516 143.431C285.496 145.078 285.251 146.765 284.966 148.392C284.681 149.978 284.273 151.544 283.784 153.069C283.356 154.35 282.786 156.261 281.197 156.464C280.993 156.485 280.789 156.708 280.932 156.932C282.114 158.742 280.361 160.938 279.506 162.503C278.568 164.171 277.713 165.879 276.918 167.607C275.329 171.043 274.025 174.602 272.965 178.241C272.863 178.628 273.454 178.79 273.556 178.404C274.758 174.215 276.327 170.149 278.242 166.245C279.139 164.394 280.219 162.646 281.156 160.816C281.828 159.494 282.358 157.949 281.482 156.607C281.4 156.769 281.299 156.912 281.217 157.074C282.419 156.932 283.193 156.078 283.723 155.041C284.518 153.455 284.946 151.625 285.333 149.897C285.761 147.985 286.046 146.033 286.148 144.081C286.189 143.431 286.25 142.699 285.964 142.089C285.801 141.682 284.762 141.052 284.742 140.767C284.64 140.869 284.538 140.97 284.436 141.072C285.577 140.95 287.207 141.235 287.594 139.933C288.104 138.307 288.083 136.294 288.063 134.626C288.063 132.837 287.88 131.068 287.554 129.319C287.187 127.347 286.535 125.375 287.146 123.382C287.228 123.118 286.922 122.914 286.698 123.036C283.825 124.521 280.871 126.127 279.2 128.994C279.343 128.953 279.485 128.913 279.628 128.892C279.343 128.73 279.037 128.567 278.752 128.404C278.65 128.343 278.466 128.343 278.385 128.445C276.673 130.458 272.171 132.369 273.862 135.724C274.004 135.582 274.147 135.44 274.29 135.297C273.739 134.972 273.169 134.647 272.619 134.321C272.476 134.24 272.272 134.281 272.191 134.423C269.624 139.059 267.586 143.959 266.14 149.043C265.977 149.449 266.567 149.612 266.69 149.226Z" fill="#E8E8E8"/>
<path d="M259.048 145.627C263.857 156.18 267.219 167.322 269.073 178.77C269.134 179.156 269.725 178.994 269.664 178.607C267.789 167.119 264.407 155.915 259.578 145.322C259.415 144.976 258.885 145.281 259.048 145.627Z" fill="#E8E8E8"/>
<path d="M284.416 127.774C278.466 136.843 273.291 146.399 269.624 156.627C269.481 156.993 270.072 157.156 270.214 156.79C273.862 146.603 279.017 137.107 284.946 128.079C285.149 127.754 284.62 127.449 284.416 127.774Z" fill="#E8E8E8"/>
<path d="M256.971 156.769C260.272 157.664 263.104 159.697 264.999 162.544C265.223 162.869 265.753 162.564 265.529 162.239C263.552 159.27 260.598 157.115 257.134 156.18C256.747 156.078 256.584 156.668 256.971 156.769Z" fill="#E8E8E8"/>
<path d="M264.917 148.331C263.796 150.181 263.042 152.194 262.737 154.35C262.676 154.736 263.267 154.899 263.328 154.512C263.633 152.418 264.347 150.446 265.447 148.636C265.651 148.311 265.121 148.006 264.917 148.331Z" fill="#E8E8E8"/>
<path d="M271.253 136.904C272.252 138.002 272.945 139.262 273.474 140.625C273.719 141.235 273.923 141.865 274.106 142.475C274.289 143.065 274.717 143.939 274.473 144.529C274.33 144.895 274.921 145.057 275.064 144.691C275.308 144.102 275.064 143.512 274.88 142.943C274.636 142.109 274.371 141.275 274.045 140.462C273.474 138.998 272.72 137.636 271.661 136.456C271.416 136.172 270.989 136.599 271.253 136.904Z" fill="#E8E8E8"/>
<path d="M278.161 139.242C280.708 136.314 284.009 134.24 287.758 133.223C288.145 133.122 287.982 132.532 287.595 132.634C283.764 133.671 280.341 135.806 277.733 138.795C277.489 139.1 277.917 139.547 278.161 139.242Z" fill="#E8E8E8"/>
<path d="M270.968 155.57C272.802 153.943 274.962 152.804 277.244 151.95C278.283 151.564 279.322 151.259 280.381 150.954C280.972 150.791 281.543 150.649 282.134 150.486C282.419 150.425 283.621 149.937 283.845 150.059C283.804 149.917 283.764 149.775 283.743 149.632C283.723 149.653 283.723 149.673 283.702 149.693C283.845 149.653 283.988 149.612 284.13 149.592C284.11 149.592 284.09 149.571 284.069 149.571C283.723 149.388 283.417 149.917 283.764 150.1C283.784 150.1 283.804 150.12 283.825 150.12C283.967 150.202 284.151 150.161 284.253 150.019C284.273 149.998 284.273 149.978 284.293 149.958C284.375 149.815 284.334 149.632 284.191 149.531C283.906 149.368 283.601 149.51 283.295 149.571C282.602 149.734 281.909 149.897 281.217 150.08C279.892 150.425 278.568 150.812 277.264 151.259C274.819 152.133 272.496 153.333 270.561 155.082C270.255 155.387 270.683 155.834 270.968 155.57Z" fill="#E8E8E8"/>
<path d="M260.578 180.661C265.203 181.779 269.91 180.946 274.535 180.397C279.547 179.807 284.58 179.705 289.612 179.624C289.999 179.624 289.999 179.014 289.612 179.014C284.702 179.095 279.791 179.197 274.922 179.746C270.215 180.295 265.427 181.21 260.741 180.071C260.374 179.97 260.211 180.559 260.578 180.661Z" fill="#E8E8E8"/>
<path d="M275.165 178.933C283.397 178.506 291.628 178.058 299.86 177.631C300.247 177.611 300.247 177.001 299.86 177.021C291.628 177.448 283.397 177.896 275.165 178.323C274.778 178.343 274.778 178.953 275.165 178.933Z" fill="#E8E8E8"/>
<path d="M229.317 124.166C227.3 124.553 224.835 122.621 224.896 120.486C224.977 118.066 228.013 117.253 229.949 117.233C232.088 117.233 233.596 118.88 233.087 121.035C232.863 121.97 232.272 122.743 231.538 123.333C231.11 123.678 229.379 124.939 228.89 124.329C228.645 124.024 228.217 124.451 228.462 124.756C229.114 125.569 230.458 124.736 231.151 124.349C232.211 123.719 233.168 122.763 233.576 121.584C234.391 119.205 232.944 116.826 230.438 116.643C228.054 116.46 224.366 117.558 224.305 120.486C224.264 123.048 227.076 125.203 229.501 124.756C229.868 124.695 229.704 124.105 229.317 124.166Z" fill="#E8E8E8"/>
<path d="M62.9178 130.743C62.164 131.597 61.512 132.533 60.9618 133.549C60.7785 133.895 61.3082 134.2 61.4916 133.854C62.0213 132.899 62.6326 132.004 63.3661 131.17C63.6106 130.886 63.1827 130.438 62.9178 130.743Z" fill="#161616"/>
<path d="M62.8989 130.987C63.5101 131.841 64.1214 132.675 64.7326 133.529C64.9568 133.854 65.4865 133.549 65.2624 133.224C64.6511 132.37 64.0399 131.536 63.4286 130.682C63.1841 130.357 62.6544 130.662 62.8989 130.987Z" fill="#161616"/>
<path d="M62.8579 132.187C63.0413 139.365 63.2043 146.542 63.3877 153.74C63.3877 154.127 63.9989 154.127 63.9989 153.74C63.8155 146.563 63.6525 139.385 63.4692 132.187C63.4488 131.801 62.8375 131.78 62.8579 132.187Z" fill="#161616"/>
<path d="M64.0599 154.31C73.1064 154.31 82.1529 154.31 91.1994 154.31C91.5865 154.31 91.5865 153.7 91.1994 153.7C82.1529 153.7 73.1064 153.7 64.0599 153.7C63.6728 153.7 63.6728 154.31 64.0599 154.31Z" fill="#161616"/>
<path d="M90.0166 153.7C90.6483 153.944 91.2595 154.188 91.8911 154.432C91.8096 154.208 91.7078 153.984 91.6263 153.761C91.3206 154.31 90.8928 154.737 90.363 155.062C89.8536 155.367 90.3223 156.16 90.8316 155.855C91.504 155.469 92.0541 154.899 92.4413 154.228C92.6043 153.944 92.4413 153.659 92.1764 153.557C91.5448 153.313 90.9335 153.069 90.3019 152.825C89.711 152.602 89.4665 153.476 90.0166 153.7Z" fill="#161616"/>
<path d="M246.497 43.8793C245.682 42.8017 246.843 41.1547 248.107 41.968C248.677 42.334 248.942 43.0863 248.534 43.676C248.168 44.2047 247.414 44.4283 246.843 44.1437C246.497 43.9607 246.191 44.4893 246.538 44.6723C247.373 45.079 248.392 44.835 248.983 44.103C249.614 43.31 249.39 42.1917 248.616 41.5817C247.862 40.992 246.803 40.992 246.151 41.724C245.56 42.395 245.458 43.4727 246.008 44.2047C246.191 44.4893 246.721 44.1843 246.497 43.8793Z" fill="#5222D0"/>
<path d="M273.45 111.207C273.409 110.251 274.122 109.601 275.059 109.601C275.446 109.601 275.752 109.702 276.119 109.54C276.812 109.235 277.076 108.442 277.301 107.771C277.627 106.795 277.871 106.327 279.094 106.632C279.42 106.713 279.623 106.876 279.97 106.754C280.988 106.368 280.377 104.619 281.926 104.904C282.313 104.985 282.476 104.395 282.089 104.314C281.6 104.212 281.131 104.253 280.703 104.558C280.316 104.843 280.275 105.188 280.051 105.554C280.031 105.941 279.766 106.103 279.277 106.042C279.175 105.981 279.053 105.92 278.951 105.88C278.727 105.859 278.605 105.737 278.36 105.758C277.912 105.778 277.565 106.063 277.301 106.388C276.913 106.856 276.812 107.425 276.587 107.994C276.363 108.564 276.139 108.97 275.446 109.031C275.141 109.052 274.856 108.95 274.55 108.991C273.47 109.153 272.777 110.15 272.818 111.207C272.859 111.614 273.47 111.614 273.45 111.207Z" fill="#5222D0"/>
<path d="M70.151 153.151C73.0239 147.396 73.4721 140.91 75.1632 134.79C75.5911 133.224 76.019 131.394 77.2007 130.215C78.9326 128.486 81.1331 129.706 81.8462 131.74C82.376 133.285 82.3963 135.074 82.4982 136.701C82.6001 138.45 82.6816 140.198 82.7835 141.947C83.0076 145.688 83.3947 149.45 84.658 153.008C84.7802 153.374 85.3711 153.212 85.2488 152.846C83.9245 149.104 83.5577 145.139 83.354 141.195C83.2521 139.263 83.1706 137.311 83.028 135.379C82.9057 133.834 82.8446 132.146 82.1111 130.743C81.5406 129.645 80.4403 128.751 79.1567 128.751C77.8324 128.751 76.7321 129.666 76.0597 130.723C75.1836 132.126 74.7761 133.895 74.3686 135.481C73.9204 137.25 73.5536 139.039 73.1869 140.829C72.3719 144.936 71.5365 149.064 69.6416 152.846C69.4379 153.191 69.9676 153.496 70.151 153.151Z" fill="#5222D0"/>
<path d="M72.9427 127.937C72.5352 127.348 73.3706 126.555 73.8596 127.205C74.3282 127.815 73.4521 128.425 72.9631 127.958C72.6778 127.693 72.25 128.12 72.5352 128.385C72.9631 128.791 73.6558 128.832 74.1448 128.486C74.695 128.1 74.7561 127.368 74.3486 126.839C73.9411 126.311 73.1872 126.168 72.6778 126.616C72.2296 127.022 72.087 127.734 72.4333 128.242C72.6371 128.568 73.1668 128.263 72.9427 127.937Z" fill="#5222D0"/>
<path d="M77.4469 125.233C77.1209 124.765 77.834 124.338 78.1396 124.826C78.4656 125.355 77.5487 125.945 77.2431 125.355C77.0597 125.009 76.5503 125.314 76.7134 125.66C76.9782 126.209 77.6913 126.351 78.2007 126.046C78.7305 125.741 78.975 125.05 78.649 124.501C78.3637 124.033 77.6914 123.789 77.2023 124.094C76.7337 124.399 76.5707 125.05 76.8763 125.518C77.1412 125.863 77.671 125.558 77.4469 125.233Z" fill="#5222D0"/>
<path d="M75.6727 120.76C75.5097 120.292 76.0191 119.804 76.4266 120.19C76.8341 120.577 76.3654 121.126 75.8968 120.963C75.5301 120.841 75.3671 121.431 75.7338 121.553C76.7933 121.898 77.6898 120.556 76.8545 119.763C76.4877 119.397 75.9172 119.336 75.4893 119.641C75.1022 119.926 74.8984 120.455 75.0818 120.922C75.2244 121.288 75.8153 121.146 75.6727 120.76Z" fill="#5222D0"/>
<path d="M83.4574 126.189C83.3963 126.148 83.4778 126.209 83.4981 126.25C83.4981 126.27 83.4981 126.29 83.4981 126.311C83.4981 126.331 83.4981 126.331 83.4981 126.29V126.311C83.5389 126.29 83.4981 126.311 83.4981 126.311C83.4778 126.311 83.5593 126.311 83.5796 126.311C83.6408 126.311 83.7019 126.331 83.763 126.351C83.6815 126.25 83.6204 126.148 83.5389 126.067C83.5389 126.229 83.5389 126.392 83.5389 126.555C83.6204 126.453 83.6815 126.351 83.763 126.27C83.6 126.331 83.437 126.351 83.274 126.311C82.9073 126.189 82.7443 126.778 83.111 126.9C83.3759 126.982 83.6815 126.982 83.926 126.86C84.0483 126.799 84.1501 126.717 84.1501 126.575C84.1501 126.412 84.1501 126.25 84.1501 126.087C84.1501 125.945 84.0483 125.823 83.926 125.802C83.6 125.721 83.2129 125.68 83.0091 126.006C82.8461 126.25 82.8665 126.636 83.1722 126.758C83.3148 126.839 83.4981 126.799 83.6 126.656C83.6611 126.473 83.6204 126.27 83.4574 126.189Z" fill="#5222D0"/>
<path d="M117.483 45.2417C117.585 45.2823 117.361 46.299 117.463 46.543C117.605 46.848 117.931 47.031 118.257 47.0717C118.706 47.153 119.093 46.9497 119.459 46.726C119.826 46.5023 120.702 45.7297 120.967 46.5837C121.028 46.7667 120.825 47.214 120.886 47.458C121.069 48.2713 121.843 48.2307 122.393 47.8037C122.597 47.641 122.719 47.4377 122.882 47.2547C123.086 46.7667 123.392 46.665 123.779 46.9497C123.779 47.0717 123.799 47.1937 123.84 47.2953C124.044 47.6003 124.146 47.8037 124.553 47.7833C124.94 47.763 124.94 47.153 124.553 47.1733C124.574 47.1733 124.125 46.2583 123.881 46.1567C123.596 46.0347 123.27 46.1363 123.005 46.299C122.821 46.4007 122.679 46.5633 122.536 46.7057C122.23 47.0107 122.251 47.458 121.762 47.153C121.293 46.8683 121.68 46.421 121.354 46.0143C120.825 45.3433 119.928 45.7093 119.358 46.0753C119.032 46.2787 118.217 47.0107 118.013 45.933C117.992 45.7907 118.115 45.567 118.115 45.4247C118.115 45.0993 118.054 44.9163 117.768 44.774C117.442 44.53 117.137 45.0587 117.483 45.2417Z" fill="#5222D0"/>
<path d="M96.1699 92.8013C96.4144 95.648 96.6589 98.4947 96.9238 101.341C96.9646 101.728 97.4943 101.728 97.5351 101.341C97.5351 101.28 97.5554 101.199 97.5554 101.138C97.5962 100.752 96.9849 100.752 96.9442 101.138C96.9442 101.199 96.9238 101.28 96.9238 101.341C97.1276 101.341 97.3313 101.341 97.5351 101.341C97.2906 98.4947 97.0461 95.648 96.7812 92.8013C96.7404 92.415 96.1292 92.3947 96.1699 92.8013Z" fill="#EC615B"/>
<path d="M96.6383 93.025C97.494 92.842 98.9814 92.5776 99.6334 93.2893C100.224 93.9196 100.082 95.16 100.163 96.014C100.306 97.722 100.448 99.43 100.591 101.118C100.632 101.504 101.243 101.504 101.202 101.118C100.998 98.6776 100.978 96.1156 100.571 93.696C100.265 91.805 97.9015 92.1507 96.4753 92.4353C96.0881 92.5167 96.2511 93.1063 96.6383 93.025Z" fill="#EC615B"/>
<path d="M101.855 81.5569C102.507 88.0636 102.732 94.5906 102.528 101.138C102.507 101.524 103.119 101.524 103.139 101.138C103.343 94.611 103.119 88.0636 102.467 81.5569C102.426 81.1706 101.815 81.1503 101.855 81.5569Z" fill="#EC615B"/>
<path d="M102.589 81.557C103.424 81.679 104.443 81.679 105.217 81.9637C106.256 82.3297 106.093 84.2003 106.195 85.156C106.378 87.0063 106.501 88.8567 106.623 90.707C106.847 94.55 106.928 98.393 107.01 102.236C107.01 102.622 107.621 102.622 107.621 102.236C107.519 97.8033 107.417 93.3503 107.112 88.9177C106.969 86.8437 106.867 84.7493 106.541 82.6957C106.256 80.947 104.157 81.1707 102.752 80.947C102.364 80.9267 102.201 81.496 102.589 81.557Z" fill="#EC615B"/>
<path d="M107.764 77.7343C108.457 85.461 109.17 93.1673 109.863 100.894C109.904 101.28 110.515 101.28 110.474 100.894C109.781 93.1673 109.068 85.461 108.375 77.7343C108.355 77.348 107.744 77.348 107.764 77.7343Z" fill="#EC615B"/>
<path d="M108.152 78.0393C109.13 77.8563 110.128 77.7953 111.127 77.897C111.962 77.9783 112.553 78.141 112.594 79.0356C112.614 79.3406 112.614 79.6659 112.614 79.9709C112.675 81.4959 112.736 83.0209 112.818 84.5459C113.083 90.3816 113.388 96.1969 113.694 102.033C113.714 102.419 114.326 102.419 114.305 102.033C113.979 95.7293 113.653 89.4463 113.368 83.1429C113.307 81.8213 113.246 80.52 113.205 79.1983C113.185 78.6086 113.185 78.0189 112.634 77.6326C112.125 77.2869 111.33 77.2666 110.74 77.2463C109.823 77.1853 108.906 77.2666 107.989 77.4496C107.602 77.531 107.765 78.1206 108.152 78.0393Z" fill="#EC615B"/>
<path d="M91.7906 75.7823C91.1183 77.104 90.4663 78.4256 89.7939 79.7473C89.6105 80.093 90.1403 80.398 90.3236 80.0523C90.996 78.7306 91.648 77.409 92.3204 76.0873C92.4834 75.7416 91.9536 75.4163 91.7906 75.7823Z" fill="#161616"/>
<path d="M91.8711 76.3923C92.1564 77.5716 92.788 78.6086 93.7253 79.3813C94.0309 79.6253 94.4588 79.1983 94.1531 78.9543C93.2974 78.2426 92.7269 77.3276 92.462 76.25C92.3601 75.8433 91.7693 76.006 91.8711 76.3923Z" fill="#161616"/>
<path d="M91.4443 76.677C91.322 85.583 92.4834 94.4686 94.908 103.049C95.0099 103.436 95.6008 103.273 95.4989 102.887C93.0947 94.367 91.9333 85.5423 92.0555 76.677C92.0555 76.2906 91.4443 76.2906 91.4443 76.677Z" fill="#161616"/>
<path d="M95.64 103.578C100.408 103.131 105.196 102.887 109.984 102.866C114.446 102.846 119.275 102.663 123.391 104.676C123.737 104.839 124.043 104.33 123.696 104.147C119.703 102.195 115.139 102.236 110.779 102.256C105.726 102.256 100.673 102.5 95.64 102.968C95.2528 103.009 95.2528 103.619 95.64 103.578Z" fill="#161616"/>
<path d="M120.885 102.582C121.985 103.253 123.045 103.985 124.023 104.798C124.043 104.635 124.063 104.473 124.084 104.31C123.248 104.94 122.433 105.571 121.598 106.201C121.292 106.445 121.598 106.974 121.904 106.73C122.739 106.099 123.554 105.469 124.389 104.839C124.532 104.737 124.613 104.493 124.45 104.351C123.411 103.497 122.331 102.724 121.19 102.053C120.844 101.87 120.538 102.378 120.885 102.582Z" fill="#161616"/>
<path d="M93.3392 86.986C93.6448 87.352 93.9505 87.718 94.2561 88.084C94.3783 88.2263 94.6432 88.1856 94.7451 88.023C96.3751 84.8306 97.9847 81.618 99.6351 78.4257C100.063 77.6123 100.654 78.2833 101.265 78.507C101.652 78.6493 102.06 78.6086 102.447 78.4663C103.425 78.1003 104.077 77.0837 104.525 76.189C105.259 74.664 105.911 73.078 106.624 71.5326C106.807 71.1056 107.011 70.6786 107.194 70.272C107.296 70.028 107.418 69.5196 107.622 69.3366C108.254 68.7673 109.802 70.0687 110.332 70.394C111.208 70.9227 112.471 72.102 113.612 71.797C114.468 71.5733 114.876 70.638 115.12 69.8653C116.302 66.3883 117.81 63.2366 120.132 60.3696C120.316 60.146 120.153 59.7596 119.827 59.8613C118.767 60.207 117.81 60.7356 116.933 61.4066C116.648 61.6303 117.015 62.037 117.3 61.8946C118.095 61.5083 118.91 61.1017 119.704 60.7153C119.562 60.6543 119.399 60.5933 119.256 60.5323C119.501 61.7523 119.745 62.9723 119.969 64.1923C120.051 64.5787 120.642 64.416 120.56 64.0296C120.316 62.8096 120.071 61.5896 119.847 60.3696C119.806 60.1663 119.562 60.1053 119.399 60.1866C118.604 60.573 117.789 60.9796 116.995 61.366C117.117 61.5286 117.239 61.6913 117.361 61.854C118.156 61.2237 119.012 60.7763 119.99 60.451C119.888 60.2883 119.786 60.1053 119.684 59.9426C117.911 62.1386 116.444 64.5583 115.385 67.1813C115.1 67.8726 114.855 68.5843 114.631 69.296C114.448 69.8653 114.162 71.0853 113.409 71.2073C112.553 71.3497 111.453 70.3736 110.76 69.9466C110.067 69.5196 109.395 69.052 108.682 68.6657C107.867 68.2387 107.357 68.4013 106.95 69.1943C106.175 70.7193 105.544 72.346 104.831 73.9116C104.301 75.091 103.629 77.47 102.182 77.8563C101.204 78.1206 100.307 76.6567 99.4313 77.5107C98.922 77.9987 98.6571 78.9137 98.3515 79.5237C97.8828 80.4387 97.4346 81.3333 96.966 82.2483C96.0491 84.058 95.1118 85.8677 94.195 87.6773C94.358 87.657 94.521 87.6366 94.684 87.6163C94.3783 87.2503 94.0727 86.8843 93.7671 86.5183C93.5022 86.254 93.0743 86.681 93.3392 86.986Z" fill="#161616"/>
<path d="M182.031 36.4576C180.035 35.3596 179.179 32.574 180.442 30.6016C181.726 28.5886 184.843 28.2226 186.657 29.707C188.511 31.2523 188.531 34.4243 186.758 36.0306C184.925 37.7183 181.848 37.271 180.34 35.4003C180.096 35.0953 179.668 35.5223 179.912 35.8273C181.318 37.5353 183.824 38.1453 185.882 37.2913C187.879 36.4576 188.918 34.3023 188.653 32.208C188.388 30.0526 186.779 28.4463 184.619 28.2023C182.561 27.9583 180.361 28.975 179.586 30.9676C178.731 33.1636 179.688 35.8273 181.746 36.9456C182.072 37.1693 182.378 36.6406 182.031 36.4576Z" fill="#EC615B"/>
<path d="M190.874 40.1989C190.018 38.6129 192.218 36.8643 193.319 38.5723C194.297 40.0769 191.892 41.2156 191.118 39.8126C190.935 39.4669 190.405 39.7719 190.588 40.1176C191.077 41.0123 192.218 41.2563 193.115 40.8699C194.174 40.4226 194.439 39.2026 193.848 38.2673C193.237 37.2913 191.974 36.9049 190.996 37.5963C190.079 38.2469 189.794 39.5279 190.324 40.5243C190.548 40.8496 191.077 40.5446 190.874 40.1989Z" fill="#EC615B"/>
<path d="M180.157 194C196.192 194 212.207 194 228.242 194C228.629 194 228.629 193.39 228.242 193.39C212.207 193.39 196.192 193.39 180.157 193.39C179.75 193.39 179.75 194 180.157 194Z" fill="#161616"/>
<path d="M238.306 194C241.362 194 244.418 194 247.475 194C247.862 194 247.862 193.39 247.475 193.39C244.418 193.39 241.362 193.39 238.306 193.39C237.919 193.39 237.919 194 238.306 194Z" fill="#161616"/>
<path d="M133.966 203.232C144.622 203.232 155.299 203.232 165.955 203.232C166.342 203.232 166.342 202.622 165.955 202.622C155.299 202.622 144.622 202.622 133.966 202.622C133.579 202.622 133.579 203.232 133.966 203.232Z" fill="#161616"/>
<path d="M165.548 200.792C174.778 200.792 184.028 200.792 193.258 200.792C193.645 200.792 193.645 200.182 193.258 200.182C184.028 200.182 174.778 200.182 165.548 200.182C165.161 200.182 165.161 200.792 165.548 200.792Z" fill="#161616"/>
<path d="M91.076 199.124C93.8673 199.124 96.6384 199.124 99.4297 199.124C100.021 199.124 100.021 198.209 99.4297 198.209C96.6384 198.209 93.8673 198.209 91.076 198.209C90.4851 198.209 90.4851 199.124 91.076 199.124Z" fill="#161616"/>
<path d="M102.283 199.124C103.241 199.124 104.178 199.124 105.136 199.124C105.726 199.124 105.726 198.209 105.136 198.209C104.178 198.209 103.241 198.209 102.283 198.209C101.692 198.209 101.692 199.124 102.283 199.124Z" fill="#161616"/>
<path d="M79.2174 162.199C79.6045 162.26 80.1342 162.748 80.5417 165.066C81.7439 165.147 82.946 165.229 84.1481 165.31C85.1465 164.476 86.1449 163.643 87.1432 162.789C87.2859 163.602 87.4692 164.802 87.6322 166.266C87.999 169.661 87.7749 170.475 87.999 172.366C88.1009 173.199 88.5695 176.717 90.7496 180.133C92.4204 182.756 93.5206 182.837 94.8246 185.399C95.8434 187.412 96.149 189.303 96.2712 190.544C96.475 190.523 99.0626 190.32 100.713 192.333C101.467 193.268 102.302 195.017 101.671 196.4C101.059 197.742 99.6535 197.538 97.1066 199.755C96.2101 200.527 95.3544 201.3 95.5581 201.91C95.7619 202.54 96.8621 202.418 98.7977 203.455C99.8165 204.004 100.305 204.289 100.468 204.777C101.08 206.546 97.2085 209.271 96.638 209.677C94.7635 210.979 92.4815 211.995 92.1962 211.589C91.7684 210.979 96.3731 207.624 95.6804 206.322C95.171 205.346 92.2777 206.566 91.6054 205.489C90.8719 204.309 93.4595 201.361 94.845 199.755C97.5141 196.664 99.2052 195.891 98.92 194.854C98.6144 193.756 96.2916 193.024 95.0895 193.777C94.0707 194.407 94.2745 195.83 93.8874 196.766C93.1539 198.555 89.6494 200.019 77.5874 198.677C77.7504 198.352 77.9949 197.965 78.3005 197.599C79.3396 196.4 80.6436 195.973 81.2956 195.81C81.1122 195.505 80.0527 193.695 80.7047 191.499C81.1937 189.832 82.3551 188.917 82.7422 188.632C81.9272 187.026 81.1122 185.277 80.338 183.366C79.849 182.126 79.4007 180.926 79.0136 179.767C77.8726 179.767 76.5482 179.564 75.5295 178.689C74.0014 177.347 74.6126 175.7 73.0234 174.501C71.536 173.362 69.7634 173.87 69.4577 172.894C69.3151 172.427 69.6004 171.878 69.906 171.593C70.6802 170.861 72.0657 171.227 73.5735 171.634C74.6126 171.918 76.1 172.447 77.7504 173.443C77.2002 172.65 76.2019 170.983 76.1407 168.767C75.9981 165.432 78.0356 162.036 79.2174 162.199Z" fill="#161616"/>
<path d="M78.5046 176.798C77.0987 177.408 77.6285 181.536 78.1379 185.298C78.4639 187.677 79.014 190.828 80.0531 194.509C77.2006 196.705 77.3432 197.335 77.4247 197.498C77.6896 198.047 79.5845 197.721 80.1754 197.62C80.807 197.518 81.7035 197.355 82.2129 197.03C83.6595 196.074 82.9056 193.167 82.4574 188.531C81.8054 181.821 82.5796 179.015 80.4199 177.408C80.1346 177.185 79.1974 176.493 78.5046 176.798Z" fill="#161616"/>
<path d="M64.5687 185.216C64.6298 185.196 65.1595 184.932 65.1392 184.911C65.0984 184.891 65.0984 185.216 65.0984 185.298C65.078 185.562 64.9965 185.887 65.0373 186.172C65.1188 186.579 65.4244 186.782 65.8319 186.741C66.056 186.721 66.219 186.619 66.4024 186.477C66.4432 186.436 66.7284 186.192 66.7488 186.192C66.7896 186.213 66.7895 186.66 66.8099 186.701C66.8914 187.087 67.1767 187.412 67.6046 187.372C67.9917 187.331 67.9917 186.721 67.6046 186.762C67.4008 186.782 67.3397 185.684 66.9933 185.562C66.8507 185.501 66.6877 185.542 66.5654 185.603C66.2598 185.745 65.8115 186.396 65.6689 185.826C65.567 185.399 65.9949 184.789 65.6078 184.423C65.241 184.078 64.6298 184.484 64.2834 184.667C63.9167 184.871 64.2223 185.399 64.5687 185.216Z" fill="white"/>
<path d="M78.5858 168.828C78.9322 168.502 79.5231 168.584 79.7676 168.99C79.9306 169.234 80.3177 169.011 80.1547 168.767C79.7472 168.116 78.8099 167.994 78.2598 168.502C78.0561 168.706 78.3821 169.031 78.5858 168.828Z" fill="white"/>
<path d="M82.9472 168.685C83.3139 168.319 83.9252 168.299 84.3123 168.645C84.5364 168.848 84.8624 168.523 84.6383 168.319C84.0678 167.791 83.1713 167.811 82.6211 168.36C82.4174 168.563 82.7434 168.889 82.9472 168.685Z" fill="white"/>
<path d="M79.381 171.064C79.1569 171.512 78.1993 173.057 79.2384 173.179C79.6663 173.22 80.0738 172.833 80.3183 172.549C80.6647 172.142 80.8684 171.634 81.0518 171.146C81.1944 170.78 80.6035 170.617 80.4609 170.983C80.2368 171.552 79.9923 172.081 79.5033 172.488C79.4014 172.569 79.3403 172.711 79.381 172.528C79.4014 172.406 79.4625 172.284 79.5237 172.183C79.6459 171.918 79.7682 171.654 79.9108 171.39C80.0738 171.003 79.544 170.698 79.381 171.064Z" fill="#EC615B"/>
<path d="M79.9319 171.39C80.1968 171.268 80.4006 171.105 80.6451 170.942C80.5636 170.963 80.4821 170.963 80.4006 170.983C80.4209 170.983 80.4413 171.003 80.4617 171.003C80.4006 170.963 80.3394 170.902 80.2783 170.861C80.2783 170.739 80.2579 170.739 80.1764 170.881C80.1153 170.942 80.0746 171.003 80.0134 171.085C79.9116 171.207 79.8301 171.329 79.7486 171.451C79.5652 171.735 79.4022 172.02 79.2392 172.325C79.0558 172.671 79.5856 172.976 79.7689 172.63C79.9523 172.305 80.1357 171.959 80.3394 171.654C80.5024 171.41 80.8488 171.146 80.8692 170.841C80.8896 170.617 80.7062 170.414 80.5024 170.414C80.3598 170.393 80.2579 170.475 80.1561 170.556C79.9727 170.698 79.8097 170.8 79.5856 170.902C79.2799 171.003 79.5856 171.532 79.9319 171.39Z" fill="#EC615B"/>
<path d="M79.321 171.044C79.9934 171.064 80.625 170.576 80.7473 169.905C80.788 169.621 80.3601 169.499 80.299 169.783C80.2175 170.271 79.81 170.617 79.321 170.597C79.0154 170.576 79.0154 171.024 79.321 171.044Z" fill="white"/>
<path d="M80.36 169.763C80.4415 170.576 81.1547 171.227 81.99 171.166C82.2753 171.146 82.2753 170.678 81.99 170.698C81.4195 170.739 80.8694 170.353 80.8083 169.763C80.7879 169.478 80.3397 169.478 80.36 169.763Z" fill="white"/>
<path d="M204.179 131.435C197.435 139.588 190.711 147.722 183.967 155.875C194.541 158.498 205.116 161.121 215.691 163.744C216.037 159.373 216.119 150.446 211.249 141.113C209.048 136.884 206.42 133.712 204.179 131.435Z" fill="#5222D0"/>
<path d="M181.99 157.522C192.667 160.206 203.364 162.87 214.04 165.554C213.918 167.262 213.571 169.641 212.553 172.284C211.351 175.456 209.659 177.754 208.437 179.177C199.635 171.959 190.813 164.741 181.99 157.522Z" fill="#EC615B"/>
<path d="M180.421 194C160.677 194 144.602 177.571 144.602 157.36C144.602 137.148 160.677 120.719 180.421 120.719C200.164 120.719 216.24 137.148 216.24 157.36C216.24 177.571 200.164 194 180.421 194ZM180.421 121.329C161.003 121.329 145.213 137.494 145.213 157.36C145.213 177.225 161.003 193.39 180.421 193.39C199.838 193.39 215.629 177.225 215.629 157.36C215.629 137.494 199.838 121.329 180.421 121.329Z" fill="#161616"/>
<path d="M180.868 156.587C180.95 156.506 181.153 156.567 181.194 156.668C181.214 156.587 181.214 156.506 181.235 156.424C181.214 156.465 181.153 156.445 181.133 156.424C180.97 156.363 180.807 156.485 180.766 156.628C180.725 156.79 180.827 156.953 180.97 156.994C181.214 157.075 181.5 157.014 181.663 156.831C181.866 156.628 181.805 156.343 181.622 156.16C181.296 155.835 180.787 155.814 180.461 156.119C180.135 156.404 180.562 156.851 180.868 156.587Z" fill="#161616"/>
<path d="M202.344 129.015C195.844 138.45 188.856 147.559 181.419 156.282C181.174 156.587 181.602 157.014 181.847 156.709C189.324 147.945 196.333 138.816 202.874 129.32C203.098 128.995 202.568 128.69 202.344 129.015Z" fill="#161616"/>
<path d="M181.114 156.973C192.605 159.027 204.015 161.447 215.344 164.253C215.731 164.354 215.894 163.765 215.507 163.663C204.178 160.877 192.768 158.437 181.277 156.384C180.89 156.323 180.727 156.912 181.114 156.973Z" fill="#161616"/>
<path d="M181.073 156.872C189.773 164.822 198.738 172.467 207.968 179.828C208.274 180.072 208.702 179.645 208.396 179.401C199.187 172.061 190.201 164.395 181.501 156.445C181.216 156.18 180.768 156.607 181.073 156.872Z" fill="#161616"/>
<path opacity="0.21" d="M180.441 121.105C181.194 124.46 181.704 129.239 179.85 134.119C175.632 145.261 163.387 145.81 158.741 154.899C156.215 159.84 155.583 168.014 163.57 182.248C163.57 184.647 163.57 187.026 163.57 189.425C161.207 188.104 158.599 186.314 156.092 183.874C146.577 174.582 145.11 162.443 144.805 157.827C144.825 154.493 145.294 143.655 153.301 133.976C155.114 131.78 161.553 124.257 172.515 121.837C175.714 121.146 178.485 121.044 180.441 121.105Z" fill="#6D6C6C"/>
<path d="M120.132 178.12C121.538 181.658 122.944 185.176 124.33 188.714C123.494 190.544 122.211 193.248 120.438 196.481C118.115 200.71 117.015 202.134 117.382 202.561C117.912 203.171 121.355 201.646 134.721 191.662C133.885 189.344 133.03 187.006 132.194 184.627C130.972 181.17 129.79 177.754 128.629 174.358C125.817 175.619 122.985 176.88 120.132 178.12Z" fill="#161616"/>
<path d="M157.703 116.144C159.965 119.987 158.355 125.945 158.131 126.738C156.888 131.353 154.077 131.801 143.767 141.54C137.308 147.661 135.454 150.141 134.089 152.866C132.235 156.607 131.562 160.084 131.297 162.443C132.133 167.323 132.968 172.183 133.803 177.063C131.664 178.445 128.669 180.092 124.838 181.251C122.149 182.065 119.704 182.471 117.687 182.654C115.812 177.917 113.123 169.173 114.569 158.539C116.322 145.587 123.188 137.108 128.893 130.072C137.573 119.377 147.618 112.443 156.216 107.97C155.931 109.495 155.768 111.691 156.623 114.009C157.031 115.107 157.479 115.758 157.703 116.144Z" fill="#EC615B"/>
<path opacity="0.2" d="M154.321 110.634C151.774 117.506 148.718 122.834 145.947 126.839C137.695 138.816 131.603 139.792 126.734 150.914C123.616 158.031 122.944 164.822 122.74 167.262C122.231 172.935 122.679 177.754 123.249 181.292C124.39 181.251 125.817 181.089 127.386 180.641C130.421 179.767 132.581 178.242 133.824 177.164C133.478 175.517 132.968 173.077 132.398 170.088C131.624 165.94 131.236 163.846 131.236 162.362C131.236 157.99 133.091 154.696 134.598 152.073C135.311 150.833 137.39 147.396 144.664 140.747C152.345 133.732 155.544 132.512 157.561 127.368C158.763 124.298 158.743 121.858 158.722 121.065C158.539 115.717 155.523 111.976 154.321 110.634Z" fill="#6D6C6C"/>
<path opacity="0.27" d="M158.702 122.732C154.525 126.229 148.555 131.455 141.689 138.165C131.726 147.925 129.953 150.772 129.179 152.195C127.019 156.16 123.311 165.188 126.978 180.255C128.18 179.767 129.423 179.218 130.727 178.588C131.766 178.079 132.765 177.551 133.702 177.042C132.887 172.284 132.072 167.526 131.257 162.748C131.318 160.959 131.603 158.275 132.806 155.286C133.091 154.574 133.926 152.602 136.025 149.755C137.696 147.478 139.305 145.932 142.463 142.943C144.99 140.544 147.435 138.023 150.063 135.745C154.79 131.658 156.909 130.54 158.05 127.388C158.723 125.538 158.763 123.85 158.702 122.732Z" fill="#6D6C6C"/>
<path d="M142.564 177.673C145.661 180.052 148.758 182.431 151.855 184.81C147.74 195.22 147.74 197.925 148.575 198.392C149.961 199.185 154.504 194.285 157.092 190.686C159.394 187.453 160.739 184.423 161.513 182.309C160.25 180.702 158.803 179.035 157.194 177.327C154.973 174.968 152.793 172.955 150.735 171.207C148.025 173.382 145.295 175.517 142.564 177.673Z" fill="#161616"/>
<path d="M174.349 116.144C176.162 120.943 175.062 125.579 174.777 126.738C172.698 135.359 164.976 142.476 162.246 144.956C157.58 149.226 153.709 151.361 151.549 157.055C150.795 159.007 150.49 160.735 150.367 161.914C151.855 165.31 153.342 168.706 154.829 172.081C153.851 174.175 151.712 178.039 147.393 180.987C145.559 182.248 143.766 183.02 142.299 183.529C139.202 180.377 130.807 171.024 131.256 158.519C131.602 148.921 137.042 141.195 141.239 135.196C145.457 129.198 146.537 129.93 151.855 122.264C156.459 115.615 157.336 112.586 161.207 111.244C165.098 109.881 170.803 110.634 173.31 114.009C173.799 114.721 174.023 115.31 174.349 116.144Z" fill="#EC615B"/>
<path opacity="0.24" d="M164.873 115.229C165.098 117.1 165.261 120.312 164.323 124.013C161.063 136.599 149.124 137.697 143.378 151.321C142.257 153.984 139.649 160.43 141.707 167.892C143.296 173.708 147.005 177.49 149.103 179.32C149.918 178.893 151.263 178.039 152.445 176.534C153.912 174.663 154.38 172.752 154.543 171.796C153.097 168.319 151.65 164.822 150.224 161.345C150.489 159.8 151.039 157.583 152.322 155.204C154.075 151.91 156.194 150.243 158.924 147.783C163.936 143.289 167.135 140.442 169.906 136.518C171.658 134.017 174.205 130.337 175.041 124.948C175.733 120.556 175 116.876 174.368 114.66C171.21 114.863 168.032 115.046 164.873 115.229Z" fill="#6D6C6C"/>
<path opacity="0.25" d="M175.244 121.756C173.635 124.704 170.864 129.3 166.585 134.22C158.353 143.675 152.771 145.648 148.94 152.927C147.29 156.058 145.782 161.223 147.636 169.519C149.979 170.454 152.343 171.39 154.686 172.345C153.199 168.848 151.732 165.371 150.244 161.874C150.387 160.145 150.815 157.583 152.261 154.94C153.545 152.581 154.971 151.341 158.109 148.494C163.305 143.777 165.913 141.418 166.972 140.239C169.397 137.575 172.045 134.586 173.716 129.971C174.939 126.697 175.204 123.749 175.244 121.756Z" fill="#6D6C6C"/>
<path d="M125.653 87.7993C125.103 86.5793 124.145 84.8103 122.393 83.204C120.192 81.191 117.116 79.7473 116.627 80.337C116.423 80.581 116.443 81.435 120.152 85.522" fill="white"/>
<path d="M125.469 87.8806C124.654 86.071 123.594 84.5866 122.25 83.3463C120.355 81.6179 117.849 80.3369 116.952 80.3979C116.871 80.3979 116.789 80.4183 116.769 80.4589C116.728 80.5199 116.422 81.1299 120.294 85.3796L119.988 85.644C115.77 81.0079 116.259 80.4386 116.463 80.1946C116.565 80.0726 116.728 80.0116 116.932 79.9913C118.032 79.9099 120.701 81.3739 122.535 83.0413C123.92 84.3019 125 85.8269 125.836 87.6976L125.469 87.8806Z" fill="#161616"/>
<path d="M117.972 84.4646C117.177 84.9526 115.771 85.9896 115.018 87.779C114.732 88.4703 114.366 89.365 114.63 90.402C115.099 92.1913 117.259 92.9436 117.442 93.025C118.318 93.33 118.542 93.1063 119.174 93.4723C120.193 94.062 120.152 94.855 120.906 95.587C122.454 97.0713 125.592 96.4816 125.735 95.8513C125.816 95.5056 124.92 95.1803 125.001 94.55C125.042 94.1636 125.429 94.001 125.694 93.757C127.12 92.4556 125.755 88.6533 125.511 88.023C125.287 87.4333 124.94 86.5793 124.329 85.6236" fill="white"/>
<path d="M123.616 96.7256C122.638 96.7256 121.537 96.4816 120.783 95.7293C120.457 95.404 120.274 95.0786 120.091 94.7533C119.846 94.3263 119.642 93.9603 119.092 93.635C118.787 93.452 118.603 93.4316 118.338 93.4113C118.114 93.391 117.829 93.3503 117.401 93.208C117.381 93.1876 117.36 93.1876 117.34 93.1876C115.792 92.5573 114.773 91.6016 114.467 90.4426C114.182 89.3446 114.569 88.389 114.854 87.6976C115.588 85.9693 116.912 84.8916 117.89 84.2816L118.094 84.6273C117.157 85.1966 115.914 86.2336 115.221 87.84C114.936 88.511 114.589 89.365 114.834 90.341C115.099 91.3576 116.036 92.232 117.462 92.8013C117.503 92.8216 117.523 92.8216 117.523 92.8216C117.89 92.9436 118.135 92.9843 118.359 93.0046C118.644 93.0453 118.889 93.0656 119.276 93.2893C119.928 93.6553 120.172 94.123 120.417 94.55C120.58 94.855 120.743 95.1396 121.048 95.4243C122.128 96.4613 124.003 96.4003 124.94 96.1156C125.368 95.9936 125.531 95.831 125.551 95.7903C125.551 95.7293 125.408 95.587 125.327 95.5056C125.082 95.282 124.756 94.9566 124.818 94.5093C124.858 94.1433 125.123 93.94 125.368 93.757C125.449 93.696 125.51 93.6553 125.571 93.5943C126.672 92.5776 125.938 89.6496 125.327 88.084C125.082 87.413 124.736 86.62 124.166 85.7253L124.512 85.5016C125.103 86.437 125.449 87.2503 125.714 87.9416C125.897 88.4093 127.405 92.476 125.836 93.8993C125.755 93.9603 125.673 94.0416 125.592 94.1026C125.388 94.245 125.225 94.367 125.205 94.5703C125.164 94.8346 125.388 95.038 125.592 95.2413C125.796 95.4446 125.999 95.648 125.938 95.892C125.857 96.2173 125.408 96.4206 125.062 96.5223C124.675 96.6443 124.166 96.7256 123.616 96.7256Z" fill="#161616"/>
<path d="M114.284 90.1376C114.752 91.3576 115.649 92.4353 116.892 92.9233C118.155 93.4316 119.092 92.7606 119.113 91.4186C119.113 91.0323 118.501 91.0323 118.501 91.4186C118.481 92.9843 116.932 92.415 116.158 91.7846C115.567 91.317 115.139 90.6866 114.875 89.975C114.732 89.609 114.141 89.7513 114.284 90.1376Z" fill="#161616"/>
<path d="M115.811 88.4703C116.423 89.609 117.238 90.8696 118.501 91.3373C119.642 91.7643 120.314 91.073 120.437 89.9953C120.477 89.609 119.866 89.609 119.825 89.9953C119.642 91.6016 118.073 90.4833 117.523 89.914C117.034 89.4056 116.667 88.7956 116.341 88.1653C116.158 87.8196 115.628 88.1246 115.811 88.4703Z" fill="#161616"/>
<path d="M117.646 85.7253C118.013 86.5387 118.38 87.3723 118.889 88.1043C119.235 88.6127 119.724 89.3447 120.397 89.4667C121.986 89.7717 121.476 87.5147 121.171 86.742C121.028 86.376 120.437 86.5387 120.58 86.9047C120.723 87.2503 121.028 87.962 120.906 88.3483C120.56 89.4667 119.622 88.084 119.419 87.7993C118.909 87.0673 118.543 86.2337 118.176 85.4203C118.013 85.0543 117.483 85.3593 117.646 85.7253Z" fill="#161616"/>
<path d="M117.952 84.8103C118.563 84.5053 119.317 85.0543 119.745 85.461C120.173 85.8676 120.458 86.3963 120.682 86.925C120.825 87.291 121.416 87.1283 121.273 86.7623C120.764 85.5017 119.256 83.4886 117.647 84.2816C117.3 84.4443 117.606 84.973 117.952 84.8103Z" fill="#161616"/>
<path d="M162.144 78.568C162.796 80.4997 161.797 82.1467 159.006 87.108C154.32 95.3633 154.034 96.0953 152.954 97.3967C150.408 100.447 148.961 102.175 146.292 103.293C141.422 105.327 136.023 103.537 133.068 102.419C130.318 101.362 128.28 99.9993 126.956 98.9827C126.059 98.2507 125.367 97.6813 124.918 97.3357C123.981 96.5833 123.553 96.258 123.187 95.6073C123.166 95.587 122.82 94.9567 122.738 94.245C122.433 92.0693 124.592 90.2393 124.755 90.097C122.168 90.707 121.271 90.585 121.108 90.219C120.721 89.4057 123.533 86.4167 125.509 87.0877C126.447 87.3927 126.915 88.45 127.262 89.2227C127.934 90.6867 127.852 92.049 127.771 92.7403C129.014 93.5943 130.786 94.5907 133.048 95.2617C137.51 96.563 141.341 95.8717 143.236 95.3837C144.275 93.7163 145.966 90.9917 148.024 87.596C153.647 78.2833 155.135 75.335 157.722 75.2943C159.658 75.274 161.573 76.8803 162.144 78.568Z" fill="white"/>
<path d="M141.423 104.432C138.285 104.432 135.29 103.476 133.008 102.622C130.807 101.789 128.75 100.609 126.834 99.1656L126.488 98.881C125.754 98.2913 125.184 97.8236 124.797 97.5186L124.654 97.417C123.798 96.7256 123.371 96.38 123.004 95.7293C122.902 95.5463 122.596 94.9363 122.535 94.2856C122.311 92.659 123.35 91.256 124.084 90.463C121.578 90.9916 121.068 90.6663 120.926 90.3206C120.661 89.7716 121.435 88.8363 121.659 88.572C122.678 87.4333 124.287 86.4776 125.571 86.925C126.59 87.2503 127.079 88.3483 127.446 89.1616C127.935 90.2393 128.118 91.4186 127.996 92.6793C129.585 93.757 131.296 94.5703 133.11 95.099C137.144 96.2783 140.771 95.831 143.114 95.2413C144.764 92.598 146.313 90.0563 147.861 87.535C148.412 86.5996 148.941 85.7456 149.43 84.9323C153.811 77.6326 155.298 75.1723 157.743 75.1316C159.862 75.1113 161.798 76.8803 162.368 78.5476C163.02 80.4996 162.083 82.167 159.536 86.681L159.21 87.2503C157.967 89.4463 157.03 91.1136 156.317 92.3946C154.32 95.953 153.953 96.6036 153.138 97.5796C150.632 100.589 149.125 102.399 146.394 103.537C144.744 104.168 143.053 104.432 141.423 104.432ZM123.35 95.4853L123.371 95.5056C123.697 96.0953 124.084 96.4003 124.919 97.0713L125.041 97.173C125.429 97.478 125.999 97.9456 126.733 98.5353L127.079 98.82C128.933 100.243 130.971 101.402 133.13 102.216C136.553 103.517 141.627 105.001 146.211 103.09C148.839 101.992 150.245 100.304 152.792 97.2543C153.566 96.319 153.933 95.6683 155.91 92.1303C156.623 90.8493 157.56 89.182 158.803 86.986L159.129 86.4166C161.676 81.9026 162.531 80.3776 161.94 78.6086C161.431 77.0836 159.618 75.4773 157.743 75.4773C157.723 75.4773 157.723 75.4773 157.702 75.4773C155.482 75.518 154.035 77.9173 149.736 85.095C149.247 85.9083 148.738 86.7623 148.167 87.6976C146.619 90.2596 145.05 92.8013 143.379 95.4853L143.338 95.5463L143.257 95.5666C140.873 96.1766 137.144 96.6646 132.967 95.4446C131.072 94.8753 129.279 94.0213 127.629 92.903L127.527 92.842L127.547 92.72C127.69 91.4796 127.527 90.341 127.058 89.304C126.732 88.5516 126.264 87.5553 125.428 87.2706C124.328 86.8843 122.841 87.7993 121.944 88.816C121.394 89.426 121.191 89.9546 121.272 90.1173C121.313 90.1986 121.659 90.6053 124.695 89.8936L125.49 89.7106L124.878 90.2596C124.349 90.7273 122.657 92.354 122.922 94.2246C123.004 94.8143 123.289 95.3633 123.35 95.4853Z" fill="#161616"/>
<path d="M124.573 90.6257C122.82 90.5443 122.576 92.8013 122.352 94.0823C122.556 94.1027 122.759 94.1433 122.943 94.1637C122.963 93.3503 123.33 92.6793 123.717 91.988C123.921 91.6423 123.391 91.3373 123.187 91.683C122.393 92.964 121.904 94.55 123.004 95.8107C123.146 95.6683 123.289 95.526 123.432 95.3837C123.126 95.1193 122.963 94.7737 122.943 94.3467C122.739 94.367 122.535 94.4077 122.352 94.428C122.454 94.7533 122.576 95.0583 122.739 95.3633C122.922 95.709 123.452 95.404 123.269 95.0583C123.126 94.8143 123.004 94.55 122.943 94.2653C122.861 93.94 122.311 94.001 122.352 94.3467C122.413 94.9363 122.596 95.3837 123.024 95.8107C123.309 96.0953 123.717 95.6683 123.452 95.3837C122.556 94.3467 123.126 93.025 123.737 91.988C123.554 91.8863 123.391 91.7847 123.208 91.683C122.759 92.476 122.372 93.2283 122.352 94.1637C122.331 94.5093 122.902 94.5907 122.943 94.245C123.106 93.3097 123.248 91.195 124.573 91.2357C124.96 91.256 124.96 90.646 124.573 90.6257Z" fill="white"/>
<path opacity="0.21" d="M159.028 76.128C157.744 79.5643 155.666 84.4647 152.386 90.0157C149.044 95.6887 147.292 98.5353 144.276 100.04C138.082 103.11 128.527 101.036 125.307 95.16C124.329 93.3707 124.105 91.561 124.105 90.1987C123.331 90.463 122.129 90.7477 120.967 90.3003C118.359 89.2633 118.115 85.3797 116.729 85.4203C115.813 85.461 115.14 87.1893 114.896 87.8197C114.672 88.389 114.305 89.3243 114.529 90.3003C114.855 91.744 116.383 92.8827 118.298 93.2487C119.297 93.7367 119.928 94.2857 120.315 94.7127C120.988 95.4447 121.171 96.014 121.884 96.3597C122.516 96.6647 123.188 96.624 123.637 96.5427C124.594 97.3153 126.102 98.4743 128.058 99.674C132.255 102.236 137.329 105.327 143.074 104.269C145.784 103.781 147.638 102.541 148.779 101.789C150.633 100.548 152.63 98.6777 156.42 91.866C157.989 89.0397 159.924 85.278 161.86 80.642C161.942 80.4387 162.39 79.239 161.758 77.9783C160.984 76.311 159.13 76.128 159.028 76.128Z" fill="#6D6C6C"/>
<path opacity="0.22" d="M120.479 90.2596C120.193 90.463 120.316 90.8696 119.969 91.1746C119.725 91.378 119.399 91.378 119.195 91.378C119.195 91.6626 119.154 92.0286 118.93 92.354C118.645 92.7606 118.258 92.842 118.278 93.0046C118.319 93.1876 118.889 93.086 119.439 93.391C119.827 93.6146 120.071 93.9603 120.214 94.2246C121.558 92.9436 122.903 91.683 124.248 90.402C123.229 90.7883 122.475 90.7273 121.966 90.6053C121.314 90.402 120.825 90.0156 120.479 90.2596Z" fill="#6D6C6C"/>
<path d="M161.982 74.5826C160.616 75.9449 159.903 77.4903 158.518 80.5809C157.418 83.0006 155.645 87.047 155.054 92.4353C154.402 98.454 155.93 99.8163 154.708 104.29C153.791 107.665 152.059 110.146 150.775 111.65C152.426 113.297 155.421 115.839 159.883 117.405C167.442 120.048 174.084 118.055 176.264 117.283C178.078 112.403 179.871 107.523 181.684 102.663C181.705 98.5353 181.868 95.0176 182.031 92.2929C182.438 85.7863 183.11 80.8046 183.538 77.7749C184.027 74.2166 184.537 71.2276 184.924 69.0316C180.339 69.2756 176.55 69.8043 173.84 70.2923C164.956 71.919 162.858 73.7083 161.982 74.5826Z" fill="white"/>
<path d="M167.789 118.95C165.364 118.95 162.654 118.584 159.822 117.608C156.379 116.388 153.282 114.436 150.633 111.813L150.49 111.671L150.612 111.528C151.896 110.024 153.608 107.543 154.504 104.249C155.156 101.87 155.013 100.426 154.85 98.5963C154.708 97.0103 154.545 95.221 154.85 92.4353C155.462 86.8233 157.397 82.5736 158.335 80.52C159.781 77.3073 160.474 75.823 161.839 74.4606C162.573 73.7286 164.488 71.8173 173.799 70.1093C177.324 69.479 181.053 69.052 184.904 68.8486L185.168 68.8283L185.128 69.0723C184.741 71.2683 184.231 74.2573 183.742 77.8156C183.416 80.093 182.662 85.4203 182.234 92.3133C182.01 95.9326 181.908 99.308 181.888 102.663V102.704L181.868 102.744C180.829 105.55 179.789 108.356 178.73 111.183C177.976 113.236 177.202 115.31 176.448 117.364L176.407 117.445L176.326 117.486C174.451 118.137 171.436 118.95 167.789 118.95ZM151.061 111.63C153.628 114.151 156.623 116.042 159.965 117.201C166.872 119.621 173.005 118.198 176.122 117.12C176.876 115.087 177.63 113.053 178.384 111.02C179.423 108.214 180.462 105.408 181.501 102.622C181.521 99.2673 181.623 95.892 181.847 92.2726C182.275 85.3593 183.029 80.0116 183.355 77.7343C183.824 74.3183 184.313 71.4106 184.7 69.235C180.951 69.4383 177.324 69.8653 173.901 70.4753C164.712 72.163 162.858 74.0133 162.145 74.7046C160.82 76.0263 160.148 77.47 158.722 80.642C157.805 82.6753 155.89 86.8843 155.278 92.4353C154.973 95.2006 155.136 96.9696 155.278 98.515C155.441 100.325 155.584 101.87 154.912 104.31C154.015 107.604 152.344 110.085 151.061 111.63Z" fill="#161616"/>
<path opacity="0.19" d="M172.78 70.4347C173.697 72.6103 174.879 76.128 175.144 80.5403C175.775 91.0323 170.702 99.247 166.851 105.469C165.099 108.295 162.389 112.22 158.375 116.469C159.924 117.283 162.144 118.198 164.936 118.645C169.989 119.458 174.105 118.238 176.142 117.466C177.854 112.545 179.545 107.645 181.256 102.724C181.358 99.369 181.541 95.892 181.806 92.354C182.418 84.0987 183.416 76.3517 184.638 69.1537C180.686 69.5807 176.733 70.0077 172.78 70.4347Z" fill="#6D6C6C"/>
<path opacity="0.11" d="M176.428 69.8044C177.895 73.5864 179.423 79.0967 179.077 85.7254C178.099 104.168 163.47 115.331 160.943 117.201C162.492 117.75 164.59 118.32 167.137 118.482C170.927 118.726 174.004 117.954 175.899 117.303C177.773 112.382 179.668 107.482 181.542 102.561C181.542 98.0677 181.705 93.269 182.093 88.1857C182.622 81.3334 183.498 74.9894 184.558 69.2554C181.848 69.4384 179.138 69.6214 176.428 69.8044Z" fill="#6D6C6C"/>
<path d="M184.171 68.7673C185.821 69.3773 188.246 70.5567 189.998 72.9357C191.954 75.5993 192.382 78.812 191.261 88.999C190.222 98.4743 189.326 100.508 188.979 106.201C188.592 112.464 189.183 117.588 189.733 120.861C192.056 120.312 194.379 119.763 196.702 119.214C199.228 119.885 200.756 121.126 201.51 121.878C202.264 122.61 203.853 124.155 203.405 125.416C203.12 126.229 202.081 126.636 201.632 126.799C200.756 127.144 200.023 127.104 199.228 127.043C197.537 126.941 195.846 126.88 194.155 126.799C193.279 126.758 192.015 126.717 190.487 126.799C192.545 128.568 193.421 129.706 193.156 130.215C192.79 130.886 190.345 130.418 185.801 128.832C185.597 127.185 185.271 124.684 184.782 121.634C183.519 113.663 182.602 110.817 181.991 106.587C181.359 102.216 181.563 98.271 181.991 90.402C182.317 84.8307 182.908 77.47 184.171 68.7673Z" fill="white"/>
<path d="M192.239 130.703C190.792 130.703 188.225 129.889 185.719 129.015L185.596 128.974L185.576 128.852C185.27 126.372 184.944 124.013 184.557 121.654C183.864 117.283 183.274 114.416 182.785 112.098C182.377 110.166 182.031 108.519 181.766 106.587C181.114 102.134 181.358 97.966 181.766 90.3613C182.194 82.899 182.907 75.823 183.946 68.7063L183.987 68.4623L184.231 68.5437C186.778 69.479 188.775 70.9227 190.16 72.773C192.239 75.5993 192.524 79.239 191.464 88.9787C190.955 93.574 190.486 96.4613 190.099 98.7997C189.692 101.301 189.366 103.253 189.182 106.181C188.877 111.02 189.121 115.88 189.895 120.577L196.701 118.97L196.741 118.991C199.186 119.641 200.755 120.821 201.631 121.715C202.426 122.488 204.076 124.074 203.567 125.457C203.241 126.392 202.059 126.819 201.672 126.961C200.715 127.327 199.9 127.266 199.186 127.226C198.066 127.165 196.925 127.104 195.825 127.063C195.254 127.043 194.684 127.022 194.133 126.982C193.339 126.941 192.279 126.9 190.996 126.961C193.481 129.157 193.522 129.91 193.339 130.296C193.176 130.581 192.789 130.703 192.239 130.703ZM185.983 128.69C191.872 130.743 192.829 130.377 192.972 130.133C193.054 129.991 193.094 129.32 190.344 126.961L189.957 126.636L190.466 126.616C191.994 126.534 193.237 126.575 194.154 126.616C194.724 126.636 195.274 126.677 195.845 126.697C196.945 126.738 198.107 126.799 199.227 126.86C200.083 126.921 200.735 126.941 201.55 126.636C202.467 126.311 203.037 125.884 203.2 125.375C203.608 124.237 202.039 122.712 201.346 122.041C200.511 121.207 199.023 120.068 196.68 119.438L189.549 121.126L189.508 120.902C188.693 116.103 188.449 111.142 188.754 106.201C188.938 103.253 189.264 101.28 189.671 98.7793C190.058 96.4613 190.527 93.574 191.036 88.999C192.198 78.385 191.607 75.518 189.814 73.078C188.53 71.3293 186.676 69.9873 184.313 69.0723C183.294 76.0873 182.601 83.082 182.173 90.4427C181.766 98.0067 181.542 102.175 182.173 106.587C182.459 108.499 182.785 110.146 183.192 112.057C183.681 114.375 184.272 117.242 184.965 121.634C185.352 123.932 185.678 126.25 185.983 128.69Z" fill="#161616"/>
<path d="M193.624 124.094C195.192 123.444 196.822 123.81 198.33 124.481C199.614 125.03 200.877 125.701 201.875 126.677C202.161 126.941 202.589 126.514 202.303 126.25C201.142 125.131 199.695 124.379 198.208 123.789C196.68 123.159 195.029 122.874 193.44 123.525C193.114 123.647 193.277 124.237 193.624 124.094Z" fill="#161616"/>
<path d="M195.621 122.224C198.331 121.695 201.55 123.301 203.037 125.599C203.261 125.924 203.791 125.619 203.567 125.294C201.896 122.752 198.473 121.065 195.458 121.654C195.071 121.715 195.234 122.305 195.621 122.224Z" fill="#161616"/>
<path d="M197.964 120.821C199.044 120.861 199.981 121.329 200.919 121.837C201.265 122.02 201.571 121.492 201.224 121.309C200.185 120.76 199.146 120.251 197.964 120.211C197.577 120.19 197.577 120.8 197.964 120.821Z" fill="#161616"/>
<path opacity="0.16" d="M184.455 69.2554C185.474 71.553 186.92 75.2944 187.654 80.093C189.427 91.8457 185.066 97.966 185.841 110.674C186.024 113.826 186.615 118.523 188.489 124.237C190.119 123.708 192.605 123.179 195.519 123.505C197.577 123.749 198.595 123.871 199.614 124.603C200.633 125.335 201.224 126.311 202.263 126.25C202.67 126.229 203.22 126.046 203.444 125.619C203.995 124.623 202.487 122.915 201.978 122.346C201.244 121.512 199.736 120.089 196.965 119.255C194.561 119.743 192.157 120.231 189.753 120.719C189.284 118.645 188.632 115.188 188.571 110.898C188.51 107.238 189.162 102.805 190.486 94.062C190.731 92.4354 191.036 89.1617 191.668 82.594C191.872 80.4387 192.035 78.507 191.301 76.128C190.934 74.9284 190.038 72.2037 187.389 70.4957C186.268 69.723 185.189 69.418 184.455 69.2554Z" fill="#6D6C6C"/>
<path opacity="0.22" d="M188.918 126.677C189.183 127.327 189.753 128.446 190.915 129.32C191.628 129.849 192.871 130.499 193.095 130.235C193.38 129.91 192.3 128.12 190.629 127.226C189.998 126.88 189.366 126.738 188.918 126.677Z" fill="#6D6C6C"/>
<path opacity="0.4" d="M191.2 85.9897C189.346 91.073 187.125 99.2267 187.736 109.292C188.042 114.436 189.04 118.869 190.1 122.386C189.04 118.36 188.735 115.026 188.633 112.748C188.388 106.669 189.488 103.253 190.629 92.0897C190.915 89.5074 191.098 87.3724 191.2 85.9897Z" fill="#6D6C6C"/>
<path opacity="0.22" d="M195.315 121.756C195.274 121.512 197.312 120.577 199.329 121.024C202.039 121.634 203.302 124.481 203.526 125.03C202.569 123.952 201.02 122.549 198.779 122.02C196.884 121.593 195.335 121.959 195.315 121.756Z" fill="#6D6C6C"/>
<path d="M154.482 64.599C153.627 65.392 153.443 67.0593 153.097 70.333C152.71 74.0947 152.547 76.006 153.341 76.9617C154.788 78.7103 157.905 78.812 160.065 77.8563C162.612 76.7177 163.488 74.2573 163.712 73.6473C164.711 70.821 164.385 66.551 161.369 64.599C159.332 63.257 156.173 63.0333 154.482 64.599Z" fill="#5222D0"/>
<path d="M158.885 67.5676C159.191 69.0316 160.821 69.1536 162.206 71.492C163.205 73.1796 163.408 74.908 163.429 76.1483C164.672 76.128 166.974 75.884 169.46 74.603C171.395 73.5863 172.699 72.3053 173.453 71.431C172.944 70.5973 172.19 69.3773 171.294 67.9133C167.422 61.7116 166.852 61.2236 166.078 61.0203C162.94 60.268 158.294 64.843 158.885 67.5676Z" fill="white"/>
<path d="M163.225 76.3517V76.1483C163.204 74.3997 162.797 72.895 162.023 71.5937C161.35 70.455 160.596 69.845 160.006 69.357C159.374 68.8487 158.844 68.4013 158.681 67.6083C158.396 66.307 159.211 64.5177 160.8 62.9723C162.165 61.6507 164.264 60.39 166.118 60.817C167.015 61.0407 167.626 61.6507 171.456 67.7913C171.925 68.564 172.353 69.2553 172.72 69.8653C173.066 70.4347 173.372 70.9227 173.616 71.309L173.698 71.431L173.596 71.553C172.475 72.8543 171.069 73.9727 169.541 74.7657C166.974 76.0873 164.61 76.311 163.429 76.3313L163.225 76.3517ZM165.364 61.1423C164.06 61.1423 162.451 61.915 161.085 63.257C159.618 64.7007 158.824 66.368 159.068 67.527C159.211 68.198 159.639 68.5437 160.25 69.052C160.882 69.5603 161.656 70.1907 162.349 71.3903C163.123 72.712 163.53 74.1963 163.592 75.945C164.794 75.9043 166.974 75.64 169.337 74.42C171.13 73.4847 172.394 72.285 173.168 71.4107C172.944 71.0447 172.658 70.5973 172.353 70.089C171.986 69.479 171.558 68.7877 171.09 68.015C167.198 61.7727 166.668 61.3863 165.996 61.2033C165.812 61.1627 165.609 61.1423 165.364 61.1423Z" fill="#161616"/>
<path d="M165.221 65.1074C164.284 67.0797 163.326 69.0317 162.022 70.8007C162.185 70.7804 162.348 70.76 162.511 70.7397C162.389 70.5973 162.267 70.4347 162.165 70.2924C162.145 70.4144 162.124 70.5364 162.124 70.6584C162.654 70.211 163.062 69.723 163.428 69.1334C163.245 69.0317 163.082 68.93 162.899 68.8284C162.613 69.4384 162.247 69.8044 161.656 70.0687C161.778 70.2314 161.9 70.394 162.022 70.5567C163.082 69.5604 164.04 68.4623 164.895 67.283C165.119 66.9577 164.59 66.6527 164.366 66.978C163.551 68.1167 162.613 69.174 161.595 70.1297C161.33 70.3737 161.676 70.7397 161.961 70.6177C162.634 70.3127 163.123 69.8247 163.428 69.1537C163.591 68.808 163.123 68.503 162.899 68.8487C162.552 69.3774 162.165 69.8247 161.696 70.2517C161.595 70.333 161.574 70.516 161.656 70.6177C161.839 70.9023 161.859 70.943 162.104 71.187C162.247 71.3497 162.471 71.2683 162.593 71.126C163.897 69.3773 164.855 67.405 165.792 65.4327C165.914 65.0667 165.384 64.7617 165.221 65.1074Z" fill="#161616"/>
<path d="M145.476 49.4913C144.539 51.2196 144.763 52.9683 145.211 56.3843C145.741 60.2476 146.434 63.4807 147.269 65.6157C147.392 65.941 147.718 66.124 148.064 66.0833C148.512 66.0427 149.185 65.697 149.572 65.575C150.061 66.4493 150.876 67.6287 152.139 68.7267C154.645 70.882 157.396 71.3903 158.618 71.5326C159.82 71.0853 162.795 69.7637 164.771 66.5917C166.075 64.477 166.34 62.525 166.401 62.0776C166.748 59.1496 165.77 56.8723 165.301 55.937C165.729 55.6727 166.381 55.205 166.829 54.412C167.767 52.765 167.726 50.0403 166.238 49.3083C165.118 48.7593 163.345 49.3693 162.143 50.935C161.756 50.264 161.165 49.3693 160.269 48.4746C160.044 48.251 158.394 46.5836 156.52 45.8313C152.852 44.3876 147.392 45.9736 145.476 49.4913Z" fill="white"/>
<path d="M158.639 71.736H158.599C157.193 71.5733 154.442 70.9837 152.018 68.8893C150.775 67.8117 149.96 66.6527 149.491 65.8393C149.41 65.88 149.308 65.9207 149.206 65.9613C148.839 66.1037 148.432 66.2663 148.106 66.307C147.678 66.368 147.25 66.1037 147.107 65.7173C146.292 63.6433 145.599 60.512 145.029 56.4453C144.581 53.07 144.336 51.2197 145.314 49.4303C147.209 45.9533 152.69 44.1437 156.602 45.6687C158.293 46.36 159.821 47.763 160.412 48.3527C161.084 49.0237 161.675 49.776 162.185 50.6097C163.387 49.1863 165.139 48.5763 166.341 49.166C166.871 49.4303 167.278 49.9387 167.503 50.6503C167.869 51.8297 167.666 53.436 167.034 54.5543C166.708 55.144 166.239 55.632 165.587 56.059C166.26 57.4417 166.932 59.5767 166.626 62.159C166.341 64.1923 165.567 65.7783 164.976 66.7543C163.081 69.8043 160.249 71.2073 158.721 71.7767L158.639 71.736ZM149.674 65.331L149.756 65.4733C150.204 66.2663 150.999 67.466 152.283 68.564C154.605 70.577 157.213 71.1463 158.599 71.309C160.086 70.76 162.776 69.3977 164.609 66.4697C165.2 65.514 165.954 63.989 166.219 62.037C166.525 59.4547 165.791 57.34 165.139 56.0183L165.058 55.8557L165.221 55.754C165.873 55.3473 166.362 54.8797 166.688 54.3103C167.278 53.2733 167.462 51.8093 167.136 50.7317C167.014 50.325 166.749 49.7557 166.199 49.4913C165.119 48.9627 163.428 49.654 162.348 51.057L162.164 51.301L162.022 51.0367C161.492 50.1217 160.881 49.3287 160.188 48.617C159.617 48.0477 158.13 46.665 156.5 46.0143C152.751 44.5503 147.515 46.2787 145.722 49.5727C144.805 51.2603 145.029 52.948 145.477 56.3437C146.027 60.329 146.74 63.501 147.515 65.5343C147.596 65.7783 147.841 65.9003 148.106 65.88C148.371 65.8597 148.758 65.697 149.104 65.5547C149.287 65.4733 149.45 65.4123 149.593 65.3717L149.674 65.331Z" fill="#161616"/>
<path d="M150.857 67.4457C152.263 67.0797 153.078 65.9003 153.791 64.7414C153.995 64.416 153.465 64.111 153.261 64.4364C152.63 65.453 151.916 66.5307 150.694 66.8763C150.307 66.9577 150.47 67.5473 150.857 67.4457Z" fill="#161616"/>
<path d="M152.71 64.7007C153.117 64.721 153.443 64.8837 153.708 65.1887C153.973 65.4937 154.401 65.0463 154.136 64.7617C153.769 64.3347 153.26 64.111 152.71 64.0907C152.302 64.0907 152.302 64.7007 152.71 64.7007Z" fill="#161616"/>
<path d="M151.162 61.3457C151.162 61.3253 151.162 61.305 151.162 61.2846C151.162 61.122 151.019 60.9796 150.856 60.9796C150.693 60.9796 150.551 61.122 150.551 61.2846C150.551 61.305 150.551 61.3253 150.551 61.3457C150.551 61.5083 150.693 61.6507 150.856 61.6507C151.019 61.6303 151.162 61.5083 151.162 61.3457Z" fill="#161616"/>
<path d="M152.527 59.719C152.914 59.719 152.914 59.109 152.527 59.109C152.139 59.109 152.139 59.719 152.527 59.719Z" fill="#161616"/>
<path d="M152.343 61.2643C152.73 61.2643 152.73 60.6543 152.343 60.6543C151.956 60.6543 151.956 61.2643 152.343 61.2643Z" fill="#161616"/>
<path d="M144.601 56.425C143.949 56.2013 142.564 55.6117 141.769 54.2493C140.526 52.1347 141.525 49.6743 142.014 48.5153C142.279 47.8647 143.012 46.2583 146.557 43.1067C149.247 40.687 150.612 39.4873 152.14 38.8163C157.601 36.4373 163.183 38.7147 164.202 39.1417C165.71 39.7517 166.81 40.504 168.99 41.968C171.639 43.7573 173.33 44.9163 174.655 46.909C176.264 49.349 175.286 49.9793 176.672 52.7243C178.872 57.0757 181.908 56.547 183.721 60.573C184.027 61.244 185.718 64.9853 183.803 68.259C182.234 70.9227 179.035 71.8783 176.672 71.8173C172.291 71.6953 169.54 67.954 168.094 66.002C165.343 62.281 164.813 58.3363 164.691 56.2217C166.423 55.3473 167.095 53.4767 166.464 52.1753C165.975 51.1383 164.549 50.264 163.306 50.7927C162.45 51.1587 161.9 52.1347 161.92 53.2123C161.105 53.3547 158.599 53.6597 156.011 52.2363C154.096 51.1993 153.057 49.7353 152.609 49.0033C151.468 49.4507 149.634 50.3047 147.821 51.9923C146.089 53.619 145.111 55.327 144.601 56.425Z" fill="#5222D0"/>
<path opacity="0.24" d="M157.886 57.6043C160.148 59.719 161.248 62.0573 161.594 62.8503C163.02 66.1036 162.939 69.0926 162.796 70.6176C163.53 69.3773 164.243 68.137 164.976 66.8763C166.158 69.5196 167.319 72.163 168.501 74.786C169.133 74.6436 170.376 74.2776 171.578 73.2203C172.495 72.407 172.984 71.5326 173.228 70.9836C171.517 69.7636 168.155 66.9983 166.199 62.2403C165.262 59.963 164.895 57.8483 164.773 56.2623C166.423 55.3676 167.116 53.5783 166.566 52.2363C166.178 51.2603 164.976 50.1623 163.652 50.5283C162.531 50.8333 161.757 52.033 161.94 53.375C161.085 53.4766 159.047 53.619 156.786 52.6226C154.443 51.5856 153.159 49.898 152.67 49.1863C153.22 52.7853 154.606 54.7373 155.767 55.8556C156.5 56.608 156.806 56.608 157.886 57.6043Z" fill="#6D6C6C"/>
<path opacity="0.24" d="M164.814 58.5803C164.671 58.5803 164.753 60.6746 164.549 62.6063C164.284 65.087 163.551 67.0593 162.939 68.381C163.49 68.0353 164.305 67.3846 165.018 66.368C166.036 64.8836 166.22 63.4196 166.281 62.708C166.098 62.4233 165.853 62.0166 165.629 61.5083C164.916 59.8816 164.936 58.5803 164.814 58.5803Z" fill="#6D6C6C"/>
<path opacity="0.19" d="M165.527 65.636C166.016 66.1443 166.709 66.8153 167.606 67.5473C170.315 69.8043 172.944 71.0853 173.025 70.943C173.107 70.8007 170.54 69.7637 168.584 66.9577C167.361 65.209 166.648 63.135 166.342 63.2367C166.2 63.2773 166.322 63.7653 166.077 64.5583C165.914 65.026 165.69 65.392 165.527 65.636Z" fill="#6D6C6C"/>
<path opacity="0.74" d="M167.789 41.2157C170.193 45.3637 171.905 48.983 173.066 51.667C176.306 59.2107 176.041 61.2847 175.593 62.6267C174.594 65.6563 171.823 67.3643 170.173 68.1777C170.58 68.747 172.271 71.004 175.368 71.6343C175.959 71.7563 179.525 72.4273 182.235 69.967C184.252 68.1573 184.558 65.758 184.619 65.1277C184.985 61.7117 182.948 59.1497 182.296 58.4177C181.44 57.462 181.257 57.6857 179.26 55.754C177.712 54.2697 176.958 53.5173 176.509 52.582C175.796 51.057 176.265 50.4063 175.43 48.4747C174.981 47.4173 174.452 46.7057 174.064 46.1567C172.088 43.493 169.236 41.9273 167.789 41.2157Z" fill="#2C167C"/>
<path opacity="0.52" d="M153.302 71.4107C153.485 73.7693 155.645 75.4773 157.906 75.152C160.086 74.8267 161.655 72.712 161.268 70.455C161.676 70.9227 162.246 71.6953 162.654 72.7527C162.98 73.5863 163.102 74.3387 163.143 74.8877C162.837 75.396 161.248 77.9173 158.273 78.4053C157.764 78.4867 154.87 78.9137 153.505 77.1853C152.853 76.3313 152.792 75.2943 152.751 74.4607C152.711 73.0983 153.057 72.0207 153.302 71.4107Z" fill="#2C167C"/>
<path d="M149.471 57.9906C149.674 58.3973 149.674 58.987 149.41 59.109C149.145 59.2513 148.635 58.865 148.452 58.4176C148.309 58.0313 148.35 57.4823 148.615 57.3806C148.9 57.279 149.308 57.645 149.471 57.9906Z" fill="#161616"/>
<path d="M147.8 57.523C148.513 57.279 149.247 57.096 150.001 56.974C150.286 56.9333 150.164 56.486 149.879 56.5267C149.125 56.6487 148.391 56.8317 147.678 57.0757C147.393 57.1773 147.515 57.6043 147.8 57.523Z" fill="#161616"/>
</svg>
