<svg width="326" height="244" viewBox="0 0 326 244" fill="none" xmlns="http://www.w3.org/2000/svg">
<path d="M190.079 26.3927C185.087 29.341 183.66 34.4243 183.07 36.5187C182.927 37.027 181.256 43.2693 184.149 49.776C185.005 51.7077 185.922 53.7003 188 54.656C189.202 55.2253 190.282 55.1847 194.52 54.8187C196.497 54.656 198.636 54.4527 200.918 54.2087C202.528 52.155 205.299 48.0477 206.114 42.273C206.256 41.1953 207.927 28.3447 200.918 24.9287C196.334 22.6717 190.812 25.9453 190.079 26.3927Z" fill="#EC615B"/>
<path d="M97.9016 56.7097C100.445 56.7097 102.506 54.4338 102.506 51.6263C102.506 48.8189 100.445 46.543 97.9016 46.543C95.3585 46.543 93.2969 48.8189 93.2969 51.6263C93.2969 54.4338 95.3585 56.7097 97.9016 56.7097Z" fill="#EC615B"/>
<path d="M202.323 138.165C204.214 138.165 205.746 136.69 205.746 134.871C205.746 133.052 204.214 131.577 202.323 131.577C200.433 131.577 198.9 133.052 198.9 134.871C198.9 136.69 200.433 138.165 202.323 138.165Z" fill="#EC615B"/>
<path d="M97.9434 118.279C99.35 118.279 100.49 117.141 100.49 115.737C100.49 114.334 99.35 113.196 97.9434 113.196C96.5368 113.196 95.3965 114.334 95.3965 115.737C95.3965 117.141 96.5368 118.279 97.9434 118.279Z" fill="#EC615B"/>
<path d="M93.1952 55.022C95.4346 55.022 97.2499 53.1194 97.2499 50.7723C97.2499 48.4253 95.4346 46.5227 93.1952 46.5227C90.9559 46.5227 89.1406 48.4253 89.1406 50.7723C89.1406 53.1194 90.9559 55.022 93.1952 55.022Z" fill="#5222D0"/>
<path d="M201.387 132.96C202.771 132.96 203.893 131.794 203.893 130.357C203.893 128.92 202.771 127.754 201.387 127.754C200.003 127.754 198.881 128.92 198.881 130.357C198.881 131.794 200.003 132.96 201.387 132.96Z" fill="#5222D0"/>
<path d="M234.883 61.183C236.403 61.183 237.634 59.8721 237.634 58.255C237.634 56.6379 236.403 55.327 234.883 55.327C233.364 55.327 232.133 56.6379 232.133 58.255C232.133 59.8721 233.364 61.183 234.883 61.183Z" fill="#5222D0"/>
<path d="M175.144 79.2797C174.695 78.568 173.962 79.239 173.656 79.727C173.025 80.7437 172.617 82.0043 173.086 83.1634C173.432 84.0377 174.288 84.7697 175.286 84.6274C176.203 84.5054 176.896 83.753 176.875 82.838C176.875 82.594 176.529 82.411 176.346 82.6143C175.266 83.9767 173.941 85.9084 175.021 87.657C175.775 88.8567 177.629 89.0194 178.363 87.718C178.179 87.6977 177.996 87.6774 177.813 87.6367C177.915 88.206 178.016 88.7754 178.098 89.3447C178.159 89.731 178.75 89.5684 178.689 89.182C178.587 88.6127 178.485 88.0434 178.404 87.474C178.363 87.2097 177.955 87.1894 177.853 87.3927C177.527 87.962 176.794 88.1654 176.203 87.8807C175.551 87.5554 175.266 86.8234 175.266 86.1117C175.266 84.9324 176.101 83.8954 176.794 83.021C176.611 82.9397 176.448 82.8787 176.264 82.7974C176.285 83.57 175.531 84.1394 174.777 83.9767C174.206 83.8547 173.84 83.3667 173.636 82.838C173.432 82.289 173.452 81.74 173.615 81.191C173.636 81.1503 174.471 79.3407 174.593 79.544C174.818 79.91 175.347 79.605 175.144 79.2797Z" fill="#EC615B"/>
<path d="M91.952 81.1097C92.4003 79.8897 93.8876 80.4184 94.3563 81.2724C94.5193 81.557 94.6008 81.8823 94.6415 82.2077C94.723 82.8177 94.6619 83.0617 94.1321 83.4277C93.5616 83.997 93.419 83.7733 93.7246 82.7567C93.8673 82.6957 94.0303 82.6347 94.1729 82.5737C94.56 82.472 95.0083 82.4923 95.3954 82.6143C96.3734 82.9397 96.8624 83.9767 96.7198 84.9323C96.679 85.1763 96.9235 85.4203 97.168 85.278C98.4924 84.5257 100.245 85.3593 100.55 86.8437C100.632 87.23 101.223 87.0673 101.141 86.681C100.754 84.8103 98.5331 83.8343 96.8624 84.7697C97.005 84.8917 97.168 84.9933 97.3106 85.1153C97.5755 83.326 96.2104 81.6587 94.3155 81.9433C93.6635 82.045 92.6855 82.4517 92.604 83.2243C92.5429 83.8547 93.1338 84.3223 93.7246 84.3833C95.4769 84.546 95.4361 82.0043 94.8656 80.9877C94.0914 79.605 91.952 79.2594 91.3408 80.9674C91.2185 81.313 91.8094 81.4757 91.952 81.1097Z" fill="#EC615B"/>
<path d="M219.227 157.644C220.796 158.681 222.12 160.003 223.179 161.548C223.404 161.874 223.933 161.569 223.709 161.243C222.589 159.617 221.203 158.234 219.553 157.136C219.206 156.892 218.901 157.421 219.227 157.644Z" fill="#5222D0"/>
<path d="M223.2 158.763C223.526 159.149 223.832 159.556 224.158 159.942C224.402 160.247 224.83 159.82 224.585 159.515C224.259 159.129 223.954 158.722 223.628 158.336C223.383 158.031 222.955 158.478 223.2 158.763Z" fill="#5222D0"/>
<path d="M221.325 153.069C222.73 154.371 223.892 155.855 224.788 157.543C224.972 157.888 225.501 157.583 225.318 157.238C224.401 155.509 223.199 153.964 221.752 152.642C221.467 152.358 221.039 152.805 221.325 153.069Z" fill="#5222D0"/>
<path d="M60.4532 175.965C60.9014 180.377 61.6757 184.728 62.7556 189.039C62.8574 189.425 63.4483 189.263 63.3464 188.876C62.2869 184.627 61.5127 180.316 61.0644 175.965C61.0237 175.578 60.4124 175.578 60.4532 175.965Z" fill="#E8E8E8"/>
<path d="M62.8767 189.242C66.8906 190.279 71.0675 190.279 75.0813 189.242C75.4685 189.141 75.3055 188.551 74.9183 188.653C71.0063 189.669 66.9517 189.669 63.0397 188.653C62.673 188.551 62.51 189.141 62.8767 189.242Z" fill="#E8E8E8"/>
<path d="M75.5513 188.632C75.8161 184.301 76.1625 179.97 76.57 175.639C76.6108 175.253 75.9995 175.253 75.9588 175.639C75.5513 179.97 75.2049 184.301 74.94 188.632C74.9196 189.019 75.5309 189.019 75.5513 188.632Z" fill="#E8E8E8"/>
<path d="M60.7995 176.29C65.8729 177.327 71.0889 177.286 76.1623 176.148C76.5494 176.066 76.3864 175.477 75.9993 175.558C71.0482 176.656 65.934 176.717 60.9625 175.7C60.5754 175.619 60.4124 176.209 60.7995 176.29Z" fill="#E8E8E8"/>
<path d="M60.7371 177.754C60.9001 178.588 61.9596 178.547 62.6116 178.608C64.2619 178.75 65.9327 178.791 67.5831 178.75C69.1723 178.71 70.7616 178.588 72.3508 178.405C73.6141 178.242 74.8365 178.079 75.9572 177.449C76.3035 177.266 75.9979 176.737 75.6515 176.92C73.6344 178.039 70.8431 177.998 68.5814 178.1C67.4608 178.14 66.3198 178.161 65.1992 178.14C64.6083 178.12 61.4502 178.262 61.3279 177.591C61.2464 177.205 60.6759 177.368 60.7371 177.754Z" fill="#E8E8E8"/>
<path d="M61.8994 184.81C62.8774 186.538 64.1203 188.063 65.6077 189.385C65.8929 189.649 66.3412 189.222 66.0355 188.958C64.5685 187.677 63.3664 186.192 62.4292 184.505C62.2458 184.159 61.716 184.464 61.8994 184.81Z" fill="#E8E8E8"/>
<path d="M61.1045 180.113C63.1827 183.61 65.7092 186.823 68.6025 189.71C68.8877 189.995 69.3156 189.547 69.0304 189.283C66.1779 186.436 63.6921 183.264 61.6342 179.808C61.4305 179.482 60.9007 179.787 61.1045 180.113Z" fill="#E8E8E8"/>
<path d="M64.5068 178.649C66.6666 182.492 69.1727 186.131 72.0048 189.527C72.2493 189.832 72.6772 189.405 72.4327 189.1C69.6413 185.745 67.1556 182.146 65.0366 178.344C64.8532 177.998 64.3235 178.303 64.5068 178.649Z" fill="#E8E8E8"/>
<path d="M68.398 178.791C70.4966 181.922 72.6156 185.033 74.755 188.144C74.9791 188.47 75.5088 188.165 75.2847 187.839C73.1453 184.728 71.0263 181.617 68.9277 178.486C68.7036 178.161 68.1738 178.466 68.398 178.791Z" fill="#E8E8E8"/>
<path d="M71.6592 178.608C72.7187 180.316 73.8597 181.983 75.0414 183.61C75.2655 183.915 75.7953 183.61 75.5712 183.305C74.3894 181.678 73.2484 180.011 72.1889 178.303C71.9852 177.978 71.4554 178.283 71.6592 178.608Z" fill="#E8E8E8"/>
<path d="M54.0351 158.071C54.2796 159.474 54.5241 160.898 54.789 162.301C54.8705 162.687 54.9316 163.094 55.2576 163.338C55.4817 163.521 56.2152 163.5 56.3579 163.704C56.3782 163.582 56.3986 163.46 56.3986 163.338C56.093 163.643 55.7874 163.948 55.4614 164.232C55.3799 164.314 55.3595 164.436 55.3799 164.537C55.5632 165.086 55.6855 165.9 56.0522 166.367C56.2356 166.611 56.5616 166.571 56.7042 166.713C56.8265 166.835 56.7857 166.754 56.7246 167.12C56.6839 167.425 56.6839 167.75 56.7246 168.075C56.7857 168.563 56.9284 169.031 57.1117 169.478C58.1712 172.04 60.2291 174.114 62.2055 176.026C62.4907 176.29 62.9186 175.863 62.6334 175.599C61.3701 174.379 60.1069 173.118 59.0677 171.695C58.049 170.292 56.8469 168.401 57.4785 166.611C57.5192 166.51 57.4785 166.367 57.397 166.306C57.0099 166.001 56.6227 166.123 56.3579 165.635C55.8485 164.72 56.1337 164.415 56.7857 163.785C56.8876 163.704 56.908 163.521 56.8265 163.419C56.6635 163.175 56.5412 163.094 56.2764 163.012C56.1134 162.951 55.8689 163.012 55.7059 162.931C55.3595 162.748 55.3595 162.301 55.2984 161.975C55.0539 160.633 54.8094 159.271 54.5852 157.929C54.5445 157.522 53.9536 157.685 54.0351 158.071Z" fill="#E8E8E8"/>
<path d="M54.4822 157.99C62.4284 160.633 67.8686 168.035 68.0316 176.412C68.0316 176.798 68.6428 176.798 68.6428 176.412C68.4798 167.77 62.8563 160.145 54.6452 157.4C54.2784 157.278 54.1154 157.868 54.4822 157.99Z" fill="#E8E8E8"/>
<path d="M66.6876 168.075C68.6639 162.606 71.5776 157.319 76.2434 153.72C76.5491 153.476 76.2434 152.947 75.9378 153.191C71.1293 156.912 68.1342 162.28 66.0967 167.913C65.9744 168.279 66.5653 168.441 66.6876 168.075Z" fill="#E8E8E8"/>
<path d="M75.7135 153.598C75.8561 155.469 76.0191 157.339 76.1618 159.23C76.2025 159.617 76.8137 159.617 76.773 159.23C76.6304 157.36 76.4674 155.489 76.3248 153.598C76.3044 153.212 75.6931 153.212 75.7135 153.598Z" fill="#E8E8E8"/>
<path d="M76.4273 159.027C76.1624 159.088 75.8976 159.149 75.6531 159.23C75.2659 159.332 75.4289 159.922 75.8161 159.82C76.0809 159.759 76.3458 159.698 76.5903 159.617C76.9774 159.515 76.8144 158.946 76.4273 159.027Z" fill="#E8E8E8"/>
<path d="M75.3464 159.779C75.4279 160.166 75.7539 160.41 76.1206 160.45C76.2836 160.471 76.4263 160.308 76.4263 160.145C76.4263 159.962 76.2836 159.861 76.1206 159.84C76.1818 159.84 76.1206 159.84 76.1003 159.84C76.0799 159.84 76.0391 159.82 76.0799 159.84C76.0595 159.82 76.0391 159.82 76.0188 159.8C75.978 159.779 76.0595 159.84 75.9984 159.779C75.978 159.759 75.978 159.759 75.9576 159.739C75.9984 159.779 75.9576 159.739 75.9576 159.718C75.9373 159.698 75.9373 159.657 75.9373 159.698C75.9373 159.678 75.9169 159.637 75.9169 159.617C75.8761 159.454 75.6928 159.352 75.5501 159.413C75.3871 159.454 75.3056 159.617 75.3464 159.779Z" fill="#E8E8E8"/>
<path d="M75.8156 160.227C75.836 161.386 75.7952 162.524 75.673 163.663C75.6322 164.029 75.6933 164.883 75.4488 165.168C75.4285 165.188 75.0617 165.249 74.9802 165.31C74.6746 165.554 75.1025 165.981 75.4081 165.737C75.51 165.656 75.7545 165.737 75.9175 165.554C76.162 165.31 76.1212 164.741 76.1619 164.456C76.3453 163.053 76.4268 161.63 76.4065 160.206C76.4268 159.84 75.8156 159.84 75.8156 160.227Z" fill="#E8E8E8"/>
<path d="M74.7356 165.839C75.3876 166.611 75.2042 167.892 75.1431 168.828C75.0616 169.905 74.8782 170.902 74.3485 171.837C73.5946 173.22 72.5351 174.379 71.985 175.883C71.8424 176.249 72.4332 176.412 72.5759 176.046C73.3094 174.074 75.0005 172.61 75.5099 170.536C75.8766 169.051 76.223 166.672 75.1635 165.412C74.919 165.127 74.4911 165.554 74.7356 165.839Z" fill="#E8E8E8"/>
<path d="M69.9277 176.168C70.4982 170.393 72.0263 164.761 74.4713 159.515C74.6343 159.169 74.1046 158.844 73.9416 159.21C71.4558 164.578 69.887 170.292 69.3165 176.188C69.2757 176.575 69.887 176.554 69.9277 176.168Z" fill="#E8E8E8"/>
<path d="M57.9051 161.386C61.4707 165.859 64.0787 171.003 65.6068 176.493C65.7087 176.88 66.2996 176.717 66.1977 176.331C64.6288 170.719 61.9597 165.513 58.333 160.959C58.0885 160.654 57.6606 161.081 57.9051 161.386Z" fill="#E8E8E8"/>
<path d="M58.292 168.889C60.0035 168.787 61.5928 169.194 63.0394 170.088C63.3654 170.292 63.6914 169.763 63.345 169.56C61.8169 168.624 60.085 168.177 58.292 168.279C57.8845 168.299 57.8845 168.909 58.292 168.889Z" fill="#E8E8E8"/>
<path d="M62.0223 166.164C61.9 165.046 62.0427 163.968 62.4705 162.911C62.6132 162.545 62.0223 162.382 61.8797 162.748C61.4314 163.846 61.2888 164.985 61.411 166.164C61.4518 166.55 62.063 166.55 62.0223 166.164Z" fill="#E8E8E8"/>
<path d="M68.6237 162.789C69.296 164.436 70.274 166.184 70.5185 167.933C70.5797 168.319 71.1705 168.157 71.1094 167.77C70.8445 166.001 69.8665 164.253 69.2145 162.626C69.0719 162.26 68.481 162.423 68.6237 162.789Z" fill="#E8E8E8"/>
<path d="M72.3726 164.72C72.9635 164.049 73.534 163.256 74.2879 162.748C74.9195 162.321 75.6122 162.036 76.1012 161.447C76.3457 161.142 75.9178 160.715 75.6733 161.02C75.1436 161.65 74.3693 161.914 73.7377 162.402C73.045 162.931 72.5152 163.643 71.9447 164.293C71.6799 164.598 72.1077 165.025 72.3726 164.72Z" fill="#E8E8E8"/>
<path d="M72.5748 175.965C73.5528 175.7 74.5512 175.599 75.57 175.66C75.9571 175.68 75.9571 175.07 75.57 175.05C74.4901 174.989 73.451 175.09 72.4118 175.375C72.0451 175.477 72.1877 176.066 72.5748 175.965Z" fill="#E8E8E8"/>
<path d="M72.4935 176.209C73.6345 176.31 74.7348 176.168 75.835 175.822C76.2018 175.7 76.0388 175.111 75.672 175.233C74.6329 175.558 73.5734 175.68 72.4935 175.599C72.1064 175.578 72.1064 176.188 72.4935 176.209Z" fill="#E8E8E8"/>
<path d="M61.0639 176.107C61.3288 176.107 61.5733 176.107 61.8382 176.107C62.2253 176.107 62.2253 175.497 61.8382 175.497C61.5733 175.497 61.3288 175.497 61.0639 175.497C60.6768 175.497 60.6768 176.107 61.0639 176.107Z" fill="#E8E8E8"/>
<path d="M75.9994 181.028C82.4583 181.028 88.9375 181.028 95.3964 181.028C95.7835 181.028 95.7835 180.418 95.3964 180.418C88.9375 180.418 82.4583 180.418 75.9994 180.418C75.6123 180.418 75.6123 181.028 75.9994 181.028Z" fill="#E8E8E8"/>
<path d="M185.331 177.002C189.182 177.002 193.013 177.002 196.864 177.002C197.251 177.002 197.251 176.392 196.864 176.392C193.013 176.392 189.182 176.392 185.331 176.392C184.944 176.392 184.944 177.002 185.331 177.002Z" fill="#E8E8E8"/>
<path d="M220.294 177.368C236.9 177.368 253.506 177.368 270.111 177.368C274.838 177.368 279.565 177.368 284.292 177.368C284.679 177.368 284.679 176.758 284.292 176.758C267.687 176.758 251.081 176.758 234.475 176.758C229.748 176.758 225.021 176.758 220.294 176.758C219.907 176.758 219.907 177.368 220.294 177.368Z" fill="#E8E8E8"/>
<path d="M195.703 110.613C194.154 113.806 192.483 116.937 190.711 120.007C190.629 120.17 190.69 120.434 190.894 120.455C199.635 121.776 207.459 126.107 214.998 130.479C215.344 130.682 215.65 130.154 215.303 129.95C207.704 125.558 199.839 121.207 191.037 119.865C191.098 120.007 191.159 120.17 191.22 120.312C193.013 117.242 194.664 114.111 196.212 110.918C196.395 110.573 195.886 110.247 195.703 110.613Z" fill="#E8E8E8"/>
<path d="M197.047 121.695C197.658 119.946 198.269 118.177 198.881 116.429C199.146 115.697 199.329 114.883 199.675 114.172C199.757 113.745 200.022 113.419 200.429 113.175C200.674 113.236 200.918 113.297 201.163 113.358C201.529 113.46 201.896 113.541 202.243 113.643C203.078 113.846 204.423 113.846 204.28 114.965C204.178 115.758 203.71 116.612 203.445 117.384C202.833 119.113 202.243 120.841 201.631 122.569C201.509 122.935 202.1 123.098 202.222 122.732C203.017 120.455 203.811 118.157 204.606 115.88C204.789 115.351 205.299 114.456 204.891 113.887C204.443 113.277 203.098 113.236 202.406 113.053C201.733 112.891 200.551 112.281 199.859 112.606C199.268 112.87 199.146 113.887 198.962 114.395C198.127 116.774 197.291 119.174 196.456 121.553C196.334 121.898 196.925 122.061 197.047 121.695Z" fill="#E8E8E8"/>
<path d="M204.912 123.871C206.216 121.126 207.541 118.36 208.845 115.615C209.497 114.233 210.149 112.87 210.821 111.488C211.127 110.857 211.371 110.105 211.758 109.515C212.084 109.007 212.166 108.885 212.736 109.109C213.042 109.231 213.409 109.536 213.673 109.719C214.02 109.963 214.57 110.227 214.814 110.552C215.12 110.939 214.998 111.345 214.814 111.833C214.57 112.484 214.203 113.114 213.898 113.745C213.225 115.127 212.553 116.51 211.84 117.893C210.495 120.516 209.089 123.118 207.642 125.701C207.439 126.046 207.968 126.351 208.172 126.006C209.945 122.874 211.636 119.702 213.225 116.49C214.02 114.904 214.896 113.277 215.568 111.63C216.037 110.43 215.018 109.942 214.122 109.312C213.409 108.824 212.288 107.706 211.514 108.621C211.025 109.19 210.76 110.146 210.434 110.837C210.026 111.671 209.639 112.504 209.232 113.358C207.602 116.774 205.972 120.19 204.362 123.606C204.219 123.911 204.749 124.237 204.912 123.871Z" fill="#E8E8E8"/>
<path d="M211.675 128.1C213.427 125.355 215.404 122.752 217.584 120.353C217.462 120.373 217.339 120.394 217.217 120.394C217.991 120.922 218.745 121.431 219.519 121.959C219.479 121.817 219.438 121.675 219.418 121.532C217.686 124.237 215.954 126.921 214.222 129.625C214.018 129.95 214.528 130.255 214.752 129.93C216.484 127.226 218.215 124.542 219.947 121.837C220.049 121.695 219.968 121.512 219.845 121.41C219.071 120.882 218.317 120.373 217.543 119.845C217.441 119.763 217.258 119.804 217.176 119.885C214.955 122.346 212.938 124.969 211.166 127.754C210.942 128.141 211.471 128.446 211.675 128.1Z" fill="#E8E8E8"/>
<path d="M235.983 108.763C233.946 107.99 232.662 105.957 233.029 103.781C233.396 101.565 235.576 99.5926 237.817 100.914C239.365 101.829 240.16 103.903 239.569 105.591C238.958 107.401 236.961 108.478 235.107 108.194C234.72 108.133 234.557 108.722 234.944 108.783C237.124 109.109 239.427 107.909 240.16 105.754C240.894 103.598 239.712 100.996 237.593 100.121C235.107 99.1046 232.846 101.24 232.418 103.619C231.969 106.14 233.457 108.458 235.8 109.353C236.187 109.495 236.35 108.905 235.983 108.763Z" fill="#E8E8E8"/>
<path d="M240.159 108.377C236.105 108.255 237.633 101.768 241.219 102.012C244.805 102.277 243.338 109.576 239.406 108.234C239.039 108.112 238.876 108.702 239.243 108.824C243.786 110.369 245.824 102.114 241.484 101.423C239.365 101.077 237.45 103.07 237.124 105.042C236.798 106.994 238.122 108.905 240.159 108.966C240.547 109.007 240.547 108.397 240.159 108.377Z" fill="#E8E8E8"/>
<path d="M237.125 89.975C236.779 89.609 236.616 89.0193 236.881 88.572C237.145 88.145 237.797 87.9417 238.205 88.267C238.572 88.5517 238.653 89.1617 238.307 89.4667C237.899 89.8327 237.247 89.6497 236.86 89.3447C236.555 89.1007 236.127 89.5277 236.432 89.7717C237.064 90.2597 238.042 90.5037 238.714 89.914C239.326 89.365 239.264 88.3483 238.653 87.8197C238.022 87.2707 237.023 87.4333 236.493 88.0433C235.903 88.7347 236.066 89.7717 236.677 90.402C236.962 90.6867 237.39 90.2597 237.125 89.975Z" fill="#E8E8E8"/>
<path d="M177.996 105.286C177.425 101.829 179.442 97.661 183.354 97.7017C185.351 97.722 187.287 98.5353 189.304 98.2507C190.73 98.0473 191.953 97.234 192.808 96.1157C193.664 94.9973 194.153 93.5943 194.235 92.1913C194.336 90.1173 193.542 88.0027 194.112 85.949C194.398 84.912 195.009 83.9563 196.048 83.57C197.046 83.2243 198.126 83.4277 199.165 83.387C200.673 83.326 201.855 82.6753 202.609 81.3537C203.668 79.5033 203.424 77.287 204.157 75.335C205.033 72.9763 207.499 70.9633 210.107 72.1223C210.453 72.285 210.779 71.7563 210.412 71.5937C206.867 70.0077 203.913 73.2 203.22 76.4127C202.772 78.507 202.853 81.7603 200.347 82.594C198.595 83.1837 196.618 82.2687 195.009 83.4683C193.684 84.4443 193.297 86.2337 193.318 87.7993C193.379 90.097 194.092 92.3337 193.073 94.5297C192.136 96.6037 190.282 97.844 187.979 97.7017C185.942 97.5797 183.925 96.746 181.867 97.2747C178.383 98.149 176.895 102.256 177.446 105.469C177.486 105.815 178.077 105.652 177.996 105.286Z" fill="#E8E8E8"/>
<path d="M203.75 90.7883C202.996 89.0803 204.035 87.4536 205.686 86.9046C206.888 86.498 208.212 86.4776 209.251 85.6643C210.066 85.034 210.331 84.241 210.229 83.2243C210.127 82.2686 210.127 81.5163 210.881 80.8657C211.513 80.3167 212.348 80.1133 213.163 80.0726C215.405 79.9913 218.481 81.13 220.111 78.9543C220.865 77.9376 220.641 76.677 220.987 75.5383C221.456 73.9523 222.984 72.9763 224.614 73.0577C225.001 73.078 225.001 72.468 224.614 72.4477C223.371 72.3867 222.169 72.8543 221.313 73.749C220.254 74.8673 220.396 76.128 220.07 77.531C219.194 81.374 213.836 78.6696 211.309 79.8693C210.372 80.3166 209.618 81.1096 209.537 82.167C209.435 83.4073 210.005 84.424 208.742 85.278C208.07 85.7253 207.295 85.8676 206.521 86.0506C205.237 86.3556 203.974 86.742 203.322 87.9823C202.792 88.9583 202.792 90.0766 203.241 91.073C203.383 91.4593 203.893 91.134 203.75 90.7883Z" fill="#E8E8E8"/>
<path d="M240.057 63.7043C239.976 63.5213 239.894 63.318 239.833 63.1146C240.098 62.8096 240.343 62.5046 240.607 62.1996C240.689 62.1793 241.056 62.4233 241.178 62.4233C241.484 62.464 241.748 62.3826 241.993 62.1996C242.747 61.61 242.482 60.6746 242.706 59.8816C243.073 58.5193 244.682 59.4546 245.416 58.438C246.149 57.4416 245.885 55.327 247.841 55.8963C248.228 55.998 248.391 55.4083 248.004 55.3066C246.883 54.9813 245.864 55.51 245.457 56.5876C245.334 56.8926 245.294 57.2383 245.172 57.5433C244.907 58.255 244.621 58.3566 243.847 58.3973C243.277 58.438 242.828 58.3973 242.441 58.8853C242.115 59.3123 242.115 59.8613 242.054 60.3696C241.993 61.122 242.054 61.7523 240.933 61.671C240.709 61.6506 240.526 61.4473 240.281 61.4473C238.937 61.427 239.161 63.074 239.487 63.867C239.609 64.233 240.22 64.0703 240.057 63.7043Z" fill="#E8E8E8"/>
<path d="M243.889 65.392C243.563 64.965 243.013 63.7247 243.97 63.3993C244.317 63.2773 244.765 63.4197 245.132 63.4197C245.458 63.4197 245.743 63.4197 246.008 63.196C246.823 62.5453 246.232 61.3863 246.66 60.573C247.353 59.2513 248.738 60.2883 249.716 59.597C250.409 59.109 250.592 58.1737 250.714 57.401C250.776 57.0147 250.185 56.852 250.124 57.2383C249.981 58.1533 249.818 59.17 248.677 59.2717C248.086 59.3327 247.638 59.1293 247.088 59.3937C246.191 59.8207 245.906 60.6137 245.886 61.5287C245.865 62.3013 246.049 62.6877 244.745 62.7487C244.582 62.7487 244.419 62.708 244.256 62.708C243.787 62.7487 243.379 62.9927 243.115 63.379C242.544 64.1923 242.87 65.1277 243.441 65.8393C243.705 66.1443 244.133 65.697 243.889 65.392Z" fill="#E8E8E8"/>
<path d="M70.6604 76.4127C72.3515 74.3793 74.7557 72.712 77.5267 72.9967C80.5422 73.3017 82.0296 75.701 82.3149 78.507C82.8039 83.1633 81.6629 88.7347 84.821 92.6997C86.0639 94.2653 87.918 95.099 89.9148 94.611C92.319 94.0417 94.1935 92.1507 96.3329 91.0323C98.8594 89.7107 102.344 88.999 104.626 91.2153C106.296 92.842 106.663 95.3227 107.213 97.478C107.723 99.43 108.599 101.585 110.351 102.744C111.41 103.436 112.572 103.497 113.794 103.415C115.159 103.314 117.951 103.232 117.666 105.367C117.625 105.754 118.236 105.754 118.277 105.367C118.379 104.534 117.992 103.863 117.319 103.375C116.26 102.602 115.037 102.724 113.794 102.805C112.388 102.907 111.186 102.785 110.106 101.789C109.128 100.894 108.537 99.6333 108.11 98.393C107.396 96.258 107.193 93.9197 105.97 91.9677C104.768 90.036 102.69 89.1007 100.449 89.182C97.6165 89.2837 95.2326 90.9103 92.971 92.415C91.8911 93.1267 90.7297 93.879 89.4054 94.1027C87.8161 94.367 86.4103 93.6757 85.3915 92.4963C83.4763 90.2597 83.1706 87.0673 83.0688 84.2613C82.9669 81.6383 83.3133 78.7917 82.4371 76.25C81.6425 73.932 79.6254 72.4883 77.2007 72.3663C74.389 72.224 71.9236 73.9117 70.1917 75.9857C69.9676 76.2907 70.3955 76.7177 70.6604 76.4127Z" fill="#E8E8E8"/>
<path d="M60.3721 107.787C63.5506 113.074 66.3827 118.543 68.8888 124.176C69.0518 124.542 69.5816 124.216 69.4186 123.871C66.9124 118.238 64.0599 112.769 60.9018 107.482C60.6981 107.136 60.1683 107.441 60.3721 107.787Z" fill="#E8E8E8"/>
<path d="M60.7588 107.543C65.71 104.473 70.8037 101.606 76.0401 99.003C76.3865 98.82 76.0808 98.2913 75.7345 98.4743C70.5185 101.077 65.4247 103.944 60.4532 107.014C60.1068 107.238 60.4125 107.767 60.7588 107.543Z" fill="#E8E8E8"/>
<path d="M75.6724 98.7387C78.26 104.168 80.9903 109.515 83.8835 114.782C84.0669 115.127 84.5966 114.822 84.4133 114.477C81.52 109.21 78.7694 103.863 76.2021 98.4337C76.0188 98.0677 75.5094 98.3727 75.6724 98.7387Z" fill="#E8E8E8"/>
<path d="M69.5798 124.298C74.4494 121.37 79.2579 118.36 84.0257 115.27C84.3517 115.066 84.0461 114.538 83.7201 114.741C78.9523 117.832 74.1438 120.841 69.2742 123.769C68.9482 123.972 69.2538 124.501 69.5798 124.298Z" fill="#E8E8E8"/>
<path d="M69.1926 105.754C69.0703 109.658 69.2945 113.541 69.8649 117.405C69.9261 117.791 70.5169 117.628 70.4558 117.242C69.8853 113.44 69.6816 109.597 69.8038 105.754C69.8242 105.367 69.213 105.367 69.1926 105.754Z" fill="#E8E8E8"/>
<path d="M69.2146 105.55C72.0467 107.767 74.8788 109.942 77.7517 112.098C78.0573 112.342 78.363 111.813 78.0573 111.569C75.2252 109.454 72.4134 107.299 69.6424 105.123C69.3368 104.879 68.909 105.306 69.2146 105.55Z" fill="#E8E8E8"/>
<path d="M70.4972 117.527C72.8403 115.432 75.8966 114.314 78.1175 112.057C78.4027 111.772 77.9545 111.345 77.6896 111.63C75.4687 113.867 72.4328 115.005 70.0693 117.1C69.7637 117.344 70.212 117.771 70.4972 117.527Z" fill="#E8E8E8"/>
<path d="M61.1866 110.979C61.8386 110.654 62.4906 110.349 63.1426 110.024C63.4889 109.861 63.1833 109.332 62.8369 109.495C62.1849 109.82 61.5329 110.125 60.8809 110.451C60.5346 110.634 60.8402 111.142 61.1866 110.979Z" fill="#E8E8E8"/>
<path d="M63.2842 114.436C63.8343 114.07 64.4252 113.765 65.0364 113.501C65.4032 113.358 65.2402 112.769 64.8734 112.911C64.2011 113.196 63.5694 113.521 62.9582 113.907C62.6526 114.131 62.9582 114.66 63.2842 114.436Z" fill="#E8E8E8"/>
<path d="M65.587 118.421C66.1575 118.137 66.728 117.852 67.2985 117.588C67.6448 117.405 67.3392 116.896 66.9928 117.059C66.4223 117.344 65.8518 117.628 65.2813 117.893C64.935 118.055 65.2406 118.584 65.587 118.421Z" fill="#E8E8E8"/>
<path d="M66.7694 122.407C67.401 121.858 68.053 121.39 68.7865 120.983C69.1329 120.78 68.8273 120.272 68.4809 120.455C67.727 120.882 67.0139 121.39 66.3415 121.98C66.0359 122.244 66.4638 122.671 66.7694 122.407Z" fill="#E8E8E8"/>
<path d="M76.835 102.744C77.3036 102.419 77.7926 102.195 78.3427 102.053C78.7298 101.951 78.5669 101.382 78.1797 101.463C77.5888 101.606 77.0183 101.85 76.509 102.216C76.2033 102.439 76.509 102.968 76.835 102.744Z" fill="#E8E8E8"/>
<path d="M78.6475 106.221C79.2995 105.815 79.9515 105.408 80.5831 104.981C80.9091 104.778 80.6035 104.249 80.2775 104.452C79.6255 104.859 78.9735 105.266 78.3419 105.693C77.9955 105.916 78.3011 106.445 78.6475 106.221Z" fill="#E8E8E8"/>
<path d="M80.7249 110.39C81.4176 110.085 82.1308 109.78 82.8235 109.475C83.1903 109.312 82.8643 108.783 82.5179 108.946C81.8251 109.251 81.112 109.556 80.4193 109.861C80.0525 110.024 80.3785 110.552 80.7249 110.39Z" fill="#E8E8E8"/>
<path d="M82.2134 113.114C82.7635 112.586 83.3748 112.138 84.0471 111.752C84.3935 111.569 84.0879 111.04 83.7415 111.223C83.0284 111.63 82.3764 112.098 81.7855 112.667C81.5003 112.952 81.9282 113.379 82.2134 113.114Z" fill="#E8E8E8"/>
<path d="M71.312 121.614C71.8214 122.366 72.2493 123.159 72.5753 123.993C72.7179 124.359 73.3088 124.196 73.1661 123.83C72.8198 122.935 72.3919 122.081 71.8418 121.288C71.6177 120.983 71.0879 121.288 71.312 121.614Z" fill="#E8E8E8"/>
<path d="M74.4307 119.926C74.8178 120.617 75.1845 121.288 75.5717 121.98C75.755 122.325 76.2848 122.02 76.1014 121.675C75.7143 120.983 75.3475 120.312 74.9604 119.621C74.777 119.275 74.2473 119.58 74.4307 119.926Z" fill="#E8E8E8"/>
<path d="M78.0361 117.344C78.4436 118.076 78.8511 118.808 79.2586 119.54C79.442 119.885 79.9718 119.58 79.7884 119.235C79.3809 118.503 78.9734 117.771 78.5659 117.039C78.3825 116.693 77.8528 116.998 78.0361 117.344Z" fill="#E8E8E8"/>
<path d="M81.275 115.412C81.601 116.185 81.927 116.957 82.2734 117.71C82.4364 118.076 82.9457 117.75 82.8031 117.405C82.4771 116.632 82.1511 115.859 81.8047 115.107C81.6417 114.761 81.112 115.066 81.275 115.412Z" fill="#E8E8E8"/>
<path d="M62.7959 104.412C63.183 105.042 63.5498 105.672 63.9369 106.282C64.1406 106.628 64.6704 106.303 64.4666 105.977C64.0795 105.347 63.7128 104.717 63.3256 104.107C63.1219 103.781 62.5921 104.086 62.7959 104.412Z" fill="#E8E8E8"/>
<path d="M66.2993 102.378C66.6661 103.192 67.0329 104.005 67.3996 104.818C67.5626 105.184 68.0924 104.859 67.9294 104.513C67.5626 103.7 67.1959 102.887 66.8291 102.073C66.6457 101.707 66.1363 102.012 66.2993 102.378Z" fill="#E8E8E8"/>
<path d="M69.4585 100.426C70.0086 101.158 70.4365 101.951 70.7218 102.805C70.844 103.171 71.4349 103.009 71.3126 102.643C71.007 101.728 70.5791 100.874 69.9883 100.121C69.7641 99.8163 69.2344 100.101 69.4585 100.426Z" fill="#E8E8E8"/>
<path d="M72.8609 98.8607C73.2887 99.5113 73.6962 100.142 74.1241 100.792C74.3278 101.118 74.8576 100.813 74.6538 100.487C74.226 99.8367 73.8185 99.2063 73.3906 98.5557C73.1665 98.2303 72.6367 98.5353 72.8609 98.8607Z" fill="#E8E8E8"/>
<path d="M104.544 58.5397C102.567 57.9297 102.466 55.8354 103.403 54.2697C104.32 52.7447 106.092 52.338 107.478 53.5987C108.619 54.656 108.721 56.4657 107.661 57.6247C106.602 58.804 104.87 58.7837 103.647 57.889C103.342 57.645 103.036 58.1737 103.342 58.4177C104.89 59.5564 107.152 59.3734 108.313 57.767C109.515 56.1404 109.087 53.863 107.396 52.765C103.321 50.142 99.8168 57.706 104.381 59.1294C104.768 59.2514 104.931 58.6617 104.544 58.5397Z" fill="#E8E8E8"/>
<path d="M107.825 59.0683C106.297 59.536 105.931 57.706 106.603 56.73C107.153 55.937 108.233 55.4693 109.211 55.7337C110.148 55.9777 110.821 56.9333 110.576 57.889C110.27 59.0887 109.007 59.5157 107.887 59.3327C107.499 59.2717 107.336 59.8613 107.724 59.9223C109.231 60.1867 110.861 59.536 111.187 57.9093C111.473 56.5063 110.372 55.2253 109.007 55.0627C107.499 54.8797 105.849 55.9777 105.645 57.523C105.462 58.865 106.684 60.0647 108.029 59.6377C108.376 59.536 108.213 58.9463 107.825 59.0683Z" fill="#E8E8E8"/>
<path d="M94.8245 72.3053C94.3355 73.3017 95.0282 74.298 96.047 74.5623C96.8212 74.7657 97.6362 74.5827 98.4308 74.6233C99.2866 74.664 100.142 74.8673 100.917 75.213C102.628 75.9857 103.728 77.3887 103.789 79.2797C103.851 80.8657 103.382 82.5127 104.075 84.0173C105.542 87.1893 109.576 84.7697 111.654 86.8233C113.386 88.5517 112.673 91.7033 114.996 93.025C115.342 93.2283 115.648 92.6997 115.301 92.4963C113.223 91.317 113.712 88.2467 112.245 86.5387C111.471 85.644 110.35 85.4 109.209 85.3187C107.824 85.2373 106.031 85.522 105.012 84.3427C103.83 82.96 104.462 80.886 104.401 79.2593C104.36 77.9783 103.932 76.8193 103.036 75.9043C102.241 75.1113 101.202 74.5623 100.122 74.2777C99.5718 74.1353 99.0013 74.0337 98.4308 74.0133C97.6973 73.9727 94.5188 74.3387 95.3746 72.6103C95.5376 72.2647 95.0078 71.9597 94.8245 72.3053Z" fill="#E8E8E8"/>
<path d="M47.1885 182.065C50.8764 182.065 54.5439 182.065 58.2317 182.065C58.6189 182.065 58.6189 181.455 58.2317 181.455C54.5439 181.455 50.8764 181.455 47.1885 181.455C46.781 181.455 46.781 182.065 47.1885 182.065Z" fill="#E8E8E8"/>
<path d="M53.1377 195.851C60.2282 195.851 67.2983 195.851 74.3888 195.851C74.776 195.851 74.776 195.241 74.3888 195.241C67.2983 195.241 60.2282 195.241 53.1377 195.241C52.7302 195.241 52.7302 195.851 53.1377 195.851Z" fill="#E8E8E8"/>
<path d="M73.5342 192.028C80.1153 192.028 86.7168 192.028 93.298 192.028C93.6851 192.028 93.6851 191.418 93.298 191.418C86.7168 191.418 80.1153 191.418 73.5342 191.418C73.1267 191.418 73.1267 192.028 73.5342 192.028Z" fill="#E8E8E8"/>
<path d="M183.13 190.971C186.451 190.157 189.793 190.076 193.175 190.605C194.601 190.828 196.048 191.052 197.495 190.93C198.901 190.808 200.266 190.381 201.631 190.015C203.179 189.588 204.728 189.263 206.358 189.385C208.029 189.507 209.638 189.974 211.268 190.34C212.674 190.666 214.1 190.889 215.547 190.869C217.075 190.828 218.583 190.564 220.07 190.34C224.145 189.69 227.976 190.096 232.01 190.767C232.397 190.828 232.56 190.239 232.173 190.178C228.913 189.649 225.633 189.1 222.311 189.425C218.848 189.771 215.628 190.625 212.124 189.913C209.19 189.324 206.399 188.409 203.383 188.978C201.773 189.283 200.245 189.852 198.636 190.157C196.843 190.503 195.111 190.3 193.318 190.015C189.834 189.486 186.39 189.527 182.947 190.381C182.601 190.483 182.764 191.072 183.13 190.971Z" fill="#E8E8E8"/>
<path d="M214.426 184.789C220.824 184.444 227.221 184.098 233.619 183.773C236.777 183.61 239.833 183.671 242.971 184.098C244.377 184.281 245.722 184.322 247.128 184.159C248.697 183.976 250.327 183.732 251.794 184.484C252.14 184.667 252.446 184.139 252.099 183.956C249.613 182.695 246.741 183.874 244.071 183.63C242.482 183.488 240.934 183.183 239.344 183.102C237.694 183.02 236.044 183.061 234.393 183.142C227.731 183.447 221.068 183.854 214.405 184.2C214.039 184.2 214.039 184.81 214.426 184.789Z" fill="#E8E8E8"/>
<path d="M89.1399 202.256C92.1554 202.54 95.1913 202.825 98.2068 202.479C99.6126 202.317 100.957 202.012 102.323 201.605C104.095 201.076 105.684 200.934 107.518 201.259C108.924 201.503 110.31 201.849 111.715 201.971C113.203 202.093 114.69 202.012 116.178 201.869C119.295 201.564 122.412 201.036 125.509 201.727C125.896 201.808 126.059 201.219 125.672 201.137C122.698 200.487 119.723 200.914 116.728 201.219C115.24 201.361 113.753 201.503 112.266 201.422C110.574 201.341 108.944 200.893 107.294 200.629C105.909 200.405 104.584 200.405 103.219 200.731C101.752 201.097 100.367 201.585 98.8588 201.808C95.6395 202.276 92.3591 201.951 89.1399 201.666C88.7324 201.605 88.7528 202.215 89.1399 202.256Z" fill="#E8E8E8"/>
<path d="M121.373 38.186C120.578 37.637 119.499 36.7627 119.825 35.6647C120.171 34.526 121.027 35.075 121.821 34.8107C122.881 34.465 122.82 33.184 122.514 32.3503C122.208 31.537 121.556 29.5647 123.248 30.2357C123.635 30.3983 123.92 30.6627 124.368 30.5203C124.776 30.3983 124.979 30.0323 125.081 29.646C125.163 29.3003 125.102 28.9343 125.081 28.5683C125.041 28.3243 125.02 28.06 125.02 27.816C124.939 27.2263 125.305 26.9823 126.08 27.084C126.1 27.4703 126.711 27.4703 126.691 27.084C126.65 26.5147 126.222 26.108 125.611 26.1283C124.898 26.1487 124.511 26.84 124.429 27.4907C124.368 27.938 124.735 28.975 124.531 29.341C124.287 29.5037 124.042 29.6867 123.777 29.8493C123.675 29.7883 123.574 29.7273 123.472 29.6663C123.288 29.6053 123.146 29.4833 122.962 29.4427C122.331 29.3003 121.821 29.6867 121.597 30.256C121.21 31.232 121.903 32.0453 122.107 32.9603C122.371 34.221 121.414 34.0787 120.578 34.221C120.212 34.282 119.906 34.465 119.662 34.7293C118.378 36.2137 119.865 37.8607 121.088 38.7147C121.393 38.9383 121.699 38.4097 121.373 38.186Z" fill="#E8E8E8"/>
<path d="M125.388 37.6167C124.716 36.844 124.206 35.7867 125.51 35.38C125.836 35.2783 126.203 35.319 126.509 35.1157C127.181 34.648 126.896 34.0177 126.774 33.367C126.712 33.001 126.57 32.513 126.794 32.147C126.957 31.8827 127.548 31.781 127.853 31.72C128.281 31.6183 128.729 31.5573 129.096 31.3133C129.646 30.927 129.85 30.2357 129.483 29.646C129.28 29.3207 128.75 29.6257 128.954 29.951C129.565 30.927 126.712 31.1913 126.223 31.903C125.653 32.7367 126.855 34.2007 125.857 34.7293C125.47 34.9327 124.981 34.7903 124.614 35.0547C124.349 35.2377 124.166 35.5223 124.084 35.8273C123.86 36.7017 124.451 37.454 124.981 38.064C125.225 38.3487 125.653 37.9217 125.388 37.6167Z" fill="#E8E8E8"/>
<path d="M101.325 32.7977C100.795 32.4317 100.734 31.781 100.897 31.2117C100.999 30.8253 101.488 29.768 101.956 29.7273C102.731 29.646 103.118 30.622 103.322 31.1913C103.505 31.7403 103.566 32.2893 103.586 32.8587C103.586 33.245 104.198 33.245 104.198 32.8587C104.177 31.72 103.423 28.2227 101.549 29.2393C100.836 29.6257 100.306 30.744 100.225 31.5167C100.143 32.2487 100.428 32.8993 101.019 33.3263C101.325 33.55 101.63 33.0213 101.325 32.7977Z" fill="#E8E8E8"/>
<path d="M101.079 33.123C100.346 33.306 99.6125 33.489 98.8586 33.672C98.4308 33.7737 97.6973 33.8143 97.3509 34.1397C96.76 34.6887 96.923 36.3763 96.923 37.088C96.923 37.2913 97.1268 37.4337 97.3101 37.3727C97.412 37.3523 97.5139 37.3117 97.6361 37.2913C98.1659 37.0067 98.4308 37.1897 98.4511 37.7997C98.8586 38.2063 98.8586 38.4503 98.4511 38.491C98.2066 38.5927 97.9621 38.6333 97.6973 38.6333C97.5343 38.6537 97.3916 38.7553 97.3916 38.9383C97.4324 40.2397 97.5343 41.5207 97.6769 42.822C97.7176 43.2083 98.3289 43.2083 98.2881 42.822C98.1455 41.5207 98.0436 40.2397 98.0029 38.9383C97.901 39.04 97.7991 39.1417 97.6973 39.2433C98.553 39.1417 99.9181 38.796 99.7348 37.637C99.531 36.3967 98.0233 36.539 97.1675 36.783C97.2898 36.8847 97.4324 36.9863 97.5546 37.0677C97.5546 36.6 97.5546 36.1527 97.5954 35.685C97.6565 34.953 97.6158 34.6887 98.2881 34.4243C99.205 34.0583 100.285 33.9363 101.242 33.6923C101.63 33.6313 101.467 33.0417 101.079 33.123Z" fill="#E8E8E8"/>
<path d="M104.015 33.306C104.871 33.2653 105.747 33.2653 106.603 33.367C107.418 33.4686 107.377 33.5906 107.499 34.3023C107.581 34.7496 107.601 35.2173 107.642 35.6646C107.805 37.4133 107.927 39.162 108.029 40.9106C108.049 41.297 108.661 41.297 108.64 40.9106C108.518 38.5316 108.436 36.0916 108.049 33.733C107.947 33.1433 107.846 32.9603 107.234 32.8586C106.175 32.6553 105.075 32.6553 104.015 32.7163C103.628 32.7163 103.628 33.3263 104.015 33.306Z" fill="#E8E8E8"/>
<path d="M98.1266 43.249C99.3287 43.0457 100.531 42.8423 101.713 42.639C103.078 42.4153 104.382 42.517 105.747 42.4153C106.378 42.3543 109.374 42.0493 108.273 40.809C108.008 40.5243 107.581 40.9513 107.845 41.236C108.008 41.419 105.237 41.8257 105.176 41.8257C104.321 41.846 103.465 41.8053 102.609 41.907C101.061 42.09 99.5121 42.4153 97.9636 42.6797C97.5765 42.7203 97.7395 43.31 98.1266 43.249Z" fill="#E8E8E8"/>
<path d="M226.357 160.349C226.296 162.484 226.235 164.619 226.174 166.774C228.884 166.957 231.573 167.12 234.283 167.303C234.283 165.107 234.283 162.911 234.283 160.715C231.634 160.593 229.006 160.471 226.357 160.349Z" fill="white"/>
<path d="M234.486 167.526L234.262 167.506C232.897 167.404 231.552 167.323 230.187 167.242C228.842 167.16 227.498 167.079 226.153 166.977L225.949 166.957L226.153 160.125L234.486 160.511V167.526ZM226.377 166.591C227.661 166.672 228.944 166.754 230.208 166.835C231.491 166.916 232.775 166.998 234.058 167.079V160.898L226.54 160.552L226.377 166.591Z" fill="#161616"/>
<path d="M229.882 184.078C230.249 186.436 230.412 188.388 230.494 189.791C230.759 194.448 230.555 195.525 230.147 196.379C229.149 198.474 227.336 199.348 227.499 199.633C227.621 199.816 228.517 199.612 232.511 197.518C232.266 192.882 232.042 188.266 231.798 183.63C231.166 183.793 230.534 183.935 229.882 184.078Z" fill="white"/>
<path d="M227.621 199.897C227.438 199.897 227.376 199.816 227.336 199.755C227.193 199.49 227.417 199.287 227.865 198.901C228.416 198.413 229.353 197.579 229.964 196.318C230.331 195.546 230.555 194.651 230.29 189.832C230.188 187.941 229.984 186.03 229.679 184.139L229.658 183.956L229.842 183.915C230.453 183.773 231.105 183.63 231.757 183.468L232.002 183.407L232.022 183.651C232.144 185.969 232.266 188.287 232.389 190.605C232.511 192.923 232.613 195.22 232.755 197.538V197.66L232.633 197.721C229.19 199.49 228.049 199.897 227.621 199.897ZM230.107 184.24C230.392 186.091 230.575 187.961 230.698 189.791C230.962 194.285 230.779 195.525 230.331 196.481C229.679 197.823 228.721 198.697 228.13 199.206C228.028 199.307 227.906 199.389 227.825 199.47C228.232 199.368 229.332 198.962 232.307 197.416C232.185 195.139 232.063 192.882 231.961 190.605C231.839 188.368 231.737 186.152 231.614 183.915C231.105 184.017 230.596 184.139 230.107 184.24Z" fill="#161616"/>
<path d="M224.604 169.133C228.067 169.153 231.531 169.194 234.995 169.214C234.608 173.85 234.241 178.466 233.854 183.102C230.838 182.858 227.802 182.634 224.787 182.39C224.705 177.978 224.644 173.565 224.604 169.133Z" fill="white"/>
<path d="M234.038 183.325L233.834 183.305C232.326 183.183 230.819 183.061 229.29 182.939C227.783 182.817 226.275 182.715 224.767 182.593L224.584 182.573V182.39C224.502 177.998 224.441 173.525 224.4 169.133V168.929H224.604C226.336 168.929 228.088 168.95 229.82 168.97C231.552 168.99 233.264 168.99 234.995 169.011H235.22L235.199 169.234C235.016 171.552 234.812 173.87 234.629 176.168C234.445 178.466 234.262 180.804 234.058 183.122L234.038 183.325ZM224.991 182.207C226.438 182.329 227.885 182.431 229.331 182.553C230.778 182.654 232.224 182.776 233.671 182.898C233.854 180.641 234.038 178.405 234.221 176.148C234.405 173.911 234.588 171.674 234.771 169.417C233.121 169.417 231.471 169.397 229.82 169.377C228.149 169.356 226.479 169.356 224.808 169.336C224.849 173.606 224.91 177.937 224.991 182.207Z" fill="#161616"/>
<path d="M226.01 183.915C227.11 186.579 227.477 188.876 227.599 190.422C227.783 192.699 227.905 194.448 226.805 195.607C226.397 196.054 225.725 196.481 224.421 197.355C223.26 198.128 222.709 198.413 222.75 198.494C222.811 198.616 223.932 198.372 228.822 196.644C229.148 194.997 229.413 192.882 229.352 190.401C229.27 187.758 228.842 185.501 228.374 183.813C227.599 183.854 226.805 183.874 226.01 183.915Z" fill="white"/>
<path d="M222.811 198.718C222.628 198.718 222.587 198.657 222.567 198.596C222.465 198.372 222.608 198.291 223.26 197.864C223.525 197.701 223.871 197.477 224.299 197.193L224.727 196.908C225.745 196.217 226.316 195.851 226.662 195.464C227.722 194.346 227.579 192.618 227.396 190.442C227.233 188.287 226.703 186.111 225.827 183.996L225.725 183.732L226.01 183.712C226.397 183.691 226.785 183.671 227.172 183.671C227.579 183.651 227.966 183.63 228.374 183.61H228.537L228.578 183.773C228.985 185.216 229.474 187.534 229.556 190.401C229.617 192.516 229.433 194.631 229.026 196.684L229.005 196.806L228.904 196.847C224.584 198.352 223.26 198.718 222.811 198.718ZM226.316 184.098C227.151 186.172 227.64 188.287 227.803 190.401C227.987 192.597 228.129 194.509 226.948 195.749C226.581 196.156 225.99 196.542 224.951 197.254L224.523 197.538C224.115 197.823 223.769 198.026 223.504 198.189C224.238 197.986 225.705 197.538 228.618 196.501C229.005 194.509 229.168 192.475 229.128 190.422C229.046 187.697 228.578 185.46 228.19 184.037C227.844 184.057 227.498 184.057 227.151 184.078C226.886 184.078 226.601 184.098 226.316 184.098Z" fill="#161616"/>
<path d="M227.784 199.816C228.395 199.307 228.966 198.758 229.516 198.169C230.148 197.477 231.085 196.42 232.063 197.335C232.083 197.172 232.104 197.01 232.124 196.847C230.677 197.559 229.251 198.27 227.805 198.962C227.519 199.104 227.662 199.531 227.968 199.531C229.333 199.551 230.188 197.172 231.594 197.62C231.961 197.742 232.124 197.152 231.757 197.03C231.146 196.847 230.677 197.01 230.168 197.376C229.577 197.803 228.742 198.921 227.988 198.921C228.049 199.104 228.09 199.307 228.151 199.49C229.598 198.779 231.024 198.067 232.47 197.376C232.654 197.294 232.674 197.03 232.532 196.888C231.981 196.379 231.003 196.196 230.311 196.522C229.801 196.745 229.475 197.335 229.109 197.721C228.558 198.311 227.988 198.84 227.377 199.368C227.051 199.633 227.478 200.08 227.784 199.816Z" fill="#161616"/>
<path d="M230.29 196.644C230.902 196.664 231.492 196.786 232.063 197.03C232.409 197.193 232.735 196.664 232.369 196.501C231.696 196.196 231.024 196.034 230.29 196.013C229.903 196.034 229.903 196.644 230.29 196.644Z" fill="#161616"/>
<path d="M226.948 195.932C227.417 196.054 227.824 196.298 228.15 196.664C228.415 196.949 228.843 196.522 228.578 196.237C228.171 195.81 227.661 195.505 227.091 195.363C226.744 195.241 226.581 195.83 226.948 195.932Z" fill="#161616"/>
<path d="M223.647 198.392C224.278 197.925 224.93 197.498 225.603 197.091C225.908 196.908 226.234 196.664 226.56 196.562C227.07 196.379 227.375 196.501 227.844 196.705C227.844 196.522 227.844 196.359 227.844 196.176C227.192 196.461 226.458 196.44 225.786 196.725C225.134 196.989 224.523 197.64 223.85 197.762C223.932 197.945 224.013 198.128 224.095 198.311C225.297 197.721 226.642 197.62 227.844 197.03C228.19 196.847 227.885 196.339 227.538 196.501C226.336 197.091 224.991 197.193 223.789 197.782C223.463 197.945 223.708 198.392 224.034 198.331C224.767 198.209 225.358 197.538 226.051 197.274C226.744 197.01 227.498 196.989 228.17 196.705C228.374 196.623 228.374 196.257 228.17 196.176C227.396 195.83 227.049 195.627 226.275 196.034C225.256 196.562 224.299 197.193 223.382 197.864C223.015 198.087 223.321 198.616 223.647 198.392Z" fill="#161616"/>
<path d="M227.131 187.026C227.641 186.843 228.15 186.863 228.619 187.107C228.965 187.29 229.271 186.762 228.924 186.579C228.313 186.253 227.62 186.192 226.968 186.436C226.602 186.579 226.765 187.168 227.131 187.026Z" fill="#161616"/>
<path d="M227.64 189.059C228.068 189.019 228.475 189.12 228.801 189.405C229.107 189.649 229.535 189.222 229.229 188.978C228.781 188.612 228.231 188.409 227.64 188.449C227.253 188.47 227.253 189.08 227.64 189.059Z" fill="#161616"/>
<path d="M227.865 191.601C228.252 191.56 228.619 191.703 228.843 192.028C229.047 192.353 229.577 192.048 229.373 191.723C229.067 191.215 228.477 190.91 227.886 190.991C227.723 191.011 227.58 191.113 227.58 191.296C227.56 191.438 227.702 191.621 227.865 191.601Z" fill="#161616"/>
<path d="M230.493 186.884C230.86 186.68 231.329 186.701 231.675 186.985C231.981 187.229 232.409 186.802 232.103 186.558C231.553 186.111 230.819 186.009 230.188 186.355C229.841 186.558 230.147 187.087 230.493 186.884Z" fill="#161616"/>
<path d="M230.839 190.727C231.165 190.584 231.532 190.645 231.797 190.889C232.082 191.154 232.53 190.727 232.225 190.462C231.756 190.035 231.104 189.934 230.513 190.218C230.167 190.361 230.493 190.889 230.839 190.727Z" fill="#161616"/>
<path d="M230.922 193.98C231.248 193.777 231.655 193.777 231.961 194.021C232.266 194.265 232.694 193.838 232.389 193.594C231.879 193.167 231.166 193.106 230.616 193.472C230.29 193.675 230.596 194.204 230.922 193.98Z" fill="#161616"/>
<path d="M234.869 169.136L233.646 183.174L234.864 183.279L236.087 169.242L234.869 169.136Z" fill="#161616"/>
<path d="M234.893 183.895C233.202 183.773 231.511 183.651 229.82 183.549C228.109 183.427 226.397 183.305 224.686 183.183L224.767 181.963C226.479 182.085 228.19 182.207 229.902 182.329C231.593 182.451 233.284 182.553 234.975 182.675L234.893 183.895Z" fill="#161616"/>
<path d="M235.303 167.486L234.08 167.445C234.121 166.286 234.162 165.127 234.223 163.968C234.263 162.829 234.304 161.67 234.345 160.511L235.567 160.552C235.527 161.711 235.486 162.85 235.445 164.009C235.384 165.168 235.343 166.327 235.303 167.486Z" fill="#161616"/>
<path d="M235.384 171.939C237.279 171.593 239.296 173.077 239.439 175.029C239.642 177.469 236.851 177.896 235.017 177.632C234.63 177.571 234.467 178.161 234.854 178.222C237.095 178.547 240.254 177.917 240.05 175.029C239.887 172.65 237.503 170.922 235.221 171.349C234.834 171.41 234.997 172 235.384 171.939Z" fill="#161616"/>
<path d="M234.935 178.71C235.73 178.872 236.361 179.442 236.585 180.214C236.687 180.601 237.278 180.438 237.176 180.052C236.911 179.076 236.117 178.303 235.118 178.12C234.711 178.059 234.548 178.628 234.935 178.71Z" fill="#161616"/>
<path d="M234.628 178.506C235.117 179.218 235.342 180.011 235.26 180.885C235.24 181.272 235.851 181.272 235.871 180.885C235.932 179.93 235.688 178.994 235.138 178.201C234.934 177.876 234.404 178.181 234.628 178.506Z" fill="#161616"/>
<path d="M224.584 171.654C223.24 170.8 220.774 173.26 220.469 174.46C219.857 176.9 222.995 176.615 224.299 177.429C224.625 177.632 224.931 177.103 224.605 176.9C223.668 176.31 222.282 176.534 221.467 175.802C220.469 174.907 221.386 173.83 222.078 173.199C222.445 172.874 223.688 171.796 224.279 172.162C224.605 172.406 224.931 171.878 224.584 171.654Z" fill="#161616"/>
<path d="M224.259 177.144C223.729 177.347 223.24 177.652 222.833 178.079C222.527 178.405 222.14 178.913 222.445 179.36C222.67 179.686 223.199 179.381 222.975 179.055C222.833 178.852 223.362 178.405 223.505 178.283C223.77 178.039 224.076 177.856 224.422 177.734C224.789 177.591 224.646 177.002 224.259 177.144Z" fill="#161616"/>
<path d="M224.014 177.571C223.627 178.181 223.505 178.872 223.647 179.564C223.729 179.95 224.32 179.787 224.238 179.401C224.116 178.852 224.238 178.344 224.544 177.876C224.768 177.551 224.238 177.246 224.014 177.571Z" fill="#161616"/>
<path d="M225.95 171.268C225.848 172.752 225.868 174.257 225.97 175.741C226.011 176.127 226.622 176.127 226.581 175.741C226.459 174.257 226.459 172.752 226.561 171.268C226.602 170.881 225.991 170.881 225.95 171.268Z" fill="#161616"/>
<path d="M226.398 171.43C228.558 171.552 230.697 171.634 232.857 171.674C232.755 171.573 232.653 171.471 232.551 171.369C232.49 172.894 232.429 174.44 232.347 175.965C232.327 176.351 232.938 176.351 232.959 175.965C233.02 174.44 233.081 172.894 233.162 171.369C233.162 171.207 233.02 171.064 232.857 171.064C230.697 171.024 228.558 170.942 226.398 170.82C226.011 170.8 226.011 171.41 226.398 171.43Z" fill="#161616"/>
<path d="M226.153 176.005C227.05 176.249 228.048 176.188 228.945 176.249C230.045 176.31 231.166 176.392 232.266 176.453C232.653 176.473 232.653 175.863 232.266 175.843C231.288 175.782 230.31 175.721 229.332 175.66C228.354 175.599 227.254 175.66 226.296 175.416C225.95 175.314 225.787 175.904 226.153 176.005Z" fill="#161616"/>
<path d="M226.845 179.157C227.212 179.95 228.007 179.259 228.618 179.543C228.903 179.665 228.842 179.848 229.229 179.869C229.677 179.889 230.778 178.994 231.002 179.828C231.063 180.052 231.348 180.113 231.511 179.97C231.715 179.909 231.939 179.848 232.143 179.808C232.387 180.113 232.836 179.665 232.571 179.381C232.102 178.832 231.511 179.137 231.063 179.543C231.226 179.584 231.409 179.625 231.572 179.686C231.389 178.974 230.635 178.506 229.922 178.832C229.576 178.994 229.535 179.299 229.005 179.096C228.903 179.055 228.862 178.893 228.761 178.852C228.536 178.771 227.355 178.893 227.355 178.872C227.212 178.486 226.682 178.791 226.845 179.157Z" fill="#161616"/>
<path d="M227.926 163.155C227.967 162.931 228.232 162.87 228.415 162.951C228.68 163.053 228.822 163.358 228.945 163.582C229.108 163.927 229.637 163.622 229.474 163.277C229.25 162.829 228.904 162.362 228.354 162.301C227.906 162.26 227.437 162.524 227.355 162.972C227.254 163.378 227.844 163.541 227.926 163.155Z" fill="#161616"/>
<path d="M231.675 163.439C231.716 163.236 231.899 163.114 232.103 163.195C232.348 163.277 232.45 163.582 232.49 163.805C232.551 164.192 233.142 164.029 233.081 163.643C233 163.155 232.674 162.646 232.144 162.565C231.675 162.504 231.166 162.789 231.085 163.277C231.023 163.663 231.614 163.826 231.675 163.439Z" fill="#161616"/>
<path d="M228.231 164.436C228.924 165.656 230.575 165.839 231.471 164.741C231.716 164.436 231.288 164.009 231.043 164.314C230.391 165.107 229.271 165.046 228.761 164.131C228.578 163.785 228.048 164.09 228.231 164.436Z" fill="#161616"/>
<path d="M186.858 53.9443C184.29 52.9073 182.742 50.4266 181.805 47.946C180.806 45.3636 180.378 42.5576 180.521 39.7923C180.766 34.6886 182.946 29.524 186.98 26.2706C190.79 23.18 196.434 22.3056 200.672 25.1116C205.093 28.0396 205.888 34.0786 205.929 38.9383C205.97 44.347 204.706 50.02 200.692 53.9036C200.407 54.168 200.835 54.6153 201.12 54.3306C204.93 50.63 206.377 45.3433 206.52 40.1786C206.662 35.1156 206.051 28.7106 201.874 25.2336C197.962 21.9803 192.155 22.143 187.978 24.7863C183.353 27.7143 180.623 33.0213 180.032 38.369C179.665 41.6833 180.073 45.1196 181.295 48.251C182.334 50.8943 183.985 53.4156 186.715 54.5136C187.061 54.6763 187.204 54.0866 186.858 53.9443Z" fill="#161616"/>
<path d="M186.573 54.3307C185.88 55.3067 186.022 56.7503 187.041 57.4823C187.815 58.0313 188.956 58.1127 189.873 58.2347C190.974 58.3973 192.094 58.4583 193.215 58.4583C195.212 58.438 197.494 58.2957 199.348 57.523C200.692 56.9537 201.711 55.6117 200.998 54.168C200.835 53.8223 200.305 54.1273 200.468 54.473C201.996 57.584 194.763 57.8483 193.194 57.8483C191.748 57.8483 190.301 57.7263 188.895 57.462C188.223 57.34 187.469 57.218 187.041 56.6283C186.613 56.0183 186.695 55.2253 187.102 54.656C187.326 54.3103 186.797 54.0053 186.573 54.3307Z" fill="#161616"/>
<path d="M187.225 57.6247C187.225 58.6414 187.245 59.6784 187.367 60.695C187.428 61.1627 187.53 61.5694 187.917 61.854C188.467 62.2607 189.384 62.2403 190.036 62.3013C191.137 62.3827 192.257 62.3827 193.357 62.342C194.397 62.3014 195.436 62.22 196.475 62.1184C197.086 62.0574 197.779 62.0777 198.247 61.61C199.287 60.5934 199.307 58.6617 199.042 57.3807C198.961 56.9944 198.37 57.157 198.451 57.5434C198.594 58.2347 198.635 58.926 198.492 59.6377C198.288 60.634 198.003 61.2847 196.882 61.488C195.578 61.732 194.111 61.732 192.787 61.7524C191.483 61.7727 190.016 61.8337 188.732 61.5287C187.551 61.244 187.856 58.6007 187.856 57.6247C187.836 57.2384 187.225 57.2384 187.225 57.6247Z" fill="#161616"/>
<path d="M187.428 35.7256C189.873 37.2506 191.727 39.4873 192.766 42.1713C192.909 42.5373 193.5 42.3746 193.357 42.0086C192.257 39.162 190.321 36.8033 187.754 35.197C187.407 34.9733 187.102 35.502 187.428 35.7256Z" fill="#161616"/>
<path d="M193.256 42.1713C194.458 39.65 196.21 37.4947 198.451 35.8273C198.757 35.6037 198.451 35.0547 198.146 35.2987C195.823 37.027 193.989 39.2637 192.726 41.8663C192.563 42.212 193.093 42.517 193.256 42.1713Z" fill="#161616"/>
<path d="M192.768 41.4597C193.073 45.6483 193.216 49.837 193.155 54.0257C193.155 54.412 193.766 54.412 193.766 54.0257C193.827 49.837 193.684 45.628 193.379 41.4597C193.338 41.053 192.727 41.053 192.768 41.4597Z" fill="#161616"/>
<path d="M168.908 51.7077C171.618 50.7927 174.307 49.8777 177.017 48.9627C177.384 48.8407 177.221 48.251 176.854 48.373C174.144 49.288 171.455 50.203 168.745 51.118C168.358 51.24 168.521 51.8297 168.908 51.7077Z" fill="#161616"/>
<path d="M172.004 47.641C172.942 47.3767 173.879 47.092 174.816 46.8277C175.183 46.726 175.04 46.1363 174.653 46.238C173.716 46.5023 172.779 46.787 171.841 47.0513C171.475 47.1733 171.617 47.763 172.004 47.641Z" fill="#161616"/>
<path d="M165.22 40.87C168.806 40.8293 172.372 40.931 175.937 41.1547C176.324 41.175 176.324 40.565 175.937 40.5447C172.372 40.321 168.786 40.2397 165.22 40.26C164.833 40.26 164.833 40.87 165.22 40.87Z" fill="#161616"/>
<path d="M172.8 38.1047C173.655 38.3283 174.531 38.43 175.408 38.4503C175.795 38.4503 175.795 37.8403 175.408 37.8403C174.572 37.82 173.757 37.7183 172.963 37.515C172.575 37.4133 172.412 38.003 172.8 38.1047Z" fill="#161616"/>
<path d="M171.476 19.1743C174.674 21.9193 177.588 24.9286 180.216 28.2226C180.461 28.5276 180.889 28.1006 180.644 27.7956C178.016 24.5016 175.102 21.472 171.903 18.7473C171.618 18.483 171.17 18.91 171.476 19.1743Z" fill="#161616"/>
<path d="M180.419 24.949C180.969 25.5183 181.499 26.0876 182.049 26.6773C182.314 26.962 182.742 26.535 182.477 26.2503C181.927 25.681 181.397 25.1116 180.847 24.522C180.582 24.2373 180.154 24.6643 180.419 24.949Z" fill="#161616"/>
<path d="M168.012 26.0876C169.01 26.6773 170.029 27.2263 171.068 27.7346C171.414 27.9176 171.72 27.389 171.374 27.206C170.335 26.6773 169.316 26.1283 168.317 25.559C167.971 25.3556 167.665 25.8843 168.012 26.0876Z" fill="#161616"/>
<path d="M203.463 21.4516C206.479 18.4423 209.494 15.433 212.51 12.4236C212.795 12.139 212.347 11.712 212.082 11.9966C209.066 15.006 206.051 18.0153 203.035 21.0246C202.75 21.3093 203.178 21.7363 203.463 21.4516Z" fill="#161616"/>
<path d="M206.5 22.8547C207.274 22.2853 208.048 21.7363 208.823 21.167C209.128 20.9433 208.843 20.4147 208.517 20.6383C207.743 21.2077 206.968 21.7567 206.194 22.326C205.868 22.5497 206.174 23.0783 206.5 22.8547Z" fill="#161616"/>
<path d="M194.05 17.4663C194.661 14.518 195.13 11.5493 195.415 8.56032C195.456 8.17399 194.844 8.17399 194.804 8.56032C194.518 11.4883 194.07 14.4163 193.459 17.3037C193.377 17.69 193.968 17.8527 194.05 17.4663Z" fill="#161616"/>
<path d="M211.187 36.173C216.729 35.6646 222.25 35.1563 227.792 34.648C228.179 34.6073 228.179 33.9973 227.792 34.038C222.25 34.5463 216.729 35.0546 211.187 35.563C210.8 35.5833 210.779 36.1933 211.187 36.173Z" fill="#161616"/>
<path d="M187.897 55.0626C191.341 55.815 194.845 55.7946 198.268 55.022C198.655 54.9406 198.492 54.351 198.105 54.4323C194.784 55.1846 191.381 55.205 188.06 54.473C187.673 54.3916 187.51 54.9813 187.897 55.0626Z" fill="#161616"/>
<path d="M188.408 60.2273C191.036 60.573 193.664 60.6543 196.313 60.4713C196.7 60.451 196.7 59.841 196.313 59.8613C193.664 60.0443 191.036 59.963 188.408 59.6173C188.02 59.5766 188.02 60.1866 188.408 60.2273Z" fill="#161616"/>
<path d="M207.335 53.009C211.471 55.9166 215.688 58.7226 219.967 61.427C220.293 61.6303 220.599 61.1016 220.273 60.8983C215.994 58.194 211.776 55.388 207.64 52.4803C207.314 52.2566 207.009 52.7853 207.335 53.009Z" fill="#161616"/>
<path d="M155.277 196.034C151.406 200.771 147.555 205.489 143.684 210.226C148.227 226.168 150.794 230.356 152.323 230.133C153.423 229.97 153.953 227.591 154.543 224.927C156.01 218.278 155.134 212.565 154.238 209.006C156.683 206.282 159.107 203.537 161.552 200.812C159.454 199.226 157.376 197.64 155.277 196.034Z" fill="#161616"/>
<path d="M152.221 230.336C149.532 230.336 145.966 218.929 143.501 210.267L143.48 210.165L143.542 210.084C145.477 207.705 147.413 205.346 149.328 202.988C151.264 200.629 153.199 198.25 155.135 195.891L155.257 195.729L155.42 195.851C157.132 197.152 159.393 198.88 161.696 200.629L161.879 200.771L161.736 200.934C160.514 202.296 159.312 203.659 158.089 205.021C156.887 206.363 155.705 207.705 154.503 209.047C155.828 214.395 155.93 219.763 154.789 224.948C154.177 227.733 153.648 230.133 152.405 230.316C152.303 230.336 152.262 230.336 152.221 230.336ZM143.908 210.267C148.635 226.839 151.08 230.112 152.303 229.929C153.26 229.787 153.811 227.286 154.361 224.887C155.502 219.722 155.4 214.395 154.055 209.067L154.035 208.966L154.116 208.884C155.339 207.522 156.561 206.139 157.784 204.777C158.945 203.476 160.106 202.154 161.288 200.853C159.108 199.206 156.989 197.579 155.339 196.318C153.444 198.636 151.549 200.954 149.674 203.252C147.739 205.59 145.824 207.929 143.908 210.267Z" fill="#161616"/>
<path d="M140.995 171.634C143.42 173.504 145.743 172.833 150.551 173.647C154.647 174.338 159.251 175.863 164.141 178.913C158.925 185.013 153.709 191.459 148.534 198.25C147.291 199.897 146.048 201.544 144.846 203.191C146.843 203.659 149.247 204.391 151.855 205.57C154.402 206.709 156.48 207.99 158.131 209.149C165.894 202.398 172.821 195.871 178.995 189.71C181.847 186.863 185.881 182.512 186.513 176.351C186.554 176.005 186.554 175.7 186.554 175.395C186.411 165.168 173.514 157.766 165.669 155.042C157.092 152.073 142.34 150.467 138.224 157.563C135.8 161.752 137.226 168.726 140.995 171.634Z" fill="#EC615B"/>
<path opacity="0.26" d="M156.053 161.406C155.91 163.338 155.564 165.635 154.851 168.177C154.342 169.987 153.73 171.593 153.119 172.955C152.447 173.22 151.795 173.484 151.122 173.748C155.503 175.477 159.904 177.205 164.285 178.933C161.025 182.654 157.744 186.558 154.443 190.625C151.041 194.814 147.801 198.921 144.725 202.967C146.905 203.679 149.064 204.391 151.245 205.082C159.048 196.501 166.852 187.9 174.655 179.32C175.47 176.981 175.43 175.151 175.185 173.87C174.065 167.608 166.383 162.504 156.053 161.406Z" fill="#6D6C6C"/>
<path opacity="0.23" d="M164.243 178.893C164.956 179.97 165.649 181.068 166.362 182.146C160.29 189.446 154.218 196.725 148.147 204.025C147.067 203.74 145.967 203.435 144.887 203.15C148.778 197.823 152.976 192.353 157.519 186.843C159.781 184.098 162.022 181.455 164.243 178.893Z" fill="#6D6C6C"/>
<path d="M143.97 188.307C149.98 189.405 156.012 190.483 162.022 191.581C168.97 206.709 169.744 211.589 168.44 212.422C167.503 213.012 165.547 211.548 163.367 209.901C157.906 205.773 154.87 200.853 153.22 197.538C149.593 197.05 145.967 196.542 142.34 196.054C142.87 193.472 143.42 190.889 143.97 188.307Z" fill="#161616"/>
<path d="M167.931 212.768C166.811 212.768 165.119 211.507 163.245 210.064C159.007 206.851 155.584 202.703 153.078 197.721C151.305 197.477 149.533 197.233 147.78 196.989C145.967 196.745 144.133 196.481 142.32 196.237L142.096 196.217L142.136 196.013C142.666 193.411 143.237 190.808 143.766 188.266L143.807 188.063L144.011 188.104C147.006 188.653 150.022 189.202 153.037 189.73C156.053 190.279 159.068 190.828 162.063 191.377L162.165 191.398L162.206 191.499C170.213 208.925 169.663 211.894 168.542 212.605C168.379 212.707 168.155 212.768 167.931 212.768ZM142.585 195.891C144.337 196.135 146.089 196.359 147.841 196.603C149.655 196.847 151.448 197.091 153.261 197.335L153.363 197.355L153.404 197.457C155.869 202.418 159.272 206.566 163.489 209.738C165.466 211.223 167.503 212.768 168.339 212.26C169.378 211.589 169.113 207.502 161.88 191.764C158.905 191.215 155.93 190.686 152.956 190.137C150.001 189.608 147.067 189.08 144.133 188.531C143.624 190.95 143.094 193.431 142.585 195.891Z" fill="#161616"/>
<path d="M131.583 154.615C120.621 157.827 113.938 164.497 109.639 168.889C103.832 174.846 96.7006 182.146 98.7585 187.534C99.818 190.279 103.037 191.967 118.033 194.57C129.362 196.542 139.183 197.599 146.844 198.189C147.801 194.692 148.759 191.215 149.696 187.717C141.994 185.237 134.313 182.776 126.611 180.296C131.338 179.299 136.31 178.12 141.485 176.676C145.417 175.578 149.166 174.44 152.732 173.24C156.033 166.591 156.746 159.413 153.302 155.347C148.494 149.653 137.716 152.805 131.583 154.615Z" fill="#EC615B"/>
<path opacity="0.29" d="M155.971 161.65C155.869 163.663 155.523 166.245 154.586 169.092C154.015 170.82 153.363 172.325 152.711 173.565C152.161 173.606 151.611 173.667 151.061 173.708C146.415 175.233 141.464 176.676 136.228 178.018C132.846 178.893 129.545 179.645 126.346 180.336C134.068 182.756 141.79 185.155 149.512 187.575C149.349 188.409 149.146 189.283 148.901 190.198C148.616 191.255 148.29 192.231 147.984 193.126C137.328 190.503 126.672 187.88 116.016 185.257C115.527 184.667 113.917 182.532 114.162 179.706C114.427 176.636 117.361 174.46 121.11 172.467C131.949 166.733 150.124 162.85 155.971 161.65Z" fill="#6D6C6C"/>
<path opacity="0.24" d="M120.865 180.763C122.801 180.621 124.757 180.479 126.692 180.316C134.292 182.837 141.892 185.379 149.492 187.9C149.166 189.1 148.84 190.32 148.514 191.52C139.305 187.921 130.075 184.342 120.865 180.763Z" fill="#6D6C6C"/>
<path d="M128.709 108.539C131.724 106.77 136.961 104.249 143.929 103.517C154.606 102.399 162.796 106.221 166.036 107.95C165.445 115.941 164.528 122.325 163.795 126.717C162.919 131.963 162.205 134.871 161.879 139.69C161.472 145.729 161.981 150.69 162.45 153.944C158.905 155.042 153.546 156.241 146.945 156.099C140.588 155.957 135.453 154.574 132.01 153.374C132.927 146.095 132.621 140.32 132.173 136.396C131.663 132.024 130.971 129.889 130.135 124.603C129.055 117.771 128.77 112.179 128.709 108.539Z" fill="white"/>
<path d="M148.025 156.323C147.658 156.323 147.292 156.323 146.945 156.302C141.872 156.18 136.839 155.265 131.949 153.557L131.786 153.496L131.807 153.334C132.54 147.539 132.581 141.845 131.97 136.396C131.684 133.936 131.338 132.187 130.93 130.174C130.625 128.649 130.278 126.921 129.932 124.623C129.076 119.174 128.587 113.765 128.506 108.539V108.417L128.608 108.356C133.355 105.571 138.49 103.883 143.909 103.314C153.486 102.317 161.289 105.184 166.138 107.767L166.261 107.828V107.95C165.792 114.314 165.038 120.638 164.019 126.738C163.795 128.1 163.571 129.3 163.367 130.438C162.797 133.631 162.349 136.132 162.104 139.69C161.778 144.387 161.982 149.043 162.675 153.903L162.695 154.066L162.532 154.127C157.846 155.591 152.976 156.323 148.025 156.323ZM132.234 153.232C137.023 154.879 141.974 155.774 146.945 155.896C152.161 156.018 157.296 155.306 162.226 153.801C161.534 148.982 161.371 144.346 161.676 139.67C161.921 136.091 162.369 133.57 162.94 130.377C163.143 129.239 163.367 128.039 163.592 126.677C164.59 120.638 165.344 114.375 165.812 108.051C161.004 105.51 153.343 102.724 143.93 103.7C138.612 104.249 133.559 105.916 128.893 108.641C128.995 113.826 129.463 119.174 130.319 124.562C130.686 126.86 131.012 128.588 131.318 130.093C131.725 132.126 132.071 133.875 132.357 136.355C132.988 141.805 132.948 147.478 132.234 153.232Z" fill="#161616"/>
<path opacity="0.14" d="M150.756 105.937C151.184 107.482 151.673 109.617 151.999 112.179C152.223 113.907 153.14 121.736 150.288 132.065C148.535 138.429 146.681 145.16 140.609 150.69C138.653 152.48 136.759 153.679 135.373 154.432C138.45 155.225 142.464 155.977 147.211 156.018C153.425 156.079 158.56 154.96 162.125 153.862C161.922 152.337 161.657 150.04 161.555 147.274C161.473 144.855 161.473 140.991 163.144 130.113C164.469 121.553 165.406 117.872 165.874 110.125C165.936 109.231 165.956 108.478 165.997 107.97C164.509 107.096 162.574 106.14 160.19 105.367C157.989 104.656 156.013 104.29 154.383 104.127C153.201 104.717 151.979 105.327 150.756 105.937Z" fill="#6D6C6C"/>
<path opacity="0.17" d="M165.405 111.284C164.264 117.73 162.757 122.935 161.575 126.555C158.111 137.128 155.687 144.245 149.146 149.45C145.092 152.683 140.874 154.045 138.164 154.696C140.915 155.469 144.806 156.221 149.513 156.119C154.933 155.997 159.313 154.777 162.186 153.74C161.799 151.26 161.351 147.539 161.473 143.004C161.616 137.128 162.573 133.59 163.633 127.144C164.224 123.362 164.978 117.954 165.405 111.284Z" fill="#6D6C6C"/>
<path d="M128.588 108.438C125.939 110.268 122.536 113.155 119.562 117.445C112.858 127.165 113.042 137.474 113.306 141.276C114.529 144.55 116.628 148.84 120.295 153.049C122.434 155.509 125.572 159.047 130.931 161.325C132.724 162.097 134.293 162.524 135.434 162.768C136.412 161.894 137.369 161.02 138.347 160.145C135.21 156.485 132.051 152.642 128.893 148.677C126.469 145.648 124.146 142.638 121.905 139.67C121.986 137.169 122.516 132.634 125.246 127.897C126.795 125.213 128.608 123.261 130.055 121.939C129.566 117.445 129.077 112.952 128.588 108.438Z" fill="white"/>
<path d="M135.494 162.992L135.392 162.972C133.864 162.646 132.336 162.158 130.849 161.508C125.348 159.169 122.088 155.428 120.132 153.171C117.096 149.694 114.732 145.709 113.102 141.337L113.082 141.276C112.735 136.233 113.082 126.433 119.378 117.323C121.843 113.765 124.899 110.715 128.465 108.255L128.75 108.051L128.791 108.397C129.28 112.891 129.769 117.364 130.258 121.837L130.278 122L130.197 122.061C128.282 123.81 126.692 125.802 125.429 127.978C122.882 132.411 122.21 136.721 122.108 139.588C124.553 142.842 126.835 145.749 129.056 148.535C132.336 152.663 135.515 156.506 138.51 160.003L138.632 160.145L138.489 160.288C138 160.715 137.511 161.162 137.043 161.589C136.554 162.036 136.065 162.463 135.576 162.911L135.494 162.992ZM113.51 141.235C115.119 145.566 117.462 149.491 120.458 152.927C122.515 155.286 125.612 158.844 131.012 161.142C132.438 161.752 133.905 162.24 135.372 162.545C135.841 162.138 136.289 161.711 136.758 161.304C137.185 160.918 137.634 160.511 138.062 160.125C135.107 156.668 131.969 152.866 128.73 148.799C126.489 146.014 124.207 143.065 121.741 139.792L121.7 139.731V139.649C121.802 136.742 122.454 132.309 125.062 127.775C126.326 125.599 127.935 123.586 129.83 121.837C129.361 117.486 128.893 113.135 128.404 108.783C125.001 111.183 122.088 114.131 119.704 117.547C113.53 126.555 113.163 136.233 113.51 141.235Z" fill="#161616"/>
<path opacity="0.13" d="M128.973 112.972C123.105 119.58 120.314 125.843 118.929 129.788C116.504 136.62 117.013 140.198 117.38 141.906C117.686 143.248 118.358 145.546 120.823 149.043C122.963 152.073 127.466 157.502 136.044 161.975C136.797 161.243 137.551 160.532 138.305 159.8C135.881 157.075 133.436 154.208 130.97 151.219C127.731 147.295 124.715 143.431 121.924 139.649C122.005 137.596 122.352 134.729 123.554 131.516C125.367 126.697 128.22 123.525 129.992 121.837C129.625 118.889 129.299 115.941 128.973 112.972Z" fill="#6D6C6C"/>
<path opacity="0.16" d="M121.904 139.914C122.271 142.293 123.025 145.322 124.614 148.596C128.119 155.713 133.6 159.637 136.391 161.345C136.941 160.857 137.471 160.389 138.021 159.901C132.642 153.232 127.283 146.563 121.904 139.914Z" fill="#6D6C6C"/>
<path d="M166.343 108.072C169.317 109.881 173.148 112.708 176.469 116.917C184.008 126.453 183.784 136.579 183.498 140.32C182.113 143.533 179.77 147.742 175.654 151.89C173.25 154.289 169.725 157.766 163.714 160.023C161.697 160.776 159.924 161.203 158.641 161.447C157.561 160.593 156.461 159.739 155.381 158.885C158.885 155.286 162.451 151.524 165.996 147.62C168.706 144.631 171.314 141.683 173.841 138.775C173.739 136.335 173.168 131.882 170.092 127.205C168.339 124.562 166.322 122.651 164.692 121.349C165.263 116.917 165.813 112.504 166.343 108.072Z" fill="white"/>
<path d="M158.58 161.67L158.498 161.609C157.968 161.182 157.418 160.755 156.868 160.328C156.318 159.901 155.768 159.474 155.238 159.047L155.055 158.905L155.218 158.742C159.069 154.798 162.532 151.097 165.833 147.478C168.38 144.672 170.927 141.784 173.616 138.694C173.433 134.647 172.149 130.723 169.908 127.307C168.482 125.152 166.668 123.2 164.549 121.492L164.468 121.41L164.488 121.288C165.079 116.632 165.629 112.301 166.139 108.011L166.179 107.706L166.444 107.868C170.479 110.329 173.902 113.318 176.632 116.754C181.848 123.342 184.354 131.719 183.702 140.3V140.341L183.682 140.381C181.807 144.712 179.158 148.616 175.796 152.012C173.453 154.35 169.908 157.888 163.775 160.186C162.104 160.816 160.373 161.284 158.661 161.609L158.58 161.67ZM155.686 158.864C156.175 159.251 156.664 159.637 157.133 160.003C157.642 160.41 158.172 160.816 158.681 161.223C160.332 160.898 162.003 160.43 163.633 159.82C169.664 157.563 173.168 154.045 175.491 151.727C178.812 148.372 181.44 144.509 183.274 140.259C183.906 131.78 181.44 123.545 176.285 117.039C173.657 113.704 170.356 110.796 166.485 108.417C165.996 112.565 165.466 116.774 164.896 121.268C167.015 122.976 168.808 124.928 170.254 127.104C172.557 130.601 173.861 134.647 174.044 138.775V138.856L173.983 138.917C171.273 142.028 168.706 144.936 166.139 147.762C162.899 151.341 159.476 154.96 155.686 158.864Z" fill="#161616"/>
<path opacity="0.16" d="M166.199 113.013C168.787 115.717 172.312 120.048 175.062 126.087C176.366 128.954 178.485 133.61 178.526 138.002C178.669 151.361 159.72 160.552 158.62 161.081C157.54 160.389 156.48 159.718 155.4 159.027C161.533 152.317 167.646 145.607 173.779 138.897C173.656 136.701 173.147 132.614 170.702 128.263C168.685 124.684 166.179 122.366 164.528 121.085C165.099 118.401 165.649 115.717 166.199 113.013Z" fill="#6D6C6C"/>
<path opacity="0.12" d="M173.982 138.958C173.677 140.727 173.167 142.659 172.373 144.651C168.787 153.679 161.533 158.62 157.866 160.735C156.99 160.166 156.134 159.596 155.258 159.027C161.493 152.337 167.727 145.648 173.982 138.958Z" fill="#6D6C6C"/>
<path d="M171.028 140.463H120.926V172.122H171.028V140.463Z" fill="white"/>
<path d="M171.232 172.325H120.723V140.259H171.232V172.325ZM121.13 171.918H170.825V140.666H121.13V171.918Z" fill="#161616"/>
<path d="M145.254 159.312C142.605 159.637 141.321 156.424 142.014 154.289C142.686 152.175 145.192 151.178 147.23 151.91C149.247 152.642 150.225 155.103 149.512 157.075C148.717 159.271 145.946 160.166 143.909 159.19C143.562 159.027 143.236 159.556 143.603 159.718C145.417 160.593 147.637 160.267 149.084 158.844C150.49 157.441 150.694 155.225 149.818 153.496C147.821 149.552 141.647 150.812 141.219 155.143C140.995 157.461 142.666 160.247 145.254 159.942C145.641 159.881 145.641 159.271 145.254 159.312Z" fill="#161616"/>
<path opacity="0.14" d="M139.733 140.381C146.518 142.74 151.143 148.779 151.285 155.265C151.469 163.399 144.623 171.044 135.291 171.817C147.17 171.918 159.048 172.02 170.947 172.122C170.907 161.508 170.886 150.894 170.845 140.3C160.475 140.3 150.104 140.341 139.733 140.381Z" fill="#6D6C6C"/>
<path opacity="0.26" d="M170.947 140.28C170.764 146.746 169.48 151.788 168.4 155.103C166.811 159.922 165.67 163.439 162.389 166.55C157.927 170.82 152.365 171.613 149.92 171.817C156.868 171.878 163.816 171.939 170.764 172.02C170.784 165.981 170.825 159.942 170.866 153.883C170.866 149.348 170.906 144.814 170.947 140.28Z" fill="#6D6C6C"/>
<path d="M144.498 92.1304C143.378 93.4927 144.458 95.1601 144.254 99.6131C144.152 101.829 143.785 103.619 143.5 104.818C144.458 105.266 146.149 105.896 148.329 105.957C151.018 106.018 153.056 105.184 154.054 104.696C153.606 103.802 153.015 102.419 152.648 100.63C151.732 96.0751 153.361 93.9401 152.017 92.2524C150.448 90.3004 146.006 90.2801 144.498 92.1304Z" fill="white"/>
<path d="M148.594 106.16C148.492 106.16 148.411 106.16 148.309 106.16C146.169 106.099 144.458 105.489 143.398 105.001L143.256 104.94L143.297 104.778C143.561 103.639 143.949 101.85 144.05 99.613C144.132 97.7627 143.989 96.4207 143.887 95.3227C143.745 93.8384 143.643 92.8624 144.336 92.0084C145.069 91.1137 146.495 90.5647 148.146 90.5647H148.166C149.898 90.5647 151.385 91.1544 152.16 92.1304C152.893 93.0657 152.812 94.0824 152.669 95.5057C152.547 96.807 152.384 98.4134 152.832 100.609C153.117 102.012 153.586 103.354 154.218 104.615L154.319 104.798L154.136 104.879C152.425 105.713 150.509 106.16 148.594 106.16ZM143.745 104.696C144.784 105.164 146.373 105.693 148.35 105.754C150.224 105.794 152.099 105.408 153.79 104.595C153.178 103.354 152.73 102.033 152.465 100.67C152.017 98.4337 152.18 96.7867 152.302 95.4447C152.425 94.0824 152.526 93.1674 151.874 92.3744C151.182 91.5 149.776 90.9714 148.187 90.9714H148.166C146.658 90.9714 145.314 91.4594 144.682 92.2524C144.091 92.9844 144.173 93.7977 144.315 95.2617C144.417 96.3597 144.56 97.722 144.478 99.613C144.356 101.789 144.01 103.537 143.745 104.696Z" fill="#161616"/>
<path d="M137.388 72.5697C136.105 75.8637 136.594 78.8324 136.879 80.1134C136.757 80.1337 134.373 80.6421 133.721 82.4721C133.069 84.3224 134.413 86.9454 137.225 87.7994C138.244 90.2801 140.709 95.0787 145.905 97.7017C146.781 98.1287 147.616 98.4744 148.452 98.7184C149.206 98.4337 150.224 97.9864 151.386 97.3154C155.013 95.2211 157.03 92.6184 157.498 91.9881C158.354 90.8494 159.515 89.0194 160.33 86.4981C160.779 86.5794 161.573 86.6201 162.348 86.2337C164.1 85.3391 164.976 82.5534 163.753 80.7437C162.735 79.2391 160.758 79.1781 160.514 79.1781C160.779 78.1207 161.594 74.3184 159.536 70.5567C157.172 66.2257 152.099 63.9484 147.331 64.5991C140.281 65.5141 137.51 72.2444 137.388 72.5697Z" fill="white"/>
<path d="M148.452 98.9421L148.391 98.9217C147.596 98.6981 146.781 98.3524 145.803 97.8847C140.974 95.4447 138.386 91.1747 137.062 87.9621C135.615 87.4944 134.434 86.5184 133.802 85.2781C133.313 84.3224 133.211 83.2651 133.517 82.3907C134.108 80.7437 136.002 80.1134 136.634 79.9507C136.104 77.3887 136.288 74.8064 137.184 72.4884C137.245 72.3461 139.996 65.3311 147.29 64.3957C152.282 63.7247 157.376 66.2054 159.699 70.4551C161.573 73.8711 161.105 77.4091 160.758 78.9747C161.39 79.0154 162.999 79.2797 163.916 80.6217C164.507 81.4961 164.67 82.6551 164.385 83.8141C164.079 84.9731 163.366 85.9491 162.449 86.4167C161.695 86.8031 160.941 86.7827 160.473 86.7217C159.821 88.6941 158.884 90.5037 157.661 92.1101C156.948 93.0657 154.931 95.5057 151.488 97.4984C150.51 98.0677 149.511 98.5557 148.533 98.9217L148.452 98.9421ZM148.961 64.7007C148.431 64.7007 147.902 64.7414 147.372 64.8024C140.261 65.7174 137.612 72.5697 137.592 72.6511C136.695 74.9487 136.532 77.5107 137.082 80.0727L137.123 80.2761L136.919 80.3167C136.899 80.3167 134.556 80.7844 133.924 82.5331C133.659 83.3057 133.761 84.2207 134.189 85.0951C134.78 86.2744 135.921 87.1691 137.286 87.5961L137.388 87.6164L137.429 87.6977C138.712 90.8494 141.259 95.0991 146.007 97.4984C146.923 97.9457 147.698 98.2507 148.452 98.4744C149.389 98.1084 150.347 97.6611 151.284 97.1121C154.646 95.1601 156.642 92.7811 157.335 91.8457C158.558 90.2191 159.495 88.3891 160.147 86.4167L160.208 86.2541L160.391 86.2947C160.697 86.3557 161.492 86.4371 162.286 86.0507C163.101 85.6441 163.753 84.7697 164.018 83.7124C164.283 82.6754 164.14 81.6384 163.611 80.8657C162.633 79.4017 160.616 79.3814 160.534 79.3814H160.269L160.33 79.1374C160.677 77.7547 161.288 74.1557 159.373 70.6584C157.356 66.9984 153.24 64.7007 148.961 64.7007Z" fill="#161616"/>
<path d="M144.234 97.5187C145.477 98.2507 146.842 99.3894 148.37 99.2674C149.633 99.1657 151.039 98.4337 151.997 97.661C152.302 97.417 151.874 96.99 151.569 97.234C150.672 97.9457 149.226 98.698 148.044 98.6777C146.801 98.6573 145.538 97.6203 144.519 96.99C144.213 96.7867 143.908 97.3153 144.234 97.5187Z" fill="#161616"/>
<path d="M144.153 97.783C145.314 98.7793 146.638 99.8977 148.268 99.8164C149.858 99.735 151.345 98.6777 152.384 97.539C152.649 97.2543 152.221 96.8273 151.956 97.112C151.06 98.088 149.797 99.0437 148.411 99.186C146.883 99.3283 145.66 98.2913 144.58 97.356C144.295 97.0917 143.867 97.5187 144.153 97.783Z" fill="#161616"/>
<path d="M144.927 97.905C144.927 97.8847 144.927 97.8847 144.927 97.905C144.805 97.722 144.581 97.6813 144.438 97.8237C144.438 97.8237 144.438 97.8237 144.418 97.844C144.296 97.9457 144.296 98.1693 144.418 98.271C146.659 100.406 150.775 101.097 152.384 97.8237C152.547 97.478 152.038 97.1527 151.855 97.5187C150.428 100.447 146.822 99.735 144.866 97.844C144.866 97.9863 144.866 98.1287 144.866 98.271C144.866 98.271 144.866 98.271 144.886 98.2507C144.723 98.2303 144.56 98.21 144.397 98.1897V98.21C144.601 98.5353 145.131 98.2303 144.927 97.905Z" fill="#161616"/>
<path d="M147.372 79.0967C147.107 82.3907 147.25 85.6644 147.78 88.9177C147.8 89.0804 148.004 89.182 148.146 89.121C148.941 88.8567 149.511 88.389 149.939 87.6774C150.143 87.3317 149.613 87.0267 149.41 87.3724C149.063 87.962 148.635 88.3077 147.983 88.5314C148.106 88.5924 148.228 88.6737 148.35 88.7347C147.82 85.5424 147.698 82.3094 147.963 79.0764C148.024 78.69 147.413 78.69 147.372 79.0967Z" fill="#161616"/>
<path d="M143.744 82.3297C143.785 82.5127 144.09 83.6513 143.744 83.8343C143.398 84.0173 142.42 83.2853 142.114 82.3297C141.869 81.5163 142.073 80.4997 142.46 80.4183C142.868 80.3167 143.499 81.435 143.744 82.3297Z" fill="#161616"/>
<path d="M143.622 83.9563C143.541 83.9563 143.439 83.936 143.337 83.8953C142.868 83.7123 142.257 83.1023 142.012 82.35C141.829 81.74 141.87 80.9877 142.114 80.5607C142.196 80.4183 142.298 80.3167 142.42 80.2963C142.95 80.1743 143.602 81.496 143.826 82.289L143.846 82.35C143.989 82.9397 144.131 83.7327 143.785 83.9157C143.744 83.9563 143.683 83.9563 143.622 83.9563ZM142.522 80.52C142.501 80.52 142.501 80.52 142.481 80.52C142.4 80.5403 142.338 80.6217 142.298 80.6827C142.114 81.008 142.033 81.6993 142.216 82.3093C142.42 82.9803 142.99 83.5497 143.418 83.7327C143.541 83.7733 143.642 83.7937 143.704 83.7733C143.785 83.7327 143.928 83.5293 143.663 82.4517L143.642 82.35C143.398 81.435 142.827 80.52 142.522 80.52Z" fill="#161616"/>
<path d="M154.258 82.3297C154.298 82.5127 154.604 83.6513 154.258 83.8343C153.911 84.0173 152.933 83.2853 152.628 82.3297C152.383 81.5163 152.587 80.4997 152.974 80.4183C153.382 80.3167 154.013 81.435 154.258 82.3297Z" fill="#161616"/>
<path d="M154.136 83.9564C154.054 83.9564 153.952 83.936 153.85 83.8954C153.382 83.7124 152.771 83.1024 152.526 82.35C152.343 81.74 152.383 80.9877 152.628 80.5607C152.709 80.4184 152.811 80.3167 152.934 80.2964C153.463 80.154 154.115 81.496 154.339 82.289L154.36 82.35C154.502 82.9397 154.645 83.7327 154.299 83.9157C154.258 83.9564 154.197 83.9564 154.136 83.9564ZM153.035 80.52C153.015 80.52 153.015 80.52 152.995 80.52C152.913 80.5404 152.852 80.6217 152.811 80.6827C152.628 81.008 152.546 81.6994 152.73 82.3094C152.934 82.9804 153.504 83.5497 153.932 83.7327C154.054 83.7734 154.156 83.7937 154.217 83.7734C154.299 83.7327 154.441 83.5294 154.176 82.4517L154.156 82.3907C153.912 81.435 153.341 80.52 153.035 80.52Z" fill="#161616"/>
<path d="M146.638 91.6017C149.123 92.659 151.385 91.1747 153.219 89.5683C153.524 89.304 153.076 88.877 152.791 89.1413C151.202 90.524 149.164 92.0083 146.964 91.073C146.576 90.9307 146.271 91.4593 146.638 91.6017Z" fill="#161616"/>
<path d="M153.81 85.5627C154.197 85.5627 154.197 84.9527 153.81 84.9527C153.423 84.9527 153.423 85.5627 153.81 85.5627Z" fill="#161616"/>
<path d="M156.072 84.424C156.093 84.4037 156.113 84.3834 156.133 84.363C156.256 84.241 156.256 84.058 156.133 83.936C156.011 83.814 155.828 83.814 155.706 83.936C155.685 83.9564 155.665 83.9767 155.644 83.997C155.522 84.119 155.522 84.302 155.644 84.424C155.767 84.546 155.95 84.546 156.072 84.424Z" fill="#161616"/>
<path d="M155.399 85.9083C155.42 85.9083 155.44 85.9083 155.46 85.9083C155.623 85.9083 155.766 85.766 155.766 85.6033C155.766 85.4407 155.623 85.2983 155.46 85.2983C155.44 85.2983 155.42 85.2983 155.399 85.2983C155.236 85.2983 155.094 85.4407 155.094 85.6033C155.094 85.766 155.216 85.9083 155.399 85.9083Z" fill="#161616"/>
<path d="M141.34 78.69C142.115 78.0394 143.256 78.019 144.03 78.6494C144.336 78.8934 144.763 78.4664 144.458 78.2224C143.398 77.3684 141.931 77.3684 140.892 78.263C140.607 78.507 141.055 78.934 141.34 78.69Z" fill="#161616"/>
<path d="M151.283 78.4664C152.159 77.6937 153.402 77.5514 154.441 78.1004C154.787 78.2834 155.093 77.7547 154.747 77.5717C153.463 76.8804 151.935 77.0634 150.855 78.0394C150.55 78.3037 150.977 78.7307 151.283 78.4664Z" fill="#161616"/>
<path d="M141.503 85.5017C141.89 85.5017 141.89 84.8917 141.503 84.8917C141.116 84.8917 141.116 85.5017 141.503 85.5017Z" fill="#161616"/>
<path d="M143.663 85.217C144.05 85.217 144.05 84.607 143.663 84.607C143.276 84.607 143.276 85.217 143.663 85.217Z" fill="#161616"/>
<path d="M142.584 85.6847C142.564 85.705 142.544 85.7254 142.523 85.7457C142.401 85.8677 142.401 86.0507 142.523 86.1727C142.646 86.2947 142.829 86.2947 142.951 86.1727C142.972 86.1524 142.992 86.132 143.012 86.1117C143.135 85.9897 143.135 85.8067 143.012 85.6847C142.89 85.5627 142.707 85.5627 142.584 85.6847Z" fill="#161616"/>
<path d="M140.709 65.9613C139.487 66.7137 136.818 68.3607 135.004 71.736C133.191 75.091 133.211 78.263 133.293 79.6254C130.318 84.973 128.973 89.6904 128.321 92.903C127.262 98.0067 127.832 99.8774 128.566 101.118C130.359 104.168 133.965 104.92 134.841 105.103C139.344 106.059 142.93 103.761 143.745 103.232C143.969 102.561 144.193 101.728 144.316 100.792C144.54 99.186 144.417 97.8034 144.234 96.807C143.215 95.9734 142.034 94.855 140.893 93.391C139.161 91.1544 138.183 88.9584 137.633 87.3724C135.84 87.1894 134.495 85.9694 134.373 84.607C134.25 83.326 135.147 81.679 136.329 81.679C137.205 81.679 137.836 82.5737 137.959 82.7364C138.631 82.35 139.568 81.679 140.404 80.6217C141.606 79.0967 141.809 77.7344 142.36 76.311C142.889 74.9283 143.908 73.017 146.109 71.0243C148.228 71.7767 149.919 72.5087 151.08 73.0577C154.809 74.786 156.928 75.8027 158.578 78.019C159.495 79.239 159.964 80.4387 160.208 81.191C162.103 79.7474 162.877 80.1337 163.04 80.215C164.242 80.886 164.202 84.5664 162.327 85.583C161.614 85.9694 160.799 85.8677 160.29 85.7457C159.699 87.7994 158.395 91.1544 155.4 94.123C154.401 95.1194 153.382 95.892 152.466 96.4817C152.384 97.234 152.343 98.271 152.547 99.491C152.73 100.609 153.056 101.524 153.362 102.175C158.313 105.428 164.466 104.839 167.808 101.341C170.783 98.21 170.783 93.4724 169.662 90.2394C168.643 87.291 166.667 85.522 165.689 84.7494C165.954 83.6107 167.421 76.86 163.162 70.6583C162.062 69.052 158.986 65.1683 153.444 63.8263C147.576 62.403 142.747 64.721 140.709 65.9613Z" fill="#5222D0"/>
<path opacity="0.17" d="M153.626 74.3184C155.929 77.2057 156.54 79.8694 156.744 81.252C157.579 87.0674 154.197 91.7847 152.485 94.2043C151.08 96.1767 149.633 97.5797 148.594 98.4947C149.49 100.894 150.366 103.273 151.263 105.672C152.18 105.367 153.097 105.062 154.014 104.757C153.586 104.005 153.137 103.07 152.791 101.931C152.159 99.8977 152.119 98.1083 152.18 96.8883C153.3 96.0954 154.604 95.0177 155.868 93.5943C158.394 90.7477 159.657 87.8197 160.309 85.8474C160.717 85.9287 161.593 86.0304 162.428 85.5627C164.181 84.5664 163.895 82.0857 163.875 81.923C163.814 81.3944 163.692 80.5404 163.08 80.1947C162.367 79.8084 161.186 80.1744 160.248 81.2724C159.963 80.276 159.148 77.9784 156.948 76.1484C155.725 75.1317 154.482 74.603 153.626 74.3184Z" fill="#6D6C6C"/>
<path opacity="0.19" d="M147.657 79.2797C147.535 79.2593 147.128 81.0283 145.885 88.8363C146.598 88.8363 147.311 88.8363 148.024 88.8363C147.882 87.7993 147.718 86.2947 147.637 84.4647C147.535 81.3333 147.78 79.3 147.657 79.2797Z" fill="#6D6C6C"/>
<path opacity="0.54" d="M165.566 84.9527C165.219 85.156 166.523 86.9047 166.34 89.5074C166.279 90.3207 166.157 92.171 164.69 93.4114C164.588 93.4927 162.408 95.282 160.248 94.1434C158.964 93.4724 158.19 92.049 158.231 90.5037C157.62 91.6424 156.621 93.147 155.052 94.611C154.074 95.526 153.117 96.197 152.281 96.7054C152.22 97.6 152.22 98.82 152.546 100.203C152.73 100.955 152.954 101.606 153.178 102.134C153.809 102.541 154.747 103.09 155.969 103.517C156.743 103.781 161.002 105.266 165.158 103.212C165.892 102.846 167.522 102.012 168.704 100.223C168.846 99.9994 169.376 99.2064 169.763 97.8644C171.149 93.269 169.111 89.121 168.928 88.7754C167.807 86.5184 165.994 84.7087 165.566 84.9527Z" fill="#341999"/>
<path opacity="0.35" d="M137.613 87.4537C137.429 87.474 137.837 89.1414 137.388 90.7884C137.062 92.0084 136.023 94.001 134.251 94.4077C132.397 94.8144 130.094 93.452 129.035 90.9104C128.546 92.0287 127.894 93.818 127.792 96.0954C127.731 97.5797 127.649 99.1657 128.383 100.731C130.033 104.229 134.882 105.591 138.489 105.266C140.893 105.042 142.706 104.107 143.684 103.476C143.929 102.785 144.173 101.951 144.336 100.996C144.601 99.3487 144.54 97.905 144.398 96.8477C142.788 95.6887 141.688 94.489 140.995 93.6147C140.017 92.3744 138.693 90.707 138.02 88.389C137.918 88.1247 137.735 87.4334 137.613 87.4537Z" fill="#341999"/>
</svg>
