<svg width="28" height="28" viewBox="0 0 28 28" fill="none" xmlns="http://www.w3.org/2000/svg">
<path d="M25.6663 6.67325L20.2997 2.16992L18.7947 3.95492L24.1613 8.45825L25.6663 6.67325ZM9.19301 3.95492L7.69967 2.16992L2.33301 6.66159L3.83801 8.44659L9.19301 3.95492ZM14.583 9.33325H12.833V16.3333L18.3747 19.6583L19.2497 18.2233L14.583 15.4583V9.33325ZM13.9997 4.66659C8.20134 4.66659 3.49967 9.36826 3.49967 15.1666C3.49967 20.9649 8.18967 25.6666 13.9997 25.6666C19.798 25.6666 24.4997 20.9649 24.4997 15.1666C24.4997 9.36826 19.798 4.66659 13.9997 4.66659ZM13.9997 23.3333C9.48467 23.3333 5.83301 19.6816 5.83301 15.1666C5.83301 10.6516 9.48467 6.99992 13.9997 6.99992C18.5147 6.99992 22.1663 10.6516 22.1663 15.1666C22.1663 19.6816 18.5147 23.3333 13.9997 23.3333Z" fill="#9A9A9A"/>
</svg>
