<svg width="168" height="168" viewBox="0 0 168 168" fill="none" xmlns="http://www.w3.org/2000/svg">
<g clip-path="url(#clip0_2_3658)">
<path fill-rule="evenodd" clip-rule="evenodd" d="M92.2289 78.3231C92.4236 74.7902 91.9974 71.9135 91.5283 69.7221C86.9599 48.7829 67.0848 43.6632 48.3731 44.8262C43.3593 45.1351 35.7779 47.3039 30.9435 51.3658C27.5453 54.2186 25.4776 57.9806 26.319 62.6342C27.2173 67.7107 31.3693 71.839 36.7751 74.9557C44.5903 79.4696 55.008 81.8978 61.1631 82.3554C68.2628 82.8812 79.3003 82.5103 90.0033 80.7438C89.4932 84.5379 88.2446 88.9878 85.6399 94.063C84.4903 96.3229 82.5988 98.5873 80.28 100.7C76.7674 97.4636 72.4581 94.777 67.4306 92.855C63.2021 91.2452 53.6916 89.5319 46.2397 90.6644C40.921 91.477 36.6694 93.762 35.5966 98.2109C34.2724 103.738 36.8241 107.504 40.9745 109.917C46.8169 113.317 55.9388 113.914 60.8944 113.072C66.6594 112.089 74.33 108.238 80.1706 103.397C91.4638 114.957 92.8804 132.897 81.5555 147.192C81.2232 147.621 81.2967 148.249 81.7171 148.596C82.1549 148.937 82.7922 148.861 83.1245 148.432C95.1037 133.305 93.635 114.314 81.6994 102.066C84.1619 99.8118 86.1907 97.3876 87.421 94.9739C90.2866 89.3814 91.5933 84.5022 92.0638 80.386C94.0631 80.0209 96.0435 79.6039 97.9833 79.1294C106.696 77.0037 114.407 73.744 118.582 69.1633C128.231 58.5794 127.036 45.0422 120.374 33.8384C113.771 22.7441 101.82 13.9838 90.0331 12.7344C89.4836 12.6765 88.9846 13.0775 88.9305 13.6248C88.8764 14.1723 89.2722 14.666 89.8217 14.7237C101.038 15.9122 112.383 24.2991 118.654 34.8602C124.864 45.3119 126.101 57.9447 117.109 67.8136C113.126 72.169 105.789 75.1653 97.5076 77.187C95.7831 77.6081 94.0224 77.9838 92.2289 78.3231ZM78.7505 102.029C75.4403 99.0245 71.4129 96.5199 66.7067 94.7276C62.6824 93.1944 53.6501 91.5583 46.5334 92.6443C42.1224 93.3169 38.4277 94.985 37.5472 98.6757C36.4566 103.183 38.6051 106.221 41.9856 108.187C47.4138 111.365 55.9401 111.885 60.5637 111.099C65.98 110.178 73.2312 106.572 78.7505 102.029ZM90.208 78.6828C90.4459 75.161 90.0283 72.3078 89.5714 70.1494C85.2433 50.295 66.2333 45.7215 48.4968 46.8224C43.8268 47.1081 36.7497 49.1046 32.228 52.8979C29.4003 55.2778 27.5853 58.3932 28.2848 62.2843C29.088 66.8336 32.9284 70.4312 37.7665 73.226C45.3087 77.5822 55.3789 79.9165 61.3137 80.3602C68.4135 80.8863 79.5052 80.5032 90.208 78.6828Z" fill="#ED8369"/>
<path fill-rule="evenodd" clip-rule="evenodd" d="M82.8321 147.033C82.8502 146.012 82.8913 143.076 82.8854 142.632C82.861 141.389 82.6733 140.768 82.4115 140.16C82.1946 139.674 81.9035 139.199 81.6118 138.241C81.4569 137.711 80.8817 137.422 80.3545 137.586C79.8273 137.749 79.5423 138.308 79.6972 138.838C79.9739 139.701 80.2234 140.223 80.4481 140.677C80.6994 141.203 80.872 141.621 80.8844 142.671C80.8951 143.182 80.6456 146.03 80.7941 147.346C80.8693 148.033 81.1285 148.474 81.3251 148.637C81.6062 148.87 82.0193 149.036 82.5726 149.051C83.2829 149.067 84.3701 148.83 85.5939 148.592C86.7437 148.365 88.0485 148.134 89.2864 148.202C90.3272 148.265 91.3109 148.547 92.0353 149.35C92.4013 149.762 93.0234 149.805 93.4372 149.438C93.851 149.072 93.8924 148.436 93.5264 148.024C92.4526 146.801 90.9785 146.301 89.3986 146.208C87.9992 146.127 86.5219 146.368 85.2087 146.629C84.423 146.781 83.6992 146.942 83.1193 147.016C83.0261 147.028 82.9291 147.03 82.8321 147.033Z" fill="#ED8369"/>
</g>
<defs>
<clipPath id="clip0_2_3658">
<rect width="130" height="130" fill="white" transform="translate(0.658325 45.3212) rotate(-20.0939)"/>
</clipPath>
</defs>
</svg>
