<?xml version="1.0" encoding="UTF-8" standalone="no"?>
<svg
   xmlns:dc="http://purl.org/dc/elements/1.1/"
   xmlns:cc="http://creativecommons.org/ns#"
   xmlns:rdf="http://www.w3.org/1999/02/22-rdf-syntax-ns#"
   xmlns:svg="http://www.w3.org/2000/svg"
   xmlns="http://www.w3.org/2000/svg"
   xmlns:sodipodi="http://sodipodi.sourceforge.net/DTD/sodipodi-0.dtd"
   xmlns:inkscape="http://www.inkscape.org/namespaces/inkscape"
   version="1.1"
   id="svg2"
   xml:space="preserve"
   width="589.58667"
   height="450"
   viewBox="0 0 589.58667 450"
   sodipodi:docname="404.eps"><metadata
     id="metadata8"><rdf:RDF><cc:Work
         rdf:about=""><dc:format>image/svg+xml</dc:format><dc:type
           rdf:resource="http://purl.org/dc/dcmitype/StillImage" /></cc:Work></rdf:RDF></metadata><defs
     id="defs6"><clipPath
       clipPathUnits="userSpaceOnUse"
       id="clipPath20"><path
         d="m 4383.07,2284.31 c -61.1,137.01 -177.64,261.66 -225.19,408.93 -80.75,250.12 48.38,525.6 -3.75,783.82 -45.64,226.12 -243,409.33 -458.65,425.8 -179.29,13.68 -349.26,-75.61 -527.15,-98.69 -298.44,-38.73 -590.08,109.4 -887.88,162.71 -268.08,47.98 -546.98,17.48 -798.2,-87.31 -163.41,-68.16 -330.68,-191.16 -354.55,-377.32 -18.3,-142.69 53.45,-291.14 18.4,-429.94 -26.34,-104.34 -109.31,-181.83 -199.662,-229.97 -90.364,-48.14 -190.129,-72.8 -284.836,-110.55 -202.95,-80.92 -388.145,-230.77 -479.403,-440.31 -91.2693,-209.55 -72.297,-481.36 76.856,-653.22 71.218,-82.06 165.371,-136.82 244.375,-210.31 102.625,-95.5 100.496,-250.13 161.082,-370.62 62.441,-124.189 174.902,-205.9 288.039,-271.549 141.419,-82.07 305.479,-120.699 464.549,-100.562 227.36,28.801 433.14,163.863 661.21,186.511 231.18,22.95 457.94,-71.25 683.87,-133.75 249.8,-69.109 514.04,-100.05 763.33,-37 249.28,63.04 482.18,230.379 589.5,478 80.1,184.79 86.68,399.81 169.77,583.05 49.84,109.93 127.66,210.86 136.28,333.24 4.72,67.29 -11.37,129.34 -37.99,189.04 z"
         id="path18" /></clipPath><linearGradient
       x1="0"
       y1="0"
       x2="1"
       y2="0"
       gradientUnits="userSpaceOnUse"
       gradientTransform="matrix(0,3101.31,3101.31,0,2274.37,1172.6)"
       spreadMethod="pad"
       id="linearGradient30"><stop
         style="stop-opacity:1;stop-color:#cfdcf2"
         offset="0"
         id="stop22" /><stop
         style="stop-opacity:1;stop-color:#cfdcf2"
         offset="0.00196314"
         id="stop24" /><stop
         style="stop-opacity:1;stop-color:#eeefed"
         offset="0.996755"
         id="stop26" /><stop
         style="stop-opacity:1;stop-color:#eeefed"
         offset="1"
         id="stop28" /></linearGradient><clipPath
       clipPathUnits="userSpaceOnUse"
       id="clipPath40"><path
         d="m 3593.87,3125.79 c -115.78,44.05 -11.4,95.57 61.28,116.13 58.79,16.63 206,43.75 146.26,144.1 -62.59,105.11 -122.54,-24.72 -172.33,-39.37 -111.28,-32.76 4.52,106.82 32.16,144.04 37.86,50.99 117.52,155.17 19.16,172.52 -79.55,14.04 -161.94,-96.79 -194.94,-152.03 -23.53,-39.39 -81.37,-223.85 -141.58,-182.95 -45.59,30.96 1.57,215.65 -107.25,83.64 -44.24,-53.68 -37.11,-139.93 -57.05,-201.32 -29.22,-89.94 -41.53,-127.22 -121.37,-104.12 -41.36,11.96 -42.7,63.88 -93.76,28.82 -26.29,-18.06 -34.08,-101.16 -33.85,-130.02 2.05,-265.09 108.04,-442.63 158.04,-465.52 67.69,-30.99 193.48,13.77 251.36,47.02 28.78,16.53 81.27,43.85 77.58,85.75 -4.15,47.03 -76.76,40.27 -79.45,67.88 -7.64,78.33 136.45,3.5 176.35,14.67 51.67,14.46 137.27,106.78 83.06,155.62 -5.57,5.01 -230.79,21.32 -101.95,93.03 71.32,39.7 147.83,-70.45 216.65,7.75 99.03,112.54 -74.95,97.85 -118.37,114.36 z"
         id="path38" /></clipPath><linearGradient
       x1="0"
       y1="0"
       x2="1"
       y2="0"
       gradientUnits="userSpaceOnUse"
       gradientTransform="matrix(884.815,0,0,-884.815,2930.59,3096.85)"
       spreadMethod="pad"
       id="linearGradient46"><stop
         style="stop-opacity:1;stop-color:#f8a028"
         offset="0"
         id="stop42" /><stop
         style="stop-opacity:1;stop-color:#f4f01e"
         offset="1"
         id="stop44" /></linearGradient><clipPath
       clipPathUnits="userSpaceOnUse"
       id="clipPath58"><path
         d="m 2883.54,1968.07 c 67.51,72.37 125.18,149.47 196.68,216.58 -61.79,97.89 -85.99,281.56 -70.27,300.77 35.3,43.14 79.87,-24.08 88.66,-56.78 15.91,-59.18 7.35,-183 -2.97,-229.88 8.49,7.57 17.11,15.03 26.06,22.28 19.61,15.91 39.22,31.91 58.83,47.89 -18.26,34.68 -60.9,106.55 -37.16,223.51 3.98,19.61 11.07,45.34 31.98,52.94 29.02,10.55 31.16,-21.98 31.95,-42.56 1.33,-35.31 -2.41,-156.47 -0.97,-212.87 39.25,32.02 78.55,64.02 117.98,95.8 -22.14,72.58 -48.61,160.66 -16.12,234.41 21.25,48.24 59.23,8.04 67.67,-23.85 15.12,-57.12 3.95,-124.08 -16.4,-182.38 18.66,14.91 37.32,29.83 56.07,44.56 3.34,2.63 6.76,5.2 10.12,7.81 -13.94,34.7 -31.07,66.68 -32.42,105.39 -1.33,38.12 15.29,72.83 39.8,101.15 10.81,12.48 22.2,29.13 40.27,31.24 25.38,2.95 14.74,-24.18 9.96,-40.73 -10.13,-35.21 -18.45,-71.65 -24.69,-107.6 -3.43,-19.85 -7.27,-38.35 -12.33,-57.23 -1.3,-4.87 -2.09,-11.63 -2.88,-18.56 26.9,20.58 54.24,40.73 82.02,60.36 -1.73,64.06 -3.37,141.56 39.58,194.24 28.19,34.56 50.11,-6.76 49.83,-34.67 -0.45,-43.28 -18.64,-88.16 -42.78,-127.33 12.27,8.28 24.59,16.48 36.99,24.56 21.06,72.08 46.09,161.68 113.2,204.68 42.7,27.36 51.91,-26.14 41.78,-56.63 -10.01,-30.1 -28.05,-58.22 -50.14,-83.45 5.89,3.43 11.74,6.95 17.64,10.33 13.86,7.95 27.92,15.3 42.12,22.21 9.52,63.56 21.29,140.67 73.04,185.26 33.78,29.1 48.16,-15.42 43,-42.85 -8.19,-43.54 -34.96,-85.48 -66.52,-120.31 22.19,9.17 44.65,17.57 67.28,25.57 15.66,50.08 34.95,110.51 82.19,139.92 30.99,19.29 37.02,-18.54 29.38,-40.08 -11.06,-31.25 -34.53,-59.48 -61.33,-82.58 24.9,8.36 49.88,16.64 74.78,25.32 14.42,18.76 31.06,37.43 45.89,53.34 17.53,18.8 39.92,37.01 67.44,34.66 36.28,-3.1 43.39,-28.75 23.05,-57.04 -9.29,-12.93 -21.7,-21.49 -35.69,-27.63 14.12,-2.64 27.22,-8.02 35.94,-16.16 23.86,-22.3 1.99,-43.87 -23.9,-48.83 -28.83,-5.52 -58.53,5.36 -86.49,10.83 -20.71,4.04 -42.62,2.01 -63.37,3.91 -16.53,-5.57 -33.05,-11.1 -49.49,-16.75 42.93,2.69 90.08,-2.43 125.55,-23.42 19.65,-11.64 39.29,-44.53 3.13,-49.6 -58.01,-8.13 -114.33,30.01 -159.71,59.14 l -0.51,2.81 c -46.26,-16.56 -91.87,-34.85 -136.01,-58.27 14.82,0.02 29.36,-1.48 43.18,-4.96 25.22,-6.36 57.25,-35.92 19.43,-53.11 -48.57,-22.08 -105.5,-11.44 -156.51,2.46 -45.9,-28.73 -91.04,-58.99 -135.16,-90.5 48.13,16.89 102.92,26.14 150.06,14.25 27.03,-6.81 61.36,-38.5 20.82,-56.94 -65.05,-29.57 -144.12,-4.43 -207.29,13.95 l -0.83,1.65 c -20.48,-15.16 -40.76,-30.52 -60.71,-46.19 -9.65,-7.58 -19.14,-15.37 -28.71,-23.04 65.85,24.74 140.35,39.76 203.43,26.44 36.12,-7.63 80.85,-47.66 25.23,-73.98 -88.9,-42.08 -193.84,-13.29 -277.94,7.74 -27.39,-22.45 -54.72,-44.96 -82.08,-67.45 65.31,2.29 200.51,15.11 244.45,15.64 20.56,0.23 68.76,-4.64 57.2,-37.72 -6.42,-18.34 -43.6,-33.88 -61.5,-38.14 -39.88,-9.5 -186.56,4.1 -282.43,25.67 -19.52,-15.79 -39.09,-31.51 -58.92,-46.95 -7.34,-5.72 -14.49,-11.54 -21.54,-17.43 96.41,11.87 286.04,22.44 331.7,7.4 23.22,-7.64 59.23,-26.07 53.47,-55.66 -5.96,-30.66 -52.9,-28.88 -76.97,-33.82 -55.47,-11.4 -231.1,18.45 -262.76,28.62 -24.51,7.87 -48.27,21.36 -71.92,30.41 -15.65,-14.14 -30.71,-28.65 -45.32,-43.46 75.83,-15.65 249.25,-39.27 303.51,-51.32 24.66,-5.5 81,-24.89 57.86,-61.24 -12.84,-20.13 -61.72,-28.29 -84.33,-28.36 -47.86,-0.16 -205.1,51.69 -313.92,102.1 -45,-48.91 -87.51,-99.96 -134.35,-150.18 -14.16,-15.19 -39.07,5.44 -24.86,20.69 z"
         id="path56" /></clipPath><linearGradient
       x1="0"
       y1="0"
       x2="1"
       y2="0"
       gradientUnits="userSpaceOnUse"
       gradientTransform="matrix(1283.72,0,0,-1283.72,2879.3,2415.54)"
       spreadMethod="pad"
       id="linearGradient66"><stop
         style="stop-opacity:1;stop-color:#3790a2"
         offset="0"
         id="stop60" /><stop
         style="stop-opacity:1;stop-color:#3790a2"
         offset="0.004527"
         id="stop62" /><stop
         style="stop-opacity:1;stop-color:#6bcedf"
         offset="1"
         id="stop64" /></linearGradient><clipPath
       clipPathUnits="userSpaceOnUse"
       id="clipPath76"><path
         d="m 958.625,3211.56 c 115.785,44.05 11.395,95.57 -61.281,116.13 -58.789,16.63 -206.016,43.75 -146.258,144.1 62.578,105.11 122.539,-24.72 172.324,-39.37 111.28,-32.76 -4.523,106.82 -32.16,144.04 -37.871,50.99 -117.52,155.17 -19.16,172.53 79.551,14.04 161.93,-96.8 194.94,-152.04 23.53,-39.39 81.37,-223.84 141.58,-182.95 45.59,30.96 -1.57,215.65 107.24,83.64 44.25,-53.68 37.11,-139.93 57.06,-201.32 29.22,-89.94 41.53,-127.21 121.36,-104.12 41.38,11.96 42.71,63.88 93.77,28.82 26.29,-18.06 34.08,-101.16 33.86,-130.02 -2.06,-265.09 -108.05,-442.63 -158.05,-465.52 -67.69,-30.99 -193.48,13.77 -251.36,47.02 -28.78,16.53 -81.28,43.85 -77.58,85.76 4.15,47.02 76.76,40.26 79.46,67.88 7.63,78.32 -136.46,3.49 -176.36,14.66 -51.67,14.46 -137.268,106.78 -83.057,155.62 5.567,5.01 230.787,21.32 101.957,93.03 -71.344,39.7 -147.836,-70.45 -216.656,7.75 -99.031,112.55 74.953,97.85 118.371,114.36 z"
         id="path74" /></clipPath><linearGradient
       x1="0"
       y1="0"
       x2="1"
       y2="0"
       gradientUnits="userSpaceOnUse"
       gradientTransform="matrix(-606.667,1093.33,1093.33,606.667,1436.07,2758.01)"
       spreadMethod="pad"
       id="linearGradient82"><stop
         style="stop-opacity:1;stop-color:#f8a028"
         offset="0"
         id="stop78" /><stop
         style="stop-opacity:1;stop-color:#f4f01e"
         offset="1"
         id="stop80" /></linearGradient><clipPath
       clipPathUnits="userSpaceOnUse"
       id="clipPath94"><path
         d="m 1668.96,2053.84 c -67.51,72.37 -125.19,149.47 -196.68,216.58 61.78,97.89 85.98,281.57 70.26,300.77 -35.31,43.14 -79.87,-24.08 -88.66,-56.78 -15.91,-59.18 -7.35,-183 2.98,-229.88 -8.5,7.56 -17.12,15.03 -26.07,22.29 -19.62,15.91 -39.22,31.9 -58.83,47.89 18.27,34.67 60.9,106.54 37.16,223.5 -3.98,19.61 -11.07,45.34 -31.98,52.94 -29.02,10.55 -31.16,-21.98 -31.94,-42.56 -1.34,-35.31 2.4,-156.47 0.96,-212.86 -39.25,32.01 -78.55,64.01 -117.99,95.79 22.14,72.58 48.62,160.67 16.12,234.41 -21.24,48.24 -59.22,8.04 -67.66,-23.85 -15.12,-57.12 -3.94,-124.08 16.4,-182.38 -18.66,14.91 -37.32,29.83 -56.07,44.56 -3.34,2.63 -6.75,5.2 -10.12,7.81 13.94,34.71 31.06,66.68 32.42,105.39 1.34,38.12 -15.28,72.84 -39.8,101.15 -10.81,12.48 -22.19,29.13 -40.27,31.24 -25.38,2.96 -14.74,-24.18 -9.96,-40.73 10.14,-35.21 18.46,-71.65 24.69,-107.6 3.43,-19.85 7.27,-38.35 12.33,-57.22 1.3,-4.88 2.09,-11.64 2.88,-18.57 -26.9,20.58 -54.25,40.73 -82.02,60.36 1.73,64.06 3.37,141.56 -39.59,194.25 -28.172,34.55 -50.098,-6.77 -49.813,-34.68 0.449,-43.28 18.633,-88.16 42.773,-127.33 -12.265,8.28 -24.589,16.48 -36.992,24.56 -21.054,72.08 -46.086,161.68 -113.203,204.68 -42.695,27.37 -51.914,-26.14 -41.769,-56.62 10.011,-30.11 28.047,-58.23 50.136,-83.46 -5.886,3.44 -11.738,6.95 -17.644,10.34 -13.86,7.94 -27.922,15.29 -42.121,22.2 -9.512,63.56 -21.289,140.67 -73.035,185.26 -33.782,29.1 -48.157,-15.41 -43,-42.84 8.195,-43.55 34.961,-85.49 66.523,-120.32 -22.195,9.17 -44.656,17.58 -67.285,25.58 -15.652,50.07 -34.949,110.51 -82.188,139.91 -30.996,19.29 -37.019,-18.53 -29.394,-40.08 11.074,-31.25 34.543,-59.47 61.347,-82.58 -24.91,8.36 -49.882,16.64 -74.792,25.32 -14.415,18.76 -31.047,37.43 -45.879,53.34 -17.532,18.8 -39.922,37.01 -67.442,34.66 -36.281,-3.1 -43.39,-28.75 -23.058,-57.04 9.296,-12.93 21.711,-21.49 35.683,-27.63 -14.101,-2.64 -27.207,-8.01 -35.926,-16.16 -23.859,-22.3 -2.003,-43.87 23.907,-48.82 28.828,-5.53 58.523,5.35 86.484,10.82 20.711,4.04 42.617,2.01 63.367,3.91 16.535,-5.56 33.047,-11.1 49.492,-16.75 -42.929,2.69 -90.078,-2.42 -125.546,-23.42 -19.668,-11.64 -39.297,-44.53 -3.133,-49.6 58.008,-8.13 114.324,30.01 159.707,59.14 l 0.515,2.81 c 46.262,-16.56 91.868,-34.85 136.008,-58.27 -14.824,0.02 -29.367,-1.48 -43.183,-4.96 -25.215,-6.36 -57.246,-35.91 -19.426,-53.11 48.566,-22.08 105.5,-11.44 156.504,2.46 45.91,-28.73 91.047,-58.99 135.163,-90.5 -48.132,16.89 -102.917,26.14 -150.054,14.25 -27.031,-6.81 -61.379,-38.5 -20.832,-56.93 65.059,-29.58 144.133,-4.44 207.296,13.94 l 0.83,1.66 c 20.48,-15.17 40.76,-30.53 60.71,-46.2 9.65,-7.58 19.13,-15.37 28.71,-23.04 -65.86,24.74 -140.35,39.76 -203.433,26.44 -36.113,-7.63 -80.839,-47.66 -25.234,-73.98 88.907,-42.08 193.837,-13.29 277.947,7.74 27.39,-22.44 54.72,-44.96 82.07,-67.44 -65.31,2.28 -200.5,15.1 -244.44,15.63 -20.56,0.24 -68.761,-4.64 -57.198,-37.72 6.426,-18.33 43.598,-33.89 61.488,-38.14 39.89,-9.51 186.57,4.11 282.45,25.68 19.51,-15.8 39.08,-31.52 58.91,-46.96 7.35,-5.72 14.49,-11.54 21.55,-17.42 -96.42,11.87 -286.05,22.43 -331.71,7.39 -23.23,-7.65 -59.23,-26.07 -53.47,-55.66 5.97,-30.66 52.9,-28.88 76.97,-33.82 55.47,-11.4 231.11,18.45 262.77,28.62 24.5,7.87 48.25,21.36 71.91,30.41 15.65,-14.14 30.71,-28.65 45.32,-43.46 -75.83,-15.65 -249.25,-39.27 -303.5,-51.32 -24.67,-5.5 -81.01,-24.88 -57.87,-61.24 12.84,-20.13 61.72,-28.29 84.33,-28.36 47.86,-0.16 205.1,51.69 313.92,102.1 45,-48.91 87.51,-99.96 134.35,-150.18 14.16,-15.19 39.07,5.44 24.87,20.69 z"
         id="path92" /></clipPath><linearGradient
       x1="0"
       y1="0"
       x2="1"
       y2="0"
       gradientUnits="userSpaceOnUse"
       gradientTransform="matrix(1283.72,0,0,-1283.72,389.474,2501.31)"
       spreadMethod="pad"
       id="linearGradient102"><stop
         style="stop-opacity:1;stop-color:#3790a2"
         offset="0"
         id="stop96" /><stop
         style="stop-opacity:1;stop-color:#3790a2"
         offset="0.004527"
         id="stop98" /><stop
         style="stop-opacity:1;stop-color:#6bcedf"
         offset="1"
         id="stop100" /></linearGradient><clipPath
       clipPathUnits="userSpaceOnUse"
       id="clipPath112"><path
         d="m 3205.31,2054.29 c 0,-183.25 -104.6,-349.29 -274.09,-470.63 -14.07,-10 -28.46,-19.85 -43.47,-29.24 -8.75,-5.47 -17.51,-10.78 -26.58,-15.94 -2.81,-1.88 -5.62,-3.44 -8.59,-5.16 -16.57,-9.54 -33.46,-18.6 -50.98,-27.21 -13.12,-6.56 -26.57,-12.82 -40.17,-18.76 -20.02,-9.07 -40.5,-17.51 -61.46,-25.33 -32.21,-12.35 -65.66,-23.3 -100.21,-32.68 -3.45,-1.09 -7.04,-2.03 -10.48,-2.96 -38.31,-10.33 -77.86,-18.93 -118.52,-25.49 -30.95,-5.31 -62.69,-9.39 -94.74,-12.51 -20.8,-1.88 -41.75,-3.44 -62.86,-4.22 -2.97,-0.16 -5.79,-0.31 -8.75,-0.47 -18.62,-0.94 -37.38,-1.25 -56.29,-1.25 h -11.26 c -523.31,4.22 -945.79,303.32 -945.79,671.85 0,370.86 428.57,671.53 957.05,671.53 528.63,0 957.19,-300.67 957.19,-671.53 z"
         id="path110" /></clipPath><linearGradient
       x1="0"
       y1="0"
       x2="1"
       y2="0"
       gradientUnits="userSpaceOnUse"
       gradientTransform="matrix(985,1240,1240,-985,1600.97,1239.48)"
       spreadMethod="pad"
       id="linearGradient120"><stop
         style="stop-opacity:1;stop-color:#4654ad"
         offset="0"
         id="stop114" /><stop
         style="stop-opacity:1;stop-color:#4654ad"
         offset="0.00194311"
         id="stop116" /><stop
         style="stop-opacity:1;stop-color:#98bde7"
         offset="1"
         id="stop118" /></linearGradient><clipPath
       clipPathUnits="userSpaceOnUse"
       id="clipPath130"><path
         d="m 2879.3,2054.24 c 0,-120.83 -68.98,-230.33 -180.73,-310.33 -9.28,-6.6 -18.76,-13.09 -28.66,-19.27 -5.78,-3.62 -11.55,-7.12 -17.53,-10.52 -1.85,-1.24 -3.71,-2.27 -5.67,-3.41 -10.93,-6.28 -22.06,-12.26 -33.6,-17.93 -8.67,-4.33 -17.53,-8.46 -26.51,-12.37 -13.19,-5.99 -26.7,-11.55 -40.51,-16.71 -21.24,-8.14 -43.3,-15.36 -66.08,-21.54 -2.27,-0.73 -4.65,-1.34 -6.91,-1.97 -25.26,-6.79 -51.34,-12.47 -78.15,-16.79 -20.41,-3.51 -41.34,-6.19 -62.48,-8.25 -13.71,-1.25 -27.52,-2.27 -41.44,-2.79 -1.96,-0.1 -3.81,-0.2 -5.78,-0.31 -12.26,-0.62 -24.63,-0.82 -37.1,-0.82 h -7.43 c -345.06,2.78 -623.63,200.01 -623.63,443.01 0,244.54 282.59,442.79 631.06,442.79 348.56,0 631.15,-198.25 631.15,-442.79 z"
         id="path128" /></clipPath><linearGradient
       x1="0"
       y1="0"
       x2="1"
       y2="0"
       gradientUnits="userSpaceOnUse"
       gradientTransform="matrix(1295,1820,1820,-1295,2207.75,1997.38)"
       spreadMethod="pad"
       id="linearGradient138"><stop
         style="stop-opacity:1;stop-color:#4654ad"
         offset="0"
         id="stop132" /><stop
         style="stop-opacity:1;stop-color:#4654ad"
         offset="0.00194311"
         id="stop134" /><stop
         style="stop-opacity:1;stop-color:#98bde7"
         offset="1"
         id="stop136" /></linearGradient><clipPath
       clipPathUnits="userSpaceOnUse"
       id="clipPath162"><path
         d="m 2895.37,2068.84 c -28.67,-121.45 -70.31,-237.91 -184.23,-320.55 -9.46,-6.82 -19.13,-13.53 -29.22,-19.91 -5.87,-3.73 -11.76,-7.36 -17.86,-10.87 -1.89,-1.28 -3.79,-2.35 -5.78,-3.52 -11.14,-6.49 -22.49,-12.66 -34.26,-18.52 -8.82,-4.48 -17.87,-8.73 -27.01,-12.79 -13.45,-6.17 -27.21,-11.92 -41.3,-17.24 -21.65,-8.42 -44.14,-15.87 -67.37,-22.27 -2.3,-0.74 -4.73,-1.37 -7.04,-2.02 -25.74,-7.02 -52.33,-12.88 -79.66,-17.35 -20.81,-3.63 -42.14,-6.4 -63.68,-8.53 -13.98,-1.27 -28.07,-2.34 -42.25,-2.87 -2,-0.11 -3.89,-0.21 -5.89,-0.32 -12.5,-0.64 -25.11,-0.85 -37.83,-0.85 h -7.57 c -351.74,2.87 -621.49,207.01 -635.71,457.61 -31.63,557.63 343.91,958.82 699.12,958.82 355.32,0 723.3,-383.74 587.54,-958.82 z"
         id="path160" /></clipPath><clipPath
       clipPathUnits="userSpaceOnUse"
       id="clipPath172"><path
         d="m 2895.37,2068.84 c -28.67,-121.45 -70.31,-237.91 -184.23,-320.55 -9.46,-6.82 -19.13,-13.53 -29.22,-19.91 -5.87,-3.73 -11.76,-7.36 -17.86,-10.87 -1.89,-1.28 -3.79,-2.35 -5.78,-3.52 -11.14,-6.49 -22.49,-12.66 -34.26,-18.52 -8.82,-4.48 -17.87,-8.73 -27.01,-12.79 -13.45,-6.17 -27.21,-11.92 -41.3,-17.24 -21.65,-8.42 -44.14,-15.87 -67.37,-22.27 -2.3,-0.74 -4.73,-1.37 -7.04,-2.02 -25.74,-7.02 -52.33,-12.88 -79.66,-17.35 -20.81,-3.63 -42.14,-6.4 -63.68,-8.53 -13.98,-1.27 -28.07,-2.34 -42.25,-2.87 -2,-0.11 -3.89,-0.21 -5.89,-0.32 -12.5,-0.64 -25.11,-0.85 -37.83,-0.85 h -7.57 c -351.74,2.87 -621.49,207.01 -635.71,457.61 -31.63,557.63 343.91,958.82 699.12,958.82 355.32,0 723.3,-383.74 587.54,-958.82 z"
         id="path170" /></clipPath><clipPath
       clipPathUnits="userSpaceOnUse"
       id="clipPath178"><path
         d="m 2534.74,1899.67 h 0.01 c -0.02,0.02 -0.03,0.04 -0.05,0.06 -8.38,11.84 -16.44,22.17 -23.78,31 -17.04,26.21 -25.68,52.6 -21.09,79.28 l -233.49,1.35 -111.22,15.63 c 1.39,-5 2.71,-10.01 4.08,-15.02 h -0.14 c 0,0 -8.66,-59.14 44.85,-189.45 70.43,-355.81 69.09,-722.71 14.46,-1110.649 l 76.66,-2.371 c 97.06,420.34 102.24,795.68 69.9,1149.35 l 4.42,1 c 213.21,-225.05 130.88,-450.71 1.49,-703.15 l 60.62,-49.6 c 318.01,390.33 199.69,670.36 113.28,792.57 z"
         id="path176" /></clipPath><linearGradient
       x1="0"
       y1="0"
       x2="1"
       y2="0"
       gradientUnits="userSpaceOnUse"
       gradientTransform="matrix(0,844.459,844.459,0,2387.44,1252.6)"
       spreadMethod="pad"
       id="linearGradient186"><stop
         style="stop-opacity:1;stop-color:#ee2376"
         offset="0"
         id="stop180" /><stop
         style="stop-opacity:1;stop-color:#ee2376"
         offset="0.001302"
         id="stop182" /><stop
         style="stop-opacity:1;stop-color:#7b0f3a"
         offset="1"
         id="stop184" /></linearGradient><clipPath
       clipPathUnits="userSpaceOnUse"
       id="clipPath196"><path
         d="m 2895.37,2068.84 c -28.67,-121.45 -70.31,-237.91 -184.23,-320.55 -9.46,-6.82 -19.13,-13.53 -29.22,-19.91 -5.87,-3.73 -11.76,-7.36 -17.86,-10.87 -1.89,-1.28 -3.79,-2.35 -5.78,-3.52 -11.14,-6.49 -22.49,-12.66 -34.26,-18.52 -8.82,-4.48 -17.87,-8.73 -27.01,-12.79 -13.45,-6.17 -27.21,-11.92 -41.3,-17.24 -21.65,-8.42 -44.14,-15.87 -67.37,-22.27 -2.3,-0.74 -4.73,-1.37 -7.04,-2.02 -25.74,-7.02 -52.33,-12.88 -79.66,-17.35 -20.81,-3.63 -42.14,-6.4 -63.68,-8.53 -13.98,-1.27 -28.07,-2.34 -42.25,-2.87 -2,-0.11 -3.89,-0.21 -5.89,-0.32 -12.5,-0.64 -25.11,-0.85 -37.83,-0.85 h -7.57 c -351.74,2.87 -621.49,207.01 -635.71,457.61 -31.63,557.63 343.91,958.82 699.12,958.82 355.32,0 723.3,-383.74 587.54,-958.82 z"
         id="path194" /></clipPath><clipPath
       clipPathUnits="userSpaceOnUse"
       id="clipPath202"><path
         d="m 2405.83,2620.58 c -14.98,-10.99 -15.49,-30.64 -12.98,-45.92 1.72,-10.46 5.29,-20.44 10,-29.93 15.72,-31.67 74.05,-145.77 119.73,-191.01 20.09,-19.88 50.9,-23.65 75.17,-9.18 53.73,32.04 143.59,88 167.76,117.71 -3.26,4.29 -2.1,2.93 -6.51,8.47 -4.39,5.54 -13.56,18.38 -19.59,24.91 -33.9,-27.22 -165.34,-51.23 -165.34,-51.23 0,0 -77.1,115.45 -93.29,161.15 -9.63,25.55 -36.88,42.97 -74.95,15.03 z"
         id="path200" /></clipPath><linearGradient
       x1="0"
       y1="0"
       x2="1"
       y2="0"
       gradientUnits="userSpaceOnUse"
       gradientTransform="matrix(0,706.792,706.792,0,2578.61,2079.26)"
       spreadMethod="pad"
       id="linearGradient208"><stop
         style="stop-opacity:1;stop-color:#f8a028"
         offset="0"
         id="stop204" /><stop
         style="stop-opacity:1;stop-color:#f4f01e"
         offset="1"
         id="stop206" /></linearGradient><clipPath
       clipPathUnits="userSpaceOnUse"
       id="clipPath218"><path
         d="m 2895.37,2068.84 c -28.67,-121.45 -70.31,-237.91 -184.23,-320.55 -9.46,-6.82 -19.13,-13.53 -29.22,-19.91 -5.87,-3.73 -11.76,-7.36 -17.86,-10.87 -1.89,-1.28 -3.79,-2.35 -5.78,-3.52 -11.14,-6.49 -22.49,-12.66 -34.26,-18.52 -8.82,-4.48 -17.87,-8.73 -27.01,-12.79 -13.45,-6.17 -27.21,-11.92 -41.3,-17.24 -21.65,-8.42 -44.14,-15.87 -67.37,-22.27 -2.3,-0.74 -4.73,-1.37 -7.04,-2.02 -25.74,-7.02 -52.33,-12.88 -79.66,-17.35 -20.81,-3.63 -42.14,-6.4 -63.68,-8.53 -13.98,-1.27 -28.07,-2.34 -42.25,-2.87 -2,-0.11 -3.89,-0.21 -5.89,-0.32 -12.5,-0.64 -25.11,-0.85 -37.83,-0.85 h -7.57 c -351.74,2.87 -621.49,207.01 -635.71,457.61 -31.63,557.63 343.91,958.82 699.12,958.82 355.32,0 723.3,-383.74 587.54,-958.82 z"
         id="path216" /></clipPath><clipPath
       clipPathUnits="userSpaceOnUse"
       id="clipPath228"><path
         d="m 2895.37,2068.84 c -28.67,-121.45 -70.31,-237.91 -184.23,-320.55 -9.46,-6.82 -19.13,-13.53 -29.22,-19.91 -5.87,-3.73 -11.76,-7.36 -17.86,-10.87 -1.89,-1.28 -3.79,-2.35 -5.78,-3.52 -11.14,-6.49 -22.49,-12.66 -34.26,-18.52 -8.82,-4.48 -17.87,-8.73 -27.01,-12.79 -13.45,-6.17 -27.21,-11.92 -41.3,-17.24 -21.65,-8.42 -44.14,-15.87 -67.37,-22.27 -2.3,-0.74 -4.73,-1.37 -7.04,-2.02 -25.74,-7.02 -52.33,-12.88 -79.66,-17.35 -20.81,-3.63 -42.14,-6.4 -63.68,-8.53 -13.98,-1.27 -28.07,-2.34 -42.25,-2.87 -2,-0.11 -3.89,-0.21 -5.89,-0.32 -12.5,-0.64 -25.11,-0.85 -37.83,-0.85 h -7.57 c -351.74,2.87 -621.49,207.01 -635.71,457.61 -31.63,557.63 343.91,958.82 699.12,958.82 355.32,0 723.3,-383.74 587.54,-958.82 z"
         id="path226" /></clipPath><clipPath
       clipPathUnits="userSpaceOnUse"
       id="clipPath234"><path
         d="m 2257.78,2627.87 c 13.83,-12.41 12.41,-32.01 8.41,-46.97 -2.74,-10.25 -7.27,-19.83 -12.9,-28.81 -18.76,-29.97 -88.01,-137.79 -137.91,-178.32 -21.94,-17.81 -52.98,-18.53 -75.71,-1.74 -50.32,37.15 -134.25,101.67 -155.38,133.61 3.67,3.95 2.38,2.71 7.3,7.79 4.92,5.08 15.32,16.95 21.95,22.87 31.07,-30.43 159.51,-67.22 159.51,-67.22 0,0 88.06,107.31 108.67,151.2 12.09,24.48 40.93,39.13 76.06,7.59 z"
         id="path232" /></clipPath><linearGradient
       x1="0"
       y1="0"
       x2="1"
       y2="0"
       gradientUnits="userSpaceOnUse"
       gradientTransform="matrix(0,706.792,706.792,0,2076.61,2079.26)"
       spreadMethod="pad"
       id="linearGradient240"><stop
         style="stop-opacity:1;stop-color:#f8a028"
         offset="0"
         id="stop236" /><stop
         style="stop-opacity:1;stop-color:#f4f01e"
         offset="1"
         id="stop238" /></linearGradient><clipPath
       clipPathUnits="userSpaceOnUse"
       id="clipPath250"><path
         d="m 2895.37,2068.84 c -28.67,-121.45 -70.31,-237.91 -184.23,-320.55 -9.46,-6.82 -19.13,-13.53 -29.22,-19.91 -5.87,-3.73 -11.76,-7.36 -17.86,-10.87 -1.89,-1.28 -3.79,-2.35 -5.78,-3.52 -11.14,-6.49 -22.49,-12.66 -34.26,-18.52 -8.82,-4.48 -17.87,-8.73 -27.01,-12.79 -13.45,-6.17 -27.21,-11.92 -41.3,-17.24 -21.65,-8.42 -44.14,-15.87 -67.37,-22.27 -2.3,-0.74 -4.73,-1.37 -7.04,-2.02 -25.74,-7.02 -52.33,-12.88 -79.66,-17.35 -20.81,-3.63 -42.14,-6.4 -63.68,-8.53 -13.98,-1.27 -28.07,-2.34 -42.25,-2.87 -2,-0.11 -3.89,-0.21 -5.89,-0.32 -12.5,-0.64 -25.11,-0.85 -37.83,-0.85 h -7.57 c -351.74,2.87 -621.49,207.01 -635.71,457.61 -31.63,557.63 343.91,958.82 699.12,958.82 355.32,0 723.3,-383.74 587.54,-958.82 z"
         id="path248" /></clipPath><clipPath
       clipPathUnits="userSpaceOnUse"
       id="clipPath260"><path
         d="m 2895.37,2068.84 c -28.67,-121.45 -70.31,-237.91 -184.23,-320.55 -9.46,-6.82 -19.13,-13.53 -29.22,-19.91 -5.87,-3.73 -11.76,-7.36 -17.86,-10.87 -1.89,-1.28 -3.79,-2.35 -5.78,-3.52 -11.14,-6.49 -22.49,-12.66 -34.26,-18.52 -8.82,-4.48 -17.87,-8.73 -27.01,-12.79 -13.45,-6.17 -27.21,-11.92 -41.3,-17.24 -21.65,-8.42 -44.14,-15.87 -67.37,-22.27 -2.3,-0.74 -4.73,-1.37 -7.04,-2.02 -25.74,-7.02 -52.33,-12.88 -79.66,-17.35 -20.81,-3.63 -42.14,-6.4 -63.68,-8.53 -13.98,-1.27 -28.07,-2.34 -42.25,-2.87 -2,-0.11 -3.89,-0.21 -5.89,-0.32 -12.5,-0.64 -25.11,-0.85 -37.83,-0.85 h -7.57 c -351.74,2.87 -621.49,207.01 -635.71,457.61 -31.63,557.63 343.91,958.82 699.12,958.82 355.32,0 723.3,-383.74 587.54,-958.82 z"
         id="path258" /></clipPath><clipPath
       clipPathUnits="userSpaceOnUse"
       id="clipPath266"><path
         d="m 2497.32,1988.4 c -28.23,-19.22 -59.34,-31.03 -92.55,-37.1 -89.91,-16.48 -193.6,8.93 -286.24,45.22 0,0 15.88,57.78 39.98,110.54 27.28,60.33 59.82,119.06 56.49,186.97 -1.55,31.65 -11.64,64.61 -23.41,93.5 -9.67,23.45 -13.08,47.34 -9.03,72.49 3,18.67 8.79,36.92 12.51,55.41 5.84,31.29 44.29,125.6 44.29,125.6 l 21.14,-10.08 22.46,-10.59 c 4.47,0.52 14.26,3.59 16.4,7.93 0.32,0.59 0.49,1.17 0.53,1.91 l -0.68,13.22 70.07,-0.93 1.09,-11.02 c 0.93,-8.2 -0.42,-14.51 8.3,-14.94 6.81,-0.33 15.22,1.77 23.21,4.49 13.11,4.54 25.13,10.78 26.76,10.69 0.44,-0.02 49.27,-173.34 41.18,-217.26 -9.33,-51.13 -35.51,-88.98 -40.81,-142.38 -1.69,-16.37 1.46,-42.76 6.77,-58.29 32.28,-97.05 61.54,-225.38 61.54,-225.38 z"
         id="path264" /></clipPath><linearGradient
       x1="0"
       y1="0"
       x2="1"
       y2="0"
       gradientUnits="userSpaceOnUse"
       gradientTransform="matrix(0,706.792,706.792,0,2307.92,2079.26)"
       spreadMethod="pad"
       id="linearGradient272"><stop
         style="stop-opacity:1;stop-color:#f8a028"
         offset="0"
         id="stop268" /><stop
         style="stop-opacity:1;stop-color:#f4f01e"
         offset="1"
         id="stop270" /></linearGradient><clipPath
       clipPathUnits="userSpaceOnUse"
       id="clipPath282"><path
         d="m 2895.37,2068.84 c -28.67,-121.45 -70.31,-237.91 -184.23,-320.55 -9.46,-6.82 -19.13,-13.53 -29.22,-19.91 -5.87,-3.73 -11.76,-7.36 -17.86,-10.87 -1.89,-1.28 -3.79,-2.35 -5.78,-3.52 -11.14,-6.49 -22.49,-12.66 -34.26,-18.52 -8.82,-4.48 -17.87,-8.73 -27.01,-12.79 -13.45,-6.17 -27.21,-11.92 -41.3,-17.24 -21.65,-8.42 -44.14,-15.87 -67.37,-22.27 -2.3,-0.74 -4.73,-1.37 -7.04,-2.02 -25.74,-7.02 -52.33,-12.88 -79.66,-17.35 -20.81,-3.63 -42.14,-6.4 -63.68,-8.53 -13.98,-1.27 -28.07,-2.34 -42.25,-2.87 -2,-0.11 -3.89,-0.21 -5.89,-0.32 -12.5,-0.64 -25.11,-0.85 -37.83,-0.85 h -7.57 c -351.74,2.87 -621.49,207.01 -635.71,457.61 -31.63,557.63 343.91,958.82 699.12,958.82 355.32,0 723.3,-383.74 587.54,-958.82 z"
         id="path280" /></clipPath><clipPath
       clipPathUnits="userSpaceOnUse"
       id="clipPath320"><path
         d="m 3925.68,1907.32 -46.38,-139.45 -109.77,12.98 -178.91,21.19 410.58,332.44 z m 286.82,-180.67 193.36,605.66 -460.5,38.97 -728.29,-568.84 -68.38,-173.01 666.53,-83.77 -46.74,-147.52 -18.84,-59.12 336.88,-32.07 66.49,194.73 158.92,-8.17 73.72,213.03 -112.41,13.01 z"
         id="path318" /></clipPath><linearGradient
       x1="0"
       y1="0"
       x2="1"
       y2="0"
       gradientUnits="userSpaceOnUse"
       gradientTransform="matrix(740.407,1294.19,1294.19,-740.407,3479.64,1150.05)"
       spreadMethod="pad"
       id="linearGradient328"><stop
         style="stop-opacity:1;stop-color:#4654ad"
         offset="0"
         id="stop322" /><stop
         style="stop-opacity:1;stop-color:#4654ad"
         offset="0.00194311"
         id="stop324" /><stop
         style="stop-opacity:1;stop-color:#98bde7"
         offset="1"
         id="stop326" /></linearGradient><clipPath
       clipPathUnits="userSpaceOnUse"
       id="clipPath338"><path
         d="m 4212.5,1726.65 60.74,-7.1 146.14,457.7 -13.52,155.06 z m 99.43,-233.14 -158.92,8.17 -66.49,-194.73 -336.88,32.07 13.51,-155.06 336.89,-32.07 66.48,194.73 158.93,-8.16 73.72,213.02 -13.52,155.06 z m -721.31,308.53 178.91,-21.19 156.15,126.47 75.52,227.16 z m -441.93,-172.61 13.52,-155.06 606.27,-76.23 46.74,147.52 z"
         id="path336" /></clipPath><linearGradient
       x1="0"
       y1="0"
       x2="1"
       y2="0"
       gradientUnits="userSpaceOnUse"
       gradientTransform="matrix(1470.65,2532.28,2532.28,-1470.65,4215.52,2307.78)"
       spreadMethod="pad"
       id="linearGradient346"><stop
         style="stop-opacity:1;stop-color:#4654ad"
         offset="0"
         id="stop340" /><stop
         style="stop-opacity:1;stop-color:#4654ad"
         offset="0.00194311"
         id="stop342" /><stop
         style="stop-opacity:1;stop-color:#98bde7"
         offset="1"
         id="stop344" /></linearGradient><clipPath
       clipPathUnits="userSpaceOnUse"
       id="clipPath356"><path
         d="m 755.977,1970.32 -36.649,-142.31 -110.41,5.38 -179.941,8.8 386.687,359.96 z m 298.603,-160.47 151.13,617.57 -462.085,7.11 L 56.2891,1816.82 0,1639.52 l 670.715,-37.61 -36.457,-150.39 -14.715,-60.28 338.289,-8.77 52.898,198.85 159.11,2.81 58.86,217.6 -113.04,5.23 z"
         id="path354" /></clipPath><linearGradient
       x1="0"
       y1="0"
       x2="1"
       y2="0"
       gradientUnits="userSpaceOnUse"
       gradientTransform="matrix(620,975,975,-620,373.435,1323.64)"
       spreadMethod="pad"
       id="linearGradient364"><stop
         style="stop-opacity:1;stop-color:#4654ad"
         offset="0"
         id="stop358" /><stop
         style="stop-opacity:1;stop-color:#4654ad"
         offset="0.00194311"
         id="stop360" /><stop
         style="stop-opacity:1;stop-color:#98bde7"
         offset="1"
         id="stop362" /></linearGradient><clipPath
       clipPathUnits="userSpaceOnUse"
       id="clipPath374"><path
         d="m 1054.58,1809.85 61.08,-2.89 114.22,466.7 -24.17,153.76 z m 115.26,-225.72 -159.11,-2.81 -52.898,-198.85 -338.289,8.77 24.168,-153.76 338.301,-8.77 52.898,198.85 159.1,2.81 58.86,217.61 -24.17,153.75 z m -740.863,258.06 179.941,-8.8 147.059,136.93 59.687,231.83 z M 0,1639.52 l 24.1719,-153.76 610.0861,-34.24 36.457,150.39 z"
         id="path372" /></clipPath><linearGradient
       x1="0"
       y1="0"
       x2="1"
       y2="0"
       gradientUnits="userSpaceOnUse"
       gradientTransform="matrix(1685,2395,2395,-1685,2167.57,3767.29)"
       spreadMethod="pad"
       id="linearGradient382"><stop
         style="stop-opacity:1;stop-color:#4654ad"
         offset="0"
         id="stop376" /><stop
         style="stop-opacity:1;stop-color:#4654ad"
         offset="0.00194311"
         id="stop378" /><stop
         style="stop-opacity:1;stop-color:#98bde7"
         offset="1"
         id="stop380" /></linearGradient></defs><sodipodi:namedview
     pagecolor="#ffffff"
     bordercolor="#666666"
     borderopacity="1"
     objecttolerance="10"
     gridtolerance="10"
     guidetolerance="10"
     inkscape:pageopacity="0"
     inkscape:pageshadow="2"
     inkscape:window-width="640"
     inkscape:window-height="480"
     id="namedview4" /><g
     id="g10"
     inkscape:groupmode="layer"
     inkscape:label="ink_ext_XXXXXX"
     transform="matrix(1.3333333,0,0,-1.3333333,0,531.86667)"><g
       id="g12"
       transform="scale(0.1)"><g
         id="g14"><g
           id="g16"
           clip-path="url(#clipPath20)"><path
             d="m 4383.07,2284.31 c -61.1,137.01 -177.64,261.66 -225.19,408.93 -80.75,250.12 48.38,525.6 -3.75,783.82 -45.64,226.12 -243,409.33 -458.65,425.8 -179.29,13.68 -349.26,-75.61 -527.15,-98.69 -298.44,-38.73 -590.08,109.4 -887.88,162.71 -268.08,47.98 -546.98,17.48 -798.2,-87.31 -163.41,-68.16 -330.68,-191.16 -354.55,-377.32 -18.3,-142.69 53.45,-291.14 18.4,-429.94 -26.34,-104.34 -109.31,-181.83 -199.662,-229.97 -90.364,-48.14 -190.129,-72.8 -284.836,-110.55 -202.95,-80.92 -388.145,-230.77 -479.403,-440.31 -91.2693,-209.55 -72.297,-481.36 76.856,-653.22 71.218,-82.06 165.371,-136.82 244.375,-210.31 102.625,-95.5 100.496,-250.13 161.082,-370.62 62.441,-124.189 174.902,-205.9 288.039,-271.549 141.419,-82.07 305.479,-120.699 464.549,-100.562 227.36,28.801 433.14,163.863 661.21,186.511 231.18,22.95 457.94,-71.25 683.87,-133.75 249.8,-69.109 514.04,-100.05 763.33,-37 249.28,63.04 482.18,230.379 589.5,478 80.1,184.79 86.68,399.81 169.77,583.05 49.84,109.93 127.66,210.86 136.28,333.24 4.72,67.29 -11.37,129.34 -37.99,189.04"
             style="fill:url(#linearGradient30);fill-opacity:1;fill-rule:nonzero;stroke:none"
             id="path32" /></g></g><g
         id="g34"><g
           id="g36"
           clip-path="url(#clipPath40)"><path
             d="m 3593.87,3125.79 c -115.78,44.05 -11.4,95.57 61.28,116.13 58.79,16.63 206,43.75 146.26,144.1 -62.59,105.11 -122.54,-24.72 -172.33,-39.37 -111.28,-32.76 4.52,106.82 32.16,144.04 37.86,50.99 117.52,155.17 19.16,172.52 -79.55,14.04 -161.94,-96.79 -194.94,-152.03 -23.53,-39.39 -81.37,-223.85 -141.58,-182.95 -45.59,30.96 1.57,215.65 -107.25,83.64 -44.24,-53.68 -37.11,-139.93 -57.05,-201.32 -29.22,-89.94 -41.53,-127.22 -121.37,-104.12 -41.36,11.96 -42.7,63.88 -93.76,28.82 -26.29,-18.06 -34.08,-101.16 -33.85,-130.02 2.05,-265.09 108.04,-442.63 158.04,-465.52 67.69,-30.99 193.48,13.77 251.36,47.02 28.78,16.53 81.27,43.85 77.58,85.75 -4.15,47.03 -76.76,40.27 -79.45,67.88 -7.64,78.33 136.45,3.5 176.35,14.67 51.67,14.46 137.27,106.78 83.06,155.62 -5.57,5.01 -230.79,21.32 -101.95,93.03 71.32,39.7 147.83,-70.45 216.65,7.75 99.03,112.54 -74.95,97.85 -118.37,114.36"
             style="fill:url(#linearGradient46);fill-opacity:1;fill-rule:nonzero;stroke:none"
             id="path48" /></g></g><path
         d="m 3574.66,3084.09 c -49.75,21 -101.16,39.95 -155.33,44.57 38.1,47.61 78.03,94.77 107.03,147.63 8.18,14.91 -16.18,25.21 -24.31,10.4 -3.53,-6.45 -7.47,-12.71 -11.3,-19.02 -4.17,16.16 0.83,40.29 2.36,53.18 3.9,33.29 16.44,63.2 29.53,93.73 6.71,15.64 -17.59,26.07 -24.31,10.4 -16.98,-39.6 -30.39,-77.44 -33.38,-120.73 -1.47,-21.28 -2.74,-44.34 9.61,-61.95 -40.97,-60.8 -91.99,-116.79 -134.72,-175.77 -18.26,28.94 -31.67,59.07 -37.85,93.35 -6.73,37.33 -2.17,75.29 -6.03,112.87 -1.75,16.93 -27.99,13.68 -26.24,-3.29 4.65,-45.18 -0.65,-89.58 10.72,-134.14 8.55,-33.59 23.92,-63.28 42.99,-91.95 -49.11,-71 -94.45,-144.8 -131.73,-222.73 -12.37,-25.89 -23.68,-52.27 -34.63,-78.82 -24.65,36.86 -45.09,75.31 -59.29,117.68 -7.9,23.56 -16.66,48.52 -19.82,73.18 -2.39,18.7 -0.42,36.34 -7.77,54.06 -6.53,15.73 -31.09,5.92 -24.54,-9.83 9.01,-21.72 5.96,-50.03 11.67,-73.24 5.52,-22.41 12.36,-44.67 20.14,-66.41 15.92,-44.46 39.35,-84.81 66.38,-123.34 0.4,-0.56 0.91,-0.79 1.33,-1.26 -18.47,-45.87 -36.52,-91.92 -57.05,-136.8 -1.64,-1.27 -3.11,-2.9 -4.08,-5.33 -1.97,-5.04 -5.87,-11.99 -7.15,-18.09 -36.72,-92.67 -73.7,-185.29 -109.22,-278.41 -6.06,-15.86 18.22,-26.34 24.3,-10.4 35.4,92.8 72.25,185.09 108.84,277.44 0.24,0.4 0.54,0.64 0.75,1.07 11.74,24.19 22.51,48.84 32.9,73.68 48.1,-12.23 101.57,1.83 146.43,19.85 15.81,6.35 5.99,30.89 -9.83,24.54 -39.01,-15.67 -84.16,-27.85 -126.31,-19.54 23.12,56.8 44.92,114.25 71.27,169.57 10.47,22.01 21.7,43.63 33.41,64.97 0.87,-0.62 1.59,-1.33 2.71,-1.79 65.59,-26.62 136.35,-37.28 206.55,-26.25 16.77,2.63 13.59,28.89 -3.29,26.24 -65.78,-10.34 -131.36,-0.65 -192.86,24.32 -0.13,0.05 -0.23,0.02 -0.36,0.07 36.12,63.01 76.81,123.41 119.57,182.11 7.27,10 14.86,19.86 22.55,29.7 1.51,-3.65 4.58,-6.56 9.87,-6.98 52.56,-4.2 101.89,-22.5 150.09,-42.86 15.67,-6.61 26.1,17.69 10.4,24.32"
         style="fill:#f25668;fill-opacity:1;fill-rule:nonzero;stroke:none"
         id="path50" /><g
         id="g52"><g
           id="g54"
           clip-path="url(#clipPath58)"><path
             d="m 2883.54,1968.07 c 67.51,72.37 125.18,149.47 196.68,216.58 -61.79,97.89 -85.99,281.56 -70.27,300.77 35.3,43.14 79.87,-24.08 88.66,-56.78 15.91,-59.18 7.35,-183 -2.97,-229.88 8.49,7.57 17.11,15.03 26.06,22.28 19.61,15.91 39.22,31.91 58.83,47.89 -18.26,34.68 -60.9,106.55 -37.16,223.51 3.98,19.61 11.07,45.34 31.98,52.94 29.02,10.55 31.16,-21.98 31.95,-42.56 1.33,-35.31 -2.41,-156.47 -0.97,-212.87 39.25,32.02 78.55,64.02 117.98,95.8 -22.14,72.58 -48.61,160.66 -16.12,234.41 21.25,48.24 59.23,8.04 67.67,-23.85 15.12,-57.12 3.95,-124.08 -16.4,-182.38 18.66,14.91 37.32,29.83 56.07,44.56 3.34,2.63 6.76,5.2 10.12,7.81 -13.94,34.7 -31.07,66.68 -32.42,105.39 -1.33,38.12 15.29,72.83 39.8,101.15 10.81,12.48 22.2,29.13 40.27,31.24 25.38,2.95 14.74,-24.18 9.96,-40.73 -10.13,-35.21 -18.45,-71.65 -24.69,-107.6 -3.43,-19.85 -7.27,-38.35 -12.33,-57.23 -1.3,-4.87 -2.09,-11.63 -2.88,-18.56 26.9,20.58 54.24,40.73 82.02,60.36 -1.73,64.06 -3.37,141.56 39.58,194.24 28.19,34.56 50.11,-6.76 49.83,-34.67 -0.45,-43.28 -18.64,-88.16 -42.78,-127.33 12.27,8.28 24.59,16.48 36.99,24.56 21.06,72.08 46.09,161.68 113.2,204.68 42.7,27.36 51.91,-26.14 41.78,-56.63 -10.01,-30.1 -28.05,-58.22 -50.14,-83.45 5.89,3.43 11.74,6.95 17.64,10.33 13.86,7.95 27.92,15.3 42.12,22.21 9.52,63.56 21.29,140.67 73.04,185.26 33.78,29.1 48.16,-15.42 43,-42.85 -8.19,-43.54 -34.96,-85.48 -66.52,-120.31 22.19,9.17 44.65,17.57 67.28,25.57 15.66,50.08 34.95,110.51 82.19,139.92 30.99,19.29 37.02,-18.54 29.38,-40.08 -11.06,-31.25 -34.53,-59.48 -61.33,-82.58 24.9,8.36 49.88,16.64 74.78,25.32 14.42,18.76 31.06,37.43 45.89,53.34 17.53,18.8 39.92,37.01 67.44,34.66 36.28,-3.1 43.39,-28.75 23.05,-57.04 -9.29,-12.93 -21.7,-21.49 -35.69,-27.63 14.12,-2.64 27.22,-8.02 35.94,-16.16 23.86,-22.3 1.99,-43.87 -23.9,-48.83 -28.83,-5.52 -58.53,5.36 -86.49,10.83 -20.71,4.04 -42.62,2.01 -63.37,3.91 -16.53,-5.57 -33.05,-11.1 -49.49,-16.75 42.93,2.69 90.08,-2.43 125.55,-23.42 19.65,-11.64 39.29,-44.53 3.13,-49.6 -58.01,-8.13 -114.33,30.01 -159.71,59.14 l -0.51,2.81 c -46.26,-16.56 -91.87,-34.85 -136.01,-58.27 14.82,0.02 29.36,-1.48 43.18,-4.96 25.22,-6.36 57.25,-35.92 19.43,-53.11 -48.57,-22.08 -105.5,-11.44 -156.51,2.46 -45.9,-28.73 -91.04,-58.99 -135.16,-90.5 48.13,16.89 102.92,26.14 150.06,14.25 27.03,-6.81 61.36,-38.5 20.82,-56.94 -65.05,-29.57 -144.12,-4.43 -207.29,13.95 l -0.83,1.65 c -20.48,-15.16 -40.76,-30.52 -60.71,-46.19 -9.65,-7.58 -19.14,-15.37 -28.71,-23.04 65.85,24.74 140.35,39.76 203.43,26.44 36.12,-7.63 80.85,-47.66 25.23,-73.98 -88.9,-42.08 -193.84,-13.29 -277.94,7.74 -27.39,-22.45 -54.72,-44.96 -82.08,-67.45 65.31,2.29 200.51,15.11 244.45,15.64 20.56,0.23 68.76,-4.64 57.2,-37.72 -6.42,-18.34 -43.6,-33.88 -61.5,-38.14 -39.88,-9.5 -186.56,4.1 -282.43,25.67 -19.52,-15.79 -39.09,-31.51 -58.92,-46.95 -7.34,-5.72 -14.49,-11.54 -21.54,-17.43 96.41,11.87 286.04,22.44 331.7,7.4 23.22,-7.64 59.23,-26.07 53.47,-55.66 -5.96,-30.66 -52.9,-28.88 -76.97,-33.82 -55.47,-11.4 -231.1,18.45 -262.76,28.62 -24.51,7.87 -48.27,21.36 -71.92,30.41 -15.65,-14.14 -30.71,-28.65 -45.32,-43.46 75.83,-15.65 249.25,-39.27 303.51,-51.32 24.66,-5.5 81,-24.89 57.86,-61.24 -12.84,-20.13 -61.72,-28.29 -84.33,-28.36 -47.86,-0.16 -205.1,51.69 -313.92,102.1 -45,-48.91 -87.51,-99.96 -134.35,-150.18 -14.16,-15.19 -39.07,5.44 -24.86,20.69"
             style="fill:url(#linearGradient66);fill-opacity:1;fill-rule:nonzero;stroke:none"
             id="path68" /></g></g><g
         id="g70"><g
           id="g72"
           clip-path="url(#clipPath76)"><path
             d="m 958.625,3211.56 c 115.785,44.05 11.395,95.57 -61.281,116.13 -58.789,16.63 -206.016,43.75 -146.258,144.1 62.578,105.11 122.539,-24.72 172.324,-39.37 111.28,-32.76 -4.523,106.82 -32.16,144.04 -37.871,50.99 -117.52,155.17 -19.16,172.53 79.551,14.04 161.93,-96.8 194.94,-152.04 23.53,-39.39 81.37,-223.84 141.58,-182.95 45.59,30.96 -1.57,215.65 107.24,83.64 44.25,-53.68 37.11,-139.93 57.06,-201.32 29.22,-89.94 41.53,-127.21 121.36,-104.12 41.38,11.96 42.71,63.88 93.77,28.82 26.29,-18.06 34.08,-101.16 33.86,-130.02 -2.06,-265.09 -108.05,-442.63 -158.05,-465.52 -67.69,-30.99 -193.48,13.77 -251.36,47.02 -28.78,16.53 -81.28,43.85 -77.58,85.76 4.15,47.02 76.76,40.26 79.46,67.88 7.63,78.32 -136.46,3.49 -176.36,14.66 -51.67,14.46 -137.268,106.78 -83.057,155.62 5.567,5.01 230.787,21.32 101.957,93.03 -71.344,39.7 -147.836,-70.45 -216.656,7.75 -99.031,112.55 74.953,97.85 118.371,114.36"
             style="fill:url(#linearGradient82);fill-opacity:1;fill-rule:nonzero;stroke:none"
             id="path84" /></g></g><path
         d="m 977.832,3169.86 c 49.738,21 101.158,39.95 155.328,44.57 -38.1,47.61 -78.03,94.77 -107.04,147.63 -8.17,14.9 16.2,25.21 24.32,10.4 3.54,-6.44 7.47,-12.71 11.29,-19.01 4.18,16.15 -0.82,40.28 -2.34,53.18 -3.91,33.28 -16.45,63.19 -29.54,93.73 -6.7,15.64 17.59,26.06 24.31,10.39 16.98,-39.61 30.38,-77.44 33.38,-120.73 1.47,-21.28 2.74,-44.34 -9.61,-61.95 40.97,-60.8 91.99,-116.79 134.72,-175.77 18.26,28.95 31.67,59.07 37.84,93.35 6.73,37.34 2.18,75.29 6.04,112.87 1.75,16.93 27.99,13.68 26.24,-3.28 -4.65,-45.19 0.65,-89.59 -10.72,-134.15 -8.55,-33.59 -23.91,-63.27 -42.99,-91.95 49.11,-70.99 94.46,-144.8 131.72,-222.73 12.38,-25.88 23.69,-52.27 34.63,-78.82 24.66,36.86 45.1,75.31 59.3,117.68 7.9,23.56 16.66,48.52 19.81,73.19 2.4,18.69 0.42,36.33 7.79,54.05 6.52,15.73 31.07,5.92 24.54,-9.83 -9.02,-21.72 -5.97,-50.02 -11.68,-73.24 -5.52,-22.41 -12.36,-44.67 -20.14,-66.4 -15.92,-44.47 -39.35,-84.81 -66.38,-123.34 -0.4,-0.57 -0.91,-0.8 -1.33,-1.27 18.47,-45.87 36.52,-91.92 57.06,-136.8 1.64,-1.27 3.1,-2.9 4.06,-5.33 1.98,-5.04 5.88,-11.99 7.17,-18.09 36.71,-92.67 73.69,-185.29 109.21,-278.41 6.06,-15.86 -18.23,-26.33 -24.3,-10.4 -35.4,92.8 -72.25,185.1 -108.84,277.44 -0.23,0.4 -0.55,0.64 -0.75,1.07 -11.74,24.19 -22.51,48.85 -32.9,73.68 -48.1,-12.23 -101.56,1.83 -146.43,19.85 -15.81,6.35 -5.98,30.89 9.84,24.54 39,-15.67 84.16,-27.85 126.3,-19.54 -23.12,56.81 -44.92,114.25 -71.26,169.57 -10.49,22.02 -21.71,43.63 -33.42,64.97 -0.87,-0.62 -1.58,-1.33 -2.71,-1.79 -65.58,-26.62 -136.36,-37.28 -206.55,-26.25 -16.77,2.63 -13.58,28.89 3.29,26.24 65.78,-10.33 131.36,-0.65 192.86,24.32 0.13,0.05 0.24,0.02 0.36,0.07 -36.12,63.02 -76.82,123.41 -119.57,182.11 -7.27,10 -14.86,19.87 -22.55,29.7 -1.51,-3.64 -4.59,-6.56 -9.87,-6.98 -52.56,-4.2 -101.88,-22.5 -150.097,-42.85 -15.664,-6.62 -26.094,17.68 -10.391,24.31"
         style="fill:#f25668;fill-opacity:1;fill-rule:nonzero;stroke:none"
         id="path86" /><g
         id="g88"><g
           id="g90"
           clip-path="url(#clipPath94)"><path
             d="m 1668.96,2053.84 c -67.51,72.37 -125.19,149.47 -196.68,216.58 61.78,97.89 85.98,281.57 70.26,300.77 -35.31,43.14 -79.87,-24.08 -88.66,-56.78 -15.91,-59.18 -7.35,-183 2.98,-229.88 -8.5,7.56 -17.12,15.03 -26.07,22.29 -19.62,15.91 -39.22,31.9 -58.83,47.89 18.27,34.67 60.9,106.54 37.16,223.5 -3.98,19.61 -11.07,45.34 -31.98,52.94 -29.02,10.55 -31.16,-21.98 -31.94,-42.56 -1.34,-35.31 2.4,-156.47 0.96,-212.86 -39.25,32.01 -78.55,64.01 -117.99,95.79 22.14,72.58 48.62,160.67 16.12,234.41 -21.24,48.24 -59.22,8.04 -67.66,-23.85 -15.12,-57.12 -3.94,-124.08 16.4,-182.38 -18.66,14.91 -37.32,29.83 -56.07,44.56 -3.34,2.63 -6.75,5.2 -10.12,7.81 13.94,34.71 31.06,66.68 32.42,105.39 1.34,38.12 -15.28,72.84 -39.8,101.15 -10.81,12.48 -22.19,29.13 -40.27,31.24 -25.38,2.96 -14.74,-24.18 -9.96,-40.73 10.14,-35.21 18.46,-71.65 24.69,-107.6 3.43,-19.85 7.27,-38.35 12.33,-57.22 1.3,-4.88 2.09,-11.64 2.88,-18.57 -26.9,20.58 -54.25,40.73 -82.02,60.36 1.73,64.06 3.37,141.56 -39.59,194.25 -28.172,34.55 -50.098,-6.77 -49.813,-34.68 0.449,-43.28 18.633,-88.16 42.773,-127.33 -12.265,8.28 -24.589,16.48 -36.992,24.56 -21.054,72.08 -46.086,161.68 -113.203,204.68 -42.695,27.37 -51.914,-26.14 -41.769,-56.62 10.011,-30.11 28.047,-58.23 50.136,-83.46 -5.886,3.44 -11.738,6.95 -17.644,10.34 -13.86,7.94 -27.922,15.29 -42.121,22.2 -9.512,63.56 -21.289,140.67 -73.035,185.26 -33.782,29.1 -48.157,-15.41 -43,-42.84 8.195,-43.55 34.961,-85.49 66.523,-120.32 -22.195,9.17 -44.656,17.58 -67.285,25.58 -15.652,50.07 -34.949,110.51 -82.188,139.91 -30.996,19.29 -37.019,-18.53 -29.394,-40.08 11.074,-31.25 34.543,-59.47 61.347,-82.58 -24.91,8.36 -49.882,16.64 -74.792,25.32 -14.415,18.76 -31.047,37.43 -45.879,53.34 -17.532,18.8 -39.922,37.01 -67.442,34.66 -36.281,-3.1 -43.39,-28.75 -23.058,-57.04 9.296,-12.93 21.711,-21.49 35.683,-27.63 -14.101,-2.64 -27.207,-8.01 -35.926,-16.16 -23.859,-22.3 -2.003,-43.87 23.907,-48.82 28.828,-5.53 58.523,5.35 86.484,10.82 20.711,4.04 42.617,2.01 63.367,3.91 16.535,-5.56 33.047,-11.1 49.492,-16.75 -42.929,2.69 -90.078,-2.42 -125.546,-23.42 -19.668,-11.64 -39.297,-44.53 -3.133,-49.6 58.008,-8.13 114.324,30.01 159.707,59.14 l 0.515,2.81 c 46.262,-16.56 91.868,-34.85 136.008,-58.27 -14.824,0.02 -29.367,-1.48 -43.183,-4.96 -25.215,-6.36 -57.246,-35.91 -19.426,-53.11 48.566,-22.08 105.5,-11.44 156.504,2.46 45.91,-28.73 91.047,-58.99 135.163,-90.5 -48.132,16.89 -102.917,26.14 -150.054,14.25 -27.031,-6.81 -61.379,-38.5 -20.832,-56.93 65.059,-29.58 144.133,-4.44 207.296,13.94 l 0.83,1.66 c 20.48,-15.17 40.76,-30.53 60.71,-46.2 9.65,-7.58 19.13,-15.37 28.71,-23.04 -65.86,24.74 -140.35,39.76 -203.433,26.44 -36.113,-7.63 -80.839,-47.66 -25.234,-73.98 88.907,-42.08 193.837,-13.29 277.947,7.74 27.39,-22.44 54.72,-44.96 82.07,-67.44 -65.31,2.28 -200.5,15.1 -244.44,15.63 -20.56,0.24 -68.761,-4.64 -57.198,-37.72 6.426,-18.33 43.598,-33.89 61.488,-38.14 39.89,-9.51 186.57,4.11 282.45,25.68 19.51,-15.8 39.08,-31.52 58.91,-46.96 7.35,-5.72 14.49,-11.54 21.55,-17.42 -96.42,11.87 -286.05,22.43 -331.71,7.39 -23.23,-7.65 -59.23,-26.07 -53.47,-55.66 5.97,-30.66 52.9,-28.88 76.97,-33.82 55.47,-11.4 231.11,18.45 262.77,28.62 24.5,7.87 48.25,21.36 71.91,30.41 15.65,-14.14 30.71,-28.65 45.32,-43.46 -75.83,-15.65 -249.25,-39.27 -303.5,-51.32 -24.67,-5.5 -81.01,-24.88 -57.87,-61.24 12.84,-20.13 61.72,-28.29 84.33,-28.36 47.86,-0.16 205.1,51.69 313.92,102.1 45,-48.91 87.51,-99.96 134.35,-150.18 14.16,-15.19 39.07,5.44 24.87,20.69"
             style="fill:url(#linearGradient102);fill-opacity:1;fill-rule:nonzero;stroke:none"
             id="path104" /></g></g><g
         id="g106"><g
           id="g108"
           clip-path="url(#clipPath112)"><path
             d="m 3205.31,2054.29 c 0,-183.25 -104.6,-349.29 -274.09,-470.63 -14.07,-10 -28.46,-19.85 -43.47,-29.24 -8.75,-5.47 -17.51,-10.78 -26.58,-15.94 -2.81,-1.88 -5.62,-3.44 -8.59,-5.16 -16.57,-9.54 -33.46,-18.6 -50.98,-27.21 -13.12,-6.56 -26.57,-12.82 -40.17,-18.76 -20.02,-9.07 -40.5,-17.51 -61.46,-25.33 -32.21,-12.35 -65.66,-23.3 -100.21,-32.68 -3.45,-1.09 -7.04,-2.03 -10.48,-2.96 -38.31,-10.33 -77.86,-18.93 -118.52,-25.49 -30.95,-5.31 -62.69,-9.39 -94.74,-12.51 -20.8,-1.88 -41.75,-3.44 -62.86,-4.22 -2.97,-0.16 -5.79,-0.31 -8.75,-0.47 -18.62,-0.94 -37.38,-1.25 -56.29,-1.25 h -11.26 c -523.31,4.22 -945.79,303.32 -945.79,671.85 0,370.86 428.57,671.53 957.05,671.53 528.63,0 957.19,-300.67 957.19,-671.53"
             style="fill:url(#linearGradient120);fill-opacity:1;fill-rule:nonzero;stroke:none"
             id="path122" /></g></g><g
         id="g124"><g
           id="g126"
           clip-path="url(#clipPath130)"><path
             d="m 2879.3,2054.24 c 0,-120.83 -68.98,-230.33 -180.73,-310.33 -9.28,-6.6 -18.76,-13.09 -28.66,-19.27 -5.78,-3.62 -11.55,-7.12 -17.53,-10.52 -1.85,-1.24 -3.71,-2.27 -5.67,-3.41 -10.93,-6.28 -22.06,-12.26 -33.6,-17.93 -8.67,-4.33 -17.53,-8.46 -26.51,-12.37 -13.19,-5.99 -26.7,-11.55 -40.51,-16.71 -21.24,-8.14 -43.3,-15.36 -66.08,-21.54 -2.27,-0.73 -4.65,-1.34 -6.91,-1.97 -25.26,-6.79 -51.34,-12.47 -78.15,-16.79 -20.41,-3.51 -41.34,-6.19 -62.48,-8.25 -13.71,-1.25 -27.52,-2.27 -41.44,-2.79 -1.96,-0.1 -3.81,-0.2 -5.78,-0.31 -12.26,-0.62 -24.63,-0.82 -37.1,-0.82 h -7.43 c -345.06,2.78 -623.63,200.01 -623.63,443.01 0,244.54 282.59,442.79 631.06,442.79 348.56,0 631.15,-198.25 631.15,-442.79"
             style="fill:url(#linearGradient138);fill-opacity:1;fill-rule:nonzero;stroke:none"
             id="path140" /></g></g><path
         d="m 2411.42,2180.04 271.92,-191.13 37.94,4.93 -264.91,186.2 h -44.95"
         style="fill:#dae3ea;fill-opacity:1;fill-rule:nonzero;stroke:none"
         id="path142" /><path
         d="m 2386.59,1951.85 271.93,-191.13 37.95,4.92 -264.93,186.21 h -44.95"
         style="fill:#dae3ea;fill-opacity:1;fill-rule:nonzero;stroke:none"
         id="path144" /><path
         d="m 2611.25,1795.57 -241.04,169.49 33.4,149.69 238.36,-175.05 z m 79.48,372.99 -28.25,-132.37 -5.15,-24.23 -239.08,168.05 33.82,150.42 -49.29,41.24 -162.06,-760.44 h 7.43 c 12.47,0 24.84,0.2 37.1,0.82 1.97,0.11 3.82,0.21 5.78,0.31 l 16.8,75.06 87.12,-64.02 c 26.81,4.32 52.89,10 78.15,16.79 2.26,0.63 4.64,1.24 6.91,1.97 l -157.54,110.72 33,146.71 240.31,-176.4 -9.18,-42.78 c 8.98,3.91 17.84,8.04 26.51,12.37 11.54,5.67 28.35,15.05 39.27,21.34 l 87.63,413.21 -49.28,41.23"
         style="fill:#ffffff;fill-opacity:1;fill-rule:nonzero;stroke:none"
         id="path146" /><path
         d="m 2779.5,2127.33 -80.93,-383.42 c -9.28,-6.6 -18.76,-13.09 -28.66,-19.27 -5.78,-3.62 -11.55,-7.12 -17.53,-10.52 l 87.63,413.21 h 39.49"
         style="fill:#dae3ea;fill-opacity:1;fill-rule:nonzero;stroke:none"
         id="path148" /><path
         d="m 2739.97,2127.35 -49.24,41.24 h 39.51 l 49.25,-41.24 h -39.52"
         style="fill:#dae3ea;fill-opacity:1;fill-rule:nonzero;stroke:none"
         id="path150" /><path
         d="m 2452.03,2330.48 h 39.51 l -49.23,41.24 h -39.53 l 49.25,-41.24"
         style="fill:#dae3ea;fill-opacity:1;fill-rule:nonzero;stroke:none"
         id="path152" /><path
         d="m 2452.03,2330.48 h 39.51 l -33.73,-150.44 h -39.51 l 33.73,150.44"
         style="fill:#dae3ea;fill-opacity:1;fill-rule:nonzero;stroke:none"
         id="path154" /><g
         id="g156"><g
           id="g158"
           clip-path="url(#clipPath162)"><path
             d="m 2447.93,2701.51 c -16.38,53.18 -50,95.97 -76.13,144.24 -6.73,12.42 -14.94,24.28 -21.03,37.11 -2.41,5.09 -15.1,29.91 -28.16,55.37 -18.18,35.42 -57.06,50.81 -91.82,36.33 v 0 c -20.89,-8.71 -37.33,-27.06 -44.87,-50.27 -12.2,-37.53 -36.73,-87 -50.42,-102.86 -25.45,-29.46 -56.38,-57.66 -75.28,-92.75 -10.95,-20.32 -11.05,-43.03 -17.22,-64.88 6.33,18.94 28.17,33.75 43.07,44.75 2.23,-16.5 -6.4,-41.11 -8.11,-58.09 -2.82,-28.12 1.33,-54.17 10.53,-80.49 20.56,-58.79 62.62,-98.96 96.45,-148.79 7.95,-11.73 13.29,-24.44 22.13,-35.61 3.08,-3.9 8.6,-13.97 13.16,-13.85 6.37,0.16 22.51,21.16 26.86,25.37 42.44,41 96.38,65.46 127.44,118.7 20.85,35.73 26.78,75.68 40.69,113.75 7.41,-21.41 4.28,-45.67 9.97,-67.36 18.97,45.6 37.78,90.5 22.74,139.33"
             style="fill:#374aa6;fill-opacity:1;fill-rule:nonzero;stroke:none"
             id="path164" /></g></g><g
         id="g166"><g
           id="g168"
           clip-path="url(#clipPath172)"><g
             id="g174"
             clip-path="url(#clipPath178)"><path
               d="m 2227,1611 v 1 h -1 v 9 h -1 v 8 h -1 v 7 h -1 v 8 h -1 v 7 h -1 v 7 h -1 v 8 h -1 v 7 h -1 v 8 h -1 v 7 h -1 v 6 h -1 v 7 h -1 v 6 h -1 v 6 h -1 v 6 h -1 v 7 h -1 v 6 h -1 v 6 h -1 v 6 h -1 v 7 h -1 v 6 h -1 v 5 h -1 v 6 h -1 v 5 h -1 v 6 h -1 v 5 h -1 v 6 h -1 v 5 h -1 v 6 h -1 v 5 h -1 v 5 h -1 v 6 h -1 v 5 h -1 v 2 h -1 v 3 h -1 v 2 h -1 v 3 h -1 v 2 h -1 v 3 h -1 v 2 h -1 v 3 h -1 v 3 h -1 v 2 h -1 v 3 h -1 v 3 h -1 v 3 h -1 v 2 h -1 v 3 h -1 v 3 h -1 v 3 h -1 v 2 h -1 v 3 h -1 v 3 h -1 v 4 h -1 v 3 h -1 v 3 h -1 v 3 h -1 v 3 h -1 v 3 h -1 v 4 h -1 v 3 h -1 v 3 h -1 v 4 h -1 v 4 h -1 v 3 h -1 v 4 h -1 v 4 h -1 v 4 h -1 v 4 h -1 v 5 h -1 v 4 h -1 v 5 h -1 v 5 h -1 v 6 h -1 v 6 h -1 v 7 h -1 v 8 h -1 v 11 h -1 v 28 h -1 v 4 h -1 v 3 h -1 v 4 h 8 v -1 h 7 v -1 h 7 v -1 h 7 v -1 h 7 v -1 h 7 v -1 h 7 v -1 h 7 v -1 h 8 v -1 h 7 v -1 h 7 v -1 h 7 v -1 h 7 v -1 h 7 v -1 h 7 v -1 h 67 v -1 h 171 v -6 h -1 v -16 h 1 v -5 h 1 v -6 h 1 v -6 h 1 v -3 h 1 v -3 h 1 v -2 h 1 v -3 h 1 v -3 h 1 v -2 h 1 v -3 h 1 v -2 h 1 v -2 h 1 v -2 h 1 v -2 h 1 v -2 h 1 v -2 h 1 v -2 h 1 v -1 h 1 v -2 h 1 v -2 h 1 v -1 h 1 v -2 h 1 v -1 h 1 v -1 h 1 v -2 h 1 v -1 h 1 v -1 h 1 v -1 h 1 v -2 h 1 v -1 h 1 v -1 h 1 v -1 h 1 v -2 h 1 v -1 h 1 v -1 h 1 v -2 h 1 v -1 h 1 v -1 h 1 v -2 h 1 v -1 h 1 v -1 h 1 v -2 h 1 v -1 h 1 v -1 h 1 v -2 h 1 v -1 h 1 v -2 h 1 v -1 h 1 v -2 h 1 v -1 h 1 v -1 h 1 v -2 h 1 v -1 h 1 v -2 h 1 v -1 h 1 v -2 h 1 v -2 h 1 v -1 h 1 v -2 h 1 v -1 h 1 v -2 h 1 v -1 h 1 v -2 h 1 v -2 h 1 v -1 h 1 v -2 h 1 v -2 h 1 v -1 h 1 v -2 h 1 v -2 h 1 v -1 h 1 v -2 h 1 v -2 h 1 v -2 h 1 v -1 h 1 v -2 h 1 v -2 h 1 v -2 h 1 v -2 h 1 v -1 h 1 v -2 h 1 v -2 h 1 v -2 h 1 v -2 h 1 v -2 h 1 v -2 h 1 v -2 h 1 v -2 h 1 v -2 h 1 v -2 h 1 v -2 h 1 v -2 h 1 v -3 h 1 v -2 h 1 v -2 h 1 v -2 h 1 v -2 h 1 v -3 h 1 v -2 h 1 v -2 h 1 v -3 h 1 v -2 h 1 v -2 h 1 v -3 h 1 v -3 h 1 v -2 h 1 v -3 h 1 v -2 h 1 v -3 h 1 v -3 h 1 v -2 h 1 v -3 h 1 v -3 h 1 v -3 h 1 v -3 h 1 v -3 h 1 v -3 h 1 v -4 h 1 v -3 h 1 v -3 h 1 v -4 h 1 v -3 h 1 v -4 h 1 v -4 h 1 v -4 h 1 v -3 h 1 v -4 h 1 v -5 h 1 v -5 h 1 v -4 h 1 v -5 h 1 v -5 h 1 v -4 h -3 v -1 h -2 v -1 h -2 v -1 h -2 v -1 h -2 v -1 h -2 v -1 h -2 v -1 h -2 v -1 h -2 v -1 h -3 v -1 h -2 v -1 h -2 v -1 h -2 v -1 h -3 v -1 h -2 v -1 h -2 v -1 h -3 v -1 h -2 v -1 h -3 v -1 h -2 v -1 h -2 v -1 h -3 v -1 h -2 v -1 h -3 v -1 h -2 v -1 h -2 v -1 h -3 v -1 h -2 v -1 h -3 v -1 h -2 v -1 h -3 v -1 h -3 v -1 h -3 v -1 h -3 v -1 h -2 v -1 h -3 v -1 h -3 v -1 h -3 v -1 h -3 v -1 h -3 v -1 h -3 v -1 h -3 v -1 h -3 v -1 h -3 v -1 h -4 v -1 h -3 v -1 h -3 v -1 h -3 v -1 h -4 v -1 h -3 v -1 h -4 v -1 h -3 v -1 h -4 v 2 h -1 v 5 h -1 v 4 h -1 v 3 h -1 v 3 h -1 v 4 h -1 v 3 h -1 v 4 h -1 v 3 h -1 v 3 h -1 v 4 h -1 v 3 h -1 v 4 h -1 v 3 h -1 v 3 h -1 v 2 h -1 v 2 h -1 v 3 h -1 v 2 h -1 v 3 h -1 v 2 h -1 v 2 h -1 v 3 h -1 v 2 h -1 v 2 h -1 v 3 h -1 v 2 h -1 v 2 h -1 v 3 h -1 v 2 h -1 v 3 h -1 v 2 h -1 v 2 h -1 v 2 h -1 v 1 h -1 v 2 h -1 v 2 h -1 v 2 h -1 v 2 h -1 v 1 h -1 v 2 h -1 v 2 h -1 v 2 h -1 v 1 h -1 v 2 h -1 v 2 h -1 v 2 h -1 v 2 h -1 v 1 h -1 v 2 h -1 v 2 h -1 v 2 h -1 v 1 h -1 v 2 h -1 v 2 h -1 v 2 h -1 v 1 h -1 v 2 h -1 v 1 h -1 v 1 h -1 v 2 h -1 v 1 h -1 v 2 h -1 v 1 h -1 v 1 h -1 v 2 h -1 v 1 h -1 v 2 h -1 v 1 h -1 v 2 h -1 v 1 h -1 v 1 h -1 v 2 h -1 v 1 h -1 v 2 h -1 v 1 h -1 v 1 h -1 v 2 h -1 v 1 h -1 v 2 h -1 v 1 h -1 v 1 h -1 v 2 h -1 v 1 h -1 v 2 h -1 v 1 h -1 v 1 h -1 v 1 h -1 v 2 h -1 v 1 h -1 v 1 h -1 v 1 h -1 v 1 h -1 v 2 h -1 v 1 h -1 v 1 h -1 v 1 h -1 v 1 h -1 v 2 h -1 v 1 h -1 v 1 h -1 v 1 h -1 v 1 h -1 v 1 h -1 v 2 h -1 v 1 h -1 v 1 h -1 v 1 h -1 v 1 h -1 v 2 h -1 v 1 h -1 v 1 h -1 v 1 h -1 v 1 h -1 v 1 h -1 v 1 h -1 v 1 h -1 v 1 h -1 v 2 h -1 v 1 h -1 v 1 h -1 v 1 h -4 v -11 h 1 v -12 h 1 v -12 h 1 v -12 h 1 v -13 h 1 v -13 h 1 v -14 h 1 v -15 h 1 v -14 h 1 v -15 h 1 v -17 h 1 v -19 h 1 v -19 h 1 v -20 h 1 v -28 h 1 v -7 h -9 v -1 h -8 v -1 h -8 v -1 h -10 v -1 h -15 v -1 h -14 v -1 h -18 v -1"
               style="fill:url(#linearGradient186);fill-opacity:1;fill-rule:nonzero;stroke:none"
               id="path188" /></g></g></g><g
         id="g190"><g
           id="g192"
           clip-path="url(#clipPath196)"><g
             id="g198"
             clip-path="url(#clipPath202)"><path
               d="m 2564,2335 v 1 h -10 v 1 h -4 v 1 h -4 v 1 h -2 v 1 h -3 v 1 h -2 v 1 h -2 v 1 h -2 v 1 h -1 v 1 h -2 v 1 h -2 v 1 h -1 v 1 h -1 v 1 h -2 v 1 h -1 v 1 h -1 v 1 h -1 v 1 h -1 v 1 h -1 v 1 h -1 v 1 h -1 v 1 h -1 v 1 h -1 v 1 h -1 v 1 h -1 v 1 h -1 v 1 h -1 v 2 h -1 v 1 h -1 v 1 h -1 v 1 h -1 v 1 h -1 v 1 h -1 v 2 h -1 v 1 h -1 v 1 h -1 v 1 h -1 v 2 h -1 v 1 h -1 v 1 h -1 v 2 h -1 v 1 h -1 v 1 h -1 v 2 h -1 v 1 h -1 v 1 h -1 v 2 h -1 v 1 h -1 v 1 h -1 v 2 h -1 v 1 h -1 v 2 h -1 v 1 h -1 v 1 h -1 v 2 h -1 v 1 h -1 v 2 h -1 v 1 h -1 v 2 h -1 v 1 h -1 v 2 h -1 v 1 h -1 v 2 h -1 v 1 h -1 v 2 h -1 v 1 h -1 v 2 h -1 v 2 h -1 v 1 h -1 v 2 h -1 v 1 h -1 v 2 h -1 v 1 h -1 v 2 h -1 v 2 h -1 v 1 h -1 v 2 h -1 v 2 h -1 v 1 h -1 v 2 h -1 v 1 h -1 v 2 h -1 v 2 h -1 v 2 h -1 v 1 h -1 v 2 h -1 v 2 h -1 v 1 h -1 v 2 h -1 v 2 h -1 v 1 h -1 v 2 h -1 v 2 h -1 v 2 h -1 v 1 h -1 v 2 h -1 v 2 h -1 v 2 h -1 v 1 h -1 v 2 h -1 v 2 h -1 v 2 h -1 v 2 h -1 v 1 h -1 v 2 h -1 v 2 h -1 v 2 h -1 v 2 h -1 v 1 h -1 v 2 h -1 v 2 h -1 v 2 h -1 v 2 h -1 v 2 h -1 v 1 h -1 v 2 h -1 v 2 h -1 v 2 h -1 v 2 h -1 v 2 h -1 v 2 h -1 v 2 h -1 v 2 h -1 v 1 h -1 v 2 h -1 v 2 h -1 v 2 h -1 v 2 h -1 v 2 h -1 v 2 h -1 v 2 h -1 v 2 h -1 v 2 h -1 v 2 h -1 v 2 h -1 v 2 h -1 v 2 h -1 v 2 h -1 v 2 h -1 v 2 h -1 v 3 h -1 v 2 h -1 v 3 h -1 v 2 h -1 v 4 h -1 v 3 h -1 v 4 h -1 v 4 h -1 v 8 h -1 v 13 h 1 v 6 h 1 v 4 h 1 v 3 h 1 v 2 h 1 v 2 h 1 v 2 h 1 v 1 h 1 v 1 h 1 v 2 h 1 v 1 h 1 v 1 h 1 v 1 h 2 v 1 h 1 v 1 h 1 v 1 h 2 v 1 h 1 v 1 h 2 v 1 h 2 v 1 h 2 v 1 h 1 v 1 h 2 v 1 h 3 v 1 h 3 v 1 h 2 v 1 h 3 v 1 h 5 v 1 h 14 v -1 h 6 v -1 h 2 v -1 h 2 v -1 h 2 v -1 h 2 v -1 h 1 v -1 h 2 v -1 h 1 v -1 h 1 v -1 h 1 v -1 h 1 v -1 h 1 v -1 h 1 v -1 h 1 v -1 h 1 v -2 h 1 v -1 h 1 v -1 h 1 v -2 h 1 v -2 h 1 v -2 h 1 v -2 h 1 v -3 h 1 v -2 h 1 v -3 h 1 v -2 h 1 v -2 h 1 v -3 h 1 v -2 h 1 v -2 h 1 v -2 h 1 v -2 h 1 v -2 h 1 v -2 h 1 v -2 h 1 v -2 h 1 v -2 h 1 v -2 h 1 v -2 h 1 v -2 h 1 v -1 h 1 v -2 h 1 v -2 h 1 v -2 h 1 v -2 h 1 v -2 h 1 v -1 h 1 v -2 h 1 v -2 h 1 v -2 h 1 v -2 h 1 v -1 h 1 v -2 h 1 v -2 h 1 v -1 h 1 v -2 h 1 v -2 h 1 v -2 h 1 v -1 h 1 v -2 h 1 v -2 h 1 v -1 h 1 v -2 h 1 v -2 h 1 v -1 h 1 v -2 h 1 v -2 h 1 v -1 h 1 v -2 h 1 v -2 h 1 v -1 h 1 v -2 h 1 v -2 h 1 v -1 h 1 v -2 h 1 v -1 h 1 v -2 h 1 v -2 h 1 v -1 h 1 v -2 h 1 v -2 h 1 v -1 h 1 v -2 h 1 v -1 h 1 v -2 h 1 v -2 h 1 v -1 h 1 v -2 h 1 v -1 h 1 v -2 h 1 v -1 h 1 v -2 h 1 v -2 h 1 v -1 h 1 v -2 h 1 v -1 h 1 v -2 h 1 v -1 h 1 v -2 h 1 v -2 h 1 v -1 h 1 v -2 h 1 v -1 h 1 v -2 h 1 v -1 h 1 v -2 h 1 v -1 h 1 v -2 h 1 v -1 h 1 v -2 h 1 v -1 h 1 v -2 h 1 v -1 h 1 v -2 h 1 v -1 h 1 v -2 h 3 v 1 h 5 v 1 h 5 v 1 h 5 v 1 h 5 v 1 h 4 v 1 h 5 v 1 h 5 v 1 h 4 v 1 h 4 v 1 h 5 v 1 h 4 v 1 h 4 v 1 h 4 v 1 h 4 v 1 h 4 v 1 h 4 v 1 h 4 v 1 h 4 v 1 h 3 v 1 h 4 v 1 h 4 v 1 h 3 v 1 h 3 v 1 h 4 v 1 h 3 v 1 h 3 v 1 h 3 v 1 h 3 v 1 h 3 v 1 h 3 v 1 h 3 v 1 h 3 v 1 h 3 v 1 h 2 v 1 h 3 v 1 h 3 v 1 h 2 v 1 h 2 v 1 h 2 v 1 h 3 v 1 h 2 v 1 h 2 v 1 h 2 v 1 h 1 v 1 h 2 v 1 h 2 v 1 h 2 v 1 h 1 v 1 h 2 v 1 h 1 v 1 h 2 v -1 h 1 v -1 h 1 v -1 h 1 v -1 h 1 v -1 h 1 v -2 h 1 v -1 h 1 v -1 h 1 v -1 h 1 v -2 h 1 v -1 h 1 v -1 h 1 v -2 h 1 v -1 h 1 v -1 h 1 v -2 h 1 v -1 h 1 v -1 h 1 v -2 h 1 v -1 h 1 v -1 h 1 v -1 h 1 v -2 h 1 v -1 h 1 v -1 h 1 v -2 h 1 v -2 h -1 v -1 h -1 v -1 h -1 v -1 h -1 v -1 h -1 v -1 h -1 v -1 h -1 v -1 h -1 v -1 h -1 v -1 h -1 v -1 h -1 v -1 h -1 v -1 h -1 v -1 h -1 v -1 h -1 v -1 h -2 v -1 h -1 v -1 h -1 v -1 h -1 v -1 h -1 v -1 h -1 v -1 h -2 v -1 h -1 v -1 h -1 v -1 h -1 v -1 h -2 v -1 h -1 v -1 h -1 v -1 h -2 v -1 h -1 v -1 h -1 v -1 h -1 v -1 h -2 v -1 h -1 v -1 h -1 v -1 h -2 v -1 h -1 v -1 h -2 v -1 h -1 v -1 h -1 v -1 h -2 v -1 h -1 v -1 h -2 v -1 h -1 v -1 h -1 v -1 h -2 v -1 h -1 v -1 h -2 v -1 h -1 v -1 h -1 v -1 h -2 v -1 h -1 v -1 h -2 v -1 h -1 v -1 h -2 v -1 h -1 v -1 h -2 v -1 h -1 v -1 h -2 v -1 h -1 v -1 h -2 v -1 h -1 v -1 h -2 v -1 h -1 v -1 h -2 v -1 h -1 v -1 h -2 v -1 h -1 v -1 h -2 v -1 h -1 v -1 h -2 v -1 h -1 v -1 h -2 v -1 h -1 v -1 h -2 v -1 h -2 v -1 h -1 v -1 h -2 v -1 h -1 v -1 h -2 v -1 h -1 v -1 h -2 v -1 h -2 v -1 h -1 v -1 h -2 v -1 h -1 v -1 h -2 v -1 h -2 v -1 h -1 v -1 h -2 v -1 h -1 v -1 h -2 v -1 h -2 v -1 h -1 v -1 h -2 v -1 h -1 v -1 h -2 v -1 h -2 v -1 h -1 v -1 h -2 v -1 h -2 v -1 h -1 v -1 h -2 v -1 h -1 v -1 h -2 v -1 h -2 v -1 h -1 v -1 h -2 v -1 h -2 v -1 h -1 v -1 h -2 v -1 h -2 v -1 h -1 v -1 h -2 v -1 h -2 v -1 h -1 v -1 h -2 v -1 h -2 v -1 h -1 v -1 h -3 v -1 h -2 v -1 h -2 v -1 h -3 v -1 h -4 v -1 h -3 v -1 h -9 v -1"
               style="fill:url(#linearGradient208);fill-opacity:1;fill-rule:nonzero;stroke:none"
               id="path210" /></g></g></g><g
         id="g212"><g
           id="g214"
           clip-path="url(#clipPath218)"><path
             d="m 2765.5,2462.38 c 44.28,23.74 80.39,52.77 90.5,104.95 1.77,9.17 -15.35,19.6 -29.16,10.17 -13.81,-9.42 -34.08,-32.36 -41.53,-50.68 -1.91,6.8 1.38,18.88 -0.88,24.98 -2.24,6.08 -3.7,14.94 -14.91,5.16 -11.2,-9.78 -25.42,-42.57 -29.62,-60.77 8.13,-11.81 17.24,-22.16 25.6,-33.81"
             style="fill:#f8a2a8;fill-opacity:1;fill-rule:nonzero;stroke:none"
             id="path220" /></g></g><g
         id="g222"><g
           id="g224"
           clip-path="url(#clipPath228)"><g
             id="g230"
             clip-path="url(#clipPath234)"><path
               d="m 2076,2359 v 1 h -11 v 1 h -4 v 1 h -4 v 1 h -3 v 1 h -2 v 1 h -3 v 1 h -2 v 1 h -1 v 1 h -2 v 1 h -2 v 1 h -1 v 1 h -2 v 1 h -1 v 1 h -1 v 1 h -2 v 1 h -1 v 1 h -2 v 1 h -1 v 1 h -1 v 1 h -2 v 1 h -1 v 1 h -1 v 1 h -2 v 1 h -1 v 1 h -1 v 1 h -2 v 1 h -1 v 1 h -1 v 1 h -2 v 1 h -1 v 1 h -1 v 1 h -2 v 1 h -1 v 1 h -1 v 1 h -1 v 1 h -2 v 1 h -1 v 1 h -1 v 1 h -2 v 1 h -1 v 1 h -1 v 1 h -2 v 1 h -1 v 1 h -1 v 1 h -2 v 1 h -1 v 1 h -1 v 1 h -1 v 1 h -2 v 1 h -1 v 1 h -1 v 1 h -2 v 1 h -1 v 1 h -1 v 1 h -1 v 1 h -2 v 1 h -1 v 1 h -1 v 1 h -1 v 1 h -2 v 1 h -1 v 1 h -1 v 1 h -2 v 1 h -1 v 1 h -1 v 1 h -1 v 1 h -2 v 1 h -1 v 1 h -1 v 1 h -1 v 1 h -1 v 1 h -2 v 1 h -1 v 1 h -1 v 1 h -1 v 1 h -2 v 1 h -1 v 1 h -1 v 1 h -1 v 1 h -2 v 1 h -1 v 1 h -1 v 1 h -1 v 1 h -1 v 1 h -1 v 1 h -2 v 1 h -1 v 1 h -1 v 1 h -1 v 1 h -1 v 1 h -2 v 1 h -1 v 1 h -1 v 1 h -1 v 1 h -1 v 1 h -1 v 1 h -2 v 1 h -1 v 1 h -1 v 1 h -1 v 1 h -1 v 1 h -1 v 1 h -1 v 1 h -1 v 1 h -2 v 1 h -1 v 1 h -1 v 1 h -1 v 1 h -1 v 1 h -1 v 1 h -1 v 1 h -1 v 1 h -1 v 1 h -1 v 1 h -1 v 1 h -2 v 1 h -1 v 1 h -1 v 1 h -1 v 1 h -1 v 1 h -1 v 1 h -1 v 1 h -1 v 1 h -1 v 1 h -1 v 1 h -1 v 1 h -1 v 1 h -1 v 2 h -1 v 1 h -1 v 1 h -1 v 1 h -1 v 1 h -1 v 1 h -1 v 1 h -1 v 1 h -1 v 2 h -1 v 1 h -1 v 1 h -1 v 1 h -1 v 2 h -1 v 1 h -1 v 3 h 1 v 1 h 1 v 1 h 1 v 1 h 1 v 1 h 1 v 1 h 1 v 1 h 1 v 1 h 1 v 1 h 1 v 1 h 1 v 2 h 1 v 1 h 1 v 1 h 1 v 1 h 1 v 1 h 1 v 1 h 1 v 1 h 1 v 1 h 1 v 1 h 1 v 1 h 1 v 1 h 1 v 1 h 1 v 1 h 1 v 1 h 1 v 1 h 1 v 1 h 1 v 1 h 1 v 1 h 1 v 1 h 1 v 1 h 1 v -1 h 1 v -1 h 2 v -1 h 1 v -1 h 1 v -1 h 1 v -1 h 2 v -1 h 1 v -1 h 2 v -1 h 1 v -1 h 2 v -1 h 1 v -1 h 2 v -1 h 2 v -1 h 2 v -1 h 1 v -1 h 2 v -1 h 2 v -1 h 2 v -1 h 2 v -1 h 2 v -1 h 2 v -1 h 2 v -1 h 2 v -1 h 2 v -1 h 2 v -1 h 3 v -1 h 2 v -1 h 2 v -1 h 2 v -1 h 3 v -1 h 2 v -1 h 3 v -1 h 2 v -1 h 2 v -1 h 3 v -1 h 2 v -1 h 3 v -1 h 3 v -1 h 2 v -1 h 3 v -1 h 2 v -1 h 3 v -1 h 3 v -1 h 2 v -1 h 3 v -1 h 3 v -1 h 3 v -1 h 3 v -1 h 3 v -1 h 2 v -1 h 3 v -1 h 3 v -1 h 3 v -1 h 3 v -1 h 3 v -1 h 3 v -1 h 3 v -1 h 4 v -1 h 3 v -1 h 3 v -1 h 3 v -1 h 3 v -1 h 3 v -1 h 4 v -1 h 3 v -1 h 3 v -1 h 3 v 1 h 1 v 1 h 1 v 1 h 1 v 1 h 1 v 2 h 1 v 1 h 1 v 1 h 1 v 1 h 1 v 2 h 1 v 1 h 1 v 1 h 1 v 1 h 1 v 2 h 1 v 1 h 1 v 1 h 1 v 1 h 1 v 2 h 1 v 1 h 1 v 1 h 1 v 1 h 1 v 2 h 1 v 1 h 1 v 1 h 1 v 1 h 1 v 2 h 1 v 1 h 1 v 1 h 1 v 2 h 1 v 1 h 1 v 1 h 1 v 1 h 1 v 2 h 1 v 1 h 1 v 1 h 1 v 2 h 1 v 1 h 1 v 1 h 1 v 1 h 1 v 2 h 1 v 1 h 1 v 1 h 1 v 2 h 1 v 1 h 1 v 1 h 1 v 2 h 1 v 1 h 1 v 1 h 1 v 2 h 1 v 1 h 1 v 1 h 1 v 1 h 1 v 2 h 1 v 1 h 1 v 1 h 1 v 2 h 1 v 1 h 1 v 1 h 1 v 2 h 1 v 1 h 1 v 2 h 1 v 1 h 1 v 1 h 1 v 2 h 1 v 1 h 1 v 1 h 1 v 2 h 1 v 1 h 1 v 1 h 1 v 2 h 1 v 1 h 1 v 2 h 1 v 1 h 1 v 1 h 1 v 2 h 1 v 1 h 1 v 2 h 1 v 1 h 1 v 1 h 1 v 2 h 1 v 1 h 1 v 2 h 1 v 1 h 1 v 2 h 1 v 1 h 1 v 2 h 1 v 1 h 1 v 2 h 1 v 1 h 1 v 1 h 1 v 2 h 1 v 1 h 1 v 2 h 1 v 2 h 1 v 1 h 1 v 2 h 1 v 1 h 1 v 2 h 1 v 1 h 1 v 2 h 1 v 2 h 1 v 2 h 1 v 1 h 1 v 2 h 1 v 2 h 1 v 2 h 1 v 1 h 1 v 2 h 1 v 2 h 1 v 2 h 1 v 2 h 1 v 2 h 1 v 1 h 1 v 2 h 1 v 1 h 1 v 1 h 1 v 2 h 1 v 1 h 1 v 1 h 1 v 1 h 1 v 1 h 1 v 1 h 1 v 1 h 2 v 1 h 1 v 1 h 2 v 1 h 1 v 1 h 2 v 1 h 3 v 1 h 3 v 1 h 2 v 1 h 16 v -1 h 5 v -1 h 3 v -1 h 2 v -1 h 2 v -1 h 2 v -1 h 3 v -1 h 2 v -1 h 1 v -1 h 2 v -1 h 1 v -1 h 1 v -1 h 2 v -1 h 1 v -1 h 2 v -1 h 1 v -1 h 1 v -1 h 1 v -1 h 1 v -1 h 1 v -1 h 1 v -1 h 1 v -1 h 1 v -2 h 1 v -2 h 1 v -1 h 1 v -3 h 1 v -2 h 1 v -4 h 1 v -21 h -1 v -5 h -1 v -4 h -1 v -3 h -1 v -3 h -1 v -3 h -1 v -2 h -1 v -3 h -1 v -2 h -1 v -2 h -1 v -2 h -1 v -2 h -1 v -2 h -1 v -2 h -1 v -1 h -1 v -2 h -1 v -1 h -1 v -2 h -1 v -2 h -1 v -1 h -1 v -2 h -1 v -1 h -1 v -2 h -1 v -1 h -1 v -2 h -1 v -2 h -1 v -1 h -1 v -2 h -1 v -1 h -1 v -2 h -1 v -1 h -1 v -2 h -1 v -1 h -1 v -2 h -1 v -1 h -1 v -2 h -1 v -1 h -1 v -2 h -1 v -1 h -1 v -2 h -1 v -1 h -1 v -2 h -1 v -1 h -1 v -2 h -1 v -1 h -1 v -2 h -1 v -1 h -1 v -2 h -1 v -1 h -1 v -2 h -1 v -1 h -1 v -2 h -1 v -1 h -1 v -2 h -1 v -1 h -1 v -2 h -1 v -1 h -1 v -1 h -1 v -2 h -1 v -1 h -1 v -2 h -1 v -1 h -1 v -2 h -1 v -1 h -1 v -1 h -1 v -2 h -1 v -1 h -1 v -2 h -1 v -1 h -1 v -1 h -1 v -2 h -1 v -1 h -1 v -2 h -1 v -1 h -1 v -1 h -1 v -2 h -1 v -1 h -1 v -1 h -1 v -2 h -1 v -1 h -1 v -2 h -1 v -1 h -1 v -1 h -1 v -2 h -1 v -1 h -1 v -1 h -1 v -1 h -1 v -2 h -1 v -1 h -1 v -1 h -1 v -2 h -1 v -1 h -1 v -1 h -1 v -2 h -1 v -1 h -1 v -1 h -1 v -1 h -1 v -2 h -1 v -1 h -1 v -1 h -1 v -2 h -1 v -1 h -1 v -1 h -1 v -1 h -1 v -1 h -1 v -2 h -1 v -1 h -1 v -1 h -1 v -1 h -1 v -2 h -1 v -1 h -1 v -1 h -1 v -1 h -1 v -1 h -1 v -2 h -1 v -1 h -1 v -1 h -1 v -1 h -1 v -1 h -1 v -1 h -1 v -1 h -1 v -2 h -1 v -1 h -1 v -1 h -1 v -1 h -1 v -1 h -1 v -1 h -1 v -1 h -1 v -1 h -1 v -1 h -1 v -1 h -1 v -1 h -1 v -1 h -1 v -2 h -1 v -1 h -2 v -1 h -1 v -1 h -1 v -1 h -1 v -1 h -1 v -1 h -1 v -1 h -1 v -1 h -1 v -1 h -1 v -1 h -1 v -1 h -1 v -1 h -1 v -1 h -1 v -1 h -1 v -1 h -1 v -1 h -2 v -1 h -1 v -1 h -1 v -1 h -1 v -1 h -2 v -1 h -1 v -1 h -2 v -1 h -2 v -1 h -2 v -1 h -2 v -1 h -2 v -1 h -2 v -1 h -3 v -1 h -4 v -1 h -4 v -1 h -9 v -1"
               style="fill:url(#linearGradient240);fill-opacity:1;fill-rule:nonzero;stroke:none"
               id="path242" /></g></g></g><g
         id="g244"><g
           id="g246"
           clip-path="url(#clipPath250)"><path
             d="m 1884.32,2505.77 c -41.74,27.97 -74.83,60.41 -79.76,113.33 -0.87,9.3 17.21,18 30.02,7.27 12.81,-10.74 30.73,-35.57 36.35,-54.53 2.57,6.58 0.48,18.93 3.32,24.77 2.83,5.84 5.16,14.52 15.35,3.68 10.19,-10.83 21.11,-44.86 23.51,-63.38 -9.25,-10.96 -19.33,-20.36 -28.79,-31.14"
             style="fill:#f8a2a8;fill-opacity:1;fill-rule:nonzero;stroke:none"
             id="path252" /></g></g><g
         id="g254"><g
           id="g256"
           clip-path="url(#clipPath260)"><g
             id="g262"
             clip-path="url(#clipPath266)"><path
               d="m 2325,1946 v 1 h -15 v 1 h -13 v 1 h -7 v 1 h -6 v 1 h -7 v 1 h -7 v 1 h -7 v 1 h -5 v 1 h -5 v 1 h -4 v 1 h -5 v 1 h -5 v 1 h -4 v 1 h -5 v 1 h -5 v 1 h -3 v 1 h -4 v 1 h -4 v 1 h -3 v 1 h -4 v 1 h -4 v 1 h -3 v 1 h -4 v 1 h -4 v 1 h -3 v 1 h -3 v 1 h -4 v 1 h -3 v 1 h -3 v 1 h -3 v 1 h -3 v 1 h -3 v 1 h -3 v 1 h -3 v 1 h -3 v 1 h -3 v 1 h -3 v 1 h -3 v 1 h -3 v 1 h -2 v 1 h -3 v 1 h -3 v 1 h -3 v 1 h -2 v 1 h -3 v 1 h -3 v 1 h -3 v 1 h -2 v 1 h -3 v 1 h -1 v 3 h 1 v 3 h 1 v 4 h 1 v 3 h 1 v 3 h 1 v 3 h 1 v 4 h 1 v 3 h 1 v 3 h 1 v 3 h 1 v 3 h 1 v 3 h 1 v 3 h 1 v 3 h 1 v 3 h 1 v 3 h 1 v 3 h 1 v 2 h 1 v 3 h 1 v 3 h 1 v 3 h 1 v 2 h 1 v 3 h 1 v 3 h 1 v 2 h 1 v 3 h 1 v 2 h 1 v 3 h 1 v 2 h 1 v 3 h 1 v 2 h 1 v 3 h 1 v 2 h 1 v 3 h 1 v 2 h 1 v 2 h 1 v 3 h 1 v 2 h 1 v 2 h 1 v 2 h 1 v 3 h 1 v 2 h 1 v 2 h 1 v 2 h 1 v 2 h 1 v 3 h 1 v 2 h 1 v 2 h 1 v 2 h 1 v 2 h 1 v 2 h 1 v 2 h 1 v 3 h 1 v 2 h 1 v 2 h 1 v 2 h 1 v 2 h 1 v 2 h 1 v 3 h 1 v 2 h 1 v 2 h 1 v 2 h 1 v 3 h 1 v 2 h 1 v 2 h 1 v 2 h 1 v 3 h 1 v 2 h 1 v 2 h 1 v 2 h 1 v 3 h 1 v 2 h 1 v 3 h 1 v 2 h 1 v 3 h 1 v 2 h 1 v 3 h 1 v 3 h 1 v 2 h 1 v 3 h 1 v 3 h 1 v 3 h 1 v 3 h 1 v 3 h 1 v 3 h 1 v 3 h 1 v 3 h 1 v 3 h 1 v 5 h 1 v 4 h 1 v 4 h 1 v 4 h 1 v 4 h 1 v 7 h 1 v 7 h 1 v 8 h 1 v 15 h 1 v 14 h -1 v 11 h -1 v 7 h -1 v 7 h -1 v 5 h -1 v 4 h -1 v 5 h -1 v 4 h -1 v 5 h -1 v 3 h -1 v 3 h -1 v 4 h -1 v 3 h -1 v 3 h -1 v 3 h -1 v 4 h -1 v 2 h -1 v 3 h -1 v 3 h -1 v 3 h -1 v 2 h -1 v 3 h -1 v 3 h -1 v 2 h -1 v 2 h -1 v 3 h -1 v 3 h -1 v 3 h -1 v 3 h -1 v 3 h -1 v 4 h -1 v 5 h -1 v 5 h -1 v 5 h -1 v 17 h -1 v 4 h 1 v 14 h 1 v 6 h 1 v 5 h 1 v 5 h 1 v 4 h 1 v 4 h 1 v 5 h 1 v 4 h 1 v 4 h 1 v 4 h 1 v 4 h 1 v 5 h 1 v 4 h 1 v 5 h 1 v 4 h 1 v 4 h 1 v 4 h 1 v 3 h 1 v 4 h 1 v 3 h 1 v 3 h 1 v 3 h 1 v 3 h 1 v 3 h 1 v 3 h 1 v 3 h 1 v 3 h 1 v 3 h 1 v 3 h 1 v 3 h 1 v 2 h 1 v 3 h 1 v 3 h 1 v 3 h 1 v 2 h 1 v 3 h 1 v 3 h 1 v 2 h 1 v 3 h 1 v 3 h 1 v 2 h 1 v 3 h 1 v 3 h 1 v 2 h 1 v 3 h 1 v 2 h 1 v 3 h 1 v 2 h 1 v 3 h 1 v 3 h 1 v 2 h 1 v 3 h 1 v 2 h 1 v 3 h 1 v 2 h 1 v 3 h 1 v 2 h 1 v 3 h 1 v 1 h 1 v -1 h 2 v -1 h 2 v -1 h 2 v -1 h 2 v -1 h 2 v -1 h 3 v -1 h 2 v -1 h 2 v -1 h 2 v -1 h 2 v -1 h 2 v -1 h 2 v -1 h 2 v -1 h 2 v -1 h 2 v -1 h 3 v -1 h 2 v -1 h 2 v -1 h 2 v -1 h 2 v -1 h 4 v 1 h 3 v 1 h 3 v 1 h 2 v 1 h 1 v 1 h 2 v 1 h 1 v 1 h 1 v 16 h 32 v -1 h 39 v -7 h 1 v -11 h 1 v -4 h 1 v -2 h 1 v -1 h 2 v -1 h 8 v 1 h 7 v 1 h 3 v 1 h 4 v 1 h 3 v 1 h 3 v 1 h 3 v 1 h 2 v 1 h 3 v 1 h 2 v 1 h 2 v 1 h 3 v 1 h 2 v 1 h 2 v 1 h 3 v 1 h 3 v -1 h 1 v -3 h 1 v -4 h 1 v -3 h 1 v -4 h 1 v -4 h 1 v -3 h 1 v -4 h 1 v -4 h 1 v -4 h 1 v -3 h 1 v -4 h 1 v -4 h 1 v -4 h 1 v -4 h 1 v -4 h 1 v -4 h 1 v -4 h 1 v -4 h 1 v -4 h 1 v -4 h 1 v -5 h 1 v -4 h 1 v -4 h 1 v -5 h 1 v -4 h 1 v -4 h 1 v -5 h 1 v -5 h 1 v -4 h 1 v -5 h 1 v -5 h 1 v -5 h 1 v -5 h 1 v -5 h 1 v -6 h 1 v -6 h 1 v -5 h 1 v -7 h 1 v -7 h 1 v -7 h 1 v -11 h 1 v -26 h -1 v -6 h -1 v -4 h -1 v -4 h -1 v -4 h -1 v -4 h -1 v -3 h -1 v -3 h -1 v -4 h -1 v -3 h -1 v -3 h -1 v -3 h -1 v -3 h -1 v -3 h -1 v -2 h -1 v -3 h -1 v -3 h -1 v -3 h -1 v -2 h -1 v -3 h -1 v -3 h -1 v -2 h -1 v -3 h -1 v -3 h -1 v -3 h -1 v -2 h -1 v -3 h -1 v -3 h -1 v -3 h -1 v -3 h -1 v -3 h -1 v -3 h -1 v -3 h -1 v -4 h -1 v -3 h -1 v -4 h -1 v -4 h -1 v -5 h -1 v -4 h -1 v -6 h -1 v -6 h -1 v -8 h -1 v -18 h 1 v -11 h 1 v -7 h 1 v -6 h 1 v -5 h 1 v -4 h 1 v -3 h 1 v -3 h 1 v -3 h 1 v -3 h 1 v -4 h 1 v -3 h 1 v -3 h 1 v -3 h 1 v -3 h 1 v -3 h 1 v -4 h 1 v -3 h 1 v -3 h 1 v -3 h 1 v -4 h 1 v -3 h 1 v -3 h 1 v -4 h 1 v -3 h 1 v -3 h 1 v -4 h 1 v -3 h 1 v -4 h 1 v -3 h 1 v -4 h 1 v -3 h 1 v -4 h 1 v -4 h 1 v -3 h 1 v -4 h 1 v -3 h 1 v -4 h 1 v -4 h 1 v -3 h 1 v -4 h 1 v -4 h 1 v -4 h 1 v -3 h 1 v -4 h 1 v -4 h 1 v -4 h 1 v -4 h 1 v -3 h 1 v -4 h 1 v -4 h 1 v -4 h 1 v -4 h 1 v -4 h 1 v -4 h 1 v -4 h 1 v -4 h 1 v -4 h 1 v -4 h 1 v -4 h 1 v -4 h 1 v -4 h 1 v -4 h 1 v -5 h 1 v -4 h 1 v -4 h 1 v -4 h 1 v -4 h 1 v -5 h 1 v -2 h -1 v -1 h -1 v -1 h -2 v -1 h -1 v -1 h -2 v -1 h -2 v -1 h -1 v -1 h -2 v -1 h -2 v -1 h -2 v -1 h -1 v -1 h -2 v -1 h -2 v -1 h -2 v -1 h -2 v -1 h -2 v -1 h -2 v -1 h -2 v -1 h -3 v -1 h -2 v -1 h -2 v -1 h -2 v -1 h -2 v -1 h -2 v -1 h -3 v -1 h -3 v -1 h -3 v -1 h -3 v -1 h -3 v -1 h -3 v -1 h -3 v -1 h -3 v -1 h -4 v -1 h -4 v -1 h -4 v -1 h -4 v -1 h -5 v -1 h -5 v -1 h -6 v -1 h -8 v -1 h -10 v -1 h -10 v -1"
               style="fill:url(#linearGradient272);fill-opacity:1;fill-rule:nonzero;stroke:none"
               id="path274" /></g></g></g><g
         id="g276"><g
           id="g278"
           clip-path="url(#clipPath282)"><path
             d="m 2332.5,2497.7 c 0,0 -77.2,-2.43 -72,133.25 l 22.46,-10.59 c 4.47,0.52 14.26,3.59 16.4,7.93 0.32,0.59 0.49,1.17 0.53,1.91 l -0.68,13.22 70.07,-0.93 1.09,-11.02 c 0.93,-8.2 -0.42,-14.51 8.3,-14.94 6.81,-0.33 15.22,1.77 23.21,4.49 8,-60.13 -20.52,-121.72 -69.38,-123.32"
             style="fill:#f8a2a8;fill-opacity:1;fill-rule:nonzero;stroke:none"
             id="path284" /><path
             d="m 2299.89,2630.2 c 31.27,-7.56 53.23,-1.8 69.31,12.36 l -3.79,53.03 -70.17,-16.19 4.65,-49.2"
             style="fill:#f7949f;fill-opacity:1;fill-rule:nonzero;stroke:none"
             id="path286" /><path
             d="m 2449.41,2823.12 c -4.74,0.43 -10.13,-1.26 -15.42,-4.32 -6.79,31.55 -23.36,65.2 -43.9,88.4 -8.61,11.51 -18.54,19.04 -29.36,23.59 -5.86,2.88 -11.78,4.82 -17.72,5.37 -4.08,0.37 -8.11,0.54 -12.09,0.51 -3.98,0.09 -8.01,-0.03 -12.09,-0.35 -5.95,-0.47 -11.91,-2.34 -17.78,-5.13 -10.88,-4.41 -20.88,-11.81 -29.62,-23.2 -20.8,-22.92 -37.77,-56.35 -44.91,-87.81 -5.26,3.13 -10.64,4.9 -15.38,4.53 -15.87,-1.26 -21.19,-26.09 -16.93,-44.96 5.4,-23.94 23.59,-31.54 40.48,-36.42 7.65,-15.86 18.53,-31.42 31.1,-44.45 13.16,-15.52 30.18,-27.07 49.64,-31.88 0.57,-0.15 1.14,-0.28 1.72,-0.41 1.13,-0.26 2.23,-0.61 3.38,-0.82 0.77,-0.14 1.56,-0.14 2.33,-0.24 0.66,-0.08 1.31,-0.14 1.97,-0.2 1.51,-0.14 3.01,-0.24 4.54,-0.24 1.52,-0.02 3.02,0.06 4.54,0.18 0.65,0.06 1.31,0.09 1.96,0.17 0.78,0.1 1.57,0.09 2.34,0.22 1.16,0.19 2.26,0.53 3.39,0.76 0.58,0.13 1.15,0.25 1.73,0.39 19.51,4.55 36.67,15.89 50,31.24 12.73,12.86 23.77,28.26 31.6,44.02 16.95,4.64 35.23,12.01 40.89,35.87 4.47,18.81 -0.57,43.71 -16.41,45.18"
             style="fill:#f8a2a8;fill-opacity:1;fill-rule:nonzero;stroke:none"
             id="path288" /><path
             d="m 2283.39,2785.61 c 0.33,-5.31 4.93,-9.36 10.27,-9.04 5.33,0.32 9.4,4.89 9.07,10.21 -0.34,5.31 -4.94,9.36 -10.28,9.03 -5.34,-0.32 -9.4,-4.89 -9.06,-10.2"
             style="fill:#374aa6;fill-opacity:1;fill-rule:nonzero;stroke:none"
             id="path290" /><path
             d="m 2361.94,2785.09 c 0.35,-5.32 4.94,-9.36 10.28,-9.05 5.34,0.33 9.4,4.9 9.07,10.21 -0.33,5.32 -4.94,9.36 -10.28,9.04 -5.34,-0.32 -9.4,-4.89 -9.07,-10.2"
             style="fill:#374aa6;fill-opacity:1;fill-rule:nonzero;stroke:none"
             id="path292" /><path
             d="m 2273.77,2803.83 c -0.1,0.03 -0.2,0.07 -0.29,0.11 -1.45,0.63 -2.1,2.3 -1.47,3.73 7.64,17.04 23.25,16.32 30.51,13.65 1.47,-0.56 2.2,-2.19 1.65,-3.64 -0.56,-1.47 -2.04,-2.23 -3.68,-1.65 -0.51,0.19 -15.91,5.69 -23.23,-10.66 -0.6,-1.33 -2.11,-1.98 -3.49,-1.54"
             style="fill:#374aa6;fill-opacity:1;fill-rule:nonzero;stroke:none"
             id="path294" /><path
             d="m 2356.86,2826.99 c -0.06,0.08 -0.11,0.18 -0.16,0.26 -0.71,1.41 -0.15,3.1 1.27,3.8 16.84,8.37 28.46,-1.99 32.34,-8.61 0.78,-1.35 0.31,-3.07 -1.05,-3.84 -1.37,-0.79 -3.01,-0.45 -3.91,1.03 -0.27,0.47 -8.65,14.38 -24.8,6.36 -1.32,-0.65 -2.9,-0.21 -3.69,1"
             style="fill:#374aa6;fill-opacity:1;fill-rule:nonzero;stroke:none"
             id="path296" /><path
             d="m 2298.64,2732.55 c -0.07,0.1 -0.12,0.22 -0.18,0.32 -0.88,1.72 -0.19,3.81 1.55,4.67 20.66,10.27 34.93,-2.45 39.71,-10.58 0.95,-1.65 0.37,-3.76 -1.3,-4.72 -1.68,-0.96 -3.69,-0.54 -4.8,1.28 -0.32,0.57 -10.62,17.66 -30.45,7.81 -1.61,-0.8 -3.56,-0.26 -4.53,1.22"
             style="fill:#374aa6;fill-opacity:1;fill-rule:nonzero;stroke:none"
             id="path298" /><path
             d="m 2340.14,2745.7 c -1.53,0.01 -2.76,1.24 -2.76,2.75 0.01,1.51 1.24,2.74 2.77,2.74 0.06,0 5.34,0.1 6.72,2.91 0.63,1.3 1.26,5.34 -6.38,14.87 -0.95,1.19 -0.74,2.91 0.46,3.86 1.19,0.93 2.94,0.72 3.89,-0.45 7.15,-8.94 9.46,-15.71 7.02,-20.69 -2.93,-5.95 -11.35,-5.99 -11.71,-5.99 h -0.01"
             style="fill:#374aa6;fill-opacity:1;fill-rule:nonzero;stroke:none"
             id="path300" /><path
             d="m 2442.7,2882.56 c -7.36,32.46 -32.5,62.28 -66.92,73.97 -33.76,11.47 -77.22,9.09 -108,-8.6 -38.9,-22.37 -67.48,-78.1 -47.49,-122.9 6.41,-14.34 11.16,-35.46 22.52,-46.66 5.35,16.44 2.3,34.28 9.06,49.85 12.06,1.85 24.38,5.94 35.55,9.84 17.01,5.93 34.58,16.99 48.33,28.64 11.08,9.39 18.4,19.36 26.65,30.86 -6.51,-14 3.57,-40.24 13.26,-50.68 8.47,-9.1 21.43,-12.31 29.99,-21.87 7.33,-8.2 9.36,-18.26 9.78,-29.05 0.35,-8.87 -0.79,-17.7 -3.26,-25.97 0.85,2.84 6.56,7.15 8.43,9.79 2.88,4.09 5.32,8.49 7.47,12.99 4.37,9.2 7.66,19.12 9.84,29.06 4,18.18 8.76,43.17 4.79,60.73"
             style="fill:#374aa6;fill-opacity:1;fill-rule:nonzero;stroke:none"
             id="path302" /></g></g><g
         id="g304"
         transform="scale(10)"><text
           transform="matrix(1,0,0,-1,172.717,312.651)"
           style="font-variant:normal;font-weight:600;font-size:33.5607px;font-family:'Josefin Sans';-inkscape-font-specification:JosefinSans-SemiBold;writing-mode:lr-tb;fill:#3790a2;fill-opacity:1;fill-rule:nonzero;stroke:none"
           id="text308"><tspan
             x="0 28.694399 57.388798 77.892967 97.425293"
             y="0"
             sodipodi:role="line"
             id="tspan306">OOPS!</tspan></text><text
           transform="matrix(1,0,0,-1,134.3127,113.333)"
           style="font-variant:normal;font-weight:normal;font-size:16.0402px;font-family:'Josefin Sans';-inkscape-font-specification:JosefinSans-Regular;writing-mode:lr-tb;fill:#3790a2;fill-opacity:1;fill-rule:nonzero;stroke:none"
           id="text312">   </text></g><g
         id="g314"><g
           id="g316"
           clip-path="url(#clipPath320)"><path
             d="m 3925.68,1907.32 -46.38,-139.45 -109.77,12.98 -178.91,21.19 410.58,332.44 z m 286.82,-180.67 193.36,605.66 -460.5,38.97 -728.29,-568.84 -68.38,-173.01 666.53,-83.77 -46.74,-147.52 -18.84,-59.12 336.88,-32.07 66.49,194.73 158.92,-8.17 73.72,213.03 -112.41,13.01 -60.74,7.1"
             style="fill:url(#linearGradient328);fill-opacity:1;fill-rule:nonzero;stroke:none"
             id="path330" /></g></g><g
         id="g332"><g
           id="g334"
           clip-path="url(#clipPath338)"><path
             d="m 4212.5,1726.65 60.74,-7.1 146.14,457.7 -13.52,155.06 z m 99.43,-233.14 -158.92,8.17 -66.49,-194.73 -336.88,32.07 13.51,-155.06 336.89,-32.07 66.48,194.73 158.93,-8.16 73.72,213.02 -13.52,155.06 z m -721.31,308.53 178.91,-21.19 156.15,126.47 75.52,227.16 z m -441.93,-172.61 13.52,-155.06 606.27,-76.23 46.74,147.52 -666.53,83.77"
             style="fill:url(#linearGradient346);fill-opacity:1;fill-rule:nonzero;stroke:none"
             id="path348" /></g></g><g
         id="g350"><g
           id="g352"
           clip-path="url(#clipPath356)"><path
             d="m 755.977,1970.32 -36.649,-142.31 -110.41,5.38 -179.941,8.8 386.687,359.96 z m 298.603,-160.47 151.13,617.57 -462.085,7.11 L 56.2891,1816.82 0,1639.52 l 670.715,-37.61 -36.457,-150.39 -14.715,-60.28 338.289,-8.77 52.898,198.85 159.11,2.81 58.86,217.6 -113.04,5.23 -61.08,2.89"
             style="fill:url(#linearGradient364);fill-opacity:1;fill-rule:nonzero;stroke:none"
             id="path366" /></g></g><g
         id="g368"><g
           id="g370"
           clip-path="url(#clipPath374)"><path
             d="m 1054.58,1809.85 61.08,-2.89 114.22,466.7 -24.17,153.76 z m 115.26,-225.72 -159.11,-2.81 -52.898,-198.85 -338.289,8.77 24.168,-153.76 338.301,-8.77 52.898,198.85 159.1,2.81 58.86,217.61 -24.17,153.75 z m -740.863,258.06 179.941,-8.8 147.059,136.93 59.687,231.83 z M 0,1639.52 24.1719,1485.76 634.258,1451.52 670.715,1601.91 0,1639.52"
             style="fill:url(#linearGradient382);fill-opacity:1;fill-rule:nonzero;stroke:none"
             id="path384" /></g></g><path
         d="m 2349.23,128.488 c -4.33,-4.429 -8.04,-9.297 -11.08,-14.527 l -4.65,2.418 c -0.67,2.973 -3.5,5.019 -6.59,4.652 -3.32,-0.39 -5.68,-3.383 -5.3,-6.703 0.4,-3.308 3.39,-5.668 6.7,-5.277 0.66,0.078 1.27,0.258 1.85,0.519 l 4.5,-2.34 c -2.51,-5.539 -4.32,-11.3902 -5.39,-17.4409 l 7.47,-1.3086 c 2.29,13.0505 8.5,25.0585 17.92,34.7185 l -5.43,5.289"
         style="fill:#171f26;fill-opacity:1;fill-rule:nonzero;stroke:none"
         id="path386" /><path
         d="m 2404.1,151.512 c -1.7,0 -3.41,-0.063 -5.08,-0.16 l -0.75,6.257 c 1.89,1.493 2.96,3.879 2.67,6.442 -0.47,3.937 -4.03,6.738 -7.96,6.281 -3.94,-0.461 -6.75,-4.023 -6.28,-7.953 0.31,-2.539 1.89,-4.617 4.04,-5.629 l 0.75,-6.25 c -7.15,-1.172 -14.04,-3.32 -20.61,-6.461 l 3.27,-6.828 c 9.35,4.461 19.42,6.719 29.95,6.719 4.98,0 9.93,-0.52 14.76,-1.571 l 1.61,7.403 c -5.36,1.168 -10.86,1.75 -16.37,1.75"
         style="fill:#171f26;fill-opacity:1;fill-rule:nonzero;stroke:none"
         id="path388" /><path
         d="m 2470.15,126.039 c 3.29,0.402 5.65,3.422 5.24,6.723 -0.41,3.308 -3.41,5.668 -6.72,5.269 -3.09,-0.383 -5.36,-3.051 -5.31,-6.101 l -4.16,-3.629 c -4.18,4.308 -8.88,8.121 -14.05,11.398 l -4.06,-6.418 c 11.35,-7.152 20.2,-17.261 25.63,-29.25 l 6.91,3.129 c -2.52,5.531 -5.68,10.711 -9.43,15.449 l 4.03,3.5 c 0.62,-0.121 1.25,-0.14 1.92,-0.07"
         style="fill:#171f26;fill-opacity:1;fill-rule:nonzero;stroke:none"
         id="path390" /><path
         d="m 2398.63,49.4297 c -3.85,-0.2305 -7.75,-0.3477 -11.57,-0.3477 -8.79,0 -17.32,0.6094 -24.78,1.7969 -3.91,0.6094 -8.46,1.543 -12.71,2.9219 10.47,-18.6211 30.7,-31.25 53.89,-31.25 28.56,0 52.63,19.1601 59.49,45.039 -6.82,-4.5117 -15.05,-8.2617 -24.58,-11.2304 -11.79,-3.6875 -25.54,-6.0781 -39.74,-6.9297"
         style="fill:#171f26;fill-opacity:1;fill-rule:nonzero;stroke:none"
         id="path392" /><path
         d="m 2429.88,80.2891 c -7.5,0 -13.6,6.1015 -13.6,13.6015 0,7.5004 6.1,13.6094 13.6,13.6094 7.52,0 13.61,-6.109 13.61,-13.6094 0,-7.5 -6.09,-13.6015 -13.61,-13.6015 z m -47.36,-9.0782 c -10.2,0 -18.5,8.2891 -18.5,18.5 0,10.1875 8.3,18.4881 18.5,18.4881 10.19,0 18.5,-8.3006 18.5,-18.4881 0,-10.2109 -8.31,-18.5 -18.5,-18.5 z m 21.58,65.1481 c -33.51,0 -60.79,-26.668 -60.79,-59.4371 0,-4.2617 0.46,-8.4922 1.38,-12.6133 6.74,-4.8281 27.05,-8.8984 53.47,-7.3164 28.79,1.7383 52.97,9.5781 66.72,21.5898 -0.06,1.9493 -0.21,3.8985 -0.45,5.8164 -3.8,29.6216 -29.74,51.9606 -60.33,51.9606"
         style="fill:#171f26;fill-opacity:1;fill-rule:nonzero;stroke:none"
         id="path394" /><path
         d="m 2564.14,117.68 c -2.95,1.172 -8.05,3.09 -13.82,2.379 -5.51,-0.688 -8.44,-3.411 -8.44,-10.071 v -8.656 h 22.28 V 84.1602 h -22.28 V 29.6094 h -19.32 v 54.5508 h -13.38 v 17.1718 h 13.38 v 8.879 c 0,16.801 8.96,27.828 25.68,27.828 6.43,0 11.58,-1.219 15.9,-3.078 V 117.68"
         style="fill:#171f26;fill-opacity:1;fill-rule:nonzero;stroke:none"
         id="path396" /><path
         d="m 2611.17,84.3594 c -1.77,0.3008 -3.57,0.4609 -5.26,0.4609 -8.96,0 -15.1,-5.4805 -15.1,-16.1289 v -39.082 h -19.33 v 71.7226 h 18.74 v -7.8515 c 4.52,6.7305 11.39,9.7695 20.21,9.7695 4.13,0 8.48,-1.27 10.94,-3.3711 l -10.2,-15.5195"
         style="fill:#171f26;fill-opacity:1;fill-rule:nonzero;stroke:none"
         id="path398" /><path
         d="m 2636.7,72.2383 h 31.75 c -1.77,9.1836 -7.32,14.3633 -15.61,14.3633 -9.11,0 -14.44,-5.4805 -16.14,-14.3633 z m 51.15,-6.6602 c 0,-2.2187 -0.16,-4.8867 -0.37,-6.5195 h -50.86 c 2.07,-10.3477 9.33,-14.8672 18.44,-14.8672 6.21,0 12.95,2.5195 18.12,6.8789 l 11.34,-12.4297 c -8.15,-7.4804 -18.5,-10.8789 -30.57,-10.8789 -21.97,0 -37.23,14.9492 -37.23,37.5196 0,22.5781 14.8,37.9687 36.26,37.9687 20.65,0 34.79,-15.3203 34.87,-37.6719"
         style="fill:#171f26;fill-opacity:1;fill-rule:nonzero;stroke:none"
         id="path400" /><path
         d="m 2713.24,72.2383 h 31.74 c -1.78,9.1836 -7.32,14.3633 -15.61,14.3633 -9.1,0 -14.43,-5.4805 -16.13,-14.3633 z m 51.14,-6.6602 c 0,-2.2187 -0.16,-4.8867 -0.38,-6.5195 h -50.85 c 2.08,-10.3477 9.33,-14.8672 18.44,-14.8672 6.23,0 12.96,2.5195 18.15,6.8789 l 11.32,-12.4297 c -8.16,-7.4804 -18.52,-10.8789 -30.59,-10.8789 -21.98,0 -37.23,14.9492 -37.23,37.5196 0,22.5781 14.81,37.9687 36.28,37.9687 20.64,0 34.78,-15.3203 34.86,-37.6719"
         style="fill:#171f26;fill-opacity:1;fill-rule:nonzero;stroke:none"
         id="path402" /><path
         d="m 2791.06,65.5117 c 0,-11.332 7.48,-19.7695 18.43,-19.7695 11.41,0 18.5,8.8086 18.5,19.7695 0,10.9492 -7.09,19.7578 -18.5,19.7578 -10.95,0 -18.43,-8.4414 -18.43,-19.7578 z m 56.78,0 c 0,-21.5508 -14.95,-37.75 -34.72,-37.75 -9.62,0 -16.44,3.7696 -21.1,9.3281 V 0 h -19.25 v 101.332 h 18.88 v -7.9218 c 4.67,5.8515 11.54,9.8398 21.39,9.8398 19.85,0 34.8,-16.1992 34.8,-37.7383"
         style="fill:#171f26;fill-opacity:1;fill-rule:nonzero;stroke:none"
         id="path404" /><path
         d="m 2876.27,29.6094 h -19.32 v 71.7226 h 19.32 z m 2.6,95.1796 c 0,-6.957 -5.41,-12.277 -12.37,-12.277 -6.95,0 -12.28,5.32 -12.28,12.277 0,6.961 5.33,12.441 12.28,12.441 6.96,0 12.37,-5.48 12.37,-12.441"
         style="fill:#171f26;fill-opacity:1;fill-rule:nonzero;stroke:none"
         id="path406" /><path
         d="m 2908.52,75.7891 27.01,25.5429 h 23.69 l -34.79,-33.75 35,-37.9726 h -23.75 l -27.16,29.0117 V 29.6094 h -19.33 V 136.191 h 19.33 V 75.7891"
         style="fill:#171f26;fill-opacity:1;fill-rule:nonzero;stroke:none"
         id="path408" /><path
         d="m 1592.32,49.4492 v 32.0703 c -3.96,6.1524 -12.46,11.4297 -21.25,11.4297 -14.2,0 -22.7,-11.7187 -22.7,-27.3906 0,-15.6797 8.5,-27.2383 22.7,-27.2383 8.79,0 17.29,4.9688 21.25,11.1289 z m 0,-19.1875 V 40.8086 C 1587.05,33.6289 1578.4,28.5 1568.44,28.5 c -18.46,0 -31.5,14.0703 -31.5,37.0586 0,22.5625 12.9,37.2034 31.5,37.2034 9.53,0 18.16,-4.6917 23.88,-12.4534 v 37.6524 h 10.98 V 30.2617 h -10.98"
         style="fill:#171f26;fill-opacity:1;fill-rule:nonzero;stroke:none"
         id="path410" /><path
         d="m 1652.24,93.6797 c -15.11,0 -22.57,-12.7383 -23.15,-23.5781 h 46.43 c -0.16,10.5468 -7.18,23.5781 -23.28,23.5781 z m -34.72,-27.9805 c 0,20.5117 14.64,37.0628 34.84,37.0628 21.39,0 33.99,-16.7034 33.99,-37.93 v -2.7929 h -57.26 c 0.87,-13.3282 10.25,-24.4493 25.48,-24.4493 8.08,0 16.27,3.2188 21.83,8.9297 l 5.26,-7.1914 C 1674.63,32.3008 1665.12,28.5 1653.54,28.5 c -20.94,0 -36.02,15.0898 -36.02,37.1992"
         style="fill:#171f26;fill-opacity:1;fill-rule:nonzero;stroke:none"
         id="path412" /><path
         d="m 1694.26,39.6406 5.72,7.8985 c 4.68,-5.418 13.61,-10.1094 23.29,-10.1094 10.83,0 16.69,5.1406 16.69,12.1719 0,17.1289 -43.79,6.5781 -43.79,32.7968 0,10.9922 9.51,20.3636 26.36,20.3636 12.02,0 20.51,-4.5432 26.22,-10.2503 l -5.12,-7.6211 c -4.25,5.1289 -12.02,8.9414 -21.1,8.9414 -9.67,0 -15.67,-4.8437 -15.67,-11.1406 0,-15.5117 43.79,-5.2695 43.79,-32.8125 0,-11.8594 -9.52,-21.3789 -27.82,-21.3789 -11.58,0 -21.39,3.5195 -28.57,11.1406"
         style="fill:#171f26;fill-opacity:1;fill-rule:nonzero;stroke:none"
         id="path414" /><path
         d="M 1764.86,30.2617 V 101 h 11 V 30.2617 Z m -1.89,88.1793 c 0,4.098 3.36,7.469 7.31,7.469 4.12,0 7.47,-3.371 7.47,-7.469 0,-4.113 -3.35,-7.332 -7.47,-7.332 -3.95,0 -7.31,3.219 -7.31,7.332"
         style="fill:#171f26;fill-opacity:1;fill-rule:nonzero;stroke:none"
         id="path416" /><path
         d="m 1845.27,50.6211 v 30.8984 c -3.8,6.1524 -12.3,11.4297 -21.09,11.4297 -14.2,0 -22.7,-11.2773 -22.7,-26.9492 0,-15.5312 8.5,-26.9492 22.7,-26.9492 8.79,0 17.29,5.4101 21.09,11.5703 z m -51.25,-38.5195 5.55,8.1992 c 5.86,-7.0313 12.89,-9.6719 23,-9.6719 11.72,0 22.7,5.7227 22.7,21.2422 v 10.1094 c -5.11,-7.1797 -13.77,-12.6016 -23.73,-12.6016 -18.45,0 -31.48,13.7695 -31.48,36.6211 0,22.6992 12.88,36.762 31.48,36.762 9.53,0 18.02,-4.6917 23.73,-12.4534 V 101 h 11 V 32.3008 c 0,-23.42189 -16.42,-30.75002 -33.7,-30.75002 -11.99,0 -20.22,2.34766 -28.55,10.55082"
         style="fill:#171f26;fill-opacity:1;fill-rule:nonzero;stroke:none"
         id="path418" /><path
         d="m 1922.32,30.2617 v 46.2891 c 0,12.4375 -6.29,16.3984 -15.82,16.3984 -8.64,0 -16.84,-5.2773 -20.92,-10.9883 V 30.2617 h -11.01 V 101 h 11.01 V 90.75 c 4.96,5.8594 14.64,12.012 25.18,12.012 14.79,0 22.55,-7.4729 22.55,-22.8401 V 30.2617 h -10.99"
         style="fill:#171f26;fill-opacity:1;fill-rule:nonzero;stroke:none"
         id="path420" /><path
         d="m 1982.24,93.6797 c -15.09,0 -22.57,-12.7383 -23.14,-23.5781 h 46.42 c -0.15,10.5468 -7.18,23.5781 -23.28,23.5781 z m -34.72,-27.9805 c 0,20.5117 14.64,37.0628 34.86,37.0628 21.39,0 33.98,-16.7034 33.98,-37.93 v -2.7929 h -57.26 c 0.86,-13.3282 10.24,-24.4493 25.47,-24.4493 8.08,0 16.26,3.2188 21.84,8.9297 l 5.27,-7.1914 C 2004.65,32.3008 1995.12,28.5 1983.56,28.5 c -20.96,0 -36.04,15.0898 -36.04,37.1992"
         style="fill:#171f26;fill-opacity:1;fill-rule:nonzero;stroke:none"
         id="path422" /><path
         d="m 2081.69,49.4492 v 32.0703 c -3.96,6.1524 -12.45,11.4297 -21.24,11.4297 -14.21,0 -22.71,-11.7187 -22.71,-27.3906 0,-15.6797 8.5,-27.2383 22.71,-27.2383 8.79,0 17.28,4.9688 21.24,11.1289 z m 0,-19.1875 V 40.8086 C 2076.43,33.6289 2067.77,28.5 2057.82,28.5 c -18.46,0 -31.5,14.0703 -31.5,37.0586 0,22.5625 12.9,37.2034 31.5,37.2034 9.52,0 18.17,-4.6917 23.87,-12.4534 v 37.6524 h 10.99 V 30.2617 h -10.99"
         style="fill:#171f26;fill-opacity:1;fill-rule:nonzero;stroke:none"
         id="path424" /><path
         d="m 2177.19,38.3203 c 14.35,0 22.85,11.5586 22.85,27.2383 0,15.6719 -8.5,27.3906 -22.85,27.3906 -8.63,0 -17.29,-5.2773 -21.1,-11.4297 V 49.4492 c 3.81,-6.1601 12.47,-11.1289 21.1,-11.1289 z m -32.08,-8.0586 v 97.6993 h 10.98 V 90.3086 c 5.74,7.7617 14.23,12.4534 23.89,12.4534 18.46,0 31.49,-14.6409 31.49,-37.2034 0,-22.9883 -13.03,-37.0586 -31.49,-37.0586 -9.96,0 -18.61,5.1289 -23.89,12.3086 V 30.2617 h -10.98"
         style="fill:#171f26;fill-opacity:1;fill-rule:nonzero;stroke:none"
         id="path426" /><path
         d="m 2223.49,12.5391 c 1.61,-0.7305 4.25,-1.168 6,-1.168 4.84,0 8.05,1.6094 10.54,7.4687 l 4.71,10.6915 L 2215.15,101 h 11.84 L 2250.58,43.0117 2274.02,101 h 12 l -35.44,-85.0898 c -4.25,-10.26176 -11.43,-14.21098 -20.8,-14.35942 -2.34,0 -6.01,0.44141 -8.06,1.03125 l 1.77,9.95707"
         style="fill:#171f26;fill-opacity:1;fill-rule:nonzero;stroke:none"
         id="path428" /></g></g></svg>
